<svg id="mif" version="1.1" xmlns="http://www.w3.org/2000/svg" xmlns:xlink="http://www.w3.org/1999/xlink" x="0px" y="0px"
     width="520.321px" height="556.77px" viewBox="0 0 520.321 556.77" enable-background="new 0 0 520.321 556.77"
     xml:space="preserve">
<g id="Hök_original">
    <g>
        <polygon points="155.753,45.353 169.28,45.353 169.28,39.646 165.792,39.646 165.792,24.851 175.515,45.353 185.448,24.851 
            185.448,39.646 182.489,39.646 182.489,45.353 194.853,45.353 194.853,39.603 192.528,39.603 192.528,13.906 194.748,13.906 
            194.748,7.93 186.515,7.93 175.832,30.452 165.18,7.944 155.753,7.944 155.753,13.756 159.558,13.756 159.558,39.651 
            155.753,39.651      "/>
        <polygon points="258.998,45.353 272.523,45.353 272.523,39.646 269.036,39.646 269.036,24.851 278.759,45.353 288.692,24.851 
            288.692,39.646 285.733,39.646 285.733,45.353 298.098,45.353 298.098,39.603 295.772,39.603 295.772,13.906 297.991,13.906 
            297.991,7.93 289.759,7.93 279.076,30.452 268.424,7.944 258.998,7.944 258.998,13.756 262.803,13.756 262.803,39.651 
            258.998,39.651      "/>
        <path d="M198.222,39.545h2.491l10.046-31.65h4.645l10.045,31.702h2.574V45.3h-12.619v-5.755h3.886l-0.898-2.826h-10.575
            l-0.894,2.878h3.836v5.754h-12.52L198.222,39.545z M209.562,31.167h6.926l-3.542-11.208L209.562,31.167z"/>
        <polygon points="231.39,45.391 255.606,45.391 255.606,30.903 249.261,30.903 249.261,39.627 240.908,39.627 240.908,13.87 
            244.08,13.87 244.08,7.941 231.443,7.941 231.443,13.85 234.509,13.85 234.509,39.634 231.39,39.634        "/>
        <g>
            <rect x="305.268" width="4.971" height="4.971"/>
            <rect x="314.722" width="4.972" height="4.971"/>
            <path d="M301.476,41.902V11.557l4.455-3.616h13.114l4.441,3.809v30.152l-4.43,3.421h-13.126L301.476,41.902z M316.583,13.861
                h-8.217v25.785h8.217V13.861z"/>
        </g>
    </g>
</g>
<g id="Sköld">
    <path fill="#FFFFFF" d="M439.668,194.979c-3.111-21.522,2.332-37.643,16.642-49.282l23.503-19.115l-136.54-84.016l-11.409,7.438
        c-19.545,12.742-61.05,18.545-91.343,18.545h-1.229c-30.292,0-71.798-5.803-91.343-18.545l-11.409-7.438l-1.888,1.162L0,126.582
        l23.502,19.115c14.31,11.639,19.753,27.759,16.641,49.282c-2.098,14.508-8.145,31.202-17.487,48.276
        C8.733,268.698,1.066,296.959,1.066,322.831c0,40.771,14.196,78.904,41.054,110.28c24.011,28.05,56.708,48.702,92.069,58.151
        c66.481,17.766,81.008,30.388,91.615,39.604l14.102,12.254l14.102-12.254c10.607-9.216,25.134-21.838,91.613-39.603
        c35.361-9.45,68.059-30.103,92.07-58.152c26.857-31.375,41.054-69.51,41.054-110.28c0-25.874-7.667-54.135-21.59-79.577
        C447.813,226.18,441.766,209.486,439.668,194.979z"/>
    <path d="M333.774,52.936c-20.144,13.132-62.461,19.113-93.254,19.113h-1.229c-30.793,0-73.11-5.981-93.254-19.113l-9.552-6.227
        L6.034,126.979l19.676,16.003c15.346,12.481,21.2,29.653,17.896,52.498c-2.157,14.917-8.34,32.019-17.881,49.456
        c-13.645,24.937-21.16,52.601-21.16,77.896c0,39.925,13.905,77.271,40.212,108.004c23.556,27.518,55.629,47.777,90.314,57.047
        c67.263,17.975,82.143,30.903,93.007,40.343l11.806,10.259l11.806-10.259c10.864-9.439,25.743-22.368,93.006-40.343
        c34.686-9.27,66.759-29.529,90.314-57.047c26.308-30.732,40.213-68.079,40.213-108.004c0-25.296-7.515-52.96-21.16-77.896
        c-9.54-17.436-15.724-34.537-17.881-49.455c-3.303-22.844,2.552-40.017,17.897-52.498l19.677-16.003l-130.452-80.27L333.774,52.936
        z"/>
    <path d="M411.579,183.504c0-21.479,7.279-39.431,21.671-53.613c-10.985-6.759-84.524-52.009-89.696-55.192
        c-26.538,15.484-71.558,21.07-103.033,21.07h-1.229c-31.476,0-76.495-5.586-103.033-21.07
        c-5.173,3.183-78.711,48.433-89.696,55.192c14.392,14.183,21.671,32.134,21.671,53.613c0,4.938-0.383,10.062-1.15,15.37
        c-2.229,15.415-7.668,31.859-16.153,48.981c17.507,0,360.444,0,377.952,0c-8.484-17.121-13.924-33.565-16.152-48.981
        C411.962,193.567,411.579,188.443,411.579,183.504z"/>
    <path fill="#ED1C24" d="M447.627,259.295H32.185c-7.034,14.81-15.338,37.75-15.338,63.536c0,36.955,12.885,71.541,37.262,100.019
        c21.958,25.65,51.844,44.533,84.155,53.168c70.005,18.707,86.122,32.712,97.891,42.938l3.751,3.26l3.751-3.26
        c11.769-10.226,27.886-24.23,97.891-42.938c32.311-8.635,62.197-27.518,84.155-53.168c24.377-28.478,37.262-63.063,37.262-100.019
        C462.965,297.045,454.661,274.104,447.627,259.295z"/>
    <path fill="#FFFFFF" d="M443.312,250.83c-16.25-29.696-37.463-84.434,3.04-117.376l6.253-5.085l-109.09-67.125l-3.035,1.979
        c-22.364,14.58-66.319,21.106-99.96,21.106h-1.229c-33.641,0-77.596-6.526-99.961-21.106l-3.035-1.979L27.207,128.369l6.252,5.085
        c40.502,32.941,19.29,87.679,3.04,117.376c-1.312,2.396-2.784,5.242-4.314,8.465h415.442
        C446.096,256.072,444.624,253.227,443.312,250.83z M50.93,247.855c8.484-17.122,13.924-33.566,16.153-48.981
        c0.767-5.308,1.15-10.432,1.15-15.37c0-21.479-7.279-39.431-21.671-53.613c10.985-6.759,84.523-52.009,89.696-55.192
        c26.539,15.484,71.558,21.07,103.033,21.07h1.229c31.476,0,76.495-5.586,103.033-21.07c5.172,3.183,78.711,48.433,89.696,55.192
        c-14.392,14.183-21.671,32.134-21.671,53.613c0,4.939,0.383,10.063,1.15,15.37c2.229,15.416,7.668,31.86,16.152,48.981
        C411.374,247.855,68.437,247.855,50.93,247.855z"/>
    <g>
        <path fill="none" d="M101.504,132.286c-0.006,0.002-5.222,0.49-5.222,0.49v25.688l4.406-1.727
            c4.887-2.278,5.542-8.195,5.542-13.686c0-1.268-0.125-7.71-2.581-9.986C103.025,132.488,102.304,132.227,101.504,132.286z"/>
        <path fill="#ED1C24" d="M386.964,161.574l-3.131-4.384c-4.279-5.867-7.66-10.5-7.611-17.359c0.025-3.334,0.898-5.907,2.393-7.058
            c0.781-0.6,1.703-0.787,2.672-0.538c3.836,0.979,6.486,7.694,7.123,17.97c0.469,0.15,7.41,2.393,8.344,2.693
            c0.008-1.097,0.25-35.794,0.256-36.613c-0.734,0.004-7.627,0.036-8.334,0.04c-0.018,0.756-0.207,11.655-0.207,11.655l0,0
            c-1.715-8.26-5.59-12.214-9.123-12.794c-1.902-0.311-3.961,0.371-5.799,1.925c-2.615,2.2-7.01,8.047-7.111,22.484
            c-0.115,15.968,5.604,23.865,11.133,31.5c5.105,7.056,9.932,13.72,9.932,26.058c-0.033,4.524-1.191,7.845-3.098,8.882
            c-0.922,0.5-1.939,0.426-2.945-0.216c-4.104-2.613-6.98-11.838-6.98-22.178c0-0.273,0.004-0.546,0.01-0.819
            c-0.385-0.208-5.551-3.022-6.553-3.567c-0.008,1.336-0.227,31.883-0.227,32.293c0.293,0.219,5.463,4.074,6.535,4.874
            c0.012-1.352,0.055-9.427,0.055-9.427l0,0c0.055,0.135,3.703,12.697,9.871,18.107c1.113,0.979,4.316,2.746,7.451,1.172
            c3.18-1.597,6.998-7.092,7.125-24.205C398.896,181.752,392.874,170.198,386.964,161.574z"/>
        <path fill="#ED1C24" d="M114.119,169.877c0-6.661-5.425-7.468-5.654-7.499l-1.116-0.15l0.94-0.619
            c5.603-3.684,6.7-10.21,6.7-20.24c0-15.317-4.438-25.214-11.304-25.214c0,0-21.959,0-22.769,0c0,0.783,0,17.655,0,18.543
            c0.798-0.102,5.845-0.736,5.845-0.736v74.811c0,0-3.263,2.56-3.554,2.789c0,0.38,0,17.298,0,19.129
            c4.997-5.234,10.601-10.256,16.706-14.937c0-0.376,0-14.596,0-15.964c-0.872,0.546-3.632,2.279-3.632,2.279v-29.609
            c0,0,3.478-1.395,3.502-1.402c0.108-0.038,2.683-0.875,4.418,0.375c0.97,0.7,1.462,1.889,1.474,3.529
            c0.171,0.787,0.231,5.297,0.231,11.028c0,8.686-0.134,20.082-0.203,25.543c3.822-2.674,7.886-5.301,12.126-7.809
            c0.001-0.432,0.013-12.605,0.014-13.815c-0.839,0.413-3.592,1.771-3.592,1.771L114.119,169.877z M100.688,156.737l-4.406,1.727
            v-25.688c0,0,5.216-0.488,5.222-0.49c0.8-0.06,1.521,0.202,2.146,0.779c2.457,2.276,2.581,8.718,2.581,9.986
            C106.23,148.542,105.575,154.459,100.688,156.737z"/>
        <path fill="#ED1C24" d="M120.958,130.372c0.766-0.074,5.205-0.51,5.205-0.51v56.105c0,0-4.347,1.979-4.791,2.18
            c0.001,0.494,0.005,12.277,0.006,13.515c9.834-5.451,20.486-10.229,31.688-14.198c0-0.554,0-21.229,0-22.23
            c-0.852,0.203-5.854,1.402-6.361,1.526c-0.042,0.58-0.839,11.604-0.839,11.604l-10.459,3.95v-21.646c0,0,8.356-1.985,8.956-2.127
            c0-0.603,0-10.816,0-11.705c-0.872,0.143-8.956,1.47-8.956,1.47v-19.158l10.774-0.733c0,0,0.648,10.068,0.701,10.896
            c0.743-0.104,5.578-0.776,6.184-0.861c0-0.696,0-21.562,0-22.359c-0.808,0-31.3,0-32.108,0
            C120.958,116.859,120.958,129.526,120.958,130.372z"/>
        <path fill="#ED1C24" d="M190.708,124.296c-3.194-5.832-7.271-8.209-14.068-8.209c0,0-19.223,0-20.03,0c0,0.752,0,10.713,0,11.516
            c0.719-0.047,4.278-0.281,4.278-0.281v46.3c0,0-3.771,1.217-4.278,1.38c0,0.553,0,10.261,0,11.271
            c7.367-2.486,14.934-4.647,22.603-6.424c11.914-2.91,16.143-19.873,16.143-33.517
            C195.356,137.332,193.792,129.918,190.708,124.296z M176.316,170.066h0.005l-0.005,0.002L176.316,170.066l-6.354,1.397v-44.599
            c0,0,5.936-0.143,5.938-0.143c2.146-0.09,4.025,0.625,5.587,2.123c3.307,3.17,5.056,9.71,5.056,18.907
            C186.543,160.794,182.91,168.72,176.316,170.066z"/>
        <polygon fill="#ED1C24" points="176.321,170.066 176.316,170.066 176.315,170.068         "/>
        <path fill="#ED1C24" d="M216.507,125.13c0.673,0,3.988,0,3.988,0v13.308l-11.534,0.463v-13.646c0,0,3.33-0.094,3.987-0.113
            c0-0.716,0-8.312,0-9.05c-0.783,0-17.22,0-18.006,0c0,0.74,0,8.724,0,9.472c0.702-0.008,4.625-0.053,4.625-0.053v40.63
            c0,0-4.013,0.591-4.625,0.682c0,0.644,0,9.104,0,9.959c5.988-0.979,12.039-1.752,18.006-2.295c0-0.67,0-8.912,0-9.711
            c-0.711,0.056-3.987,0.309-3.987,0.309V147.8l11.534-0.461v16.951c0,0-3.348,0.196-3.988,0.234c0,0.701,0,8.882,0,9.669
            c5.653-0.438,11.442-0.692,17.229-0.753c0-0.725,0-8.888,0-9.645c-0.677,0.013-3.849,0.079-3.849,0.079v-38.88
            c0,0,3.929,0,4.623,0c0-0.733,0-8.168,0-8.902c-0.783,0-17.219,0-18.004,0C216.507,116.828,216.507,124.395,216.507,125.13z"/>
        <path fill="#ED1C24" d="M263.931,125.314c0,0,3.395,0.135,4.086,0.161c0-0.765,0-8.6,0-9.337c-0.799,0-23.867,0-24.667,0
            c0,0.735,0,8.225,0,8.937c0.665,0.022,4.36,0.147,4.36,0.147l-7.157,38.781c0,0-2.537-0.114-3.196-0.146c0,0.774,0,8.828,0,9.554
            c5.297,0.02,10.674,0.205,16.006,0.549c0-0.779,0-8.95,0-9.65c-0.679-0.04-5.382-0.322-5.382-0.322l2.324-10.656h10.909
            l2.227,11.683c0,0-4.479-0.368-5.232-0.43c0,0.803,0,9.063,0,9.735c6.221,0.522,12.381,1.261,18.33,2.192c0-0.85,0-9.358,0-10.007
            c-0.578-0.083-3.389-0.483-3.389-0.483L263.931,125.314z M252.978,143.937c0.135-0.822,1.973-11.935,2.441-14.777
            c0.631,2.811,3.127,13.919,3.321,14.777C257.917,143.937,253.757,143.937,252.978,143.937z"/>
        <path fill="#ED1C24" d="M347.06,156.331l12.283-25.419c0,0,3.457,0.35,4.197,0.425c0-0.853,0-14.397,0-15.171
            c-0.775,0-14.994,0-15.77,0c0,0.771,0,13.119,0,13.827c0.633,0.056,4.152,0.367,4.152,0.367l-12.348,24.801v-25.927
            c0,0,3.379,0.311,4.102,0.377c0-0.835,0-12.68,0-13.445c-0.773,0-14.77,0-15.547,0c0,0.762,0,11.486,0,12.188
            c0.602,0.051,3.293,0.281,3.293,0.281v51.201c0,0-3.604-1.302-4.463-1.613c0,1.061,0,11.295,0,11.803
            c5.732,2.252,11.35,4.75,16.717,7.418c0-1.174,0-12.396,0-12.914c-0.459-0.186-4.102-1.642-4.102-1.642v-24.489l0,0l11.912,29.633
            c0,0-3.666-1.653-4.57-2.06c0,1.161,0,12.661,0,13.114c5.963,3.1,11.795,6.528,17.371,10.184c0-1.35,0-14.324,0-14.789
            c-0.385-0.205-3.117-1.656-3.117-1.656L347.06,156.331z"/>
        <path fill="#ED1C24" d="M310.644,127.185c0.629,0.029,3.621,0.173,3.621,0.173l-6.316,34.376l-0.459-2.161l-5.877-32.877
            c0,0,2.781,0.138,3.449,0.17c0-0.785,0-9.948,0-10.699c-0.764,0-11.857,0-12.623,0c0,0.748,0,9.362,0,10.076
            c0.625,0.03,3.469,0.171,3.469,0.171l-6.119,32.195l-0.441-2.217l-6.105-30.455c0,0,3.111,0.054,3.779,0.067
            c0-0.755,0-9.092,0-9.836c-0.777,0-14.623,0-15.396,0c0,0.741,0,8.669,0,9.379c0.619,0.027,3.309,0.147,3.309,0.147
            s10.537,51.845,10.65,52.381c0.479,0.1,5.73,1.198,6.443,1.348c0.164-0.804,6.133-30.542,6.133-30.542l0,0
            c0,0,5.986,33.081,6.078,33.581c0.451,0.132,6.703,1.977,7.498,2.214c0.154-0.919,9.615-56.754,9.615-56.754
            s2.557,0.155,3.223,0.195c0-0.802,0-11.191,0-11.949c-0.77,0-13.162,0-13.93,0C310.644,116.921,310.644,126.463,310.644,127.185z"
            />
    </g>
</g>
<g id="Lager_7">
    <path fill="#FFFFFF" d="M245.272,196.77c19.5-6.25,34.237-4.142,44.104-2.234c16.208,3.131,23.438,9.758,23.438,9.758l-0.137,1.528
        c0,0,7.082,1.517,10.798,3.064c4.478,1.866,11.726,5.864,16.091,8.511c4.365,2.647,12.531,8.52,12.531,8.52l0.725,3.947
        c0,0,3.852,1.453,18.449,10.906c19,12.305,33.012,34.005,33.012,34.005l-1.262,1.745c0,0,8.798,10.744,18,22
        c12.875,15.75,13.25,22,13.25,22s3.652,1.176,6.5,4.125c3.5,3.625,4.75,8.625,4.75,8.625s2.403,1.814,4.5,4.75
        c1.875,2.625,1.875,5.75,1.875,5.75s1.555-0.249,1.393-0.334c0,0,0.966,1.846,1.991,3.101c1.035,1.267,2.925,2.29,3.561,3.445
        c1.986,3.612,0.076,3.063,2.153,8.801c2.237,6.18,11.398,18.508,11.398,18.508l-24.908,66.712c0,0-58.188,23.35-71.564,18.514
        c-6.688-2.418-9.596-9.496-9.596-9.496c-3.204,2.494-14.648,5.072-14.648,5.072s-1.654,3.928-10.145,3.945
        c-5.636,0.012-16.927,1.512-24.314,3.557c-11.137,3.082-16.094,4.861-23.42,8.243s-24.322,10.773-24.968,12.434
        c-2.893,7.444-11.449,7.444-11.449,7.444l-37.045-0.042c0,0-7.239-1.508-10.054-6.435c0,0-11.708-6.341-18.197-9.35
        c-22.961-10.646-37.098-13.034-50.06-14.161s-15.217-4.509-15.217-4.509c-13.526-2.254-29.886-12.166-29.886-12.166
        c-2.693-1.627-6.143-4.898-6.527-5.267l-2.92-2.793c0,0,0.012-0.016,0.012-0.016c-0.885-0.209-1.77-0.419-1.77-0.419
        s0.032-3.853,0.032-3.905c-3.459-1.284-13.428-6.731-13.428-6.731l1.836-3.815c0.019-0.023,0.038-0.051,0.056-0.075
        c-2.768-1.51-8.747-6.441-8.747-6.441l2.137-3.85c0.168-0.16,0.336-0.327,0.505-0.492c-6.251-4.312-14.918-15.646-18.09-39.86
        l3.603-0.069c-1.682-4.737-3.81-10.112-4.32-18.178c-0.232-3.673-1.286-9.641,2.077-22.637l2.982,1.272
        c0.391-4.448,1.329-11.767,3.107-17.102c5.09-15.269,15.227-29.335,23.579-32.722l0.606-0.246c0,0,1.036-0.1,1.104-0.106
        c-0.586-2.524-1.679-7.231-1.679-7.231l24.667-29.541l0.581-0.372c0.633-0.407,15.685-10.02,30.883-15.513l1.034-0.375
        c0,0,2.043,0.273,2.753,0.367c1.203-3.721,3.61-11.17,3.61-11.17l36.225-16.206c0,0,5.23,1.066,8.578,1.749
        c0.599-2.479,1.854-7.674,1.854-7.674l11.696-2.867l11.316,6.631C212.909,201.724,236.791,199.488,245.272,196.77z"/>
    <path d="M453.667,492.251c0.006,0.051,0.014,0.103,0.02,0.153c0.001,0.004,0.002,0.006,0.002,0.008L453.667,492.251z"/>
    <path d="M335.366,243.183c0.043,0.044,0.083,0.097,0.126,0.142c0.009,0.011,0.02,0.018,0.027,0.027L335.366,243.183z"/>
    <path d="M225.103,204.865c0.013-0.014,0.038-0.034,0.053-0.049c0.022-0.022,0.046-0.053,0.068-0.074L225.103,204.865z"/>
    <path d="M381.518,299.207c0.048,0.051,0.08,0.111,0.127,0.163c0.031,0.04,0.074,0.07,0.104,0.11L381.518,299.207z"/>
    <path d="M399.707,331.443c-0.052-0.088-0.108-0.17-0.162-0.258c-0.052-0.067-0.09-0.116-0.09-0.116L399.707,331.443z"/>
    <path fill="#FFFFFF" d="M379.923,300.805c0.011,0.015,0.025,0.025,0.036,0.039l-0.082-0.098
        C379.894,300.765,379.905,300.786,379.923,300.805z"/>
    <path d="M230.66,227.105l-0.173-6.068l-2.196-0.212c-0.366-0.035-0.681-0.071-0.972-0.106c0.072,0.895,0.145,1.789,0.204,2.537
        c0.178,0.019,0.34,0.04,0.527,0.059c0.02,0.678,0.028,0.986,0.048,1.664c-0.12,0.019-0.265,0.041-0.423,0.066
        c0.069,0.261,0.327,1.238,0.643,2.43C229.404,227.303,230.66,227.105,230.66,227.105z"/>
    <path fill="#FFFFFF" d="M462.954,506.424c-0.229-2.842-0.774-5.794-1.302-8.65c-0.415-2.242-0.807-4.36-1.032-6.32l-0.009-0.082
        l-0.013-0.079c-5.011-30.896-11.334-54.067-19.332-70.842l-0.11-0.229c0,0-0.426-0.636-0.681-1.016
        c-0.114-0.447-0.242-0.947-0.242-0.947c-1.109-4.32-2.81-8.952-5.35-14.577l-4.676-9.767c0,0-1.812-3.691-1.954-3.984
        c-0.018-0.117-0.04-0.266-0.04-0.266c-0.013-0.089-0.614-3.662-0.614-3.662c-0.358-1.766-0.814-3.376-1.355-4.785
        c-1.325-3.451-3.32-6.1-5.886-7.944c-0.026-0.026-0.031-0.031-0.061-0.062c-0.346-0.453-0.814-1.07-0.814-1.07l-1.435-1.441
        l-0.048-0.016c0,0-0.272-0.214-0.545-0.428c-0.008-0.016-0.009-0.018-0.018-0.033c0.062-0.515,0.163-0.988,0.149-1.566
        c-0.058-2.357-0.873-5.198-3.468-8.069c-0.007-0.007-0.405-0.431-0.405-0.431s-0.252-0.281-0.443-0.492
        c-0.026-0.055-0.046-0.096-0.08-0.162c0.229-0.782,0.403-1.645,0.379-2.658c-0.027-1.121-0.269-2.371-0.854-3.721
        c0.002,0.004-1.412-2.558-1.412-2.558c-0.002-0.002-0.81-1.058-1.337-1.743c-0.068-0.277-0.359-1.469-0.359-1.469
        c-0.559-2.079-1.457-3.984-2.911-6.171l-0.083-0.119c0,0-1.156-1.591-1.351-1.856c-0.137-0.24-0.604-1.062-0.604-1.062
        s-0.424-0.604-0.578-0.824c-0.08-0.152-0.271-0.514-0.271-0.514l-0.698-1.268c-0.681-1.093-1.543-2.1-2.624-3.138
        c-0.118-0.152-0.718-0.927-0.942-1.216c0.054,0.088,0.11,0.17,0.162,0.258l-0.252-0.374c0,0,0.038,0.049,0.09,0.116
        c-1.543-2.532-3.544-4.449-5.923-5.776c-0.887-4.011-3.493-7.53-7.159-10.038c0.008-0.057,0.028-0.105,0.035-0.163
        c0.037-0.346,0.052-0.71,0.043-1.103c-0.029-1.189-0.289-2.658-0.809-4.688c-0.224-3.924-1.582-7.308-4.088-10.048
        c-1.22-1.578-2.728-2.906-4.371-4.103c0.424-0.954,0.698-1.99,0.812-3.107l0.31-2.992l-1.594-2.539
        c-2.603-4.152-7.926-9.756-14.575-12.51c-0.195-0.379-0.395-0.762-0.395-0.762l-0.737-1.465c0.002,0.003-0.479-0.904-0.479-0.904
        l-0.33-0.623l-1.328-1.09c-0.674-0.552-1.313-1.262-2.075-2.303l-1.594-2.325l-1.16-1.724c-2.325-3.353-5.469-7.112-11.029-9.785
        c-0.688-0.512-1.309-1.243-2.302-2.725c-0.001-0.002-0.722-1.094-0.722-1.094l-1.458-2.168c-1.03-1.464-2.056-2.712-3.126-3.828
        c-1.746-2.042-3.788-3.701-6.05-5.176c0.005-0.142,0.065-0.282,0.062-0.426c-0.054-2.219-1.134-4.414-3.014-6.308
        c-0.061-0.284-0.207-0.975-0.207-0.975l-2.279-1.901c-2.973-2.479-5.93-5.155-9.06-7.988c-3.151-2.854-6.411-5.803-9.812-8.652
        c-4.225-3.541-10.255-8.287-17.495-12.244c-2.019-1.623-4.259-1.098-6.575-2.082c-0.001,0,0,0,0,0
        c-2.336-1.312,0.592,2.574-2.141,1.761c-7.344-3.435-16.144-2.542-25.978-0.071c-0.001,0-0.087-0.119-0.087-0.119l-3.918,2.461
        c0,0-6.577-10.139-6.851-9.945c-10.757-12.797-21.495-24.751-32.75-36.438l-0.059-0.062l-19.834-15.7l1.572,4.203l10.312,27.569
        l0.75,0.765c0.003,0.004,7.503,7.591,7.503,7.591c7.133,7.181,12.836,15.669,19.462,22.063c-1.006,0.734-2.977,2.211-3.89,3.166
        c-0.904,0.885-1.878,2.046-2.619,3.139c-2.141,3.149-2.668,6.003-2.615,8.16c0.011,0.465,0.054,0.889,0.108,1.285l-0.003-0.033
        l0.032,0.27c-0.012-0.074-0.019-0.158-0.029-0.236l0.708,8.783l2.45,9.271l0.262,0.432c0.98,1.618,3.103,5.891,5.349,10.414
        l2.79,5.595c3.057,6.089,6.505,12.812,9.054,16.376c1.036,2.357,2.57,5.699,4.424,8.799c2.922,4.879,6.003,8.109,9.42,9.875
        l-0.12-0.064c0,0,3.27,1.852,4.689,2.656c1.081,2.648,3.508,8.13,5.087,10.069c1.312,1.61,2.712,3.091,4.067,4.522l0.652,0.691
        c2.78,2.949,3.904,4.506,4.149,5.749l0.124,0.632l0.341,0.546c0.492,0.789,4.874,7.788,7.014,10.417
        c2.565,3.148,5.095,5.584,7.905,7.654c0.062,0.082,0.186,0.267,0.398,0.798c0.383,0.956,0.678,2.071,0.989,3.255l0.225,0.846
        c0.453,1.673,1.137,4.193,2.428,6.69c1.337,2.585,5.981,6.532,7.374,7.68l2.813,2.323c0,0,0.835-1.103,1.488-1.965
        c0.805,3.573,1.688,7.496,1.688,7.496l0.146,0.322c1.365,3.028,3.718,4.233,4.49,4.628c0.046,0.023,1.565,0.765,2.355,1.149
        c1.545,1.416,3.086,2.933,3.946,3.881c-0.126,0.521-0.648,2.688-0.648,2.688l2.485,3.282c0.292,0.386,2.926,3.802,5.567,5.225
        l0.187,0.101l0.198,0.078c0.336,0.131,0.801,0.215,1.241,0.309c0.93,3.717,2.877,10.697,5.114,13.918
        c1.517,2.186,3.223,4.211,4.872,6.168c0,0,3.289,4.064,3.49,4.312c0.891,1.711,1.998,3.107,2.788,4.021
        c0.003,0.004,1.898,2.071,1.898,2.071l1.139,1.217c1.631,1.781,1.864,2.416,1.885,2.481l-0.022-0.13l0.135,0.775l0.491,0.918
        c0,0,4.775,6.77,5.176,7.34c0.22,0.523,2.768,6.604,2.768,6.604l0.254,0.373l1.259,1.835c0,0.004,1.488,3.022,1.488,3.022
        l0.299,0.635l1.148,2.379c1.424,2.764,4.499,4.791,6.276,5.791c0.527,1.164,1.344,2.967,1.344,2.967
        c2.729,6.04,5.551,12.285,8.829,18.654c0.002,0.004,4.273,8.291,4.273,8.291l23.263,36.762
        c10.396,16.239,19.553,28.82,28.819,39.593c2.989,3.34,7.765,7.692,15.219,7.534h-0.001l1.262-0.023l1.205-0.406
        c3.945-1.322,6.776-4.362,8.183-8.788c0-0.001,0.629-2.593,0.629-2.593l0.59-2.497c0,0,1.505-9.327,1.516-9.392
        c1.164-4.327,1.354-8.668,1.366-12.361l0.179-4.763c0.114-2.108,0.232-4.271,0.177-6.548
        C463.058,507.996,463.019,507.218,462.954,506.424z M379.959,300.844c-0.011-0.014-0.025-0.024-0.036-0.039
        c-0.018-0.019-0.029-0.04-0.046-0.059L379.959,300.844z"/>
    <path d="M462.954,506.424c-0.229-2.842-0.774-5.794-1.302-8.65c-0.415-2.242-0.807-4.36-1.032-6.32l-0.009-0.082l-0.013-0.079
        c-5.011-30.896-11.334-54.067-19.332-70.842l-0.11-0.229c0,0-0.426-0.636-0.681-1.016c-0.114-0.447-0.242-0.947-0.242-0.947
        c-1.109-4.32-2.81-8.952-5.35-14.577l-4.676-9.767c0,0-1.812-3.691-1.954-3.984c-0.018-0.117-0.04-0.266-0.04-0.266
        c-0.013-0.089-0.614-3.662-0.614-3.662c-0.358-1.766-0.814-3.376-1.355-4.785c-1.325-3.451-3.32-6.1-5.886-7.944
        c-0.026-0.026-0.031-0.031-0.061-0.062c-0.346-0.453-0.814-1.07-0.814-1.07l-1.435-1.441l-0.048-0.016c0,0-0.272-0.214-0.545-0.428
        c-0.008-0.016-0.009-0.018-0.018-0.033c0.062-0.515,0.163-0.988,0.149-1.566c-0.058-2.357-0.873-5.198-3.468-8.069
        c-0.007-0.007-0.405-0.431-0.405-0.431s-0.252-0.281-0.443-0.492c-0.026-0.055-0.046-0.096-0.08-0.162
        c0.229-0.782,0.403-1.645,0.379-2.658c-0.027-1.121-0.269-2.371-0.854-3.721c0.002,0.004-1.412-2.558-1.412-2.558
        c-0.002-0.002-0.81-1.058-1.337-1.743c-0.068-0.277-0.359-1.469-0.359-1.469c-0.559-2.079-1.457-3.984-2.911-6.171l-0.083-0.119
        c0,0-1.156-1.591-1.351-1.856c-0.137-0.24-0.604-1.062-0.604-1.062s-0.424-0.604-0.578-0.824c-0.08-0.152-0.271-0.514-0.271-0.514
        l-0.698-1.268c-0.681-1.093-1.543-2.1-2.624-3.138c-0.118-0.152-0.718-0.927-0.942-1.216c0.054,0.088,0.11,0.17,0.162,0.258
        l-0.252-0.374c0,0,0.038,0.049,0.09,0.116c-1.543-2.532-3.544-4.449-5.923-5.776c-0.887-4.011-3.493-7.53-7.159-10.038
        c0.008-0.057,0.028-0.105,0.035-0.163c0.037-0.346,0.052-0.71,0.043-1.103c-0.029-1.189-0.289-2.658-0.809-4.688
        c-0.224-3.924-1.582-7.308-4.088-10.048c-1.22-1.578-2.728-2.906-4.371-4.103c0.424-0.954,0.698-1.99,0.812-3.107l0.31-2.992
        l-1.594-2.539c-2.603-4.152-7.926-9.756-14.575-12.51c-0.195-0.379-0.395-0.762-0.395-0.762l-0.737-1.465
        c0.002,0.003-0.479-0.904-0.479-0.904l-0.33-0.623l-1.328-1.09c-0.674-0.552-1.313-1.262-2.075-2.303l-1.594-2.325l-1.16-1.724
        c-2.325-3.353-5.469-7.112-11.029-9.785c-0.688-0.512-1.309-1.243-2.302-2.725c-0.001-0.002-0.722-1.094-0.722-1.094l-1.458-2.168
        c-1.03-1.464-2.056-2.712-3.126-3.828c-1.746-2.042-4.657,0.958-6.92-0.516c0.006-0.143,0.936-4.942,0.932-5.086
        c-0.054-2.219-1.134-4.414-3.014-6.308c-0.061-0.284-0.207-0.975-0.207-0.975l-2.279-1.901c-2.973-2.479-5.93-5.155-9.06-7.988
        c-3.151-2.854-6.411-5.803-9.812-8.652c-4.225-3.541-10.255-8.287-17.495-12.244c-2.019-1.623-2.062,0.396-4.378-0.588
        c-0.001-0.001-4.171-0.72-4.171-0.72c-2.336-1.312-6.162,0.088-8.895-0.726c-8.95-0.428-7.416-0.83-17.25,1.641
        c-0.001,0-3.79,1.299-3.79,1.299l-6.889-8.903l0,0c-10.757-12.796-21.672-24.75-32.928-36.437l-0.059-0.062l-19.834-15.7
        l1.572,4.203l10.312,27.569l0.75,0.765c0.003,0.004,7.503,7.591,7.503,7.591c7.133,7.181,12.836,15.669,19.462,22.063
        c-1.006,0.734-2.977,2.211-3.89,3.166c-0.904,0.885-1.878,2.046-2.619,3.139c-2.141,3.149-2.668,6.003-2.615,8.16
        c0.011,0.465,0.054,0.889,0.108,1.285l-0.003-0.033l0.032,0.27c-0.012-0.074-0.019-0.158-0.029-0.236l0.708,8.783l2.45,9.271
        l0.262,0.432c0.98,1.618,3.103,5.891,5.349,10.414l2.79,5.595c3.057,6.089,6.505,12.812,9.054,16.376
        c1.036,2.357,2.57,5.699,4.424,8.799c2.922,4.879,6.003,8.109,9.42,9.875l-0.12-0.064c0,0,3.27,1.852,4.689,2.656
        c1.081,2.648,3.508,8.13,5.087,10.069c1.312,1.61,2.712,3.091,4.067,4.522l0.652,0.691c2.78,2.949,3.904,4.506,4.149,5.749
        l0.124,0.632l0.341,0.546c0.492,0.789,4.874,7.788,7.014,10.417c2.565,3.148,5.095,5.584,7.905,7.654
        c0.062,0.082,0.186,0.267,0.398,0.798c0.383,0.956,0.678,2.071,0.989,3.255l0.225,0.846c0.453,1.673,1.137,4.193,2.428,6.69
        c1.337,2.585,5.981,6.532,7.374,7.68l2.813,2.323c0,0,0.835-1.103,1.488-1.965c0.805,3.573,1.688,7.496,1.688,7.496l0.146,0.322
        c1.365,3.028,3.718,4.233,4.49,4.628c0.046,0.023,1.565,0.765,2.355,1.149c1.545,1.416,3.086,2.933,3.946,3.881
        c-0.126,0.521-0.648,2.688-0.648,2.688l2.485,3.282c0.292,0.386,2.926,3.802,5.567,5.225l0.187,0.101l0.198,0.078
        c0.336,0.131,0.801,0.215,1.241,0.309c0.93,3.717,2.877,10.697,5.114,13.918c1.517,2.186,3.223,4.211,4.872,6.168
        c0,0,3.289,4.064,3.49,4.312c0.891,1.711,1.998,3.107,2.788,4.021c0.003,0.004,1.898,2.071,1.898,2.071l1.139,1.217
        c1.631,1.781,1.864,2.416,1.885,2.481l-0.022-0.13l0.135,0.775l0.491,0.918c0,0,4.775,6.77,5.176,7.34
        c0.22,0.523,2.768,6.604,2.768,6.604l0.254,0.373l1.259,1.835c0,0.004,1.488,3.022,1.488,3.022l0.299,0.635l1.148,2.379
        c1.424,2.764,4.499,4.791,6.276,5.791c0.527,1.164,1.344,2.967,1.344,2.967c3.084,6.825,5.549,12.281,8.829,18.654
        c0.002,0.004,4.273,8.291,4.273,8.291l23.263,36.762c10.396,16.239,19.553,28.82,28.819,39.593
        c2.989,3.34,7.765,7.692,15.219,7.534h-0.001l1.262-0.023l1.205-0.406c3.945-1.322,6.776-4.362,8.183-8.788
        c0-0.001,0.629-2.593,0.629-2.593l0.59-2.497c0,0,1.505-9.327,1.516-9.392c1.164-4.327,1.354-8.668,1.366-12.361l0.179-4.763
        c0.114-2.108,0.232-4.271,0.177-6.548C463.058,507.996,463.019,507.218,462.954,506.424z M456.908,514.985
        c-0.002,0.021-0.188,5.027-0.188,5.027c-0.012,3.603-0.168,7.413-1.223,11.154l-0.02,0.068l-0.03,0.141c0,0-1.529,9.477-1.53,9.479
        c-0.003-0.002-1.041,4.335-1.041,4.335c-0.801,2.509-2.231,4.118-4.351,4.827l0.366-0.064c0,0-0.535,0.139-0.678,0.176
        c-0.158,0.003-0.363,0.007-0.363,0.007c-3.902,0.082-7.065-1.558-10.583-5.485c-9.053-10.524-18.045-22.885-28.28-38.877
        l-23.162-36.603c0,0,0.034,0.112,0.059,0.192c-0.272-0.625-1.156-2.342-4.152-8.155c-3.212-6.235-5.999-12.407-8.696-18.378
        c-0.001-0.002-2.054-4.532-2.054-4.532c-0.001-0.003-0.643-1.41-0.643-1.41l-2.041-0.071c-0.741-0.025-1.96-0.968-3.018-3.022
        c0-0.002-1.059-2.196-1.059-2.196c0.005,0.01-0.297-0.631-0.297-0.631s0.019,0.081,0.031,0.133
        c-0.145-0.362-0.539-1.162-1.646-3.406c-0.035-0.066-0.814-1.427-0.814-1.427l-0.048-0.085l-0.1-0.115c0,0-0.417-0.521-0.575-0.719
        c-0.071-0.175-0.179-0.438-0.179-0.438c-0.006-0.014-0.741-1.763-1.292-3.07c0.277-0.056,0.56-0.111,0.56-0.111l-0.026-1.191
        c-0.534-1.272-0.975-2.324-0.975-2.324l-0.19-0.244c0,0-1.445-2.048-2.797-3.965c-0.146-0.209-0.292-0.414-0.435-0.618
        c-0.61-0.864-1.157-1.64-1.5-2.126c-0.485,0.605-0.872,1.088-0.997,1.244c-0.011-0.119-0.037-0.396-0.037-0.396
        c-0.155-1.677-1.143-3.371-3.412-5.848c-0.009-0.01-1.195-1.279-1.195-1.279c0.008,0.008-1.752-1.909-1.752-1.909
        c-0.661-0.766-1.526-1.839-2.129-3.1c-0.002-0.005-0.128-0.268-0.128-0.268l-3.932-4.861c-1.588-1.886-3.196-3.794-4.548-5.742
        c-3.079-4.435-4.562-8.485-4.665-12.751c0-0.002-0.063-3.258-0.063-3.258l-3.128-0.115c-0.357-0.016-0.743-0.106-1.138-0.249
        c-1.382-0.782-2.116-1.61-2.366-1.935l0.113,0.176l-1.187-1.674c-0.012-0.017-0.456-0.604-0.789-1.043
        c0.157-0.654,0.497-2.06,0.497-2.06l-0.146-0.591c-0.395-1.603-1.014-2.646-1.886-3.811c-0.012-0.016-1.354-1.691-1.354-1.691
        l-2.242-1.375c-0.06-0.035-1.518-0.822-1.518-0.822c-0.056-0.028-2.815-1.373-2.815-1.373c-0.587-0.301-1.269-0.752-1.711-1.73
        c-0.015-0.032-0.587-1.16-0.587-1.16l-0.009,0.029c-0.044-0.121-0.092-0.213-0.14-0.313c-0.052-0.273-3.396-18.036-3.396-18.036
        s-4.714,6.227-5.793,7.65c-1.505-1.09-2.767-2.466-3.724-4.316c-0.996-1.93-1.557-3.993-1.967-5.502
        c0.003,0.007-0.215-0.812-0.215-0.812c-0.346-1.311-0.7-2.657-1.222-3.955c-0.493-1.233-1.044-2.137-1.734-2.843l-0.076-0.078
        l-0.166-0.143l-0.089-0.064c-2.536-1.816-4.809-4.003-7.153-6.879c-1.65-2.027-3.167-4.185-4.772-6.469
        c-0.001,0-1.011-1.431-1.36-1.926c-0.048-0.246-0.111-0.57-0.111-0.57c-0.563-2.861-2.428-5.268-5.672-8.707l-0.657-0.697
        c-1.279-1.352-2.601-2.748-3.775-4.19c-1.729-2.122-2.931-4.062-3.783-6.104c0,0-0.085-0.202-0.148-0.356
        c-0.02-0.165-0.043-0.387-0.043-0.39c-0.001-0.026-0.047-0.235-0.551-2.501c-0.023-0.09-0.278-0.936-0.278-0.936l-0.153-0.507
        l-6.598-3.41c-2.396-1.238-4.694-3.732-7.025-7.626c-1.756-2.936-3.246-6.219-4.214-8.435l-0.114-0.261l-0.17-0.229
        c-2.281-3.07-5.721-9.797-8.767-15.861l-2.778-5.573c-2.402-4.838-4.478-9.017-5.591-10.853l0.181,0.617l-0.329-0.863
        c0,0-0.049-0.08-0.097-0.158c-0.04-0.202-0.094-0.469-0.094-0.469s-0.583-2.605-0.955-4.268c0.278-0.045-1.371-11.695-1.371-11.695
        c-0.035-1.463,0.498-3.016,1.585-4.616c0.638-0.939,7.919-6.712,7.919-6.712l-3.775-5.557c-0.008-0.01-0.017-0.019-0.025-0.027
        c-6.212-7.059-28.196-29.341-28.275-29.551c-0.039-0.104-3.672-9.817-3.672-9.817s-4.666-12.471-4.741-12.671
        c4.296,3.4,12.549,9.934,12.66,10.021c1.403,1.457,18.194,18.183,32,35.559c0.273,0.289,4.117,4.912,4.117,4.912l5.129,7.473
        c0.018-0.018,1.924-3.822,2.138-4.037c0.287-0.072,3.573-1.896,3.573-1.896c10.83-2.721,22.882-1.561,31.458,3.258l-6.002-4.416
        l0.125,0.061l0.062,0.027c5.236,2.225,9.679,6.951,13.973,11.521c2.407,2.562,4.682,4.983,7.116,7.023
        c3.322,2.785,6.532,5.691,9.638,8.502c3.185,2.882,6.182,5.595,9.243,8.148c0.001,0,0.388,0.323,0.687,0.572
        c0.04,0.193,0.174,0.816,0.174,0.816l0.679,0.557c1.121,0.916,1.776,1.936,1.797,2.801l-0.068,0.501l0.06-0.152l-0.893,2.756
        l0.891,0.495l1.476,0.836c2.375,1.346,4.279,2.908,5.994,4.918c1.001,1.035,1.859,2.085,2.757,3.359l1.354,2.018
        c-0.004-0.007,0.744,1.125,0.744,1.125c1.265,1.889,2.367,3.281,3.96,4.396l0.094,0.066l0.197,0.113l0.104,0.048
        c4.519,2.073,7.013,5.056,9.034,7.972l1.096,1.629c0.006,0.008,1.724,2.512,1.724,2.512c1.095,1.498,2.056,2.547,3.135,3.431
        c0,0,0.223,0.183,0.394,0.323c0.107,0.203,0.245,0.463,0.245,0.463c-0.006-0.013,0.658,1.307,0.658,1.307
        c0.008,0.016,0.945,1.816,0.945,1.816c0.029,0.054,0.636,1.09,0.636,1.09l1.127,0.408c5.337,1.92,10.154,6.654,12.561,10.496
        c0.001,0,0.282,0.449,0.495,0.789c-0.042,0.404-0.098,0.939-0.098,0.939c-0.092,0.91-0.382,1.604-0.911,2.186l-2.851,3.132
        l3.695,2.051c1.981,1.096,3.637,2.509,4.926,4.2l0.035,0.047l0.079,0.094l0.044,0.047c1.723,1.838,2.593,4.082,2.664,6.867
        l0.008,0.287l0.074,0.28c0.156,0.604,0.637,2.455,0.662,3.516l-0.009,0.306c0-0.002-0.036,0.174-0.036,0.174l0.015-0.025
        c0,0,0.03-0.039,0.055-0.072c-0.108,0.158-0.358,0.562-1.245,1.998l-0.703,1.141l3.171,1.664c3.148,1.658,5.329,4.313,5.979,7.281
        c0.001,0,0.621,2.822,0.621,2.822l1.551,0.676c1.894,0.831,3.396,2.227,4.593,4.264l0.041,0.068l0.091,0.135l1.294,1.668
        l0.152,0.141c0.854,0.789,1.441,1.473,1.907,2.219c0.003,0.01,0.459,0.848,0.459,0.848c0.001,0,0.499,0.941,0.499,0.941
        l0.073,0.097l0.561,0.8c0,0.008,0.57,1.009,0.57,1.009l0.034,0.061l1.546,2.125c1.042,1.57,1.665,2.877,2.054,4.325
        c0,0.002,0.171,0.705,0.171,0.705c0.003,0.006,0.393,1.574,0.393,1.574s0.156,0.251,0.165,0.266c0,0.005,0.188,0.354,0.188,0.354
        l0.053,0.098l0.178,0.226c-0.01-0.013,1.175,1.528,1.332,1.733c0.077,0.139,0.838,1.504,0.923,1.658
        c0.22,0.512,0.342,1.006,0.353,1.464c0.011,0.455-0.078,0.88-0.272,1.298c0,0,0.033-0.014,0.035-0.014
        c-0.088,0.146-0.162,0.285-0.208,0.383c-0.001,0.001-0.51,1.094-0.51,1.094l1.643,3.295l1.099,1.227
        c0.022,0.025,0.334,0.355,0.334,0.355c0.536,0.594,1.85,2.048,1.901,4.165c0.01,0.405-0.026,0.836-0.124,1.288l0.316-0.598
        l-0.664,1.88l0.304,0.332l1.339,2.499c0,0,1.456,1.145,1.508,1.185c0.167,0.178,0.391,0.407,0.715,0.731
        c0.079,0.104,0.729,0.957,0.729,0.957c0.031,0.039,0.146,0.178,0.146,0.178c0.075,0.083,0.408,0.419,0.408,0.419l0.092,0.093
        l0.22,0.145c1.745,1.145,3.112,2.982,4.064,5.463c0.421,1.1,0.784,2.386,1.077,3.829c0,0.005,0.551,3.285,0.551,3.285
        c-0.005-0.025,0.155,1.054,0.155,1.054l0.028,0.192l2.371,4.836c-0.005-0.01,4.603,9.612,4.603,9.612
        c2.382,5.273,3.972,9.596,4.994,13.572l0.498,1.941c0,0,0.893,1.334,0.991,1.481c7.723,16.246,13.86,38.841,18.765,69.081
        c0.231,2.043,0.659,4.354,1.071,6.588c0.506,2.73,1.022,5.528,1.228,8.066l0.102,1.988
        C457.127,510.963,457.016,513.009,456.908,514.985z"/>
    <path fill="#ED1C24" d="M205.862,168.205c9.705,9.906,19.271,19.622,27.62,29.123c48.716,58.705,98.247,113.503,137.211,177.828
        c10.785,18.668,21.733,37.055,31.465,56.287c11.275,24.027,22.095,48.246,32.531,73.019c0.421,0.548,1.214,0.521,1.473,0.005
        l-0.159-1.965c-17.459-44.011-36.66-82.818-58.58-123.566c-0.676-1.289-0.893-2.645-1.986-3.768
        c-15.023-29.039-37.011-51.596-55.664-78.648c-35.991-46.197-71.494-93.379-113.765-137.253l-5.605-4.69L205.862,168.205z"/>
    <path fill="#ED1C24" d="M437.248,507.378c0.564-0.274,1.505-1.011,1.463-2.871l-0.003-0.142l-0.043-0.137
        c-2.741-8.719-5.995-16.558-9.44-24.857l-3.59-8.74c-8.651-19.256-22.453-48.941-27.454-58.132
        c1.435,0.431,3.672,1.101,3.672,1.101c2.988,0.85,5.811,1.65,8.497,2.959l0.07,0.034l0.075,0.023
        c3.142,0.962,6.261,2.397,9.278,3.786c4.271,1.965,8.683,3.959,13.175,4.633c7.516,15.906,13.513,38.037,18.319,67.674
        c0.234,2.059,0.654,4.316,1.062,6.498c0.497,2.668,1.013,5.426,1.221,8.002c0.052,0.65,0.083,1.295,0.099,1.936
        c0.051,2.055-0.064,4.057-0.175,6.007l-0.19,4.888c-0.01,3.334-0.152,6.878-1.114,10.219l-0.469,1.627c0,0,0.26-0.059,0.416-0.094
        c-0.399,2.126-1.509,8.026-1.509,8.026l0.029-0.116l-0.475,2.033c-0.399,2.028-0.833,4.104-2.575,4.78
        c-2.808,0.003-5.013-1.2-7.78-4.291c-17.177-19.969-31.587-43.881-45.523-67.006c0,0-6.639-10.972-7.347-12.143
        c2.646-2.855,2.676-6.474,2.671-9.7c-0.003-2.457-0.007-4.777,1.036-6.658l0.112-0.201l0.012-0.229
        c0.195-3.672,0.19-7.455,0.185-11.112c-0.008-5.764,0.035-11.664,0.836-17.131c10.537,19.147,18.462,37.176,26.801,56.205
        c4.519,10.31,9.191,20.973,14.411,32.069l0.096,0.204l0.173,0.143C434.249,507.471,435.976,507.996,437.248,507.378z"/>
    <path d="M373.487,400.654c1.196,5.115,2.986,9.975,0.987,15.156c1.756,2.795-3.466,8.815-1.822,12.126
        c1.181,3.629-1.764,4.678-0.096,7.876c3.66,7.983,7.072,15.909,11.312,24.144l0.746-3.298l-0.098,0.156
        c0.92-2.979,0.031-7.468,1.71-11.141c0.104-7.572,0.749-16.285,0.663-24.104c1.362-3.481-0.311-7.364,2.075-10.556l-13.093-23.164
        C375.639,392.148,376.538,396.408,373.487,400.654z"/>
    <path d="M520.143,497.516c0.009-0.083,0.012-0.166,0.02-0.25l-0.001-0.141L520.143,497.516z"/>
    <path d="M232.476,216.875c0.016-0.023,0.034-0.044,0.05-0.067c0.017-0.022,0.032-0.054,0.05-0.077L232.476,216.875z"/>
    <polygon points="435.804,332.974 435.805,332.975 435.81,332.979     "/>
    <path d="M517.904,497.277c0.004-0.035,0.005-0.07,0.008-0.107v-0.031L517.904,497.277z"/>
    <path d="M231.74,229.382l0.005,0.039c0.021,0.063,0.028,0.13,0.05,0.193L231.74,229.382z"/>
    <path fill="#FFFFFF" d="M519.431,484.725L519.431,484.725l-0.624-4.721c-0.321-2.802-0.655-5.697-1.438-8.766
        c-0.736-2.884-1.716-5.895-2.662-8.806l-1.787-5.679l-0.056-0.16c-9.309-24.734-18.709-48.408-31.332-66.193
        c-0.037-0.051-0.823-1.105-1.225-1.643c-0.062-0.139-0.127-0.282-0.127-0.282c-1.821-4.062-4.273-8.319-7.72-13.401l-6.26-8.801
        c0,0-2.086-2.871-2.15-2.961c-0.042-0.061-0.205-0.307-0.383-0.572c-0.879-2.718-1.905-5.564-3.476-8.22
        c-1.469-2.481-3.181-3.973-4.509-4.997l-1.509-1.097l-2.646-1.988l-0.389-0.188c0,0-0.839-0.286-0.952-0.324
        c-0.125-0.16-0.441-0.566-0.538-0.689c-3.192-2.325,0.078-1.117-3.072-3.553c0.029-0.312-2.591-2.583-2.598-2.896
        c-0.04-1.621-1.565-2.422-2.597-3.938l-0.873-1.646c-0.065-0.074-2.228-2.446-2.228-2.446c-0.068-0.072-2.085-3.45-2.085-3.45
        c-0.004-0.005-5.778-4.528-5.778-4.528l-0.291-2.562c-1.868-2.622-3.744-5.222-5.302-6.963c-3.612-4.033-5.102-6.784-5.102-6.784
        c-0.001-0.007-2.742-4.54-2.742-4.54c0.002,0.006-3.385-3.866-3.385-3.866s-3.361-3.194-3.368-3.208
        c-0.042-0.118-3.04-3.217-3.04-3.217l-3.745-5.174c-0.874-1.778-8.36-8.467-10.332-10.125c-1.246-1.048,3.891-1.041,1.617-2.039
        c0.401-1.193-3.803-5.576-9.631-12.104c-3.021-2.77-6.719-6.04-8.883-8.786c-4.079-5.173-6.897-8.108-12.248-10.038
        c-0.267-0.098-4.146-2.523-6.453-4.845c0.019,0.019-7.136-5.495-7.136-5.495c-0.891-0.895-2.835-3.248-3.943-4.096
        c-1.71-1.312-2.838-2.957-4.81-3.602c-0.426-2.992-4.142-3.502-7.108-5.021c-8.171-4.183-9.049-6.302-17.276-8.448
        c-11.437-2.984-9.171-3.77-17.577-7.609c-12.467-5.693-32.278-9.391-45.82-4.061l-1.916-0.588l-2.988,1.994
        c0,0-1.68-0.923-1.723-0.863c-13.854-9.83-27.46-18.812-41.511-27.38l-0.072-0.044l-27.22-11.885l2.541,3.637l19.488,27.89
        l1.144,0.683l9.146,5.414c8.572,5.047,16.674,9.821,24.146,14.83c-0.879,0.908-1.669,1.887-2.354,2.923
        c-0.741,1.029-1.506,2.35-2.054,3.562c-1.119,2.476-1.463,4.657-1.418,6.472c0.028,1.164,0.23,2.135,0.475,2.977
        c0.03,0.221,0.24,1.743,0.274,1.99c-0.006,0.147-0.034,0.299-0.03,0.444c0.03,1.26,0.385,2.353,0.689,3.118
        c-0.022,0.008-0.207,0.072-0.207,0.072l2.109,4.465c0.347,0.722,0.993,2.194,2.158,5.228l0.549,1.431l1.005,1.152
        c0.835,0.957,2.464,3.133,4.1,5.341l6.595,8.954c4.04,5.454,8.566,11.457,11.675,14.512c1.409,2.129,3.474,5.136,5.837,7.873
        c3.699,4.289,7.283,6.922,10.959,8.053c0,0,2.738,0.843,4.534,1.395c0.104,0.248,0.192,0.461,0.192,0.461l0.347,1.188l0.662,1.041
        c1.486,2.331,3.409,4.503,5.882,6.642c1.579,1.366,3.229,2.587,4.823,3.768l0.706,0.523c3.221,2.398,4.585,3.725,5.029,4.893
        c0.001,0.002,0.667,1.751,0.667,1.751l1.318,1.306l1.228,1.223c1.961,1.957,3.988,3.98,6.117,5.821
        c3.058,2.644,5.958,4.589,9.073,6.122c0.072,0.069,0.22,0.227,0.51,0.695c0.534,0.867,1.009,1.906,1.512,3.008l0.372,0.811
        c0.723,1.561,1.815,3.916,3.519,6.16c2.083,2.745,4.651,4.738,7.631,5.923l0.085,0.034l5.007,1.694c0,0,0.197-0.383,0.298-0.579
        c0.645,1.734,1.601,4.309,1.601,4.309l0.71,0.973c0.028,0.037,0.733,0.979,0.733,0.979l-0.099-0.141
        c1.861,2.752,4.395,3.521,5.227,3.774c0.07,0.02,3.017,0.849,3.017,0.849c-0.009-0.002,1.123,0.338,2.58,0.926
        c0.33,0.291,0.635,0.56,0.712,0.627c0.364,0.344,0.585,0.585,0.746,0.809c-0.053,0.79-0.223,3.348-0.223,3.348l3.007,2.799
        l1.361,1.332c0.921,0.843,2.536,2.018,5.019,2.83l0.211,0.069l0.217,0.042c0.275,0.053,0.548,0.039,0.823,0.069
        c1.288,4.536,3.797,8.752,7.788,12.784c1.879,1.898,3.915,3.621,5.839,5.223c0.002,0,0.413,0.342,0.413,0.342
        s3.512,3.055,3.743,3.256c1.167,1.529,2.495,2.705,3.429,3.464l2.198,1.685l1.339,1.007c1.8,1.379,2.181,1.952,2.243,2.06
        c0.129,0.482,1.231,4.598,1.231,4.598s6.123,3.239,7.966,6.276c0.682,1.065,1.203,1.88,1.203,1.88
        c0.001,0.001,0.714,1.136,0.714,1.136s0.895,0.789,1.143,1.007c0.157,0.189,0.629,0.759,0.629,0.759l1.99,2.73l0.343,0.487
        l1.588,2.223c2.112,2.789,4.667,4.369,7.225,4.678c0.734,1.081,1.749,2.576,1.749,2.576c3.704,5.459,7.532,11.105,11.833,16.793
        l5.536,7.32c0,0,2.688,2.233,3.065,2.547c1.791,2.066,18.137,20.904,26.085,29.566c12.968,14.132,24.101,24.881,35.036,33.826
        c3.513,2.76,8.956,6.195,16.277,4.701c0.002,0,1.235-0.253,1.235-0.253l1.107-0.608c3.656-2.007,5.924-5.497,6.559-10.092
        c0-0.004,0.185-2.732,0.185-2.732l0.111-1.902l0.021-0.365l-0.057-9.627c-0.008,0.084-0.011,0.167-0.02,0.25l0.019-0.391
        l0.001,0.141C520.604,492.75,520.046,488.398,519.431,484.725z M231.745,229.421l-0.005-0.039l0.055,0.232
        C231.773,229.551,231.766,229.484,231.745,229.421z M517.912,497.17c-0.003,0.037-0.004,0.072-0.008,0.107l0.008-0.139V497.17z"/>
    <path d="M519.431,484.725L519.431,484.725l-0.624-4.721c-0.321-2.802-0.655-5.697-1.438-8.766
        c-0.736-2.884-1.716-5.895-2.662-8.806l-1.787-5.679l-0.056-0.16c-9.309-24.734-18.709-48.408-31.332-66.193
        c-0.037-0.051-0.823-1.105-1.225-1.643c-0.062-0.139-0.127-0.282-0.127-0.282c-1.821-4.062-4.273-8.319-7.72-13.401l-6.26-8.801
        c0,0-2.086-2.871-2.15-2.961c-0.042-0.061-0.205-0.307-0.383-0.572c-0.879-2.718-1.905-5.564-3.476-8.22
        c-1.469-2.481-2.842-2.977-4.17-4.001l-2.125-1.625l-2.125-2.75l-2.875,0.75c0,0,0.113,0.038,0,0
        c-0.125-0.16,0.849-1.535,0.752-1.658c-0.299-4.814-2.874-7.346-6.024-9.782c0.029-0.311-1.974-4.648-2.103-4.935
        c-2.25-5-5.72-5.496-6.751-7.013c0-0.001-3.23-0.81-3.23-0.81c-0.065-0.074-0.179-1.787-0.179-1.787
        c-1.334-2.68-1.563-3.828-3.487-7.184c-2.405-4.195-5.647-7.309-9.145-11.926c-3.108-4.104-11.025-14.531-11.025-14.531
        c-4.433-4.75-6.455-8.248-9.453-10.292l1.863-2.135c-1.639-2.628-5.415-7.093-9.47-11.688
        c-9.369-10.619-14.585-14.985-32.519-26.683l-9.137-4.949l-0.129-3.324c-6.325-3.44-22.091-17.872-40.989-19.683l1.084-2.01
        c0,0-3.957-2.566-8.038-4.337c-15.461-6.706-37.738-8.889-53.701-1.429l0,0l0,0c0,0,0.043-0.06,0,0
        c-13.854-9.83-27.46-18.812-41.511-27.38l-0.072-0.044l-27.22-11.885l2.541,3.637l19.442,27.967l10.335,6.02
        c8.572,5.047,16.674,9.821,24.146,14.83c-0.879,0.908-1.669,1.887-2.354,2.923c-0.741,1.029-1.506,2.35-2.054,3.562
        c-1.119,2.476-1.463,4.657-1.418,6.472c0.028,1.164,0.23,2.135,0.475,2.977c0.03,0.221,0.24,1.743,0.274,1.99
        c-0.006,0.147-0.034,0.299-0.03,0.444c0.03,1.26,0.385,2.353,0.689,3.118c-0.022,0.008-0.207,0.072-0.207,0.072l2.109,4.465
        c0.347,0.722,0.993,2.194,2.158,5.228l0.549,1.431l1.005,1.152c0.835,0.957,2.464,3.133,4.1,5.341l6.595,8.954
        c4.04,5.454,8.566,11.457,11.675,14.512c1.409,2.129,3.474,5.136,5.837,7.873c3.699,4.289,7.283,6.922,10.959,8.053
        c0,0,2.738,0.843,4.534,1.395c0.104,0.248,0.192,0.461,0.192,0.461l0.347,1.188l0.662,1.041c1.486,2.331,3.409,4.503,5.882,6.642
        c1.579,1.366,3.229,2.587,4.823,3.768l0.706,0.523c3.221,2.398,4.585,3.725,5.029,4.893c0.001,0.002,0.667,1.751,0.667,1.751
        l1.318,1.306l1.228,1.223c1.961,1.957,3.988,3.98,6.117,5.821c3.058,2.644,5.958,4.589,9.073,6.122
        c0.072,0.069,0.22,0.227,0.51,0.695c0.534,0.867,1.009,1.906,1.512,3.008l0.372,0.811c0.723,1.561,1.815,3.916,3.519,6.16
        c2.083,2.745,4.651,4.738,7.631,5.923l0.085,0.034l5.007,1.694c0,0,0.197-0.383,0.298-0.579c0.645,1.734,1.601,4.309,1.601,4.309
        l0.71,0.973c0.028,0.037,0.733,0.979,0.733,0.979l-0.099-0.141c1.861,2.752,4.395,3.521,5.227,3.774
        c0.07,0.02,3.017,0.849,3.017,0.849c-0.009-0.002,1.123,0.338,2.58,0.926c0.33,0.291,0.635,0.56,0.712,0.627
        c0.364,0.344,0.585,0.585,0.746,0.809c-0.053,0.79-0.223,3.348-0.223,3.348l3.007,2.799l1.361,1.332
        c0.921,0.843,2.536,2.018,5.019,2.83l0.211,0.069l0.217,0.042c0.275,0.053,0.548,0.039,0.823,0.069
        c1.288,4.536,3.797,8.752,7.788,12.784c1.879,1.898,3.915,3.621,5.839,5.223c0.002,0,0.413,0.342,0.413,0.342
        s3.512,3.055,3.743,3.256c1.167,1.529,2.495,2.705,3.429,3.464l2.198,1.685l1.339,1.007c1.8,1.379,2.181,1.952,2.243,2.06
        c0.129,0.482,1.231,4.598,1.231,4.598s6.123,3.239,7.966,6.276c0.682,1.065,1.203,1.88,1.203,1.88
        c0.001,0.001,0.714,1.136,0.714,1.136s0.895,0.789,1.143,1.007c0.157,0.189,0.629,0.759,0.629,0.759l1.99,2.73l0.343,0.487
        l1.588,2.223c2.112,2.789,4.667,4.369,7.225,4.678c0.734,1.081,1.749,2.576,1.749,2.576c3.704,5.459,7.532,11.105,11.833,16.793
        l5.536,7.32c0,0,2.688,2.233,3.065,2.547c1.791,2.066,18.137,20.904,26.085,29.566c12.968,14.132,24.101,24.881,35.036,33.826
        c3.513,2.76,8.956,6.195,16.277,4.701c0.002,0,1.235-0.253,1.235-0.253l1.107-0.608c3.656-2.007,5.924-5.497,6.559-10.092
        c0-0.004,0.185-2.732,0.185-2.732l0.111-1.902l0.021-0.365l-0.057-9.627c-0.008,0.084-0.011,0.167-0.02,0.25l0.019-0.391
        l0.001,0.141C520.604,492.75,520.046,488.398,519.431,484.725z M231.745,229.421l-0.005-0.039l0.055,0.232
        C231.773,229.551,231.766,229.484,231.745,229.421z M441.851,340.117c6.172,5.205,3.101,6.823,3.101,6.823s0.84,1.075,1.054,1.347
        c0.098,0.346,0.725,2.569,0.725,2.569l1.186-0.308c0.482-0.125,0.848-0.087,1.07-0.033c0,0,0.068,0.023,0.131,0.045
        c0.352,0.264,2.322,1.748,2.322,1.748l1.345,0.979c1.054,0.812,2.271,1.879,3.32,3.65c1.43,2.417,2.394,5.161,3.223,7.767
        l0.054,0.169l0.76,1.137c0.024,0.036,2.223,3.062,2.223,3.062l6.167,8.669c3.287,4.846,5.612,8.875,7.317,12.679l0.341,0.762
        l1.489,1.993c12.276,17.298,21.548,40.662,30.741,65.092c0.001,0.007,1.771,5.637,1.771,5.637c0.924,2.839,1.879,5.774,2.576,8.51
        c0.704,2.756,1.019,5.49,1.322,8.135l0.661,4.981l-0.003-0.021c0.402,2.407,0.759,4.942,0.822,7.562
        c0.031,1.297-0.008,2.613-0.149,3.945l-0.007,0.07l0.058,9.836c-0.019,0.291-0.273,4.322-0.273,4.322
        c-0.427,3.093-1.819,5.306-4.138,6.579c0,0-0.296,0.162-0.479,0.263c-0.204,0.042-0.53,0.108-0.53,0.108
        c-4.215,0.859-7.905-0.258-12.339-3.739c-10.736-8.784-21.713-19.385-34.524-33.346c-8.328-9.075-26.006-29.478-26.183-29.683
        l-0.041-0.048c0,0-3.697-3.492-3.844-3.631c-0.123-0.16-5.631-7.443-5.631-7.443c-3.016-3.991-6.354-8.919-9.889-14.137
        l-3.721-5.48l-1.271,0.191c-1.364,0.201-3.095-0.885-4.624-2.904l-1.489-2.086l-0.346-0.492l-2.128-2.916
        c0-0.002-0.994-1.198-0.994-1.198l-0.047-0.033c0,0-0.622-0.548-0.822-0.725c-0.118-0.188-0.346-0.551-0.346-0.551
        s-0.19-0.259-0.756-1.124c0-0.016,0.013-0.023,0.012-0.038c-0.012-0.151-0.223-0.435-0.549-0.793
        c-0.006-0.009-0.01-0.015-0.015-0.022c0.001,0.004-0.001,0.002-0.001,0.006c-1.954-2.138-8.438-7.252-8.149-8.076
        c-0.193-0.72-0.406-1.513-0.406-1.513c-0.359-1.34-1.491-2.642-3.91-4.497l-1.398-1.051l-2.034-1.557
        c-0.87-0.707-1.98-1.678-2.867-2.928l-0.087-0.122l-4.182-3.64l-0.409-0.34c-1.834-1.525-3.771-3.163-5.501-4.912
        c-3.981-4.023-6.233-7.98-7.087-12.454l-0.372-1.953l-1.941,0.282c-0.519,0.074-1.065,0.055-1.623-0.046
        c-1.707-0.576-2.737-1.36-3.196-1.78l-1.338-1.31c0,0-0.826-0.77-1.354-1.262c0.048-0.721,0.16-2.403,0.16-2.403l-0.121-0.278
        c-0.575-1.321-1.249-2.106-2.217-3.015c-0.029-0.027-1.411-1.241-1.411-1.241l-0.185-0.079c-1.989-0.846-3.572-1.305-3.638-1.324
        c-0.008-0.002-2.955-0.83-2.955-0.83c-0.792-0.242-1.834-0.682-2.648-1.884c-0.036-0.05-0.741-0.99-0.741-0.99
        c0.007,0.009-0.188-0.259-0.312-0.429c-0.117-0.315-5.116-13.771-5.116-13.771s-2.712,5.259-3.354,6.503
        c-0.524-0.178-1.05-0.355-1.05-0.355c-2.135-0.851-3.967-2.284-5.541-4.358c-1.394-1.836-2.356-3.912-2.994-5.287l-0.359-0.785
        c-0.541-1.185-1.101-2.409-1.79-3.527c-0.607-0.986-1.198-1.666-1.859-2.139l-0.091-0.064l-0.1-0.048
        c-2.9-1.38-5.591-3.179-8.47-5.667c-2-1.73-3.879-3.604-5.868-5.59l-1.24-1.234c0-0.002-0.357-0.355-0.588-0.584
        c-0.11-0.289-0.301-0.789-0.301-0.789c-0.928-2.436-3.048-4.345-6.635-7.016c-0.001,0-0.715-0.528-0.715-0.528
        c-1.522-1.128-3.099-2.294-4.541-3.544c-2.148-1.857-3.731-3.636-4.981-5.599c0,0-0.183-0.287-0.3-0.47
        c-0.058-0.197-0.158-0.541-0.158-0.541l-0.918-2.248c0.001,0.003-0.157-0.314-0.157-0.314l-0.239-0.479l-6.574-2.021
        c-2.795-0.86-5.661-3.025-8.761-6.617c-2.282-2.645-4.323-5.646-5.66-7.674l-0.079-0.12l-0.105-0.1
        c-2.832-2.681-7.39-8.739-11.438-14.208l-6.599-8.959c-1.961-2.646-3.447-4.616-4.341-5.639c0,0-0.283-0.325-0.449-0.516
        c-0.092-0.238-0.248-0.647-0.248-0.647c-0.903-2.35-1.621-4.091-2.157-5.243c1.105-0.387,3.455-1.207,3.455-1.207l-0.758-3.791
        l-1.112,0.094c-2.097,0.179-3.124,0.123-3.611,0.055c-0.143-0.433-0.246-0.852-0.254-1.191c-0.003-0.123,0.004-0.238,0.021-0.34
        l0.033-0.19l-0.146-1.03c0.001,0.004-0.211-1.545-0.211-1.545l-0.017-0.119l-0.038-0.113c-0.228-0.668-0.35-1.366-0.367-2.094
        c-0.033-1.367,0.303-2.837,1.005-4.391c0.506-1.117,1.15-2.153,1.595-2.768c0.103-0.116,4.144-4.699,4.144-4.699l-3.765-2.715
        c-0.002-0.002-0.004-0.004-0.006-0.005c-7.694-5.187-15.986-10.069-24.767-15.239c0,0-9.544-5.651-9.814-5.813
        c-0.262-0.375-12.842-18.376-16.641-23.813c5.495,2.399,18.791,8.204,18.927,8.263c14.148,8.629,27.846,17.676,41.804,27.598
        c0.566,0.402,4.799,0.377,4.799,0.377s-0.021,0.031,0,0c0.031-0.014,22.85-4.652,37.386-1.04c4.201,1.044,8.289,1.992,13.699,4.501
        c0.384,0.178-4.755,4.371-4.412,4.621c0.336,0.247,6.971,0.265,7.385,0.305c6.981,0.656,12.856,2.864,16.528,4.496
        c6.523,2.9,15.806,7.884,21.862,13.633c0,0-5.886,2.254-8.95,4.75l0,0c0,0,7.928-2.678,14.764,1.342
        c27.304,16.049,33.97,23.861,45.686,37.65l-3.085,2.038c0,0,1.024-0.415,6.86,7.236c6.218,8.151,7.596,9.656,11.985,15.38
        c2.41,3.141,2.41,3.141,11.051,14.218c6.138,7.868,5.59,10.378,5.59,10.378l-3.475,1.085c0.276,0.452,7.395,1.286,7.703,1.735
        c3.308,4.818,5.459,4.779,6.699,7.75c1.202,2.882,1.66,4.643,1.66,4.643L441.851,340.117z M517.912,497.17
        c-0.003,0.037-0.004,0.072-0.008,0.107l0.008-0.139V497.17z"/>
    <path fill="#ED1C24" d="M204.699,188.152c12.398,7.414,23.453,14.699,33.698,21.617c61.627,44.226,116.891,92.347,166.064,148.705
        c13.757,16.453,27.626,32.596,40.438,49.789c15.142,21.641,29.863,43.552,44.302,66.076c0.506,0.467,1.283,0.295,1.45-0.258
        l-0.485-1.906c-24.585-40.215-50.014-74.987-78.443-111.186c-0.883-1.149-1.323-2.447-2.59-3.354
        c-19.671-25.903-43.82-47.794-66.733-71.091c-43.202-39.039-101.503-86.65-139.488-108.027l-7.265-2.999L204.699,188.152z"/>
    <path d="M239.411,221.775c-0.053,0.057-2.799,3.807-1.662,5.998c1.29,7.818-1.037,0.16,1.632,7.201
        c0.073,0.393,0.446,0.383,2.997,7.024c3.762,4.309,18.444,25.671,22.441,28.776c3.084,4.723,8.083,11.971,12.855,13.439
        c0.741-3.218,0.754-4.135,0.122-7.086c1.801-2.394-2.813-8.919,0.258-9.828c1.599,0.43,1.9,2.576,2.368,4.537
        c-0.694,1.904-0.108,3.571,0.332,5.297c1.316,5.157,5.868,9.814,7.3,14.719c4.659,7.317,14.406,9.988,17.228,17.396
        c4.643,4.605,8.899,9.183,14.735,11.845c5.898,3.51,10.611,14.75,10.611,14.75c0.337-0.651,1.094-0.564,1.155-1.221
        c0.149-1.609,0.345-3.656,1.318-5.229c-0.223-2.833-0.023-6.333,3.425-7.709c-0.048,3.805,2.229,7.315,2.723,11.342l0.049,1.256
        l4.527,12.182c0.62,0.852,0.703,0.932,0.826,1.113c0.257,0.379,0.326,0.27,3.554,1.207c0,0,2.871,0.821,5.637,2.205
        c-0.518,0.122,0.349,0.23,1.101,1.3c2.06,1.933,3.701,4.052,3.508,6.937c0.978,0.91,1.649,1.81,2.674,2.17
        c3.836,0.767,4.383-13.494,6.518-6.104c-0.457,2.129-1.98,7.326,0.198,8.996c0.782,10.282,10.432,15.403,16.601,21.403
        c2.151,3.634,9.565,6.114,11.058,11.684l1.413,0.405c1.449-2.979-0.14-5.566-0.636-8.389c1.05-1.973-1.016-6.125,1.776-6.117
        c2.63,0.701,0.421,3.429,0.341,5.207c0.32,3.005,0.893,8.559,1.882,12.452c0,0-0.481-1.208,4.62,6.927
        c2.155,1.678,6.932,9.621,6.522,8.123c0.807-1.121,0.588-3.67,0.563-6.363c-0.026-2.92,0.074-5.988-0.746-6.98
        c0.677-5.143,1.007-9.693-1.163-14.057c-1.291-3.535-2.781-6.922-0.803-10.732c-0.657-3.5-0.894-7.924-0.019-11.206
        c-10.326-11.342-20.642-23.079-31.241-34.189c-20.316-21.298-41.381-41.452-63.348-60.829c-6.664-5.877-13.416-11.661-20.263-17.35
        c-15.605-12.963-31.565-25.999-48.362-37.529C243.218,217.609,240.814,219.561,239.411,221.775z"/>
    <path d="M424.762,373.002c0,0-3.47-4.427-5.131-6.546c8.527,2.382,17.205,3.389,25.825,2.909l0.062-0.006
        c1.69-0.201,3.449-0.004,5.15,0.186c2.051,0.229,4.158,0.431,6.136-0.051c0.532,0.73,1.805,2.482,1.805,2.482
        c4.471,6.131,9.014,12.457,12.149,18.849c-1.972-0.246-4.022-0.645-6.205-1.134c0,0-5.785-1.161-5.822-1.169
        c-3.521-1.041-6.881-1.476-10.128-1.888c-2.883-0.365-5.864-0.744-9.05-1.551l-0.167-0.043c0,0-0.073,0.008-0.145,0.017
        c-0.016-0.005-0.898-0.226-0.898-0.226c-1.251-0.354-3.021-0.853-4.404-0.455C430.737,380.781,427.695,376.84,424.762,373.002z"/>
    <path fill="#ED1C24" d="M435.588,390.262c0.052,0.02,0.101,0.049,0.153,0.061l-0.015,0.023
        C435.665,390.33,435.641,390.285,435.588,390.262z M492.209,476.762c0.434-0.312,1.08-1.002,1.048-2.324
        c-0.006-0.232-0.033-0.487-0.086-0.763l-0.028-0.14l-0.064-0.127c-4.159-8.088-8.675-15.218-13.457-22.768l-5.018-7.986
        c-11.763-17.423-30.351-44.197-36.809-52.336c1.48,0.166,3.825,0.428,3.825,0.428c3.082,0.3,5.993,0.58,8.857,1.387l0.076,0.021
        l0.077,0.01c7.441,0.878,14.912,2.207,23.452,4.164c11.869,16.843,20.917,39.63,29.895,63.475c0,0.006,1.755,5.586,1.755,5.586
        c0.892,2.733,1.812,5.559,2.503,8.261c0.678,2.66,0.974,5.295,1.26,7.843l0.632,4.842c0.371,2.215,0.697,4.532,0.755,6.864
        c0.027,1.134-0.009,2.269-0.136,3.399l-0.189,1.707c0,0,0.246-0.105,0.396-0.17c-0.037,2.184-0.137,8.16-0.137,8.16l0.009-0.121
        l-0.125,2.088c-0.054,2.078-0.131,4.208-1.751,5.189c-2.762,0.506-5.13-0.29-8.367-2.835
        c-20.268-16.581-38.473-37.542-56.079-57.813c0,0-8.396-9.633-9.283-10.65c1.592-2.358,2.059-4.757,2.001-7.147
        c-0.038-1.562-0.274-3.12-0.507-4.657c-0.238-1.564-0.483-3.18-0.522-4.799c-0.004-0.164-0.006-0.328-0.005-0.492l-0.001-0.061
        l-0.006-0.059c-0.424-3.651-1.064-7.375-1.685-10.978c-0.973-5.659-1.974-11.479-2.108-16.992c-0.001-0.038,0.001-0.076,0-0.114
        c13.614,16.986,24.459,33.338,35.878,50.6c6.185,9.348,12.58,19.016,19.587,29.012l0.131,0.186l0.197,0.111
        C489.276,477.379,491.062,477.59,492.209,476.762z"/>
    <path d="M411.495,383.088c2.038,4.821,4.618,9.289,3.519,14.751c2.2,2.436-0.708,17.19,1.474,20.04
        c4.943,7.206,9.636,14.402,15.193,21.752l0.18-3.384l-0.068,0.174c0.405-3.101-1.225-7.361-0.188-11.28
        c-1.172-7.477-1.79-14.992-3.187-22.678c0.757-3.674-1.881-6.492-0.07-10.064l-16.507-21.26
        C412.332,375.416,413.788,378.359,411.495,383.088z"/>
</g>
<g id="Lager_6">
    <path d="M455.065,364.166c-0.606-1.682-1.529-4.771-4.418-7.245c-2.888-2.474-2.585-1.634-4.558-1.304
        c-1.972,0.33-2.35-1.287-2.99-4.382l-24.435-0.082c0.004-0.079,2.406-0.336,2.41-0.415l21.162-3.063
        c-0.523-1.602-1.238-2.705-2.66-4.06c-2.027-1.931-4.31-4.455-4.66-7.273c-0.351-2.82-2.377-1.838-5.624-7.415l-13.474-3.382
        c-0.001-0.002-0.001-0.004-0.002-0.006c-0.208-0.691-0.418-1.366-0.628-2.029l8.408-1.875c0.021-1.691-1.361-3.422-4.713-7.322
        c-7.612-8.858-12.074-15.354-14.114-17.849c0,0-4.838-5.229-8.697-11.368c-1.245-1.979-7.775-8.434-8.987-10.365
        c0,0-0.063,0.058-0.169,0.152c-0.006-0.008-0.011-0.016-0.017-0.023l2.272-1.589c-6.68-9.22-11.912-12.491-16.005-16.39
        c-3.691-3.516-20.972-15.467-27.071-18.568c-3.262-1.658-9.392-1.695-13.75-1.525l-0.955-2.355
        c3.488-4.045,5.592-4.839,5.592-4.839s-7.774-5.732-15.799-9.503c-4.035-1.896-10.546-3.704-15.765-4.497l-9.048-4.222
        l-5.596,0.913c2.237-2.082,4.157-3.326,4.157-3.326c-4.38-1.686-8.315-2.729-12.728-3.552l-0.184-0.367
        c-6.964-2.953-18.005-5.224-18.005-5.224s-1.437-0.538-8.975-1.437c-17.557-2.09-41.768,2.37-41.768,2.37l-4.291-2.786
        l-13.998,3.408l-2.225,9.214l-11.415-2.327l-33.077,14.798l-4.149,12.837l-5.385-0.718c-14.897,5.385-29.981,15.067-29.981,15.067
        l-22.788,27.291l2.333,10.052l-5.564,0.538c-6.641,2.693-16.154,15.436-21,29.975c-4.884,14.649-2.513,27.642-2.513,27.642
        c-1.974-0.897-5.042-4.305-5.042-4.305c-3.949,21.897,6.716,35.663,6.716,35.663c-0.48-0.052-4.952,0.453-4.952,0.453
        c5.385,29.795,18.714,35.137,18.714,35.137c0,0.538-1.63,3.902-1.63,3.902l7.553,5.79c-0.359,1.256-0.948,3.46-0.948,3.46
        l10.64,5.694l-0.028,3.472l5.054,1.195l-1.795,2.333c0,0,3.398,3.25,5.744,4.667c18.128,10.948,30.557,11.777,30.557,11.777
        s1.225,3.648,16.11,5.453c21.704,2.631,39.667,10.77,50.974,16.333s18.667,9.154,18.667,9.154s23.838,16.465,28.059,12.456
        s32.71-20.893,52.016-29.232c16.766-7.242,35.761-10.236,43.793-10.653c7.823-0.406,9.049-4.224,9.049-4.224
        c9.707-1.267,9.522-2.107,17.964-5.906s18.57-10.129,18.57-10.129c-4.432-2.532,5.276-5.698,5.276-5.698
        c-6.542-1.899,7.808-5.909,7.808-5.909c-6.331-4.854,3.166-6.753,3.166-6.753c-4.01-7.598-2.321-6.753,2.532-11.396
        c13.415-12.832,14.772-33.554,14.772-33.554l-4.01,0.422c1.888-3.938,3.262-7.674,4.251-11.146c1.92,0.562,5.257,1.388,8.586,1.491
        c5.094,0.16,11.05,0.863,15.304,1.326c4.254,0.461,2.799-1.2,7.887-1.324C455.665,365.566,455.672,365.848,455.065,364.166z"/>
    <path fill="#FFFFFF" d="M401.77,385.646c0,0,5.077-5.611,9.887-16.3s4.008-19.506,4.008-19.506s-0.534,2.672-3.74,7.215
        s-7.215,5.076-7.215,5.076c0.268-2.405,5.611-15.765,7.215-22.712s-2.138-17.102-4.543-22.98s-4.275-8.817-9.085-15.498
        c-4.81-6.68-6.413-7.214-11.223-5.878c-25.252,7.015-35.004,17.636-39.012,20.842s-26.988,23.782-26.988,23.782
        c37.676-43.554,61.458-45.158,61.725-45.96s3.474-9.353,2.138-12.825c-1.336-3.475-17.636-23.248-24.85-27.79
        s-19.773-8.817-19.773-8.817s-6.413-0.268-11.223,2.137c-4.81,2.405-14.696,12.292-21.644,19.773s-18.972,26.721-18.972,26.721
        c4.009-7.749,13.36-24.049,21.376-33.668s20.575-17.102,20.575-17.102s-5.077-11.757-6.146-12.291s-28.324-13.094-28.324-13.094
        s-5.344,0.803-7.481,1.069s-3.96,0.96-3.96,0.96s-2.372,1.529-9.053,7.941c-6.681,6.414-19.053,26.103-19.053,26.103
        c12.291-23.782,25.721-35.427,25.721-35.427l-4.344-8.93c-27.789-8.55-47.563-5.611-55.045-5.076
        c-6.153,0.439-20.575,4.275-21.644,5.611s-3.207,9.352-3.207,9.352s0,0,9.887,9.619s14.963,25.118,14.963,25.118
        c-8.284-18.437-24.048-31.263-25.385-32.599s-2.911-2.834-5.292-3.166c-3.089-0.43-8.068-1.109-9.404-0.576
        c-1.336,0.535-27.255,11.49-28.057,12.826s-4.275,12.826-4.275,12.826c24.85,12.024,39.814,45.959,39.814,45.959
        c-14.162-25.385-30.729-37.408-36.607-41.148c-5.878-3.741-10.154-5.611-13.627-4.275s-21.644,9.084-24.583,11.756
        s-21.109,24.316-21.109,24.316l3.474,12.826c37.943,14.162,51.304,47.295,51.304,47.295
        c-25.385-40.616-53.708-45.425-53.708-45.425c-0.461-0.046-0.914-0.073-1.359-0.086c-14.522-0.431-20.926,16.218-25.777,31.378
        c-5,15.625-0.313,26.649,0.78,30.267c1.11,3.675,2.836,6.322,2.836,6.322c-4.756-2.771-8.741-10.506-8.741-10.506
        c-1.25,17.583,12.25,33.917,12.25,33.917c-3.125,2.75-9.583-3.083-9.583-3.083s-0.263,1.608,2.158,7.877
        c4.16,10.771,9.488,15.427,13.109,17.6s4.49,2.752,4.997,5.287s-4.997,4.2-4.997,4.2c4.491,0.072,5.938,1.159,7.604,4.273
        c1.375,2.571-1.391,3.758-2.399,4.094c-0.001,0.005-0.002,0.012-0.004,0.017c0.655-0.065,2.476,0.069,7.329,1.756
        c6.88,2.391,3.259,5.069,3.259,5.069c3.187-0.435,6.808,1.594,7.098,3.187s-1.304,1.956-1.304,1.956s2.101,1.448,6.446,4.128
        c12.645,7.798,20.103,8.189,20.103,8.189c-1.68-7.524,9.28-12.028,18.913-10.435s27.543,9.343,35.221,12.24
        s19.845,9.415,19.845,9.415c-0.145-0.435-1.014-5.069-1.159-8.691s0.579-5.648,0.579-5.648l-0.072-0.942
        c-0.362-1.594-5.794-22.307-6.084-23.61c-0.092-0.414-0.275-1.438-0.48-2.639c-0.058-0.284-0.111-0.601-0.161-0.944
        c-0.405-2.396-0.833-5.045-0.833-5.045l-0.542-14.244l0.208,0.911c0,0,1.122-1.839,2.667-6.667s17.1-34.969,18.333-38
        s5-14.333,5-14.333s0.662,2.671,3-0.334s2.333,0.667,5-3s11.333-8.333,15.667-8.333s11.987,11.059,14,10.333s3,10,3,10l2.333-0.333
        c0,0,0.667,3.667,0.485,6.137s6.515,11.53,9.182,17.196s8.338,23.465,8.338,23.465l2.404,19.773l-8.159,28.929
        c0,0,0.945,0.196,1.479,5.273s-1.871,10.955-1.871,10.955s45.348-24.022,60.642-23.229c15.13,0.785,13.5,11.5,13.5,11.5
        c13.628-1.068,27.148-11.959,27.148-11.959c-0.783-0.174-3.492-1.162-1.89-3.032s6.681-2.405,6.681-2.405
        c-1.87-1.604-1.069-2.939,2.138-4.542s8.551-3.207,8.551-3.207c-3.474-2.673-3.207-3.474-1.069-5.611s4.81-2.138,4.81-2.138
        c-5.189-4.838-2.138-6.68,1.069-9.085s6.947-6.146,9.619-9.887c3.575-5.006,6.146-16.3,6.146-16.3s-3.474,2.138-5.076,2.673
        S401.77,385.646,401.77,385.646z"/>
    <path fill="#FFFFFF" d="M238.45,386.995c0.129-0.019,0.258-0.039,0.387-0.052C238.708,386.955,238.579,386.978,238.45,386.995z"/>
    <path fill="#FFFFFF" d="M239.656,386.898c-0.017,0-0.035,0.002-0.052,0.002c-0.017,0-0.033-0.002-0.049-0.002
        c0.017,0,0.033,0.002,0.05,0.002C239.622,386.9,239.639,386.898,239.656,386.898z"/>
    <path fill="#FFFFFF" d="M239.559,386.902c-0.02,0-0.04,0.003-0.06,0.003C239.52,386.905,239.54,386.903,239.559,386.902
        L239.559,386.902z"/>
    <polygon fill="#FFFFFF" points="239.651,386.903 239.656,386.898 239.651,386.903     "/>
    <path fill="#FFFFFF" d="M238.836,386.943c0.221-0.021,0.442-0.033,0.663-0.038C239.279,386.91,239.058,386.921,238.836,386.943z"/>
    <path fill="#FFFFFF" d="M238.136,387.04c0.104-0.019,0.209-0.03,0.313-0.045C238.345,387.011,238.241,387.021,238.136,387.04z"/>
    <path fill="#FFFFFF" d="M239.651,386.903l0.005-0.005c-0.017,0-0.034,0.002-0.051,0.002
        C239.62,386.9,239.635,386.902,239.651,386.903z"/>
    <polygon fill="#FFFFFF" points="239.555,386.898 239.559,386.902 239.56,386.902  "/>
    <path fill="#FFFFFF" d="M239.605,386.9c-0.017,0-0.034-0.002-0.05-0.002l0.005,0.004h0l0,0.001
        C239.575,386.902,239.59,386.9,239.605,386.9z"/>
    <path fill="#FFFFFF" d="M239.56,386.903c0.003,0.002,0.017,0.016,0.046,0.042c0.028-0.026,0.042-0.039,0.045-0.042
        c-0.016-0.001-0.031-0.003-0.046-0.003S239.575,386.902,239.56,386.903z"/>
    <path fill="#FFF200" d="M164.216,447.277c-23.477-7.514-27.233,2.191-21.076,2.645c6.109,0.449,19.094,3.045,27.493,5.65
        c15.062,4.924,26.867,10.91,37.688,17.095l0.582,0.296c0,0,0.475,1.234,0.618,1.745c0.16,0.569,0.653,2.102,0.539,2.033
        c-19.677-11.681-38.713-20.216-72.802-24.065c-4.133-0.467-3.789-3.26-2.711-5.117
        C136.235,444.441,141.522,438.043,164.216,447.277z"/>
    <path fill="#FFF200" d="M323.472,444.463c20.666-5.334,19.123,4.531,12.965,4.984c-6.109,0.449-19.094,3.045-27.492,5.652
        c-14.094,4.607-25.647,10.236-38.504,17.37l-1.257,3.84c21.354-12.245,40.699-20.6,73.138-24.106
        c2.863-0.311,3.642-2.635,2.981-5.059S341.472,438.463,323.472,444.463z"/>
    <path fill="#CBCCCE" d="M184.7,317.574c3.146,6.011,7.318,19.549,7.318,19.549s-8.789-18.627-16.404-29.264
        c-6.133-8.566-17.611-20.486-17.611-20.486s11.768,9.043,17.887,16.853C179.528,308.869,181.554,311.563,184.7,317.574z"/>
    <path fill="#CBCCCE" d="M80.082,393.092c5.636,6.219,9.522,9.91,16.324,14.77l3.108,1.555
        C91.742,403.586,89.993,394.84,80.082,393.092z"/>
    <path fill="#CBCCCE" d="M279.573,338.723c0,0,4.568-7.918,8.159-12.5c6.04-7.705,18.192-17.299,18.192-17.299
        s-11.672,11.525-17.384,20.213c-3.634,5.529-8.127,14.891-8.127,14.891L279.573,338.723z"/>
    <path fill="#CBCCCE" d="M100.939,280.651c0,0,18.514-21.509,20.42-22.87s16.881-8.168,21.509-9.529s8.168-2.451,8.168-2.451
        s-0.072-0.078-0.185-0.199c-4.531-2.616-8.023-3.767-10.944-2.643c-3.474,1.336-21.644,9.084-24.583,11.756
        s-21.109,24.316-21.109,24.316l3.474,12.826c29.544,11.027,44.181,33.552,49.214,42.985l1.945,3.968
        C148.848,338.811,136.334,299.166,100.939,280.651z"/>
    <path fill="#CBCCCE" d="M192.064,217.348c-2.855-0.379-8.068-1.109-9.404-0.576c-1.336,0.535-27.255,11.49-28.057,12.826
        s-4.275,12.826-4.275,12.826c22.287,10.784,36.613,39.175,39.333,44.92c6.361,13.051,10.111,21.426,10.111,21.426
        c-4.375-25-19.876-52.622-28.316-61.335s-12.796-12.796-12.796-12.796s0.272-1.361,7.079-4.901s19.875-8.712,19.875-8.712
        s4.084,0,8.168,0c1.916,0,4.246,0.898,6.185,1.854c-1.382-1.271-2.326-2.081-2.61-2.365
        C196.02,219.178,194.448,217.665,192.064,217.348z"/>
    <path fill="#CBCCCE" d="M220.189,237.26c-4.898-11.334-16.333-23.858-16.333-23.858c9.529-4.356,32.672-6.534,47.102-5.173
        c14.43,1.361,24.137,5.008,23.415,5.99c-1.601,2.176-7.785,11.546-12.538,19.801c-5.938,10.312-7.013,21.963-7.013,21.963
        c0.461-0.873,2.647-5.188,3.085-5.96c11.859-21.876,24.223-32.604,24.223-32.604l-4.344-8.93
        c-27.789-8.55-47.563-5.611-55.045-5.076c-6.153,0.439-20.575,4.275-21.644,5.611s-3.207,9.352-3.207,9.352
        s0.002,0.002,2.747,2.674c1.69,1.507,3.282,3.059,4.772,4.643c0.72,0.699,1.504,1.463,2.368,2.303
        c8.18,7.959,13.063,19.934,14.507,23.834c2.819,6.58,3.896,11.126,3.896,11.126S224.702,247.703,220.189,237.26z"/>
    <path fill="#CBCCCE" d="M295.065,221.025c2.723,1.088,25.048,11.979,25.865,13.34s-2.177,1.09-11.435,12.525
        s-19.604,36.483-29.678,64.255c0,0,3.388-8.332,9.35-19.319c-0.44,0.695-0.693,1.1-0.693,1.1
        c4.009-7.749,13.36-24.049,21.376-33.668s20.575-17.102,20.575-17.102s-5.077-11.757-6.146-12.291s-28.324-13.094-28.324-13.094
        s-5.344,0.803-7.481,1.069s-3.96,0.96-3.96,0.96s-0.538,0.35-1.799,1.384C285.87,220.154,292.969,220.187,295.065,221.025z"/>
    <path fill="#CBCCCE" d="M338.9,248.523c2.178,0.273,13.613,4.629,20.692,10.891c7.079,6.263,18.514,20.148,18.514,23.143
        c0,0-17.192,10.021-29.404,22.055c-12.847,12.658-23.847,26.325-37.847,46.991c0,0,8.047-9.714,11.466-13.031
        c-0.785,0.702-1.248,1.116-1.248,1.116c37.676-43.554,61.458-45.158,61.725-45.96s3.474-9.353,2.138-12.825
        c-1.336-3.475-17.636-23.248-24.85-27.79s-19.773-8.817-19.773-8.817s-6.413-0.268-11.223,2.137
        c-1.112,0.557-2.505,1.526-4.062,2.762C328.856,248.905,337.232,248.315,338.9,248.523z"/>
    <path d="M386.702,343.016l2.06,0.866l0,0c-1.801,1.154-2.419,2.354-2.818,2.755c1.064-0.177,4.082,0.177,5.329,1.008l0,0l0,0
        c-11.04,4.877-3.625,5.5-3.625,5.5s-3.562,3.231-7.75,6c-0.366,0.242,0.37-0.217,0,0c1.365-0.073,4-0.375,5.5-1.5l0,0
        c0,0-0.435,2.201-1.625,4c-0.997,1.504-2.375,2.625-4.375,3.875c0.326,0.078,1.068,0.418,1.388,0.57l2.714,0.783l-2.439,1.832
        c-1.404,1.08-2.962,1.844-4.478,2.484c-1.304,0.551-2.646,1.037-3.94,1.58c0.998-0.312,4.452,2.545,4.452,2.545
        s-1.731,1.141-1.895,1.365c0.423,0.168,0.99,0.923,3.726,1.561l0,0l0,0c-2.902,1.529-3.23,2.381-3.722,2.795
        c0.801-0.217,3.659-0.399,4.652-1.016l0,0l0,0l0,0c-0.5,1.917-2.12,4.076-2.602,4.494l-1.627,1.43
        c-0.281,0.24-0.575,0.484-0.842,0.756c-0.256,0.258-0.475,0.531-0.634,0.846l-0.266,0.814c-0.874,2.68-2.943,4.033-4.904,4.947
        c-0.247,0.117-0.499,0.227-0.818,0.404c3.984,0.559,5.484,0.059,5.484,0.059c0.393,0.84-2.998,3.207-3.309,3.877
        c-0.278,0.598-0.719,1.531-2.838,3.082c-7.229,5.291-17.979,10.541-34.557,13.131c-2.552,3.551-6.132,4-9.447,3.791l-3.287-0.372
        c-1.61-0.166-3.998-0.944-6.887,0.5c0,0-0.89-1.556-1.611-2.666c0,0-1.556,0.61-3.055,0.777s-3.499-1.221-5.665-2.276
        s-3.832-1.389-5.221-0.944s-2.166-0.222-3.499,0.389s-4.11,2.61-6.832,4.721c0,0-3.918,2.491-5.168,3.366s0,0,0.5-5
        s-0.625-18.625-1.625-21.625c0,0,0.507-2.594,1.875-5.123c1.156-2.137,7.96-12.782,9.549-16.119c0,0,0.195,4.893,1.69,9.162
        c1.952,5.576,7.261,10.205,18.761,3.33s25.019-23.939,34.75-40c11.917-19.667,30.75-37.25,36.875-38.625
        c0,0-14.5,14.75-19.125,21.5c-3.962,5.782-9.741,16.086-13.395,23.055c0,0,19.02-5.43,29.395-14.555s14.875-16.375,14.875-16.375
        C395.397,340.02,386.702,343.016,386.702,343.016z"/>
    <path d="M379.897,359.145c0.006,0,0.013-0.001,0.019-0.001C380.001,359.09,380.07,359.043,379.897,359.145z"/>
    <path fill="#FFF200" d="M304.29,392.365c0,0,3.399-0.263,6.666-1.584c0,0,0.158,4.586,4.403,6.647s8.612,3.032,16.253-0.606
        s14.43-11.588,15.41-23.803c0.746-9.295-0.811-12.319-0.811-12.319s3.476-5.333,3.84-5.454s3.393-0.754,3.393-0.754
        s7.035,16.131-0.728,31.656s-24.511,25.135-38.207,20.619C303.473,403.129,304.29,392.365,304.29,392.365z"/>
    <path fill="#FFFFFF" d="M333.521,375.33c0,0,5.074-5.172,6.334-6.894c0,0,2.48,6.206-0.114,10.232
        c-2.052,3.184-5.386,2.851-6.386,0.351C332.421,376.683,333.521,375.33,333.521,375.33z"/>
    <path fill="#CBCCCE" d="M381.831,415.529c-6.415,5.411-10.76,8.552-18.148,12.461l-3.287,1.126
        C368.875,424.375,371.774,415.939,381.831,415.529z"/>
    <path fill="#CBCCCE" d="M401.77,385.646c0,0,5.077-5.611,9.887-16.3s4.008-19.506,4.008-19.506s-0.534,2.672-3.74,7.215
        s-7.215,5.076-7.215,5.076c3.652-5.509,6.693-14.735,7.744-21.971c1.024-7.056-2.154-18.108-4.56-23.987s-2.753-7.986-7.562-14.668
        c-4.81-6.68-8.448-7.778-13.258-6.442c-0.748,0.208-1.48,0.419-2.202,0.634c7.096-0.629,15.008,6.719,21.419,26.665
        c3,9.333,3.207,14.022,2.063,20.243c-1.376,7.487-3.438,14.134-9.397,24.218l0,0c8.294-0.398,11.233-3.221,11.233-3.221
        s-3.231,7.793-6.667,13.667c-4.4,7.523-8.004,13.159-8.004,13.159s2.361-0.24,6.004-0.826c2.963-0.477,6-1.666,6-1.666
        s-3.001,8.666-7.667,12.333s-13.332,8.001-9.666,14.667c0,0-5.666,3.332-4,7.666c0,0-6.334,1.334-7.667,3.334s-1,3.666-1,3.666
        s-7,1.668-7,3.334s0.667,3,0.667,3s-12.334,8.333-20.334,9.333c0,0-0.416-7.958-11.333-9.5c-9.712-1.372-21,3.5-30,6.5
        s-22.667,8.667-29,12c0,0,1-4.001-1-9.667l5.833-20.666c0,0,4.5-2.668,6-3.834s3.167-3,3.667-3s2.167,0.334,3.167,0.167
        s4,0.499,5.5,1.833s4.666,1.833,5.833,1.5s0.833-0.166,0.833-0.166l1.667,2.333c0,0,3.001-1.666,5.167-1.333
        s8.352,1.771,14.166-0.167c4-1.333,4.167-4,4.167-4s11.167-1.333,20.333-5.167s14.334-7,16.167-9.666
        c1.271-1.848,1.833-3.167,1.833-3.167s3.667-3.501,4.167-5.167s0.5-2.5,0.5-2.5s-1.166-0.666,1.167-2.666s4.333-6.5,4.833-8.5
        l-1.5-1.334l-1.833-2.166l2.166-0.834c0,0-2-2.167-2.5-2.5c0,0,6-3.333,7.5-5.833s1.5-2.5,1.5-2.5s-1.832-0.499-2.666-0.833
        c0,0,3.167-3,3-9.167l2-1.833c0,0-2.666-1.333-0.5-2.5s4.5-2.167,4.5-2.167s-1.5-2.499-2.667-3.333s-1.167-0.834-1.167-0.834
        s8.667-13.667,5.167-27.833c0,0-9.391,13.585-20.333,21.333c-8.103,5.737-21.002,10.44-21.002,10.44s6.41-11.198,10.347-17.603
        c3.454-5.619,15.343-18.316,23.423-26.336c0,0-6.435-0.46-15.31,5.665c-9.261,6.392-19.641,16.267-27.268,28.115
        c-7.525,11.69-27.739,38.65-38.625,43.885c-12.96,6.231-14.419-6.803-14.419-6.803c5.265-13.758,13.934-32.824,22.847-48.723
        c0.286-0.511,1.688-2.764,3.771-5.884c-4.616,4.495-27.074,31.025-39.243,70.45l0.766,2.666c0,0,4.382-5.19,8.751-13.704
        c0.044,0.709,0.215,1.554,0.594,2.576c2.527,6.821,9.702,9.796,21.202,2.921s25.019-23.939,34.75-40
        c11.917-19.667,30.75-37.25,36.875-38.625c0,0-14.5,14.75-19.125,21.5c-3.962,5.782-9.741,16.086-13.395,23.055
        c0,0,19.02-5.43,29.395-14.555s14.875-16.375,14.875-16.375c-1,19.25-9.695,22.246-9.695,22.246l2.06,0.866
        c-1.801,1.154-2.419,2.354-2.818,2.755c1.064-0.177,4.082,0.177,5.329,1.008c-11.04,4.877-3.625,5.5-3.625,5.5s-3.562,3.231-7.75,6
        c0.173-0.102,0.104-0.055,0.019-0.001c1.37-0.075,3.987-0.379,5.481-1.499c0,0-0.435,2.201-1.625,4
        c-0.997,1.504-2.375,2.625-4.375,3.875c0.326,0.078,1.068,0.418,1.388,0.57l2.714,0.783l-2.439,1.832
        c-1.404,1.08-2.962,1.844-4.478,2.484c-1.304,0.551-2.646,1.037-3.94,1.58c0.998-0.312,4.452,2.545,4.452,2.545
        s-1.731,1.141-1.895,1.365c0.423,0.168,0.99,0.923,3.726,1.561c-2.902,1.529-3.23,2.381-3.722,2.795
        c0.801-0.217,3.659-0.399,4.652-1.016c-0.5,1.917-2.12,4.076-2.602,4.494l-1.627,1.43c-0.281,0.24-0.575,0.484-0.842,0.756
        c-0.256,0.258-0.475,0.531-0.634,0.846l-0.266,0.814c-0.874,2.68-2.943,4.033-4.904,4.947c-0.247,0.117-0.499,0.227-0.818,0.404
        c3.984,0.559,5.484,0.059,5.484,0.059c0.393,0.84-2.998,3.207-3.309,3.877c-0.278,0.598-0.719,1.531-2.838,3.082
        c-7.229,5.291-17.979,10.541-34.557,13.131c-2.552,3.551-6.132,4-9.447,3.791l-3.287-0.372c-1.61-0.166-3.998-0.944-6.887,0.5
        c0,0-0.89-1.556-1.611-2.666c0,0-1.556,0.61-3.055,0.777s-3.499-1.221-5.665-2.276s-3.832-1.389-5.221-0.944
        s-2.166-0.222-3.499,0.389s-4.11,2.61-6.832,4.721c0,0-3.918,2.491-5.168,3.366l-0.433,1.357l-0.521,2.6l-5.141,18.229
        c0,0,0.539,1.635,1.073,6.712s-1.871,10.955-1.871,10.955s45.344-23.935,60.642-23.229c15.039,0.694,13.5,11.5,13.5,11.5
        c13.628-1.068,27.148-11.959,27.148-11.959c-0.783-0.174-3.492-1.162-1.89-3.032s6.681-2.405,6.681-2.405
        c-1.87-1.604-1.069-2.939,2.138-4.542s8.551-3.207,8.551-3.207c-3.474-2.673-3.207-3.474-1.069-5.611s4.81-2.138,4.81-2.138
        c-5.189-4.838-2.138-6.68,1.069-9.085s6.947-6.146,9.619-9.887c3.575-5.006,6.146-16.3,6.146-16.3s-3.474,2.138-5.076,2.673
        S401.77,385.646,401.77,385.646z"/>
    <path fill="#CBCCCE" d="M201.907,452.099c-0.145-3.622,0.579-5.648,0.579-5.648l-0.072-0.942
        c-0.362-1.594-5.794-22.307-6.084-23.61c-0.092-0.414-0.788-25.07-0.788-25.07l0.476-2.228l1.189-4.936
        c-5.185-37.395-42.935-68.145-42.935-68.145c23.117,26.764,31.586,50.927,32.247,52.878c-0.518,1.143-1.527,2.812-3.497,5.122
        c-2.72,3.19-9.871,7.808-21.667-3.25c-19.573-18.349-21.25-26.358-38.167-48.667s-28.41-27.704-28.41-27.704
        c29.931,44.432,28.258,47.778,28.258,47.778s-7.316-2.476-20.349-12.441c-17.729-13.557-20.151-23.241-20.151-23.241
        s-2.689,6.206-3.104,12.904c-0.408,6.599,4.089,12.871,4.089,12.871l-2.5,2.167c2.5,1.333,5.833,3.875,5.833,3.875
        s-3.333,2.125-3.644,4.981c0,0,5.058,1.632,6.704,3.359c2.071,2.174,2.273,3.617,2.273,3.617l-4.792,0.125
        c0,0,0.512,1.997,1.5,4.25c1.262,2.877,4.125,5.875,4.125,5.875l-3.25,1.625c0,0,5.75,5.125,8.75,6.375c0,0-2.733,1.663-4.25,2.125
        l3.375,3.25l-4.75,1c2.112,6.426,7.645,9.482,7.645,9.482c0,3.16,2.789,4.276,2.789,4.276l-2.045,1.858
        c0,0,1.114,1.079,3.903,4.425s6.016,6.272,14.167,7.833c7.833,1.5,4.667,4.333,4.667,4.333s7.596,0.488,16.333,3.834
        s8.708,5.417,8.708,5.417l4.09,0.929c1.673-1.302,3.718-0.558,7.437-0.371s7.436-1.674,7.436-1.674s2.603,0.93,7.064-1.301
        s7.437-2.231,9.109-1.115s2.417,2.23,4.833,3.532s3.161,1.673,4.276,3.346s5.949,21.751,5.949,21.751
        c-0.929,3.16-0.118,8.484-0.118,8.484c-9.698-6.193-22.191-9.6-32.787-13.504s-19.116-6.543-26.831-5.661
        c-11.667,1.333-11.887,9.195-11.887,9.195c-9.037-1.431-19.934-9.197-19.934-9.197c1.21-3.618-6.327-7.143-6.327-7.143
        c0.646-4.44-8.64-5.599-8.64-5.599c0.372-5.02-2.975-6.321-2.975-6.321l0.93-0.93l-1.513-1.328c3.346-3.428-0.532-7.037-2.02-7.781
        s-5.367-3.744-8.738-6.878c-5.542-5.151-7.191-11.296-7.191-11.296s4.528,0.97,9.044-1.723c0,0-2.944-4.497-7.296-11.597
        c-4.146-6.763-5.345-12.758-5.345-12.758c3.141,3.854,9.391,4.104,9.391,4.104c-3.111-7.465-4.04-10.901-5.5-16.25
        c-2.186-8.009-2.698-19.797-0.25-28.5c3.403-12.099,8.25-19.25,13.654-23.672c4.292-3.512,9.518-4.953,9.518-4.953l-0.52-0.003
        c-13.402-0.372-22.138,11.864-26.652,27.128c-5.25,17.75,0.775,31.925,2,35.5c0.78,2.275,2.491,5.339,2.491,5.339
        c-4.447-2.276-8.741-10.506-8.741-10.506c-1.25,17.583,12.25,33.917,12.25,33.917c-3.125,2.75-9.583-3.083-9.583-3.083
        s-0.263,1.608,2.158,7.877c4.16,10.771,9.488,15.427,13.109,17.6s4.49,2.752,4.997,5.287s-4.997,4.2-4.997,4.2
        c4.491,0.072,5.938,1.159,7.604,4.273c1.375,2.571-1.391,3.758-2.399,4.094c-0.001,0.005-0.002,0.012-0.004,0.017
        c0.655-0.065,2.476,0.069,7.329,1.756c6.88,2.391,3.259,5.069,3.259,5.069c3.187-0.435,6.808,1.594,7.098,3.187
        s-1.304,1.956-1.304,1.956s2.101,1.448,6.446,4.128c12.645,7.798,20.103,8.189,20.103,8.189c0.185-7.832,9.28-12.028,18.913-10.435
        s27.543,9.343,35.221,12.24s19.845,9.415,19.845,9.415C202.921,460.355,202.052,455.721,201.907,452.099z"/>
    <path d="M195.644,398.098c-1.279-5.809-7.099-18.646-7.099-18.646c-0.472,2.386-2.673,5.629-6.46,7.521
        c-9.89,4.939-23.584-4.044-33.201-15.992c-11.472-14.253-24.162-38.589-33.201-49.54s-15.992-17.034-15.992-17.034
        s14.601,19.294,21.38,33.374s6.779,14.08,6.779,14.08s-21.802-3.891-44.695-32.562c0,0-1.189,6.804,0.586,11.48
        c1.334,3.516,5.446,8.158,5.446,8.158l-2.833,1.5c0,0,1.724,0.919,2.932,1.714c1.092,0.719,2.311,2.22,2.311,2.22
        c-3.242,0.732-5.242,3.399-5.242,3.399s3.283-0.072,7.167,5.333c1.331,1.853,1.975,4.834,1.975,4.834s0,0-2.142,0
        c-1.283,0-2.167,0.333-2.167,0.333c1.75,3.875,7.287,7.148,7.808,7.322l-3.972,1.971c0,0,4.998,4.207,10.23,5.33
        c0,0-0.982,2.627-6.607,3.627l3.826,2.283c0,0-0.701,3.217-5.326,3.342c0.5,2.625,7.76,5.697,7.76,5.697s-0.348,1.912,1.217,3.129
        s3.477,2.607,4.693,2.781c0,0-1.67,2.643-4.92,2.268c0,0,5.267,5.729,10.83,7.641s16.295,2.276,11.795,5.942
        c0,0,8.369,0.837,13.931,3.271s8.23,4.885,8.23,4.885l2.894,0.33c0,0,1.432-1.003,4.213-0.829s6.912,0.134,8.302-0.562
        s1.391-0.695,1.391-0.695s1.564,0.695,3.477-0.174s6.953-3.303,9.908-3.129s6.605,1.391,8.691,3.477s3.824,2.781,4.867,3.303
        s2.26,2.086,2.26,2.086S197.578,406.878,195.644,398.098z"/>
    <path fill="#FFFFFF" d="M146.38,376.164c0,0-1.766-1.804-2.766-2.791c-1-0.988-3.468-3.779-3.468-3.779s-0.443,2.028-0.42,3.861
        c0.018,1.419,0.377,4.82,1.782,6.675c1.188,1.566,2.866,2.192,4.058,0.805C146.621,379.705,146.893,378.371,146.38,376.164z"/>
    <path fill="#FFF200" d="M169.629,390.76c0,0,3.787,0.919,6.019,0.635c0,0,2.25,7.375-5.375,13.25s-21,4.125-30.75-4.375
        s-13.904-17.794-14.951-27.087c-1-8.875,2.855-17.382,4.48-19.382c0,0,2.207,3.668,5.223,8.191c0,0-3.085,10.61,1.998,21.402
        c4.122,8.751,10.627,15.036,21.627,15.536S169.629,390.76,169.629,390.76z"/>
    <path d="M241.272,327.52c-7.25,0-12.25,7-13.25,8l-1.75-3.5c0,0-3.25,5-4,6.5l-2.5-6.5c0,0-1,8.5-2.75,13.5s-4,12-7,17
        s-12.5,21.5-14.25,32s-2.75,14,0.75,28.25s5.75,22,6,23.5c0,0-1.5,3.25-0.25,9s1.75,7,3.25,9.25s2.5,6.25,3.5,8.75
        s1.75,6.75,2.5,8.25s2,5,5,6.5l1,0.5c0,0,3.25,13.75,5.25,22.75s4.25,22.5,7.5,30.75s6.5,12.5,9.25,14.75c0,0,4.5-3.5,6.25-8
        s4.5-11.25,6.75-22s6.25-28,7.25-31.75s1.5-6,1.5-6s2-0.5,3.5-2.5s3-4.75,4-8.5s1.25-6.5,3-9.5s4.5-8.5,5.25-15.25
        s-1.094-9.188-0.844-9.938s3.094-11.812,4.844-18.062s4.25-12,3.5-20.75s-6-24-9-30.75s-7.5-13.75-8.75-15.5s-1.75-4.5-1.5-6.75
        s-0.25-8.5-0.25-8.5l-2.853,4.309c0,0,0.103-3.559-1.147-6.559s-4-6.5-4-6.5l-0.75,3c0,0-3.013-4.454-7.25-7.75
        C246.772,327.77,241.272,327.52,241.272,327.52z"/>
    <path fill="#FFF200" d="M279.78,400.105c-1.023-5.883-5.046-19.077-7.97-26.145c-1.955-4.725-4.945-9.286-7.128-12.617
        c-1.122-1.712-2.008-3.063-2.367-3.871c-0.535-1.205-0.67-2.59-0.67-3.673c0-0.104,0.006-0.191,0.008-0.29
        c-0.889,1.037-2.881,3.361-2.881,3.361v-1.352c0-0.055-0.003-5.522-0.249-8.965c-0.163-2.284-0.873-3.739-1.3-4.445
        c-0.37,0.443-1.131,1.356-1.131,1.356l-0.383-0.306c-0.054-0.043-1.351-1.107-3.869-5.387c-2.24-3.809-6.109-6.24-10.35-6.505
        c-3.765-0.235-7.632,3.383-9.324,5.558c-1.749,2.249-4.667,5.174-4.791,5.297l-0.469,0.469c0,0-0.778-1.401-1.149-2.068
        c-0.702,1.186-4.095,6.91-4.095,6.91s-0.596-1.639-0.829-2.279c-0.312,1.062-0.814,2.701-1.588,5.023
        c-1.371,4.114-5.2,12.22-10.782,22.824c-5.312,10.095-7.58,15.908-9.706,24.883c-0.528,2.231-0.793,4.636-0.793,7.229
        c0,5.639,1.254,12.167,3.781,19.748c1.756,5.268,2.905,11.596,3.329,14.146c1.246-1.718,3.774-5.261,4.5-6.711
        c1.086-2.172,2.497-6.677,3.202-11.844c0.747-5.478,2.987-15.265,4.536-18.88c0.971-2.265,4.771-10.091,12.926-15.715
        c7.829-5.398,13.288-2.969,17.791-0.267c4.53,2.718,7.214,7.554,10.056,12.674l1.122,2.009c2.799,4.952,4.836,10.553,6.055,16.648
        c1.21,6.048,2.379,10.468,3.207,12.124c0.785,1.57,4.084,7.069,5.403,9.259c0.661-2.185,2.271-7.706,4.163-15.651
        c1.537-6.454,2.278-11.611,2.278-16.165C280.314,404.242,280.134,402.142,279.78,400.105z"/>
    <path fill="#FFFFFF" d="M255.906,476.047c1.75-11.5,4-19.75,1.25-47.75c-2.659-27.07-16.626-40.489-17.551-41.352
        c-0.925,0.862-14.892,14.281-17.551,41.352c-2.75,28-0.5,36.25,1.25,47.75s8.757,35.676,9.75,44.25
        c2.22,19.172,6.611,31.186,6.611,31.186s3.894-10.699,6.49-31.186C247.241,511.734,254.156,487.547,255.906,476.047z"/>
    <path fill="#CBCCCE" d="M223.305,476.047c-1.75-11.5-4-19.75-1.25-47.75c2.659-27.07,16.625-40.489,17.551-41.352
        c-0.029-0.026-0.043-0.04-0.046-0.042c-0.02,0-0.04,0.002-0.06,0.002c-0.221,0.005-0.442,0.017-0.663,0.038
        c-0.129,0.013-0.258,0.033-0.387,0.052c-0.104,0.015-0.209,0.026-0.313,0.045c-7.515,1.36-14.47,10.997-16.578,14.979
        c-2.25,4.25-5.002,15.945-7.284,30.67s-0.22,23.858,2.03,34.608s6.25,22.75,11.75,50.25s11.611,33.936,11.611,33.936
        s-4.391-12.014-6.611-31.186C232.062,511.723,225.055,487.547,223.305,476.047z"/>
    <path fill="#CBCCCE" d="M264.381,432.925c-2.281-14.725-5.331-23.942-7.581-28.192c-2.241-4.232-9.213-17.731-17.149-17.829h0h0
        c-0.003,0.003-0.017,0.016-0.045,0.042c0.925,0.862,14.892,14.281,17.551,41.352c2.75,28,0.5,36.25-1.25,47.75
        s-8.665,35.688-9.75,44.25c-2.597,20.486-6.49,31.186-6.49,31.186s5.457-6.547,10.957-34.047c5.5-27.5,10.034-39.389,12.284-50.139
        S266.662,447.649,264.381,432.925z"/>
    <path fill="#CBCCCE" d="M221.736,486.812c0,0-5.432-2.766-7.432-9.266s-5.558-13.583-6.5-15.5c-1.77-3.603-3.5-11.25-2-15.5
        s2.75-4.75,4-6.75s-0.447-0.026-0.15,9.001C210.322,469.046,221.736,486.812,221.736,486.812z"/>
    <path fill="#CBCCCE" d="M257.416,486.684c0,0,5.432-2.766,7.432-9.266s5.75-13.5,6.5-15.5s3.877-9.824,2-15.5
        c-0.954-2.885-1.445-3.939-2.612-5.989c-1.471-2.583-3.062-5.663-3.062-5.663c-1.168-2.393,2.234,5.48,1.919,14.506
        C268.925,468.408,257.416,486.684,257.416,486.684z"/>
    <path d="M259.647,392.395L259.647,392.395c0.24,0.863,0.584,2.055,1.72,4.752c1.127,2.677,3.396,6.842,3.396,6.842
        s1.705-2.157,2.471-6.354c0.531-2.911-0.062-6.271-1.586-8.489C263.489,386.005,258.325,384.055,259.647,392.395z"/>
    <path d="M218.804,392.395L218.804,392.395c-0.24,0.863-0.584,2.055-1.72,4.752c-1.127,2.677-3.396,6.842-3.396,6.842
        s-1.705-2.157-2.471-6.354c-0.531-2.911,0.062-6.271,1.586-8.489C214.962,386.005,220.126,384.055,218.804,392.395z"/>
</g>
</svg>