<svg version="1.1" id="modo" xmlns="http://www.w3.org/2000/svg" xmlns:xlink="http://www.w3.org/1999/xlink" x="0px" y="0px"
     width="202.995px" height="302.572px" viewBox="0 0 202.995 302.572" enable-background="new 0 0 202.995 302.572"
     xml:space="preserve">
<ellipse cx="136.938" cy="282.314" rx="5.175" ry="5.147"/>
<g>
    <path d="M182.232,88.279c4.99-11.837,6.285-24.105,4.493-36.764c-0.648,2.204-1.577,3.975-2.743,5.357
        c-0.324-2.484-1.059-4.86-2.183-7.084c-3.088,4.903-6.652,8.381-10.562,10.843c4.472-14.299,5.206-27.453,1.016-39.053
        c-0.41,2.397-1.231,4.817-2.462,7.236c-0.799-3.305-2.333-6.221-4.19-8.986c-2.203,5.875-5.119,9.526-8.402,12.161
        c2.052-11.232,1.923-20.93-1.447-28.36c-0.476,2.117-0.972,4.233-1.447,6.372c-1.016-3.607-2.7-6.934-5.055-10.001
        c-2.743,17.15-23.393,27.95-39.938,32.421c-15.4,4.169-34.149,8.122-45.144,17.085c1.792-5.508,3.002-10.735,6.437-15.94
        c-36.742,20.304-55.339,50.911-64.692,86.4c-8.294,31.471-7.668,61.582,0.669,89.986c0.367-1.534,0.821-3.11,1.728-4.903
        c0.475,2.03,1.491,3.866,2.765,5.638c0.216-4.212,0.864-8.208,2.16-11.858c2.095,30.067,13.306,53.524,33.286,70.61
        c0.043-2.959,0.281-5.854,1.167-8.532c1.015,1.857,2.333,3.456,3.888,4.773c-0.021-6.026,0.734-11.729,2.613-16.935
        c5.292,18.9,14.407,31.926,26.201,40.803c0.086-3.153,0.368-6.221,1.015-9.115c1.188,2.095,2.744,3.802,4.472,5.356
        c-0.476-7.452-0.216-14.645,1.75-21.275c10.325,18.446,23.436,31.018,39.182,38.059c-0.583-2.742-1.145-5.485-1.728-8.251
        c1.446,1.059,2.894,2.117,4.342,3.197c-0.195-15.833-0.39-31.645-0.584-47.477c1.556,6.934,1.9,14.256,1.016,21.988
        c1.512-1.49,2.938-2.98,3.909-4.471c0.367,2.527,0.454,4.968,0.281,7.235c18.728-20.455,30.586-46.569,33.869-79.747
        c2.311,6.091,4.622,12.16,6.934,18.23c19.245-24.3,27.863-51.537,22.442-82.599C208.692,115.841,202.666,95.817,182.232,88.279z
         M176.228,200.405c-3.089-7.604-7.106-13.587-11.729-18.469c0.497,17.043-3.306,31.645-8.921,46.332
        c-5.055,13.306-13.457,27.087-22.572,36.267c0.54-10.065-1.21-19.483-4.903-28.383c-6.178,16.633-8.121,36.548-5.811,59.746
        c-19.202-10.282-31.579-25.64-35.726-47.109c-5.378,9.504-8.424,20.347-9.158,32.529c-12.075-11.945-20.045-27.194-22.075-47.239
        c-5.378,7.668-9.202,16.092-10.714,25.683c-19.396-18.879-30.499-43.503-28.274-77.437c-3.607,5.206-6.437,10.93-8.899,16.913
        c-6.675-36.028-2.376-68.904,9.936-100.267c9.31-23.695,25.509-42.444,42.595-53.05c-2.268,4.493-3.413,9.202-3.737,14.083
        c12.895-14.083,30.37-18.49,48.233-22.724c17.366-4.104,37.648-12.593,45.187-28.642c3.932,10.865,2.354,23.587-2.98,37.541
        c7.431-4.039,13.738-9.634,18.468-17.539c4.256,14.494,1.642,28.08-5.681,41.04c8.058-1.987,15.401-5.4,21.168-12.01
        c1.404,11.21-1.188,22.227-7.106,33.048c17.799,2.139,30.219,18.9,18.188,38.448C197.72,151.049,192.622,178.179,176.228,200.405z"
        />
    <polygon fill="#FFFFFF" points="95.768,138.24 95.573,137.052 95.314,135.929 94.968,134.806 94.536,133.704 94.018,132.646 
        93.413,131.608 92.744,130.637 92.009,129.729 91.188,128.909 90.303,128.174 89.396,127.526 88.402,126.986 87.365,126.576 
        86.285,126.273 85.141,126.101 84.665,126.079 83.931,126.058 82.678,126.187 81.339,126.468 80,126.9 78.79,127.461 
        77.753,128.088 76.846,128.822 76.047,129.622 75.377,130.507 74.794,131.458 74.34,132.451 73.973,133.553 73.692,134.654 
        73.52,135.799 73.455,136.987 73.455,138.175 73.562,139.342 73.735,140.529 74.017,141.674 74.362,142.798 74.794,143.921 
        75.312,145.001 75.896,146.038 76.565,147.009 77.3,147.917 78.121,148.759 78.984,149.494 79.892,150.142 80.885,150.682 
        81.9,151.092 83.002,151.395 84.147,151.567 84.665,151.589 85.356,151.61 86.652,151.48 88.013,151.2 89.331,150.746 
        90.519,150.206 91.556,149.558 92.463,148.824 93.262,148.024 93.932,147.139 94.515,146.167 94.968,145.174 95.335,144.072 
        95.616,142.949 95.789,141.804 95.875,140.616 95.854,139.428     "/>
    <path fill="#FFFFFF" d="M173.527,90.72c5.919-10.821,8.511-21.837,7.106-33.048c-5.767,6.609-13.11,10.022-21.168,12.01
        c7.322-12.96,9.937-26.546,5.681-41.04c-4.729,7.905-11.037,13.5-18.468,17.539c5.335-13.954,6.912-26.676,2.98-37.541
        c-7.538,16.049-27.82,24.538-45.187,28.642c-17.863,4.234-35.338,8.64-48.233,22.724c0.324-4.882,1.469-9.591,3.737-14.083
        c-17.086,10.606-33.286,29.354-42.595,53.05C5.069,130.334,0.771,163.21,7.445,199.238c2.462-5.983,5.292-11.707,8.899-16.913
        c-2.225,33.934,8.878,58.558,28.274,77.437c1.512-9.591,5.335-18.015,10.714-25.683c2.03,20.045,10,35.294,22.075,47.239
        c0.734-12.183,3.78-23.025,9.158-32.529c4.147,21.47,16.524,36.827,35.726,47.109c-2.311-23.198-0.367-43.113,5.811-59.746
        c3.693,8.899,5.443,18.317,4.903,28.383c9.115-9.18,17.518-22.961,22.572-36.267c5.615-14.688,9.418-29.289,8.921-46.332
        c4.622,4.882,8.64,10.865,11.729,18.469c16.395-22.227,21.492-49.356,15.487-71.237C203.746,109.62,191.326,92.858,173.527,90.72z
         M174.392,97.567l0.907,0.302l0.886,0.345l0.843,0.389l0.842,0.432l0.777,0.475l0.756,0.518l0.735,0.562l0.69,0.583l0.67,0.605
        l0.627,0.669l0.604,0.669l0.562,0.713l0.518,0.734l0.497,0.756l0.886,1.599l0.756,1.685l0.605,1.75l0.259,0.885l0.433,2.009
        l0.259,1.965l0.087,0.972l0.021,0.95v0.95l-0.065,0.951l-0.108,0.929l-0.129,0.907l-0.195,0.885l-0.236,0.886l-0.281,0.864
        l-0.324,0.842l-0.367,0.842l-0.41,0.799l-0.476,0.778l-0.497,0.756l-0.561,0.734l-0.605,0.713l-0.647,0.669l-0.67,0.648
        l-0.734,0.626l-0.778,0.583l-0.82,0.562l-0.863,0.518l-0.887,0.497l-0.95,0.454l-0.972,0.432l-1.037,0.389l-1.059,0.346
        l-1.079,0.324l-3.219,0.842l-1.102,0.238l-1.08,0.173l-0.713,0.086l-0.346,0.043l-1.058,0.065l-1.016,0.043l-1.016-0.021
        l-0.972-0.086l-0.972-0.108l-0.95-0.173l-0.908-0.216l-0.907-0.259l-0.864-0.302l-0.842-0.367l-0.82-0.389l-0.8-0.454l-0.756-0.475
        l-0.734-0.54l-0.713-0.562l-0.67-0.605l-0.647-0.648l-0.604-0.691l-0.583-0.713l-0.562-0.756l-0.496-0.778l-0.497-0.821
        l-0.453-0.842l-0.8-1.793l-0.691-1.901l-0.518-1.857l-0.368-1.814l-0.216-1.814l-0.043-0.929v-0.907l0.043-0.907l0.087-0.907
        l0.129-0.886l0.173-0.885l0.195-0.886l0.259-0.864l0.324-0.864l0.346-0.842l0.389-0.821l0.453-0.799l0.476-0.799l0.54-0.756
        l0.604-0.756l0.627-0.713l0.69-0.691l0.713-0.648l0.777-0.648l0.843-0.583l0.864-0.562l0.929-0.54l0.95-0.497
        c1.102-0.497,2.203-0.95,3.348-1.296c1.404-0.41,2.83-0.799,4.256-1.145l1.145-0.216l1.123-0.173l0.54-0.064l0.562-0.065
        l1.08-0.065h1.059l1.037,0.065l1.015,0.086l0.994,0.151l0.972,0.216L174.392,97.567z M53.28,54.367
        c-0.669,4.449-0.648,9.072,0.086,13.91c2.655-4.375,6.125-8.063,10.131-11.223l0-0.009c0.066-0.053,0.136-0.101,0.202-0.153
        c0.43-0.335,0.863-0.667,1.305-0.99c1.507-1.143,3.045-2.248,4.649-3.284l0.166,0.11c8.743-5.153,19.119-8.474,29.339-10.867
        c4.684-1.097,9.734-2.486,14.785-4.137l0.033-0.119c1.217-0.368,2.434-0.761,3.651-1.165l0.042-0.196l0.096,0.152
        c0.764-0.255,1.528-0.534,2.293-0.806c11.564-4.311,22.33-9.981,27.722-16.691c1.08,13.716-2.851,24.624-8.532,34.56
        c9.698-3.499,18.209-9.353,25.315-18.015c-0.108,16.157-6.329,29.398-15.963,41.019c11.858-1.685,22.119-5.551,30.024-12.571
        c-2.16,11.297-7.322,21.146-15.228,29.679l-82.899,22.33l-0.001,0.004l-3.895,1.05l-0.166,0.44l-0.078-0.375l-4.113,1.109
        l-0.001-0.006l-61.126,16.465C17.792,101.001,30.924,73.786,53.28,54.367z M104.623,117.417l-0.863-3.154l0.863-0.237l13.824-3.715
        l1.297-0.281l1.273-0.237l1.231-0.173l1.21-0.13l1.079-0.086h0.087l1.123-0.021l1.103,0.021l1.079,0.065l1.037,0.108l1.016,0.173
        l0.972,0.216l0.95,0.28l0.907,0.303l0.864,0.367l0.842,0.41l0.821,0.454l0.777,0.497l0.734,0.541l0.691,0.583l0.67,0.605
        l0.604,0.669l0.604,0.691l0.54,0.734l0.519,0.756l0.476,0.777l0.432,0.821l0.41,0.864l0.713,1.771l0.583,1.858l0.281,1.188
        l0.216,1.167l0.151,1.166l0.087,1.124l0.021,1.102l-0.044,1.058l-0.13,1.059l-0.193,1.037l-0.238,0.994l-0.323,0.972l-0.367,0.95
        l-0.433,0.907l-0.496,0.886l-0.541,0.842l-0.604,0.821l-0.647,0.778l-0.691,0.756l-0.757,0.713l-0.777,0.691l-0.842,0.669
        l-0.864,0.627l-0.907,0.604l-0.95,0.562l-2.009,1.059l-2.139,0.972l-2.268,0.864l-2.376,0.756l-0.714,0.194l-11.015,2.981
        L104.623,117.417z M105.466,139.298l-0.021,0.951l-0.043,0.95l-0.108,0.929l-0.13,0.907l-0.194,0.886l-0.237,0.885l-0.108,0.368
        l-0.173,0.497l-0.323,0.864l-0.367,0.821l-0.41,0.799l-0.476,0.777l-0.497,0.756l-0.562,0.734l-0.604,0.713l-0.648,0.669
        l-0.67,0.626l-0.712,0.626l-0.778,0.583l-0.82,0.562l-0.864,0.519l-0.885,0.497l-0.951,0.453l-0.972,0.432l-1.037,0.39
        l-1.058,0.345l-1.102,0.324l-3.132,0.821l-1.102,0.237l-1.08,0.173l-0.734,0.087l-0.324,0.043l-1.059,0.086l-1.015,0.022
        l-1.015-0.022l-0.972-0.064l-0.972-0.13l-0.951-0.173l-0.907-0.216l-0.907-0.259l-0.864-0.303l-0.843-0.346l-0.82-0.41
        l-0.799-0.432l-0.778-0.497l-0.734-0.519l-0.691-0.583l-0.691-0.605l-0.648-0.626l-0.604-0.691l-0.583-0.691l-0.562-0.756
        l-0.519-0.777l-0.475-0.821l-0.476-0.842l-0.799-1.771l-0.713-1.9l-0.519-1.879l-0.194-0.886l-0.173-0.929l-0.216-1.814
        l-0.043-0.929v-0.907l0.043-0.907l0.086-0.907l0.129-0.885l0.173-0.886v-0.086l0.216-0.799l0.259-0.864l0.302-0.864l0.345-0.842
        l0.389-0.821l0.454-0.821l0.497-0.777l0.54-0.778l0.583-0.734l0.648-0.713l0.691-0.691l0.734-0.67l0.778-0.626l0.821-0.605
        l0.886-0.562l0.907-0.518l0.972-0.497c1.102-0.497,2.203-0.972,3.348-1.317c1.404-0.389,2.808-0.778,4.212-1.124l1.145-0.216
        l1.123-0.173l0.583-0.064l0.54-0.065l1.08-0.065h1.059l1.059,0.043l1.015,0.108l0.994,0.151l0.951,0.194l0.95,0.259l0.907,0.303
        l0.886,0.346l0.864,0.389l0.821,0.432l0.778,0.476l0.776,0.519l0.713,0.54l0.691,0.583l0.67,0.626l0.605,0.648l0.604,0.691
        l0.562,0.713l0.519,0.734l0.496,0.756l0.454,0.799l0.799,1.642l0.67,1.707l0.496,1.62l0.044,0.173l0.432,1.987l0.26,1.966
        l0.086,0.972L105.466,139.298z M8.849,189.41c-0.475-1.836-0.777-4.104-0.669-5.94l5.054-1.446
        C11.441,184.204,10.059,186.797,8.849,189.41z M10.966,139.298l9.958-2.678l18.619,21.384l5.335-27.864l10.022-2.7L64.231,162
        l0.454,1.62l-0.454,0.107l-8.661,2.333l-5.335-19.742l-3.975,22.27l-7.754,2.095L23.3,153.208l5.421,20.11l-7.992,2.16
        L10.966,139.298z M190.938,150.833c-0.756,16.135-6.178,29.052-14.04,40.241c-3.284-7.258-8.425-12.441-15.487-15.552
        c0.043,30.672-8.964,57.953-25.445,82.404c0.562-11.017-2.268-20.715-7.905-29.333c-8.985,18.036-12.42,38.211-9.698,60.718
        c-14.516-10.304-25.078-24.97-30.65-45.274c-7.452,9.115-12.463,18.857-13.046,29.701c-9.332-12.184-15.595-27.022-17.367-45.75
        c-6.89,6.308-11.944,13.847-14.364,23.242c-16.827-18.058-25.812-41.019-23.35-71.129l170.532-46.138
        c0.433,3.089,0.691,6.07,0.821,8.942V150.833z"/>
    <polygon fill="#FFFFFF" points="172.447,105.991 171.519,105.365 170.547,104.825 169.51,104.414 168.408,104.112 167.264,103.939 
        166.745,103.917 166.075,103.896 164.801,104.004 163.462,104.285 162.123,104.738 160.913,105.278 159.876,105.926 
        158.947,106.661 158.148,107.481 157.479,108.346 156.896,109.317 156.421,110.311 156.054,111.391 155.772,112.514 155.6,113.659 
        155.513,114.847 155.513,116.014 155.621,117.201 155.815,118.368 156.075,119.513 156.421,120.657 156.853,121.759 
        157.371,122.839 157.976,123.876 158.646,124.848 159.38,125.755 160.2,126.598 161.064,127.332 161.993,127.98 162.987,128.52 
        164.023,128.93 165.104,129.232 166.271,129.405 166.745,129.427 167.479,129.427 168.775,129.319 170.137,129.038 
        171.454,128.584 172.621,128.045 173.657,127.396 174.564,126.684 175.342,125.863 176.033,124.978 176.595,124.005 
        177.07,123.012 177.459,121.91 177.718,120.787 177.912,119.621 177.999,118.454 177.978,117.245 177.891,116.057 177.696,114.891 
        177.438,113.746 177.092,112.644 176.659,111.542 176.142,110.462 175.536,109.447 174.867,108.475 174.133,107.568 
        173.312,106.747     "/>
    <path fill="#FFFFFF" d="M122.509,141.264l1.792-0.626l0.237-0.108l1.427-0.583l1.533-0.756l1.36-0.778l1.231-0.864l1.059-0.907
        l0.907-0.95l0.756-1.016l0.605-1.08l0.259-0.562l0.194-0.562l0.173-0.604l0.15-0.626l0.087-0.648l0.065-0.67l0.021-0.691
        l-0.021-0.712l-0.065-0.756l-0.13-0.799l-0.15-0.799l-0.454-1.685l-0.562-1.512l-0.647-1.317l-0.735-1.124l-0.799-0.951
        l-0.864-0.799l-0.95-0.67l-1.016-0.54l-1.08-0.411l-1.166-0.302l-1.188-0.173l-0.042-0.021l-1.318-0.065l-1.36,0.021l-1.447,0.13
        l-1.469,0.237l-1.534,0.324l-2.656,0.713l6.394,23.652C121.559,141.545,122.033,141.394,122.509,141.264z"/>
    <path fill="#E92E2A" d="M99.699,47.822l-6.632-3.823l10.131-1.015l9.547-0.95l1.198-4.31c-5.051,1.65-10.102,3.04-14.785,4.137
        c-10.22,2.393-20.597,5.714-29.339,10.867l12.773,8.508L99.699,47.822z"/>
    <path fill="#E92E2A" d="M63.699,56.892c0.427-0.34,0.87-0.66,1.305-0.99C64.562,56.225,64.129,56.557,63.699,56.892z"/>
    <polygon fill="#E92E2A" points="101.534,69.12 103.198,62.921 106.2,51.646 109.289,55.706 110.023,54.108 103.198,49.615 
        102.896,49.421 96.373,69.487    "/>
    <path fill="#E92E2A" d="M123.999,38.643l0.929,2.16l19.461-1.469L130.717,52.38l6.156,13.543l-12.874,12.874l-2.398,2.397
        l2.398,6.739l3.392,9.504l-3.392-1.966l-12.485-7.257l-1.23,0.605l8.488,7.754l-15.573,1.102L87.02,98.798l-6.521,17.103
        l82.899-22.33c7.905-8.532,13.067-18.382,15.228-29.679c-7.905,7.02-18.166,10.887-30.024,12.571
        c9.634-11.621,15.854-24.861,15.963-41.019c-7.106,8.662-15.617,14.516-25.315,18.015c5.682-9.936,9.612-20.844,8.532-34.56
        c-5.392,6.709-16.157,12.38-27.722,16.691c0.759-0.27,1.519-0.526,2.277-0.815L123.999,38.643z"/>
    <polygon fill="#E92E2A" points="123.999,66.874 133.309,65.923 123.999,61.452 120.996,60.005 114.711,66.895 115.078,67.759   "/>
    <path fill="#E92E2A" d="M68.055,100.634l-38.038,2.959l34.604-29.29l-1.123-17.25c-4.005,3.16-7.476,6.848-10.131,11.223
        c-0.734-4.838-0.756-9.461-0.086-13.91c-22.356,19.418-35.489,46.634-42.163,80.222l61.126-16.465L68.055,100.634z"/>
    <path fill="#E92E2A" d="M8.849,189.41c1.209-2.613,2.592-5.206,4.385-7.387L8.18,183.47C8.072,185.306,8.374,187.574,8.849,189.41z
        "/>
    <path fill="#E92E2A" d="M73.174,198.18c0.022,0,0.043-0.021,0.086-0.021c0.439-0.173,0.844-0.442,1.219-0.774
        c0.219-1.141,0.313-2.273,0.293-3.222c-0.062-3.171-0.346-8.957-3.197-8.856c-1.062,1.147-1.722,2.803-2.29,5.163
        C68.379,194.378,70.128,199.26,73.174,198.18z"/>
    <path fill="#E92E2A" d="M19.584,180.101c-2.462,30.11,6.523,53.071,23.35,71.129c2.419-9.396,7.474-16.935,14.364-23.242
        c1.771,18.728,8.035,33.566,17.367,45.75c0.583-10.844,5.594-20.586,13.046-29.701c5.573,20.305,16.135,34.971,30.65,45.274
        c-2.722-22.507,0.713-42.682,9.698-60.718c5.638,8.618,8.468,18.316,7.905,29.333c16.481-24.451,25.488-51.732,25.445-82.404
        c7.062,3.11,12.203,8.294,15.487,15.552c7.862-11.188,13.284-24.105,14.04-40.241v-7.927c-0.13-2.873-0.389-5.854-0.821-8.942
        L19.584,180.101z M134.733,150.854c5.422-1.318,9.958-2.7,15.1-5.033c0.58,3.421-0.323,5.652-2.095,7.268
        c-0.556,1.023-1.357,1.896-2.392,2.634c0.567-0.248,1.132-0.498,1.656-0.765c0.043,2.549-0.237,5.832-2.139,7.215
        c-0.152,0.111-0.328,0.224-0.518,0.337c-0.375,0.727-0.904,1.366-1.643,1.909c-0.281,0.205-0.573,0.384-0.871,0.554
        c3.319-1.358,6.507-2.903,9.446-4.766c0.631,3.11,0.354,4.985-0.669,6.454c-0.336,2.175-1.55,3.646-3.586,5.059
        c-3.305,2.312-8.812,2.765-13.046,4.688c-0.346,0.15-0.691,0.323-1.016,0.496c-0.583-5.27-1.513-9.784-1.922-14.688
        c-0.192-2.553,0.03-5.12,1.218-7.297c0.41-1.406,1.067-2.739,1.913-3.935C134.367,150.941,134.561,150.897,134.733,150.854z
         M114.689,155.542l0.907,6.35c1.771-2.549,2.743-2.613,4.515-5.162c2.635-3.802,8.143-6.113,11.556-4.233
        c-0.71,0.91-1.495,1.792-2.307,2.664c0.207,0.029,0.414,0.06,0.622,0.101c-2.596,3.322-5.504,6.632-7.971,9.949
        c2.178,1.872,4.446,3.952,6.631,6.985c1.814,2.549,3.456,4.816,6.091,6.825c0.864,0.648,1.837,1.274,2.96,1.879
        c-0.886,0.39-1.88,0.584-2.96,0.648c-0.433,0.02-0.88,0.006-1.332-0.022c0.19,0.145,0.376,0.29,0.577,0.433
        c0.863,0.627,1.835,1.231,2.959,1.836c-0.886,0.324-1.901,0.497-2.959,0.54c-4.839,0.194-10.995-2.138-13.717-5.011
        c-0.881-0.928-1.757-1.888-2.632-2.834c0.094,3.288-1.278,9.362-5.878,11.906c-0.006-0.814-0.062-1.689-0.155-2.609
        c-0.926,1.208-1.985,2.212-3.042,2.76c-0.064-6.458-0.604-13.132-1.296-19.871c-0.131-1.28,0.066-2.736,0.58-4.138
        C107.716,161.208,109.913,157.03,114.689,155.542z M55.268,226.951l-0.098-0.39c-0.412,0.762-0.86,1.513-1.35,2.247l-3.974-16.049
        l-3.483,3.933l1.15,6.35c0.774,4.285-0.266,7.801-2.47,10.792c-0.735,2.076-1.972,3.932-3.708,5.559l-6.242-28.749
        c-0.13-0.562-0.194-1.123-0.238-1.663v-1.254c0.03-0.497,0.11-0.986,0.215-1.471c-0.954-4.237-0.201-9.693,5.812-12.31
        l2.959,12.312l4.216-3.921l-0.112-0.659c-0.391-2.244-0.032-4.467,1-6.665c0.351-3.118,1.908-6.323,5.566-8.735l4.558,23.285
        C60.279,215.741,59.782,222.609,55.268,226.951z M75.721,208.198c-1.277,1.363-2.766,2.422-4.491,3.006
        c-0.216,0.065-0.411,0.13-0.605,0.174c-5.313,1.317-10.562-3.564-10.692-13.522c-0.023-1.969,0.243-4.048,0.763-6.101
        c0.394-10.683,5.272-14.636,11.29-16.535c0.432-0.131,0.864-0.238,1.274-0.281c5.4-0.756,9.828,4.859,10.778,12.312
        C85.088,195.411,82.296,204.566,75.721,208.198z M85.356,184.939c0.029-1.496,0.176-2.941,0.417-4.33
        c0.086-8.888,4.82-15.929,11.548-17.141c0.8-0.151,1.643-0.151,2.484-0.021c2.656,0.41,5.228,2.246,5.573,5.659
        c-0.752-0.037-1.446-0.007-2.115,0.052c0.263,0.355,0.509,0.739,0.732,1.157c-1.404-0.064-2.765,0.13-4.039,0.562
        c-1.287,0.433-2.479,1.089-3.536,1.902c-1.056,1.543-1.602,3.476-1.626,5.657c-0.022,4.126,2.397,6.588,5.011,5.572
        c1.426-0.583,2.938-2.202,4.082-5.227c3.344,3.485,1.069,9.842-3.054,13.311c-0.271,0.379-0.561,0.747-0.877,1.097
        c-0.777,0.863-1.685,1.62-2.743,2.246C91.577,198.763,85.205,192.606,85.356,184.939z M178.862,143.532
        c-0.259,6.631-3.262,13.672-7.408,19.03c-2.142,2.752-4.58,5.331-7.173,7.821c-9.397,11.017-21.844,19.687-30.303,31.447h-0.022
        c-8.381,11.621-15.962,24.235-19.526,38.124c-3.262,12.744-3.758,26.46-0.28,39.485c-5.682-3.823-10.821-10.995-14.191-19.159
        c-0.779-1.901-1.464-3.857-2.037-5.837c-2.887-7.646-4.475-15.777-3.558-22.503c0.691-5.076,2.636-9.893,5.443-14.364
        c6.221-9.914,16.589-18.208,26.417-24.429c2.656-1.686,5.552-3.521,8.51-5.465c9.875-6.458,20.427-13.926,24.809-19.727
        c0.184-0.315,0.35-0.625,0.485-0.924c-4.104-2.225-7.798-7.668-8.315-12.7c-0.12-1.145,0.144-2.392,0.682-3.542
        c-0.141-3.357,3.231-8.765,8.044-6.978c-0.642,7.21-1.169,12.648,3.743,17.064c3.776-4.46,3.872-7.65,4.336-12.291
        c0.048-0.516,0.228-1.03,0.486-1.534c0.018-1.017,0.047-2.003,0.14-2.937c0.324-3.219,7.129-5.271,9.374-5.551
        c0.195,1.015,0.304,2.052,0.346,3.089V143.532z"/>
    <polygon fill="#FFFFFF" points="102.767,86.119 102.896,80.935 97.063,77.544 91.707,74.412 91.21,76.14 97.063,81.173     "/>
    <path fill="#FFFFFF" d="M30.017,103.594l38.038-2.959l4.189,17.49l0.001,0.006l4.113-1.109l-4.242-20.448l-30.78,2.225
        l27.842-22.292l-2.462-21.665l14.882,12.55l15.465-12.528l2.16-1.75l-2.16,6.242l-4.752,13.716l4.752-0.605l8.165-1.015
        l2.096-13.91l6.026,13.543l2.829-0.367l14.17-1.836L117.908,80.33l4.319,10.951l-6.048-3.326l-5.789-3.197l-4.665,3.694
        l6.026,5.551l-14.688,0.994l-12.506,0.842l-7.956,21.117l3.895-1.05l0.001-0.004l6.521-17.103l16.179-1.124l15.573-1.102
        l-8.488-7.754l1.23-0.605l12.485,7.257l3.392,1.966l-3.392-9.504l-2.398-6.739l2.398-2.397l12.874-12.874l-6.156-13.543
        l13.672-13.046l-19.461,1.469l-0.929-2.16l-1.663-3.867c-0.759,0.289-1.519,0.545-2.277,0.815
        c-0.765,0.272-1.529,0.551-2.293,0.806l4.938,7.862l12.7-0.864l-9.115,7.884l6.265,11.815l-11.686-6.783l-4.688,3.758l-3.326,2.657
        l1.23-10.347l-12.053-6.782l13.781-0.734l0.367-1.728l1.448-6.695c-1.218,0.404-2.435,0.797-3.651,1.165l-0.033,0.119l-1.198,4.31
        l-9.547,0.95l-10.131,1.015l6.632,3.823L82.592,61.236l-12.773-8.508l-0.166-0.11c-1.604,1.037-3.143,2.141-4.649,3.284
        c-0.435,0.33-0.878,0.65-1.305,0.99c-0.066,0.053-0.136,0.101-0.202,0.153l0,0.009l1.123,17.25L30.017,103.594z M120.996,60.005
        l3.003,1.447l9.31,4.471l-9.31,0.951l-8.921,0.886l-0.367-0.864L120.996,60.005z M102.896,49.421l0.303,0.194l6.825,4.493
        l-0.734,1.598l-3.089-4.061l-3.002,11.275l-1.664,6.199l-5.161,0.367L102.896,49.421z"/>
    <path fill="#008C44" d="M84.557,95.839l12.506-0.842l14.688-0.994l-6.026-5.551l4.665-3.694l5.789,3.197l6.048,3.326l-4.319-10.951
        l12.441-11.448l-14.17,1.836l-2.829,0.367l-6.026-13.543l-2.096,13.91l-8.165,1.015l-4.752,0.605l4.752-13.716l2.16-6.242
        l-2.16,1.75L81.598,67.392l-14.882-12.55l2.462,21.665L41.335,98.798l30.78-2.225l4.242,20.448l0.078,0.375l0.166-0.44
        L84.557,95.839z M91.707,74.412l5.356,3.132l5.832,3.391l-0.129,5.184l-5.703-4.946L91.21,76.14L91.707,74.412z"/>
    <polygon fill="#008C44" points="116.18,43.135 115.812,44.863 102.031,45.598 114.084,52.38 112.854,62.727 116.18,60.069 
        120.867,56.311 132.553,63.094 126.288,51.278 135.403,43.395 122.703,44.258 117.766,36.396 117.67,36.245 117.628,36.44   "/>
    <path fill="#FFFFFF" d="M96.221,236.542c0.562-4.213,1.88-8.23,3.737-12.053c5.4-11.082,15.444-20.478,25.488-28.059
        c2.57-1.923,5.486-4.061,8.532-6.264c10.381-7.591,22.1-16.252,25.563-22.211c-4.382,5.801-14.934,13.269-24.809,19.727
        c-2.958,1.943-5.854,3.779-8.51,5.465c-9.828,6.221-20.196,14.515-26.417,24.429c-2.808,4.472-4.752,9.288-5.443,14.364
        c-0.917,6.726,0.671,14.856,3.558,22.503C96.175,248.417,95.457,242.167,96.221,236.542z"/>
    <path fill="#FFFFFF" d="M169.143,144.115c-0.093,0.934-0.122,1.92-0.14,2.937c1.354-2.639,5.166-4.948,7.052-5.184
        c1.555,7.862-3.024,16.611-7.732,23.329c-1.259,1.796-2.617,3.517-4.041,5.186c2.593-2.49,5.031-5.069,7.173-7.821
        c4.146-5.357,7.149-12.398,7.408-19.03v-1.879c-0.042-1.037-0.15-2.074-0.346-3.089
        C176.271,138.845,169.467,140.896,169.143,144.115z"/>
    <path fill="#FFFFFF" d="M96.438,166.752c1.274-0.346,2.462-0.346,3.521-0.044c1.288,0.386,2.406,1.229,3.307,2.45
        c0.669-0.059,1.363-0.089,2.115-0.052c-0.346-3.413-2.917-5.249-5.573-5.659c-0.842-0.13-1.685-0.13-2.484,0.021
        c-6.729,1.212-11.462,8.253-11.548,17.141C86.976,173.698,90.735,168.335,96.438,166.752z"/>
    <path fill="#FFFFFF" d="M39.91,199.195l2.98,13.63l5.962-5.812l-0.795-4.676l-4.216,3.921l-2.959-12.312
        c-6.012,2.616-6.766,8.072-5.812,12.31C35.635,203.626,37.266,201.202,39.91,199.195z"/>
    <path fill="#FFFFFF" d="M54.512,186.278c-3.658,2.412-5.215,5.617-5.566,8.735c0.796-1.695,1.983-3.377,3.6-5.042l4.838,22.356
        c1.119,5.225,0.1,9.95-2.214,14.233l0.098,0.39c4.515-4.342,5.011-11.21,3.802-17.388L54.512,186.278z"/>
    <path fill="#FFFFFF" d="M45.526,225.677c0.546,3.021,0.373,5.739-0.482,8.157c2.204-2.991,3.244-6.507,2.47-10.792l-1.15-6.35
        l-2.046,2.31L45.526,225.677z"/>
    <path fill="#FFFFFF" d="M114.149,172.93c0.108,1.879,0.194,3.737,0.28,5.616c0.112,2.1-1.13,5.019-2.833,7.24
        c0.094,0.92,0.149,1.795,0.155,2.609c4.6-2.544,5.972-8.618,5.878-11.906C116.468,175.231,115.309,174.002,114.149,172.93z"/>
    <path fill="#FFFFFF" d="M137.434,159.235l0.087,2.484c2.959-1.081,4.989-1.901,7.581-3.197c0.026,1.534-0.176,2.866-0.755,3.987
        c0.189-0.113,0.365-0.226,0.518-0.337c1.901-1.383,2.182-4.666,2.139-7.215c-0.524,0.267-1.089,0.517-1.656,0.765
        c-0.257,0.184-0.518,0.366-0.806,0.532C142.402,157.485,139.702,158.522,137.434,159.235z"/>
    <path fill="#FFFFFF" d="M112.939,159.084c0.216,2.872,0.432,5.724,0.648,8.597c1.771-2.549,3.542-5.119,5.313-7.668
        c2.529-3.619,6.352-5.432,10.459-4.853c0.812-0.872,1.597-1.754,2.307-2.664c-3.413-1.879-8.921,0.432-11.556,4.233
        c-1.771,2.549-2.744,2.613-4.515,5.162l-0.907-6.35c-4.776,1.488-6.974,5.666-6.851,8.995
        C108.687,162.228,110.398,160.065,112.939,159.084z"/>
    <path fill="#FFFFFF" d="M132.747,154.116c0.41-0.087,0.82-0.195,1.231-0.303c5.162-1.317,9.806-3.11,14.752-5.357
        c0.044,1.789-0.284,3.328-0.992,4.632c1.771-1.616,2.675-3.847,2.095-7.268c-5.142,2.333-9.678,3.715-15.1,5.033
        c-0.173,0.043-0.366,0.086-0.562,0.129c-0.846,1.196-1.503,2.529-1.913,3.935C132.408,154.646,132.566,154.376,132.747,154.116z"/>
    <path fill="#FFFFFF" d="M91.664,182.521c0.54,5.032,4.904,6.955,8.294,3.348c0.907-0.95,1.728-2.29,2.419-4.061
        c1.308,3.271,0.659,7.205-1.542,10.286c4.123-3.469,6.397-9.825,3.054-13.311c-1.145,3.024-2.656,4.644-4.082,5.227
        c-2.613,1.016-5.033-1.446-5.011-5.572c0.024-2.182,0.57-4.114,1.626-5.657C93.257,175.214,91.308,179.055,91.664,182.521z"/>
    <path fill="#FFFFFF" d="M157.803,146.707c-0.669,7.495,0.605,12.204,4.903,15.79c0.551-0.562,1.032-1.098,1.475-1.62
        c-4.912-4.416-4.385-9.854-3.743-17.064c-4.812-1.787-8.185,3.621-8.044,6.978C153.408,148.623,155.417,146.806,157.803,146.707z"
        />
    <path fill="#FFFFFF" d="M138.428,169.322c4.298-1.62,8.424-3.456,12.14-5.832c0.186,1.224,0.185,2.254,0.043,3.171
        c1.023-1.469,1.3-3.344,0.669-6.454c-2.939,1.862-6.127,3.407-9.446,4.766c-1.051,0.599-2.223,1.013-3.687,1.434
        C138.255,167.378,138.342,168.351,138.428,169.322z"/>
    <path fill="#FFFFFF" d="M70.625,203.277c0.13-0.021,0.259-0.043,0.389-0.108c1.865-0.655,2.977-3.239,3.465-5.785
        c-0.375,0.332-0.78,0.602-1.219,0.774c-0.043,0-0.064,0.021-0.086,0.021c-3.045,1.08-4.795-3.802-3.888-7.711
        c0.567-2.36,1.228-4.016,2.29-5.163c-0.14,0.005-0.28,0.01-0.432,0.044c-0.173,0.043-0.346,0.108-0.519,0.173
        c-2.959,1.123-4.212,5.594-4.169,9.418C66.521,198.785,67.839,203.796,70.625,203.277z"/>
    <path fill="#FFFFFF" d="M73.26,174.938c-0.41,0.043-0.842,0.15-1.274,0.281c-6.017,1.899-10.896,5.853-11.29,16.535
        c1.438-5.672,4.87-11.137,9.929-13.469c0.13-0.064,0.259-0.107,0.389-0.173c5.789-2.44,10.648,4.342,10.648,12.42
        c-0.016,5.818-1.877,13.327-5.941,17.665c6.575-3.632,9.367-12.787,8.317-20.948C83.088,179.798,78.66,174.183,73.26,174.938z"/>
    <path fill="#FFFFFF" d="M127.865,175.5c1.677,2.336,3.217,4.263,5.536,6.025c0.452,0.028,0.899,0.042,1.332,0.022
        c1.08-0.064,2.074-0.259,2.96-0.648c-1.123-0.604-2.096-1.23-2.96-1.879c-2.635-2.009-4.276-4.276-6.091-6.825
        c-2.185-3.033-4.453-5.113-6.631-6.985c-0.612,0.823-1.205,1.646-1.75,2.471C122.725,169.798,125.359,172.022,127.865,175.5z"/>
    <path fill="#008C44" d="M99.958,193.19c0.316-0.35,0.606-0.718,0.877-1.097c2.201-3.081,2.85-7.016,1.542-10.286
        c-0.691,1.771-1.512,3.11-2.419,4.061c-3.391,3.607-7.754,1.685-8.294-3.348c-0.356-3.466,1.594-7.307,4.758-9.74
        c1.057-0.813,2.249-1.47,3.536-1.902c1.274-0.433,2.635-0.627,4.039-0.562c-0.224-0.418-0.47-0.802-0.732-1.157
        c-0.9-1.222-2.019-2.064-3.307-2.45c-1.059-0.302-2.246-0.302-3.521,0.044c-5.702,1.583-9.462,6.946-10.664,13.857
        c-0.241,1.389-0.389,2.834-0.417,4.33c-0.151,7.667,6.221,13.823,11.858,10.497C98.273,194.811,99.181,194.054,99.958,193.19z"/>
    <path fill="#008C44" d="M107.259,168.675c0.691,6.739,1.231,13.413,1.296,19.871c1.057-0.548,2.116-1.552,3.042-2.76
        c1.703-2.222,2.945-5.141,2.833-7.24c-0.086-1.879-0.172-3.737-0.28-5.616c1.159,1.072,2.318,2.302,3.48,3.56
        c0.875,0.946,1.751,1.906,2.632,2.834c2.722,2.873,8.878,5.205,13.717,5.011c1.058-0.043,2.073-0.216,2.959-0.54
        c-1.124-0.604-2.096-1.209-2.959-1.836c-0.201-0.143-0.387-0.288-0.577-0.433c-2.319-1.763-3.859-3.689-5.536-6.025
        c-2.506-3.478-5.141-5.702-7.604-7.819c0.545-0.824,1.138-1.647,1.75-2.471c2.467-3.317,5.375-6.627,7.971-9.949
        c-0.208-0.041-0.415-0.071-0.622-0.101c-4.107-0.579-7.93,1.233-10.459,4.853c-1.771,2.549-3.543,5.119-5.313,7.668
        c-0.217-2.873-0.433-5.725-0.648-8.597c-2.541,0.981-4.253,3.144-5.101,5.453C107.325,165.938,107.128,167.395,107.259,168.675z"/>
    <path fill="#008C44" d="M81.663,190.533c0-8.078-4.86-14.86-10.648-12.42c-0.13,0.065-0.259,0.108-0.389,0.173
        c-5.059,2.332-8.491,7.797-9.929,13.469c-0.52,2.053-0.786,4.132-0.763,6.101c0.129,9.958,5.378,14.84,10.692,13.522
        c0.194-0.044,0.389-0.108,0.605-0.174c1.725-0.584,3.214-1.643,4.491-3.006C79.785,203.86,81.646,196.352,81.663,190.533z
         M70.625,185.522c0.173-0.064,0.346-0.13,0.519-0.173c0.152-0.034,0.292-0.039,0.432-0.044c2.851-0.101,3.135,5.686,3.197,8.856
        c0.02,0.948-0.074,2.081-0.293,3.222c-0.489,2.546-1.601,5.13-3.465,5.785c-0.13,0.065-0.259,0.087-0.389,0.108
        c-2.786,0.519-4.104-4.492-4.169-8.337C66.413,191.116,67.666,186.646,70.625,185.522z"/>
    <path fill="#008C44" d="M133.979,153.813c-0.411,0.108-0.821,0.216-1.231,0.303c-0.181,0.26-0.339,0.529-0.488,0.803
        c-1.188,2.177-1.41,4.744-1.218,7.297c0.409,4.903,1.339,9.418,1.922,14.688c0.324-0.173,0.67-0.346,1.016-0.496
        c4.233-1.923,9.741-2.376,13.046-4.688c2.036-1.413,3.25-2.884,3.586-5.059c0.142-0.917,0.143-1.947-0.043-3.171
        c-3.716,2.376-7.842,4.212-12.14,5.832c-0.086-0.972-0.173-1.944-0.281-2.916c1.464-0.421,2.636-0.835,3.687-1.434
        c0.298-0.17,0.59-0.349,0.871-0.554c0.738-0.543,1.268-1.183,1.643-1.909c0.579-1.121,0.781-2.453,0.755-3.987
        c-2.592,1.296-4.622,2.116-7.581,3.197l-0.087-2.484c2.269-0.713,4.969-1.75,7.107-2.98c0.288-0.166,0.549-0.349,0.806-0.532
        c1.034-0.737,1.836-1.61,2.392-2.634c0.708-1.304,1.036-2.844,0.992-4.632C143.784,150.703,139.141,152.496,133.979,153.813z"/>
    <path fill="#008C44" d="M57.384,212.328l-4.838-22.356c-1.617,1.665-2.804,3.347-3.6,5.042c-1.032,2.198-1.391,4.421-1,6.665
        l0.112,0.659l0.795,4.676l-5.962,5.812l-2.98-13.63c-2.645,2.007-4.275,4.431-4.84,7.061c-0.104,0.484-0.185,0.974-0.215,1.471
        v1.254c0.043,0.54,0.108,1.101,0.238,1.663l6.242,28.749c1.736-1.627,2.973-3.482,3.708-5.559c0.855-2.418,1.028-5.136,0.482-8.157
        l-1.209-6.675l2.046-2.31l3.483-3.933l3.974,16.049c0.49-0.734,0.938-1.485,1.35-2.247
        C57.484,222.278,58.503,217.553,57.384,212.328z"/>
    <path fill="#008C44" d="M176.055,141.869c-1.886,0.236-5.697,2.544-7.052,5.184c-0.259,0.504-0.438,1.018-0.486,1.534
        c-0.464,4.64-0.56,7.831-4.336,12.291c-0.442,0.522-0.924,1.059-1.475,1.62c-4.298-3.586-5.572-8.295-4.903-15.79
        c-2.386,0.099-4.395,1.916-5.409,4.083c-0.538,1.15-0.802,2.396-0.682,3.542c0.518,5.032,4.212,10.476,8.315,12.7
        c-0.136,0.299-0.302,0.608-0.485,0.924c-3.464,5.959-15.183,14.62-25.563,22.211c-3.046,2.203-5.962,4.341-8.532,6.264
        c-10.044,7.581-20.088,16.977-25.488,28.059c-1.857,3.822-3.175,7.84-3.737,12.053c-0.764,5.625-0.046,11.875,1.7,17.901
        c0.573,1.979,1.258,3.936,2.037,5.837c3.37,8.164,8.51,15.336,14.191,19.159c-3.478-13.025-2.981-26.741,0.28-39.485
        c3.564-13.889,11.146-26.503,19.526-38.124h0.022c8.459-11.761,20.905-20.431,30.303-31.447c1.424-1.669,2.782-3.39,4.041-5.186
        C173.03,158.479,177.609,149.731,176.055,141.869z"/>
    <path d="M105.099,135.41l-0.432-1.987l-0.044-0.173l-0.496-1.62l-0.67-1.707l-0.799-1.642l-0.454-0.799l-0.496-0.756l-0.519-0.734
        l-0.562-0.713l-0.604-0.691l-0.605-0.648l-0.67-0.626l-0.691-0.583l-0.713-0.54l-0.776-0.519l-0.778-0.476l-0.821-0.432
        l-0.864-0.389l-0.886-0.346l-0.907-0.303l-0.95-0.259l-0.951-0.194l-0.994-0.151l-1.015-0.108l-1.059-0.043h-1.059l-1.08,0.065
        l-0.54,0.065l-0.583,0.064l-1.123,0.173l-1.145,0.216c-1.404,0.346-2.808,0.735-4.212,1.124c-1.145,0.345-2.247,0.821-3.348,1.317
        l-0.972,0.497l-0.907,0.518l-0.886,0.562l-0.821,0.605l-0.778,0.626l-0.734,0.67l-0.691,0.691l-0.648,0.713l-0.583,0.734
        l-0.54,0.778l-0.497,0.777l-0.454,0.821l-0.389,0.821l-0.345,0.842l-0.302,0.864l-0.259,0.864l-0.216,0.799v0.086l-0.173,0.886
        l-0.129,0.885l-0.086,0.907l-0.043,0.907v0.907l0.043,0.929l0.216,1.814l0.173,0.929l0.194,0.886l0.519,1.879l0.713,1.9
        l0.799,1.771l0.476,0.842l0.475,0.821l0.519,0.777l0.562,0.756l0.583,0.691l0.604,0.691l0.648,0.626l0.691,0.605l0.691,0.583
        l0.734,0.519l0.778,0.497l0.799,0.432l0.82,0.41l0.843,0.346l0.864,0.303l0.907,0.259l0.907,0.216l0.951,0.173l0.972,0.13
        l0.972,0.064l1.015,0.022l1.015-0.022l1.059-0.086l0.324-0.043l0.734-0.087l1.08-0.173l1.102-0.237l3.132-0.821l1.102-0.324
        l1.058-0.345l1.037-0.39l0.972-0.432l0.951-0.453l0.885-0.497l0.864-0.519l0.82-0.562l0.778-0.583l0.712-0.626l0.67-0.626
        l0.648-0.669l0.604-0.713l0.562-0.734l0.497-0.756l0.476-0.777l0.41-0.799l0.367-0.821l0.323-0.864l0.173-0.497l0.108-0.368
        l0.237-0.885l0.194-0.886l0.13-0.907l0.108-0.929l0.043-0.95l0.021-0.951l-0.021-0.951l-0.086-0.972L105.099,135.41z
         M95.789,141.804l-0.173,1.145l-0.281,1.123l-0.367,1.102l-0.454,0.993l-0.583,0.972l-0.67,0.885l-0.799,0.8l-0.907,0.734
        l-1.037,0.648l-1.188,0.54l-1.318,0.454l-1.361,0.28l-1.296,0.13l-0.691-0.021l-0.518-0.021l-1.145-0.173l-1.102-0.303l-1.015-0.41
        l-0.994-0.54l-0.907-0.648l-0.864-0.735l-0.821-0.842l-0.734-0.908l-0.67-0.972l-0.583-1.037l-0.519-1.08l-0.432-1.123
        l-0.345-1.124l-0.281-1.145l-0.173-1.188l-0.107-1.167v-1.188l0.064-1.188l0.173-1.145l0.281-1.102l0.367-1.102l0.454-0.994
        l0.583-0.951l0.67-0.885l0.799-0.799l0.907-0.734l1.037-0.626L80,126.9l1.339-0.432l1.339-0.281l1.253-0.129l0.734,0.021
        l0.476,0.021l1.145,0.173l1.08,0.303l1.037,0.41l0.993,0.54l0.907,0.648l0.886,0.734l0.821,0.821l0.734,0.907l0.669,0.972
        l0.605,1.037l0.518,1.059l0.432,1.102l0.346,1.123l0.259,1.123l0.194,1.188l0.086,1.188l0.021,1.188L95.789,141.804z"/>
    <path d="M172.491,97.113l-0.994-0.151l-1.015-0.086l-1.037-0.065h-1.059l-1.08,0.065l-0.562,0.065l-0.54,0.064l-1.123,0.173
        l-1.145,0.216c-1.426,0.345-2.852,0.734-4.256,1.145c-1.145,0.346-2.246,0.799-3.348,1.296l-0.95,0.497l-0.929,0.54l-0.864,0.562
        l-0.843,0.583l-0.777,0.648l-0.713,0.648l-0.69,0.691l-0.627,0.713l-0.604,0.756l-0.54,0.756l-0.476,0.799l-0.453,0.799
        l-0.389,0.821l-0.346,0.842l-0.324,0.864l-0.259,0.864l-0.195,0.886l-0.173,0.885l-0.129,0.886l-0.087,0.907l-0.043,0.907v0.907
        l0.043,0.929l0.216,1.814l0.368,1.814l0.518,1.857l0.691,1.901l0.8,1.793l0.453,0.842l0.497,0.821l0.496,0.778l0.562,0.756
        l0.583,0.713l0.604,0.691l0.647,0.648l0.67,0.605l0.713,0.562l0.734,0.54l0.756,0.475l0.8,0.454l0.82,0.389l0.842,0.367
        l0.864,0.302l0.907,0.259l0.908,0.216l0.95,0.173l0.972,0.108l0.972,0.086l1.016,0.021l1.016-0.043l1.058-0.065l0.346-0.043
        l0.713-0.086l1.08-0.173l1.102-0.238l3.219-0.842l1.079-0.324l1.059-0.346l1.037-0.389l0.972-0.432l0.95-0.454l0.887-0.497
        l0.863-0.518l0.82-0.562l0.778-0.583l0.734-0.626l0.67-0.648l0.647-0.669l0.605-0.713l0.561-0.734l0.497-0.756l0.476-0.778
        l0.41-0.799l0.367-0.842l0.324-0.842l0.281-0.864l0.236-0.886l0.195-0.885l0.129-0.907l0.108-0.929l0.065-0.951v-0.95l-0.021-0.95
        l-0.087-0.972l-0.259-1.965l-0.433-2.009l-0.259-0.885l-0.605-1.75l-0.756-1.685l-0.886-1.599l-0.497-0.756l-0.518-0.734
        l-0.562-0.713l-0.604-0.669l-0.627-0.669l-0.67-0.605l-0.69-0.583l-0.735-0.562l-0.756-0.518l-0.777-0.475l-0.842-0.432
        l-0.843-0.389l-0.886-0.345l-0.907-0.302l-0.929-0.238L172.491,97.113z M174.867,108.475l0.669,0.972l0.605,1.015l0.518,1.08
        l0.433,1.102l0.346,1.102l0.259,1.145l0.194,1.166l0.087,1.188l0.021,1.209l-0.087,1.167l-0.194,1.167l-0.259,1.123l-0.389,1.102
        l-0.476,0.994l-0.562,0.972l-0.691,0.886l-0.777,0.82l-0.907,0.713l-1.036,0.648l-1.167,0.54l-1.317,0.454l-1.361,0.281
        l-1.296,0.107h-0.734l-0.475-0.021l-1.167-0.173l-1.08-0.302l-1.036-0.41l-0.994-0.54l-0.929-0.648l-0.864-0.734l-0.82-0.843
        l-0.734-0.907l-0.67-0.972l-0.604-1.037l-0.519-1.08l-0.432-1.102l-0.346-1.145l-0.26-1.145l-0.194-1.167l-0.108-1.188v-1.167
        l0.087-1.188l0.173-1.145l0.281-1.123l0.367-1.08l0.475-0.994l0.583-0.972l0.67-0.864l0.799-0.821l0.929-0.734l1.037-0.648
        l1.21-0.54l1.339-0.454l1.339-0.281l1.274-0.108l0.67,0.021l0.519,0.021l1.145,0.173l1.102,0.302l1.037,0.411l0.972,0.54
        l0.929,0.626l0.864,0.756l0.821,0.821L174.867,108.475z"/>
    <path d="M124.538,147.463l0.714-0.194l2.376-0.756l2.268-0.864l2.139-0.972l2.009-1.059l0.95-0.562l0.907-0.604l0.864-0.627
        l0.842-0.669l0.777-0.691l0.757-0.713l0.691-0.756l0.647-0.778l0.604-0.821l0.541-0.842l0.496-0.886l0.433-0.907l0.367-0.95
        l0.323-0.972l0.238-0.994l0.193-1.037l0.13-1.059l0.044-1.058l-0.021-1.102l-0.087-1.124l-0.151-1.166l-0.216-1.167l-0.281-1.188
        l-0.583-1.858l-0.713-1.771l-0.41-0.864l-0.432-0.821l-0.476-0.777l-0.519-0.756l-0.54-0.734l-0.604-0.691l-0.604-0.669
        l-0.67-0.605l-0.691-0.583l-0.734-0.541l-0.777-0.497l-0.821-0.454l-0.842-0.41l-0.864-0.367l-0.907-0.303l-0.95-0.28l-0.972-0.216
        l-1.016-0.173l-1.037-0.108l-1.079-0.065l-1.103-0.021l-1.123,0.021h-0.087l-1.079,0.086l-1.21,0.13l-1.231,0.173l-1.273,0.237
        l-1.297,0.281l-13.824,3.715l-0.863,0.237l0.863,3.154l8.9,33.026L124.538,147.463z M117.367,117.31l1.534-0.324l1.469-0.237
        l1.447-0.13l1.36-0.021l1.318,0.065l0.042,0.021l1.188,0.173l1.166,0.302l1.08,0.411l1.016,0.54l0.95,0.67l0.864,0.799l0.799,0.951
        l0.735,1.124l0.647,1.317l0.562,1.512l0.454,1.685l0.15,0.799l0.13,0.799l0.065,0.756l0.021,0.712l-0.021,0.691l-0.065,0.67
        l-0.087,0.648l-0.15,0.626l-0.173,0.604l-0.194,0.562l-0.259,0.562l-0.605,1.08l-0.756,1.016l-0.907,0.95l-1.059,0.907
        l-1.231,0.864l-1.36,0.778l-1.533,0.756l-1.427,0.583l-0.237,0.108l-1.792,0.626c-0.476,0.13-0.95,0.281-1.404,0.411l-6.394-23.652
        L117.367,117.31z"/>
    <polygon points="28.721,173.318 23.3,153.208 38.506,170.683 46.26,168.588 50.235,146.318 55.57,166.061 64.231,163.728 
        64.685,163.62 64.231,162 54.9,127.44 44.878,130.14 39.543,158.004 20.924,136.62 10.966,139.298 20.729,175.479   "/>
</g>
<g>
    <path fill="#FFFFFF" d="M132.841,282.313c0-2.268,1.808-4.075,4.097-4.075s4.097,1.808,4.097,4.075
        c0,2.269-1.808,4.076-4.097,4.076S132.841,284.582,132.841,282.313z M140.408,282.313c0-1.923-1.6-3.45-3.471-3.45
        s-3.471,1.527-3.471,3.45s1.6,3.45,3.471,3.45S140.408,284.236,140.408,282.313z M138.882,284.52h-0.753l-1.338-2.06h-0.753v2.06
        h-0.627v-4.462h1.944c0.806,0,1.588,0.217,1.588,1.18c0,0.878-0.616,1.2-1.41,1.223L138.882,284.52z M136.791,281.833
        c0.553,0,1.526,0.104,1.526-0.606c0-0.46-0.606-0.544-1.088-0.544h-1.191v1.15H136.791z"/>
</g>
</svg>