<?xml version="1.0" standalone="no"?>
<!DOCTYPE svg PUBLIC "-//W3C//DTD SVG 20010904//EN"
 "http://www.w3.org/TR/2001/REC-SVG-20010904/DTD/svg10.dtd">
<svg version="1.0" xmlns="http://www.w3.org/2000/svg"
 width="260.000000pt" height="260.000000pt" viewBox="0 0 260.000000 260.000000"
 preserveAspectRatio="xMidYMid meet">
<metadata>
Created by potrace 1.11, written by Peter Selinger 2001-2013
</metadata>
<g transform="translate(0.000000,260.000000) scale(0.100000,-0.100000)"
fill="#000000" stroke="none">
<path d="M0 1735 l0 -865 200 0 199 0 17 -32 c80 -155 235 -313 399 -406 295
-166 647 -172 950 -15 157 81 305 218 397 370 l51 83 194 0 193 0 0 865 0 865
-1300 0 -1300 0 0 -865z m1569 320 c-12 -46 -23 -60 -37 -51 -12 7 3 72 21 94
18 22 27 -2 16 -43z m55 46 c9 -14 -18 -94 -33 -99 -11 -4 -12 4 -7 34 4 22 9
47 12 57 6 18 19 23 28 8z m48 -21 c-3 -19 0 -21 15 -15 28 11 167 34 175 29
4 -3 8 -11 8 -18 0 -9 -30 -19 -89 -30 -49 -9 -96 -16 -104 -16 -8 0 -20 -7
-27 -15 -23 -28 -31 0 -13 48 18 48 41 59 35 17z m-856 -57 c70 -63 92 -78
120 -79 28 -1 34 2 34 20 0 28 15 50 29 42 17 -11 14 -106 -3 -106 -8 0 -18 5
-21 10 -4 7 -13 7 -24 0 -10 -5 -34 -10 -53 -12 -31 -2 -46 8 -126 78 -51 43
-92 84 -92 91 0 11 27 32 42 33 4 0 46 -35 94 -77z m700 35 c-8 -48 -14 -60
-27 -53 -19 13 -1 95 22 95 8 0 9 -13 5 -42z m-52 -38 c6 -32 2 -31 124 -34
32 -1 58 4 64 12 16 19 28 14 28 -12 0 -13 18 -62 39 -109 45 -97 45 -96 -40
-126 -30 -10 -62 -22 -72 -26 -14 -6 -23 6 -52 69 -41 90 -42 96 -15 96 11 0
20 5 20 11 0 5 -8 9 -17 8 -35 -3 -43 2 -82 58 -45 62 -51 83 -22 83 13 0 20
-9 25 -30z m-360 2 c-1 -7 -2 -32 -2 -57 -3 -68 -22 -54 -22 16 0 44 3 60 13
57 6 -3 12 -10 11 -16z m48 7 c2 -5 2 -28 0 -50 -5 -46 -32 -56 -32 -11 0 53
21 94 32 61z m-94 -56 c-4 -81 -28 -85 -28 -4 0 48 3 61 15 61 13 0 15 -11 13
-57z m360 26 c2 -12 -17 -18 -93 -30 -95 -15 -96 -15 -93 5 2 17 15 23 63 33
78 15 119 12 123 -8z m-208 -12 c0 -37 -65 -125 -97 -130 -27 -4 -27 -5 -6
-12 l22 -7 -34 -68 c-19 -38 -39 -71 -44 -75 -11 -6 -151 61 -151 72 0 4 14
30 31 58 27 45 37 53 78 62 145 34 161 42 161 83 0 30 7 40 27 40 7 0 13 -10
13 -23z m173 -66 c22 -5 50 -20 63 -32 l25 -23 -37 -34 c-35 -32 -38 -33 -51
-16 -12 17 -15 16 -43 -11 -24 -23 -30 -35 -25 -54 7 -28 -37 -81 -67 -81 -50
0 -74 140 -32 197 23 31 78 63 109 63 11 0 37 -4 58 -9z m97 -137 c0 -7 -5
-16 -10 -19 -6 -4 -8 -21 -4 -40 5 -28 2 -35 -18 -46 -12 -7 -25 -10 -28 -8
-3 2 -7 -7 -8 -21 -2 -14 -8 -29 -13 -35 -11 -11 -12 -25 -1 -25 5 0 14 11 20
25 11 24 15 25 101 25 49 0 93 4 96 10 3 5 1 19 -5 31 -15 27 -2 39 16 15 15
-21 19 -62 6 -70 -4 -2 -47 -6 -95 -7 l-88 -3 -29 -39 c-47 -65 -62 -71 -108
-48 -22 11 -51 34 -65 51 -25 29 -28 30 -111 30 -103 0 -139 11 -134 42 2 12
9 23 17 26 9 3 11 -2 6 -17 -6 -20 -4 -21 100 -21 94 0 110 3 143 24 20 13 43
31 51 39 10 13 17 14 34 6 16 -9 23 -8 34 7 7 10 13 25 12 33 0 10 -4 7 -9 -6
-12 -29 -34 -29 -54 -1 -13 19 -14 25 -3 42 19 28 36 31 45 8 7 -20 8 -20 42
8 32 27 36 28 48 13 6 -9 12 -22 12 -29z m313 -102 c21 -43 37 -87 37 -98 0
-22 -76 -102 -87 -91 -4 4 10 25 31 46 43 44 43 47 -5 143 -30 60 -35 78 -21
78 5 0 25 -35 45 -78z m-907 15 c-13 -18 -38 -58 -56 -90 l-33 -58 22 -30 c27
-36 13 -38 -19 -4 -21 22 -23 30 -14 53 19 48 104 173 114 167 6 -4 0 -20 -14
-38z m-398 -243 c6 -2 12 -11 12 -20 0 -13 -9 -15 -47 -12 -44 3 -48 1 -51
-20 -2 -15 -9 -22 -20 -20 -21 4 -27 40 -12 67 9 18 17 20 58 15 26 -3 53 -7
60 -10z m1720 -30 c19 -8 32 -19 29 -26 -4 -14 -13 -14 -63 -3 -27 6 -32 4
-37 -16 -5 -19 -9 -21 -19 -11 -14 14 -21 50 -13 70 6 15 46 10 103 -14z
m-1723 -94 c0 -10 -13 -16 -42 -18 -59 -4 -59 -30 -1 -34 31 -2 44 -8 46 -20
3 -15 -4 -18 -47 -18 -55 0 -81 17 -81 55 0 39 26 56 79 53 33 -2 46 -7 46
-18z m1712 -8 c41 -16 54 -34 33 -47 -5 -3 -23 1 -40 10 -32 17 -50 13 -50
-11 0 -8 -7 -14 -15 -14 -11 0 -15 11 -15 38 0 21 3 42 7 46 7 7 12 6 80 -22z
m13 -109 c22 -20 27 -32 21 -42 -8 -12 -12 -13 -26 -1 -13 11 -18 10 -29 -6
-20 -26 -70 -9 -74 26 -8 52 60 66 108 23z m-1712 -20 c-2 -13 -14 -19 -41
-21 -22 -2 -40 -9 -43 -18 -14 -47 -14 -47 -29 -34 -21 17 -19 67 3 79 9 6 39
11 65 11 41 0 48 -3 45 -17z m1672 -74 c30 -6 50 -16 50 -24 0 -22 -14 -25
-54 -14 -27 8 -41 7 -52 -1 -11 -10 -15 -9 -20 4 -7 19 1 46 15 46 6 0 33 -5
61 -11z m-1662 -17 c14 -10 33 -68 24 -76 -12 -12 -29 -5 -40 17 -11 21 -11
21 -9 -7 3 -36 -22 -48 -31 -15 l-6 24 -6 -24 c-8 -35 -28 -37 -40 -5 -22 57
-10 70 90 93 3 0 11 -3 18 -7z m88 -124 c4 -7 3 -8 -4 -4 -7 4 -12 2 -12 -4 0
-6 -18 -36 -41 -66 -40 -55 -63 -65 -65 -28 -2 37 -4 42 -25 47 -34 9 -16 31
32 40 36 7 98 22 106 26 1 1 5 -4 9 -11z m1489 3 c3 -5 1 -12 -5 -16 -14 -9
-12 -52 3 -58 18 -6 37 3 37 18 0 7 -6 15 -12 18 -10 4 -10 7 -1 17 10 11 18
11 38 2 30 -14 32 -31 4 -66 -53 -67 -149 -1 -109 75 11 20 35 25 45 10z m-26
-142 c35 -25 40 -33 31 -45 -7 -8 -24 -14 -38 -14 -23 0 -24 -1 -9 -18 10 -11
13 -23 7 -31 -6 -11 -18 -8 -56 16 -56 34 -70 63 -30 63 26 0 48 21 28 28 -19
6 -14 32 6 32 11 0 38 -14 61 -31z m-1414 -10 c4 -5 -1 -19 -10 -29 -20 -22
-2 -39 21 -19 12 10 17 10 27 0 9 -10 2 -21 -33 -52 -25 -21 -49 -39 -53 -39
-13 0 -21 34 -9 38 7 2 12 10 12 19 0 11 -7 13 -29 8 -46 -10 -45 10 1 49 45
37 62 43 73 25z m1317 -106 c38 -37 49 -63 26 -63 -18 0 -99 80 -92 91 10 17
28 9 66 -28z m-1199 -21 c23 -20 22 -67 -3 -92 -51 -51 -136 7 -110 75 17 44
72 53 113 17z m1151 -31 c46 -47 44 -74 -4 -65 -31 7 -39 -3 -19 -23 12 -12 4
-33 -13 -33 -14 0 -88 82 -88 97 0 8 14 13 35 13 33 0 35 2 29 25 -9 38 15 32
60 -14z m-1029 -65 c12 -8 16 -19 12 -31 -7 -16 -9 -16 -33 0 -20 13 -28 14
-40 4 -20 -16 -17 -36 6 -49 24 -13 26 -28 4 -37 -20 -7 -64 34 -64 61 0 50
72 83 115 52z m885 0 c0 -8 -7 -16 -15 -20 -8 -3 -15 -10 -15 -16 0 -7 7 -7
21 1 27 14 46 -2 24 -21 -8 -7 -15 -17 -15 -22 0 -6 7 -5 15 2 11 9 19 10 27
2 14 -14 3 -29 -32 -47 l-29 -15 -36 52 -36 53 28 22 c31 26 63 30 63 9z
m-810 -52 c0 -12 7 -15 25 -12 14 3 30 -1 36 -8 8 -10 3 -17 -21 -29 -23 -12
-30 -21 -25 -33 19 -46 -10 -70 -30 -24 -11 24 -20 28 -30 12 -11 -17 -25 -11
-25 10 0 31 38 100 55 100 8 0 15 -7 15 -16z m708 -6 c7 -7 12 -23 12 -36 0
-14 7 -30 17 -37 21 -16 7 -38 -19 -31 -14 3 -27 -3 -39 -17 l-17 -22 -21 47
c-29 69 -29 80 -1 95 31 16 53 16 68 1z m-136 -17 c-1 -7 7 -24 18 -38 25 -33
25 -54 -1 -87 -25 -32 -70 -35 -98 -7 -16 16 -20 33 -19 80 0 34 3 61 6 61 3
0 13 -7 23 -16 19 -18 39 -11 39 12 0 10 7 14 18 12 9 -2 16 -10 14 -17z
m-416 -16 c39 -16 37 -35 -4 -36 -27 0 -27 0 -4 -11 31 -16 29 -40 -3 -32 -15
4 -25 2 -25 -5 0 -6 6 -11 14 -11 20 0 31 -19 18 -32 -11 -11 -77 6 -87 22 -4
7 4 36 30 108 6 16 18 15 61 -3z m94 -36 c11 -19 13 -19 29 -5 10 9 23 16 29
16 14 0 16 -26 3 -34 -5 -3 -18 -26 -30 -52 -18 -38 -24 -44 -37 -33 -8 6 -13
17 -11 23 3 6 -2 26 -9 45 -8 18 -14 40 -14 47 0 21 28 17 40 -7z m189 6 c8
-9 -12 -25 -32 -26 -19 0 -18 -2 6 -11 32 -11 31 -31 -2 -36 -12 -2 -26 -14
-31 -28 -19 -48 -40 -22 -40 50 0 54 15 69 60 61 19 -4 37 -8 39 -10z"/>
<path d="M1310 1881 c0 -11 31 -24 39 -16 3 3 -1 10 -9 15 -19 12 -30 12 -30
1z"/>
<path d="M1280 1848 c0 -18 18 -34 28 -24 3 4 -2 14 -11 23 -16 16 -17 16 -17
1z"/>
<path d="M1236 1825 c-3 -10 -2 -23 4 -29 15 -15 24 1 13 26 -9 20 -10 20 -17
3z"/>
<path d="M690 675 c-11 -13 -11 -19 3 -32 21 -21 49 -9 45 19 -4 28 -30 35
-48 13z"/>
<path d="M1480 465 c-15 -18 -6 -45 13 -45 8 0 20 6 26 14 9 11 8 18 -4 30
-20 20 -20 20 -35 1z"/>
</g>
</svg>
