<svg version="1.1" id="hv71" xmlns="http://www.w3.org/2000/svg" xmlns:xlink="http://www.w3.org/1999/xlink" x="0px" y="0px"
     width="289.427px" height="162.88px" viewBox="0 0 289.427 162.88" enable-background="new 0 0 289.427 162.88"
     xml:space="preserve">
<g>
    <path d="M49.7,59.325"/>
</g>
<g>
    <g>
        <g>
            <path fill="#FFFFFF" d="M120.586,130.551H80.584l-7.509-8.566v8.566H34.498L4.05,95.854V4.05l35.741,0.021L50.25,16.052V4.05
                h36.33l40.694,45.589l7.381-12.04h20.893l-12.298-14.012L155.211,4.05h96.643l33.523,37.884v88.618
                c-2.229,0.007-10.772,0.029-16.841,0.029c-4.287,0-5.696-0.012-6.125-0.021c-1.985-1.981-25.137-28.594-34.095-38.917
                l-0.487-0.562l-24.693,39.47h-21.11l-11.512-13.095l-25.437,41.003L120.586,130.551z"/>
            <path fill="#002B5C" d="M251.606,4.6l33.221,37.542v87.862c-2.848,0.008-10.643,0.027-16.291,0.027
                c-3.745,0-5.279-0.009-5.888-0.018c-2.495-2.616-21.337-24.235-33.916-38.731l-0.975-1.124l-0.789,1.261l-24.138,38.582h-20.557
                l-10.858-12.352l-0.979-1.113l-0.781,1.26L145,157.539l-23.836-27.164l-0.329-0.374h-0.498H80.833l-6.381-7.279l-1.927-2.199
                v2.924v6.555H34.747L4.6,95.647V4.601l34.941,0.021l9.331,10.688l1.929,2.209v-2.933V4.6h35.533l40.037,44.854l0.985,1.104
                l0.773-1.262l6.833-11.146h19.37h2.429l-1.602-1.826L143.93,23.529L155.519,4.6H251.606 M252.102,3.5h-97.199l-12.334,20.146
                l11.764,13.404h-19.986l-7.155,11.671L86.826,3.5H49.7v11.086L40.041,3.521L3.5,3.5v92.561l30.749,35.04h39.377v-7.654
                l6.709,7.654h40.002l24.815,28.279l25.437-41.004l11.187,12.725h21.664l24.461-39.098c0,0,33.867,39.029,34.293,39.098
                c0.142,0.022,2.825,0.03,6.342,0.03c7.032,0,17.391-0.03,17.391-0.03V41.725L252.102,3.5L252.102,3.5z"/>
            <path fill="#FFFFFF" d="M252.102,3.5l33.825,38.225v89.375c0,0-10.358,0.03-17.391,0.03c-3.517,0-6.2-0.008-6.342-0.03
                c-0.426-0.068-34.293-39.098-34.293-39.098l-24.461,39.098h-21.664l-11.187-12.725l-25.437,41.004l-24.815-28.279H80.335
                l-6.709-7.654v7.654H34.249L3.5,96.061V3.5l36.541,0.021L49.7,14.586V3.5h37.125l40.365,45.221l7.155-11.671h19.986
                l-11.764-13.404L154.902,3.5H252.102 M3.5,0C2.572,0,1.682,0.368,1.026,1.024C0.369,1.681,0,2.571,0,3.5v92.561
                c0,0.85,0.309,1.67,0.869,2.309l30.749,35.04c0.665,0.757,1.624,1.191,2.631,1.191h39.377c1.457,0,2.706-0.891,3.233-2.156
                l0.845,0.963c0.665,0.759,1.624,1.193,2.632,1.193h38.417l23.77,27.088c0.667,0.761,1.628,1.191,2.63,1.191
                c0.096,0,0.192-0.004,0.289-0.012c1.105-0.092,2.101-0.701,2.686-1.644l22.949-36.994l8.071,9.181
                c0.665,0.756,1.622,1.189,2.629,1.189h21.664c1.206,0,2.327-0.621,2.967-1.644l21.953-35.088
                c3.237,3.727,8.575,9.866,13.891,15.958c4.95,5.675,8.914,10.2,11.78,13.45c6.222,7.057,6.222,7.057,7.608,7.279
                c0.366,0.059,0.465,0.074,6.896,0.074c7.036,0,17.401-0.03,17.401-0.03c1.929-0.006,3.489-1.571,3.489-3.5V41.725
                c0-0.854-0.312-1.68-0.879-2.319L254.723,1.181C254.059,0.43,253.104,0,252.102,0h-97.199c-1.219,0-2.349,0.633-2.985,1.672
                l-12.333,20.146c-0.801,1.308-0.657,2.984,0.354,4.136l6.666,7.596h-12.257c-1.217,0-2.348,0.633-2.984,1.671l-4.695,7.658
                L89.437,1.169C88.773,0.425,87.823,0,86.826,0H49.7c-1.933,0-3.5,1.567-3.5,3.5v1.755L42.678,1.22
                c-0.664-0.761-1.625-1.198-2.635-1.198L3.502,0C3.501,0,3.5,0,3.5,0L3.5,0z"/>
        </g>
    </g>
</g>
<g>
    <rect x="54.375" y="8.175" fill="#002B5C" width="27.775" height="28.875"/>
</g>
<g>
    <polygon fill="#002B5C" points="54.375,59.325 71.658,59.325 82.15,74.838 82.15,89.575 54.375,89.575     "/>
</g>
<g>
    <polygon fill="#002B5C" points="8.175,8.175 35.4,8.175 35.4,41.725 100.885,41.793 119.724,69.716 136.89,41.725 171.059,41.725 
        120.787,123.7 74.099,54.65 35.4,54.65 35.4,89.575 8.175,89.575  "/>
</g>
<g>
    <polygon fill="#002B5C" points="157.481,8.175 221.9,8.175 171.969,89.575 156.347,89.575 197.322,22.75 148.544,22.75     "/>
</g>
<g>
    <rect x="232.576" y="8.175" fill="#002B5C" width="14.851" height="81.4"/>
</g>
<g>
    <g>
        <polygon fill="#FFD520" points="40.075,10.71 49.7,21.673 49.7,37.05 40.075,37.05        "/>
    </g>
    <g>
        <polygon fill="#FFD520" points="86.826,9.848 124.603,52.913 119.55,61.137 103.257,37.05 86.826,37.05        "/>
    </g>
    <g>
        <polygon fill="#FFD520" points="40.075,59.325 49.7,59.325 49.7,94.25 86.826,94.25 86.826,81.767 117.007,126.46 82.15,126.425 
            68.95,111.018 68.95,126.425 36.395,126.425 8.138,94.25 40.075,94.25         "/>
    </g>
    <g>
        <polygon fill="#FFD520" points="152.127,27.425 189.037,27.425 148.028,94.25 174.531,94.25 227.901,7.236 227.901,82.78 
            200.862,126.425 183.903,126.425 169.952,110.542 144.517,151.554 123.678,127.82 179.363,37.041 160.584,37.05         "/>
    </g>
    <g>
        <polygon fill="#FFD520" points="252.102,10.463 281.252,43.693 281.252,126.425 264.346,126.425 236.09,94.25 252.102,94.25        "/>
    </g>
</g>
</svg>