<svg version="1.1" id="bif" xmlns="http://www.w3.org/2000/svg" xmlns:xlink="http://www.w3.org/1999/xlink" x="0px" y="0px"
     width="483.346px" height="483.346px" viewBox="0 0 483.346 483.346" enable-background="new 0 0 483.346 483.346"
     xml:space="preserve">
<g>
    <circle cx="241.674" cy="241.673" r="241.673"/>
    <path fill="#F3C727" d="M70.267,278.654c1.659,7.052,4.148,13.688,4.979,20.739c-6.222-4.562-16.104-16.376-16.104-16.376
        c-23.229-22.814-21.645-61.607-13.764-90.645c1.245,24.889,14.369,44.613,21.421,67.842
        C66.799,260.215,68.205,271.361,70.267,278.654z"/>
    <path fill="#F3C727" d="M68.193,239.662c-1.659-27.792,15.763-50.606,38.576-65.539c-5.392,26.547-16.29,52.863-31.637,76.092
        c-2.293,3.543-3.543,8.543-4.115,12.709C71.018,262.924,67.363,245.884,68.193,239.662z"/>
    <path fill="#F3C727" d="M257.346,46.776l-3.734,39.821c-1.658,1.244-4.562,0.416-6.637,0.416l-1.245-1.66
        c1.659-10.785,1.659-22.814,2.49-33.184c-4.564-1.66-1.421-5.496,0.245-7.787C251.37,42.309,257.346,40.555,257.346,46.776z"/>
    <path fill="#F3C727" d="M293.434,54.657c2.903,5.808,0,11.615-2.49,16.178c-4.147,4.979-8.71,7.468-13.688,11.2
        c1.002,1.305,13.036,1.964,13.707,2.555c1.319,1.155-0.043,4.801-2.922,8.23l-27.078-4.896
        c2.075-12.859,23.758-14.185,25.004-28.289c-1.246-3.732-6.225-4.147-9.127-2.902c-3.318,1.659-3.732,5.392-3.318,8.711
        c-3.733,1.659-9.955,0.414-8.71-4.979c-0.416-5.808,4.977-10.369,9.54-13.273C281.819,45.117,289.7,47.606,293.434,54.657z"/>
    <g>
        <path fill="#F3C727" d="M234.09,52.508c-1.822-7.553-9.516-11.953-16.566-10.295c-6.223,2.074-12.029,8.297-11.614,14.935
            c0.415,4.562,0.415,10.784,6.222,13.688c4.979,2.074,10.785,1.659,15.348,0c0.83,3.733-0.828,6.222-2.904,8.711
            c-3.732,1.659-7.881,0.83-9.954-2.903c-2.904,0-4.979,0.414-7.052,1.66c0.83,3.732,2.903,7.051,6.222,8.711
            c6.222,2.487,14.104,1.243,18.667-4.148C237.434,74.154,236.164,62.463,234.09,52.508z M221.257,64.198
            c-2.904,0-6.222-1.244-6.637-4.563c-0.83-3.732,1.243-8.295,5.392-8.711c3.734,0.83,6.037,3.25,6.098,6.224
            C226.257,60.84,224.99,63.783,221.257,64.198z"/>
    </g>
    <path fill="#F3C727" d="M325.374,58.392c20.742,15.348,47.702,29.865,50.189,58.487l3.32,13.273
        c-17.837-23.229-51.436-37.747-56.829-68.443C322.471,60.465,322.884,57.562,325.374,58.392z"/>
    <path fill="#F3C727" d="M158.621,59.221c-0.83,8.711-5.808,17.008-9.956,24.889c-9.954,21.984-37.333,26.133-46.874,47.702h-1.243
        c5.807-22.813,13.273-50.191,37.333-60.977C145.348,69.176,151.154,61.709,158.621,59.221z"/>
    <path fill="#F3C727" d="M111.748,85.768c-7.053,17.009-11.615,36.09-17.422,54.342c-6.638,14.103-17.422,26.546-21.155,42.309
        c-1.66-29.036-2.904-61.391,22.398-81.716C101.378,96.139,105.525,90.746,111.748,85.768z"/>
    <path fill="#F3C727" d="M372.663,89.087c26.546,17.837,41.479,47.288,34.844,78.813c-1.244,3.733-0.83,8.296-0.83,12.029
        c-11.201-24.475-27.377-48.947-30.28-76.74l-5.809-14.103H372.663z"/>
    <path fill="#F3C727" d="M182.68,93.235c0.414,2.903-4.147,2.073-5.393,4.562c-19.911,17.007-39.406,34.844-64.709,37.333
        c-5.394,2.489-10.787,4.562-14.935,8.711c8.297-16.178,23.646-30.695,38.993-39.822C150.739,97.798,166.502,93.235,182.68,93.235z"
        />
    <path fill="#F3C727" d="M380.543,140.109c-15.764-9.957-37.748-7.468-52.681-21.156c-9.955-7.466-14.934-19.496-26.963-23.645
        V92.82C334.5,92.82,362.708,113.146,380.543,140.109z"/>
    <path fill="#F3C727" d="M238.264,104.02c13.69-7.467,35.258-7.881,48.948,0.416c9.541,6.222,15.764,15.763,18.664,25.717
        c30.699,4.148,58.074,25.719,66.787,55.999c4.976,15.763,1.244,35.259-3.734,50.191c9.955,11.2,16.593,26.133,11.199,41.896
        c-2.073,11.615-13.272,20.741-21.985,27.793c2.489,17.835-7.051,31.523-19.909,41.895c-9.128,6.224-21.57,6.224-32.771,4.979
        c-18.665,24.058-45.213,33.599-74.664,30.281c-18.252-3.318-36.919-12.859-47.289-28.621c-18.665,4.979-38.161-1.245-49.361-16.177
        c-4.563-8.298-8.711-16.595-8.711-27.378c-13.688-7.883-24.059-21.986-24.889-37.749c-0.415-12.028,4.562-23.229,12.03-33.184
        c-9.541-23.644-8.298-54.755,6.222-75.911c13.273-15.762,31.524-27.376,51.436-31.109c4.562-11.199,10.784-23.645,23.229-29.867
        C206.739,96.139,224.574,98.213,238.264,104.02z"/>
    <path fill="#FFFFFF" d="M293.02,123.101c18.251,43.555-21.154,77.569-43.557,110.34l2.49,2.489
        c35.258-7.468,80.471-17.422,111.168,6.222c7.466,7.466,10.785,18.665,9.954,29.035c-1.658,14.52-12.858,23.646-24.888,29.867
        c3.733,12.858-0.414,26.96-9.955,36.089c-10.785,8.711-27.793,10.369-39.822,3.318c-31.523-19.91-43.556-55.585-53.925-86.696
        l-2.489-2.487c-10.784,12.028-12.028,30.28-19.909,44.383c-10.371,21.57-26.134,51.021-54.341,51.436
        c-12.859-2.487-27.377-7.465-31.109-22.396l-2.904-19.912c-12.03-4.148-22.814-17.008-24.474-29.866
        c-2.074-15.763,6.222-29.452,19.911-36.504c29.451-13.688,67.198-6.222,99.553-1.244c0.83-1.243,2.489-0.415,3.319-2.073
        c-18.666-30.281-51.022-55.999-52.266-94.577c0-15.348,12.028-27.792,26.133-32.77c11.2-1.659,23.229-0.415,32.354,6.222
        C254.025,101.116,282.649,105.264,293.02,123.101z"/>
    <path fill="#F3C727" d="M141.198,130.568c-19.909,28.621-49.361,45.213-69.272,73.005c2.904-26.133,14.933-55.999,43.141-64.71
        C123.777,136.375,132.487,134.301,141.198,130.568z"/>
    <path fill="#F3C727" d="M397.966,166.655c4.146,10.785,7.051,21.985,9.954,33.185c-21.156-22.813-46.458-41.065-64.711-67.198
        C364.78,136.375,388.837,144.257,397.966,166.655z"/>
    <path fill="#F3C727" d="M70.682,133.057c-2.074,33.599-0.415,67.613-6.222,100.384v6.637
        c-12.445-20.741-20.326-53.511-7.882-78.398C59.896,151.723,64.874,141.353,70.682,133.057z"/>
    <path fill="#F3C727" d="M261.975,150.893c0,4.844-1.701,9.208-6.289,12.03c4.115,2.939,8.076,8.126,8.076,13.907
        c0,15.469-17.913,15.938-25.094,15.938s-18.3-1.223-18.3-1.223l-0.032-55.17c0,0,4.773-1.302,19.774-1.302
        C255.109,135.073,261.975,143.08,261.975,150.893z"/>
    <path fill="#F3C727" d="M429.905,210.21c-4.148,10.785-7.051,21.57-12.029,31.941c-1.658-7.052-1.244-17.837-2.904-26.133
        c-7.879-25.72-1.658-53.096-0.829-79.229C427.417,157.944,437.786,184.077,429.905,210.21z"/>
    <path fill="#FFFFFF" d="M363.95,186.566c3.733,13.689,2.905,29.867-3.318,41.896l-9.125-4.562
        c3.731-13.689,4.148-34.014-4.977-46.459c-9.541-14.103-23.646-21.155-38.163-24.888c-0.416-3.734,0-9.541,0.829-12.443
        C334.5,142.183,356.484,162.923,363.95,186.566z"/>
    <path fill="#FFFFFF" d="M171.48,153.797c-16.178,4.978-36.089,17.422-41.067,35.259c-3.732,11.2-4.147,25.303,0.83,36.089
        c-1.243,4.977-7.052,3.732-9.954,6.222c-10.785-17.008-7.883-45.215,4.977-61.392c9.956-13.273,25.304-24.889,42.726-26.133
        L171.48,153.797z"/>
    <path fill="#FFFFFF" d="M241.799,146.205c4.68,0.203,8.593,1.99,8.593,5.625c0,5.156-3.419,5.811-8.607,5.811
        c-5.186,0-9.717,0.151-9.717,0.151v-11.067C232.068,146.725,237.428,146.016,241.799,146.205z"/>
    <path fill="#FFFFFF" d="M243.293,169.336c5.937,0,8.594,3.559,8.594,5.926c0,4.531-3.399,5.787-7.432,5.787
        c-4.033,0-12.198-0.08-12.198-0.08v-11.344C236.486,169.6,239.074,169.336,243.293,169.336z"/>
    <path fill="#F3C727" d="M86.383,322.089c3.957,8.75,10.432,17.126,15.408,25.837c-13.117-8.542-28.326-18.337-41.033-29.377
        c-12.918-12.085-20.755-25.945-19.917-43.751c0.208-3.75,0-5.834,0.68-9.209c4.653,6.501,9.574,13.36,16.211,19.583
        c0,0,10.942,13.586,17.389,21.07C78.854,311.217,86.383,322.089,86.383,322.089z"/>
    <path fill="#F3C727" d="M87.215,318.964c-7.5-17.706-18.125-42.706-12.8-57.731c4.562-12.444,9.956-25.303,19.911-34.844
        l-0.416,39.406c-3.732,19.081-9.954,41.479-2.073,60.146L87.215,318.964z"/>
    <path fill="#F3C727" d="M413.727,234.684c0,10.37-0.414,20.741-2.074,30.281c-2.073-21.57-19.911-36.918-27.794-56.414
        l-8.296-33.598C396.305,189.056,414.142,208.551,413.727,234.684z"/>
    <path fill="#F3C727" d="M427.83,276.165l-20.323,22.399c5.807-29.865,16.59-61.392,28.621-92.087l0.415-7.881
        C442.35,223.069,447.742,255.01,427.83,276.165z"/>
    <path fill="#F3C727" d="M404.187,297.319c-2.075,7.882-5.808,15.349-10.372,21.986c5.394-21.986-4.562-41.897-6.22-63.052
        l0.414-31.109C406.676,243.395,412.897,272.432,404.187,297.319z"/>
    <polygon fill="#F3C727" points="331.775,257.211 331.305,268.378 306.921,267.469 306.377,280.424 325.375,280.96 325.237,292.173 
        306.212,291.595 305.149,313.48 292.877,313.056 294.775,256.118  "/>
    <path fill="#F3C727" d="M442.35,264.965c-4.564,22.814-7.883,46.873-27.379,61.807c-11.615,7.881-24.059,13.689-35.672,21.57
        c17.006-26.133,34.843-52.682,55.997-74.666l5.809-9.955L442.35,264.965z"/>
    <path fill="#F3C727" d="M355.238,369.084h-1.243c10.785-22.815,12.86-49.778,24.889-72.178c3.317-6.638,5.807-13.689,7.467-21.156
        C397.966,310.595,382.201,346.682,355.238,369.084z"/>
    <path fill="#F3C727" d="M112.578,312.252c6.222,17.01,6.637,36.09,16.176,51.854c1.659,4.146,5.394,6.221,6.638,10.369h-1.659
        c-26.963-24.059-53.925-58.489-38.163-96.236C98.474,290.269,106.77,301.054,112.578,312.252z"/>
    <path fill="#F3C727" d="M141.198,385.26c-26.962-5.393-60.976-12.861-74.251-42.312c-3.317-7.051-8.709-14.102-9.954-21.155
        C86.029,340.461,116.726,361.2,141.198,385.26z"/>
    <path fill="#F3C727" d="M421.609,330.92c-12.858,32.354-47.288,52.266-79.644,54.34c25.302-23.229,51.435-42.312,80.473-58.073
        L421.609,330.92z"/>
    <path fill="#F3C727" d="M309.612,398.949l-20.328,6.221c24.473-12.029,37.334-46.043,63.467-62.222l9.127-13.687
        C358.971,358.297,340.72,390.238,309.612,398.949z"/>
    <path fill="#F3C727" d="M193.465,410.148v1.242c-38.578,10.786-77.154-4.976-99.139-33.596
        c23.229,5.391,59.424,15.173,70.129,19.504S184.753,408.075,193.465,410.148z"/>
    <path fill="#F3C727" d="M151.882,386.293c-14.933-15.762-29.35-32.559-29.35-55.373c12.335,18.952,31.915,31.896,48.173,48.41
        c3.877,3.938,12.969,16.562,16.719,20s5.58,5.225,6.041,5.84c0,0-17.604-5.996-22.447-8.34S155.615,390.028,151.882,386.293z"/>
    <path fill="#FFFFFF" d="M255.686,361.615c10.368-2.905,21.154-8.296,28.621-17.007c3.734,1.245,11.201,2.487,9.127,7.466
        c-16.594,18.667-41.067,26.963-65.956,21.984c-13.273-3.732-26.963-11.198-35.259-22.399c1.245-3.733,5.394-5.391,8.711-7.466
        C214.62,358.297,234.531,365.764,255.686,361.615z"/>
    <path fill="#F3C727" d="M322.884,364.105c-14.103,27.375-43.972,47.285-75.495,47.7c0.831-2.903,5.395-4.976,8.711-6.636
        C273.938,382.77,299.655,375.305,322.884,364.105z"/>
    <path fill="#F3C727" d="M238.679,411.391c-4.147,2.905-9.956,0-14.933,0c-28.622,0-42.727-26.131-58.488-46.043
        C191.805,375.305,216.693,390.238,238.679,411.391z"/>
    <path fill="#F3C727" d="M387.595,379.452c-25.718,30.28-63.468,35.674-101.628,31.11c31.94-13.688,67.199-22.814,101.628-32.768
        V379.452z"/>
    <path fill="#F3C727" d="M243.656,401.438c8.71-6.639,18.252-13.274,28.622-17.008c-7.882,8.297-16.178,16.178-25.303,23.229
        c-14.933,1.244-23.644-16.178-35.674-23.229C222.916,388.163,233.701,393.971,243.656,401.438z"/>
    <path fill="#F3C727" d="M244.485,416.369c31.111-9.127,61.39,4.147,92.089-2.073c-17.01,13.274-42.727,22.399-64.709,13.688
        c-12.032-2.487-21.158-16.179-35.676-9.125c-21.154,12.443-51.021,21.569-74.665,7.465c-4.978-3.732-12.029-4.562-15.349-9.541
        C179.361,420.104,211.716,407.242,244.485,416.369z"/>
    <path fill="#F3C727" d="M282.234,434.208c0.415,4.147-4.978,2.487-7.467,3.73c-9.955,0-24.06,1.66-32.771-4.978
        c-11.613,7.053-28.62,9.958-41.065,4.978v-1.243c18.667-1.244,32.771-22.399,52.265-12.858
        C262.325,428.4,271.866,432.548,282.234,434.208z"/>
    <path d="M218.249,228.1c0,0-36.813-40.185-43.555-64.296c0,0-49.776,16.853-32.147,58.592
        C152.398,221.877,197.768,217.729,218.249,228.1z"/>
    <path d="M264.013,226.088c0,0,32.791-12.508,77.383-6.544c0,0,9.851-49.519-35.383-56.697
        C301.647,171.693,282.286,211.767,264.013,226.088z"/>
    <path d="M241.475,269.683c0,0-5.228,33.476-33.337,68.601c0,0,39.667,33.703,68.703,0.518
        C269.841,331.283,244.318,292.724,241.475,269.683z"/>
    
        <rect x="143.359" y="281.011" transform="matrix(0.0363 0.9993 -0.9993 0.0363 451.0038 104.1828)" fill="#F3C727" width="56.25" height="9.844"/>
    <path fill="#F3C727" d="M193.038,51.38l7.063,39.366c-1.266,1.643-4.285,1.621-6.283,2.177l-1.644-1.267
        c-1.289-10.834-4.509-22.425-6.487-32.638c-4.84-0.377-2.839-4.914-1.847-7.569C186.084,48.675,191.371,45.385,193.038,51.38z"/>
</g>
</svg>