<svg version="1.1" id="fbk" xmlns="http://www.w3.org/2000/svg" xmlns:xlink="http://www.w3.org/1999/xlink" x="0px" y="0px"
     width="85.32px" height="76.778px" viewBox="0.13 0 85.32 76.778" enable-background="new 0.13 0 85.32 76.778"
     xml:space="preserve">
<g>
    <g>
        <defs>
            <rect id="SVGID_1_" x="0.13" y="0" width="85.32" height="76.777"/>
        </defs>
        <clipPath id="SVGID_2_">
            <use xlink:href="#SVGID_1_"  overflow="visible"/>
        </clipPath>
        <path clip-path="url(#SVGID_2_)" fill="#FFD121" d="M54.984,67.77c-0.518,0.398-1.279,0.549-1.916,0.797
            c-0.469-0.091-7.443-4.08-10.458-5.071c-3.466,1.396-6.886,2.926-9.9,5.176l0.853,0.002c-0.709,0.128-3.103-0.588-3.822-0.633
            c3.195-2.386,7.064-3.959,10.8-5.399c-1.351-0.45-2.7-1.08-4.14-1.306c-3.465,1.756-8.055,3.556-11.926,1.576
            c-0.99-0.405-1.935-0.767-2.925-1.125c2.925-0.9,5.851-2.386,9.226-2.521c-1.575-0.63-3.69-0.405-5.445,0.09
            c-2.205,0.63-4.141,2.07-6.75,1.44c-2.205-0.405-4.096-1.396-5.895-2.745v-0.18c3.375,0.676,6.705-0.494,10.17-0.494
            c-2.971-2.205-6.75,0.404-10.215-0.36c-2.701-0.63-3.871-2.385-5.625-4.5C9.76,54,13.675,52.786,16.465,54
            c-2.475-3.465-7.56-0.495-10.35-3.69c-1.44-1.396-2.655-3.148-3.375-5.175c0.765,0.585,1.755,1.26,2.79,1.529
            c1.8,0.405,3.6,0.944,5.22,1.711c-1.62-2.972-5.445-2.476-7.605-4.59c-1.98-1.71-2.7-4.005-3.015-6.525
            c1.485,2.43,4.995,2.475,6.75,4.814c-0.765-3.779-5.94-3.24-6.659-7.199c-0.226-1.306-0.315-2.88-0.091-4.141
            C0.4,31.05,0.4,31.68,0.715,32.13c1.17,1.89,3.33,2.97,4.41,4.95c0.27-3.15-3.689-3.735-4.095-6.615
            c-0.495-1.98-0.226-3.96,0-5.896c0.585,2.836,2.204,4.995,3.78,7.336c0.314-3.24-3.33-4.681-3.061-7.921
            c0-1.71,0.314-3.239,0.945-4.68c0.27,0.405,0.135,1.125,0.314,1.62c1.08,2.25,1.44,4.725,2.025,7.155
            c0.99-2.88-0.585-5.445-1.305-8.056c-0.36-1.845,0.09-3.689,0.854-5.13c0,2.565,1.351,4.545,1.62,7.021H6.34
            c0.36-1.936-0.63-3.465-0.765-5.311c-0.405-2.34,0.495-4.455,1.44-6.21l0.135,0.181c0.539,2.52,0.225,5.489,0.449,8.01L7.78,18.45
            c1.079-2.655-0.495-5.58,0.45-8.325C8.5,9.09,9.04,8.01,9.715,7.156c-0.135,2.52,0.09,5.444-0.36,8.055
            c1.709-1.71,0.494-4.771,1.439-6.976c0.36-1.17,0.945-2.43,1.665-3.329c0.09,2.069,0.181,3.869-0.45,5.67
            c1.846-1.62,0.271-4.726,2.205-6.48l1.665-1.71c0,1.35-0.36,2.745-0.899,3.96c1.439-1.71,2.16-5.04,5.175-5.22
            c0.09,1.08-0.585,1.845-1.08,2.7c-1.17,1.395-2.97,1.935-4.185,3.555c1.395-0.855,2.879-2.07,4.59-2.16
            c-0.721,2.655-3.69,3.69-6.075,4.725c-0.54,0.36-0.81,0.811-1.08,1.261c1.125-1.035,2.79-1.485,4.364-1.71
            c-1.08,1.8-3.06,3.149-5.219,3.734c-0.766,0.54-1.035,1.035-1.44,1.846c1.53-1.125,3.465-2.07,5.354-2.655
            c-0.945,1.89-2.43,4.14-4.725,4.41c-1.395,0-2.16,0.989-2.655,2.114v0.181c1.216-1.08,2.925-1.98,4.636-2.25
            c0.135-0.045,0.27-0.045,0.36-0.135c-1.125,2.43-3.51,3.96-5.85,4.949c-0.495,0.45-0.676,1.261-0.9,1.891
            c1.305-1.351,2.79-2.565,4.725-3.24l0.676-0.585c-0.135,0.9-0.721,1.71-1.17,2.43c-1.351,2.521-4.905,2.385-4.86,5.58
            c0.989-1.935,2.88-2.564,4.319-3.87c-0.899,2.565-1.844,5.04-4.14,6.75C5.44,31.455,5.08,32.31,5.305,33.3
            c0.631-2.16,2.385-3.825,3.916-5.49c0.494,2.7-0.541,5.266-2.25,7.155C6.205,35.73,5.8,36.72,5.846,37.845
            c0.27-0.314,0.494-0.899,0.81-1.396c1.034-1.396,2.745-2.564,2.79-4.5c0.404,0.225,0.09,0.675,0.27,1.034
            c0.9,3.195-2.115,5.4-2.43,8.325c0.045,0.811,0.495,1.44,0.855,2.115c0.09-2.7,0.989-5.04,2.024-7.29
            c1.17,2.25,1.665,5.49,0.585,8.01c-0.225,0.722-0.585,1.485-0.314,2.295c0.359,0.855,0.854,1.665,1.395,2.386
            c-0.675-2.654-0.09-5.535,0.09-8.056c0.945,1.847,2.295,3.735,2.926,5.715h0.225c-0.36,0.091-0.045,0.36-0.045,0.541
            c0.584,1.935-0.315,4.274,1.08,5.896c0.675,0.494,1.08,0.99,1.845,1.35c-0.63-1.215-1.71-2.563-1.845-4.095
            c-0.045-1.485-0.315-3.06-0.586-4.41c2.476,1.936,4.23,4.727,5.041,7.74c0.944,1.845,2.43,3.555,4.545,3.96
            c-2.205-2.115-4.23-4.545-4.996-7.562l-0.629-0.944c2.789,1.216,5.939,3.24,7.289,6.346c0.9,1.8,2.521,3.51,4.815,3.51
            c-2.565-1.979-4.726-4.5-6.075-7.47c2.971,1.8,7.516,1.979,9,5.67c0.766,1.125,0.99,2.835,2.43,3.24
            c2.07,0.36,4.006,1.17,5.985,1.62l5.086-1.53c1.574-1.755,2.475-4.095,4.545-5.761c1.936-1.709,4.364-2.564,6.795-3.06
            C58,54.36,55.48,56.61,53.59,59.084c3.016-0.539,4.096-3.239,5.311-5.625c1.621-2.114,3.736-3.734,6.076-4.726
            c-0.945,3.15-2.205,6.12-4.86,8.507c1.53-0.315,3.015-1.262,3.87-2.701c0.81-2.744,1.395-5.939,3.688-7.739l1.937-1.44
            c-0.09,0.45-0.271,1.035-0.45,1.575c-0.405,2.115-0.36,4.41-1.261,6.3c3.285-1.125,1.306-4.813,2.07-7.38
            c0.225-2.25,1.574-4.05,3.104-5.625c-0.313,2.7,0.405,5.716-0.226,8.415c0.721-0.989,1.846-1.936,1.979-3.42
            c-0.854-3.016-1.438-6.885,0.271-9.766c0.449,0.854,0.631,1.979,1.08,2.926c0.494,1.035,0.766,2.205,1.034,3.33
            c1.665-3.87-3.329-6.705-1.438-10.935c0.765,2.204,3.24,3.915,3.104,6.704c1.262-3.914-3.824-5.76-2.699-9.899l0.225-0.766
            c1.351,1.756,2.971,3.33,3.466,5.58c0.226-4.14-4.229-5.67-4.32-9.854c2.07,0.945,3.511,2.7,4.636,4.68
            c0.045-2.25-1.799-3.645-3.465-4.68V22.41c-0.449-0.136-0.99-0.9-1.351-1.396l-1.125-2.34l0.135-0.045
            c2.07,0.405,3.69,2.205,5.177,3.555c-1.035-3.6-5.67-3.285-6.437-7.109c1.215,1.215,3.194,1.529,4.68,2.205
            c-0.765-2.521-4.005-1.575-5.31-3.646c-0.405-0.585-0.854-1.17-1.08-1.8c1.89,0.405,3.555,1.17,5.22,2.295
            c-1.215-1.98-4.274-2.295-5.938-4.005c-0.271-0.54-0.767-0.945-0.99-1.53c1.89,0,3.42,1.035,4.814,2.07
            c0-0.271-0.314-0.675-0.494-0.99c-1.621-1.71-5.131-1.26-5.94-3.915l-0.358-1.305c1.17,1.35,2.653,1.62,4.094,2.295
            c-1.305-1.98-3.914-2.385-4.68-4.771C66.91,1.35,66.73,0.54,66.55,0c2.882,1.125,4.5,3.825,5.716,6.479
            c-0.271-1.62-1.216-3.06-1.08-4.859c2.114,1.395,2.295,4.274,2.746,6.75c0.27,0.54,0.539,1.17,0.854,1.665
            c-0.676-1.801-0.766-3.87-0.314-5.896c0.404,0.315,0.721,0.811,0.989,1.305c1.53,2.61-0.448,5.94,1.485,8.325
            c-0.09-1.395-0.631-3.104-0.045-4.545C77.214,8.55,77.35,7.83,77.484,7.11h0.226c1.215,2.521,1.125,5.851,0.271,8.551
            c0.09,0.585,0.181,1.26,0.496,1.755c0.225-2.521,0.81-4.95,1.125-7.38c1.89,2.52,1.305,6.3,0.09,9.09
            c-0.09,0.63-0.045,1.35,0.18,1.935c0.271-2.7,1.755-4.859,2.25-7.47h0.18c0.495,1.979,1.172,4.365,0.047,6.255
            c-1.035,1.89-1.98,3.78-1.892,6.165c0.54-0.72,0.675-1.935,1.125-2.835c0.767-1.44,1.351-2.925,1.892-4.455
            c0.674,1.8,1.35,4.41,0.09,6.165c-1.485,2.025-2.926,4.23-3.15,6.93h0.09c1.08-2.699,2.79-4.949,4.545-7.109
            c0.045-0.09,0-0.315,0.182-0.271c-0.137,2.521-0.182,5.175-1.847,6.931c-1.438,1.35-3.06,2.969-3.6,5.084
            c1.44-2.654,4.409-3.87,5.67-6.436c0.135,2.97-0.63,6.3-3.511,7.561c-1.799,0.854-3.689,2.114-4.141,4.229
            c1.53-2.115,3.557-3.15,5.807-4.141l1.574-1.125c-0.404,2.791-1.936,5.806-4.32,7.604c-2.295,1.306-5.219,1.439-6.659,4.051
            c2.43-1.62,5.715-1.62,7.875-3.825h0.135c-0.944,2.7-2.79,5.534-5.58,6.795c-2.475,0.944-5.58,0.271-7.649,2.069
            c2.746-0.539,6.211-0.135,8.774-1.395c-1.755,2.385-4.59,5.13-8.233,4.68c-2.25,0.271-4.771-0.54-6.75,0.495
            c2.97-0.181,5.895,1.035,8.818,0.36V57.6c-1.935,2.7-5.625,3.51-9,2.745c-2.475-0.899-5.354-1.89-8.055-0.81
            c3.33,0.135,6.345,0.898,9.09,2.34c-2.654,0.899-5.311,1.89-8.234,1.619c-1.979-0.091-3.869-0.539-5.49-1.529
            c-1.619-0.585-3.149,0.359-4.635,0.675c1.846,0.944,4.141,1.755,6.074,2.835C52.512,66.196,53.859,66.825,54.984,67.77"/>
    </g>
</g>
<path fill="#009B5E" d="M46.21,5.4C53.455,5.67,60.25,7.29,66.596,9.81c-2.16,18.405-10.171,35.28-22.814,48.061
    c-0.495,0.45-0.9,1.08-1.395,1.261C31.721,48.645,24.745,34.425,21.1,19.8c-0.675-3.15-1.17-6.345-1.484-9.675
    c6.57-2.7,14.175-4.41,21.15-4.771C42.476,5.4,44.365,5.265,46.21,5.4"/>
<path fill="#FFFFFF" d="M62.32,10.395l-7.785,6.57l-23.31,19.44l-1.484,1.17c-3.87-8.146-6.93-16.74-7.965-26.146
    C33.609,6.75,49.9,5.985,62.32,10.395"/>
<path fill="#009B5E" d="M45.355,15.345h-9.99L35.32,18.72h7.335l0.135,3.555h-7.56l-0.135,7.561c-0.945,1.08-2.341,2.024-3.466,2.97
    h0.091v0.18h-0.09l-0.045-20.79L31.54,12.15c4.274-0.225,9.226-0.09,13.815-0.135V15.345"/>
<path fill="#FFFFFF" d="M54.221,32.895l-2.341,2.07c-1.215-0.495-2.476-0.9-3.688-1.35c-0.227,1.528,0.135,3.104,0.09,4.68
    l-1.711,1.483l-0.629-10.483l1.8-1.62c0.09,1.215,0,2.52,0.271,3.645c1.936-2.925,2.25-7.064,5.579-8.954l-4.185,8.774
    L54.221,32.895"/>
<path fill="#FFFFFF" d="M43.42,34.065c0.137,1.035-0.09,2.025-0.495,2.927c0.54-0.137,1.306-0.091,1.53,0.584
    c0.63,4.141-3.016,6.931-5.715,9.271L38.109,36.27c1.306-0.989,2.565-2.563,4.141-3.015C42.835,33.075,43.33,33.571,43.42,34.065"/>
<path fill="#009B5E" d="M41.755,36.27c0.091,1.17-0.765,1.937-1.53,2.7c-0.135-0.765-0.18-1.71-0.135-2.564
    C40.495,36.09,41.8,34.786,41.755,36.27"/>
<path fill="#009B5E" d="M42.79,39.51c0.135,1.8-1.215,2.925-2.34,3.96l-0.181-2.745c0.766-0.54,1.351-1.483,2.341-1.35L42.79,39.51"
    />
<path fill="#009B5E" d="M19.668,68.542h11.857c0.297,0.021,0.609,0.035,0.945,0.035c1.625,0,20.543-0.035,20.543-0.035h11.834v1.351
    c3.646,0.091,7.561-0.044,11.25,0.091c-1.891,1.125-3.914,2.069-5.896,3.24l5.399,3.285l-0.181,0.134H57.288l-0.09-0.134l6.3-1.666
    l-5.625-0.09h-36.27l0.225,0.181c1.71,0.54,3.42,1.125,5.13,1.754l-0.18,0.091H8.823c1.62-1.17,3.239-1.979,4.905-3.104L13.052,73
    c-1.439-0.946-3.06-1.801-4.635-2.746c3.555-0.226,7.605-0.045,11.205-0.18C19.758,69.624,19.713,68.993,19.668,68.542"/>
<polyline fill="#FFFFFF" points="22.459,73.142 23.605,73.142 23.605,72.292 23.922,72.02 24.838,73.142 26.266,73.142 
    24.698,71.386 26.046,70.26 24.635,70.26 23.615,71.253 23.605,71.253 23.605,70.26 22.459,70.26 22.459,73.142 "/>
<path fill="#FFFFFF" d="M27.911,73.142h1.151l0.166-0.411h1.182l0.156,0.411h1.187l-1.354-2.882H29.28L27.911,73.142 M29.479,72.115
    l0.358-0.89h0.011l0.334,0.89H29.479z"/>
<path fill="#FFFFFF" d="M35.148,70.946h0.537c0.437,0,0.566,0.105,0.566,0.287c0,0.259-0.291,0.287-0.505,0.287h-0.599
    L35.148,70.946 M34.003,73.142h1.146v-1.004h0.609c0.452,0,0.484,0.286,0.516,0.562c0.015,0.147,0.035,0.297,0.094,0.441h1.145
    c-0.104-0.133-0.108-0.476-0.125-0.616c-0.041-0.36-0.233-0.627-0.547-0.72c0.381-0.107,0.557-0.424,0.557-0.722
    c0-0.545-0.562-0.824-1.211-0.824h-2.183L34.003,73.142L34.003,73.142z"/>
<polyline fill="#FFFFFF" points="39.314,73.142 42.105,73.142 42.105,72.403 40.46,72.403 40.46,70.26 39.314,70.26 39.314,73.142 
    "/>
<path fill="#FFFFFF" d="M43.441,72.174c0.01,0.92,1.213,1.037,1.635,1.037c0.828,0,1.718-0.242,1.718-0.993
    c0-0.529-0.521-0.72-1.047-0.832c-0.524-0.112-1.056-0.157-1.077-0.363c0-0.161,0.255-0.193,0.411-0.193
    c0.114,0,0.245,0.021,0.338,0.073c0.095,0.048,0.157,0.12,0.136,0.229h1.084c-0.031-0.702-0.744-0.94-1.553-0.94
    c-0.766,0-1.499,0.286-1.499,0.952c0,0.582,0.672,0.706,1.261,0.836c0.641,0.143,0.801,0.182,0.801,0.331
    c0,0.215-0.285,0.263-0.474,0.263c-0.214,0-0.464-0.035-0.547-0.209c-0.024-0.054-0.042-0.117-0.042-0.189L43.441,72.174"/>
<polyline fill="#FFFFFF" points="48.809,73.142 49.954,73.142 49.954,70.999 50.994,70.999 50.994,70.26 47.768,70.26 
    47.768,70.999 48.809,70.999 48.809,73.142 "/>
<path fill="#FFFFFF" d="M52.773,73.142h1.149l0.167-0.411h1.184l0.156,0.411h1.186l-1.354-2.882h-1.119L52.773,73.142
     M54.341,72.115l0.359-0.89h0.011l0.333,0.89H54.341z"/>
<path fill="#FFFFFF" d="M60.012,70.999h0.364c0.827,0,0.899,0.505,0.899,0.687c0,0.271-0.104,0.718-0.817,0.718h-0.446V70.999
     M58.865,73.142h1.656c1.295,0,1.898-0.562,1.898-1.443c0-0.728-0.438-1.438-1.676-1.438h-1.881v2.882H58.865z"/>
</svg>