<svg version="1.1" id="fhc1" xmlns="http://www.w3.org/2000/svg" xmlns:xlink="http://www.w3.org/1999/xlink" x="0px" y="0px"
     width="500.003px" height="443.632px" viewBox="0 0.002 500.003 443.632" enable-background="new 0 0.002 500.003 443.632"
     xml:space="preserve">
<g>
    <path d="M158.189,314.77l-71.052,51.717c0,0-6.521,4.348-13.475,4.998c-6.736,1.517-17.716-2.838-26.745-3.948
        c-6.527-0.792-15.192-0.185-15.192-0.185s3.85-4.74,6.963-10.752c2.585-5.018,4.403-14.104,7.16-19.453
        c3.829-7.418,7.28-10.348,7.28-10.348s-5.18,0.203-11.212-1.77c-6.801-2.234-11.317-6.883-18.176-9.131
        c-6.159-2.025-14.833-2.651-14.833-2.651s6.494-4.618,10.629-9.168c4.744-5.22,7.716-12.502,12.561-17.832
        c4.399-4.833,7.651-6.729,7.651-6.729s-3.214-0.332-7.528-3.328c-3.644-2.523-13.267-10.856-18.225-13.521
        C7.581,259.204,0,258.271,0,258.271s4.36,0.029,14.139-6.928c9.776-6.951,9.846-10.255,15.474-14.16
        c5.213-3.615,8.198-4.341,8.198-4.341s-6.128-2.598-9.168-6.073c-3.042-3.476-9.963-11.578-15.434-16.283
        c-5.843-5.026-9.346-8.029-9.346-8.029s6.69-1.552,11.471-3.945c4.78-2.389,13.973-9.171,20.128-11.848
        c5.653-2.458,11.127-2.515,11.127-2.515s-3.479-2.001-6.552-6.256c-3.083-6.497-7.7-14.779-11.341-19.96
        c-3.067-4.366-8.704-10.483-8.704-10.483s8.637,1.954,14.166,0.29c5.318-1.587,7.872-2.605,20.657-6.016
        c7.019-1.875,10.541,0.07,10.541,0.07s-3.451-2.086-4.857-8.465c-1.817-8.256-3.076-13.451-5.37-19.18
        c-2.54-6.363-6.672-12.984-6.672-12.984s8.287,2.797,14.563,2.757c6.877-0.049,12.226-1.897,18.86-1.271
        c7.731,0.721,10.939,2.173,10.939,2.173s-2.26-3.402-3.423-11.286c-1.167-7.911,0.246-12.025,0.375-19.17
        c0.083-4.55-3.97-14.662-3.97-14.662s9.257,5.512,12.622,6.094c3.804,0.667,14.633,1.718,21.532,4.069
        c6.853,2.327,8.729,4.019,8.729,4.019s-0.642-2.126-0.289-9.23c0.387-7.732,3.473-14.767,3.574-23.243
        c0.055-4.418-2.782-13.851-2.782-13.851s6.543,7.04,12.241,10.429c5.508,3.28,16.5,6.88,21.471,9.63
        c3.761,2.077,6.426,4.085,6.426,4.085s0.648-3.589,2.25-9.145c1.713-5.92,6.991-15.85,8.944-22.621
        c2.419-8.386,1.935-12.901,1.935-12.901s5.293,7.396,10.092,11.559c6.012,5.215,13.868,8.305,19.763,13.425
        c4.553,3.951,6.663,6.557,6.663,6.557s2.883-6.449,7.003-11.96c5.115-6.854,12.004-12.197,17.107-17.101
        c3.703-3.552,6.119-9.52,6.119-9.52s2.456,5.069,6.238,10.063c4.1,5.411,11.933,10.24,16.502,16.27
        c5.261,6.934,6.787,12.397,6.787,12.397s2.022-3.486,6.576-7.55c4.906-4.372,13.705-7.918,19.183-12.799
        c6.361-5.671,10.157-10.873,10.157-10.873s0.63,6.275,2.372,12.454c2.109,7.514,7.083,13.978,9.11,21.179
        c1.553,5.496,1.338,10.614,1.338,10.614s2.851-2.918,8.455-6.185c5.367-3.129,12.951-4.503,18.637-7.815
        c6.722-3.913,12.898-9.589,12.898-9.589s-2.416,6.669-2.158,13.244c0.261,6.51,4.06,13.957,4.32,20.429
        c0.248,6.46-1.084,12.598-1.084,12.598s4.851-4.334,9.91-6.171c6.248-2.27,15.886-2.119,22.91-4.673
        c7.079-2.582,10.209-4.804,10.209-4.804s-2.312,4.844-3.13,10.201c-1.139,7.462,1.161,13.472-0.029,21.319
        c-0.939,6.154-4.354,14.667-4.354,14.667s4.741-3.194,10.789-3.832c6.34-0.672,15.999,1.942,22.81,1.221
        c7.55-0.795,12.157-2.722,12.157-2.722s-3.761,6.213-5.91,11.718c-2.809,7.172-3.996,11.044-6.397,21.343
        c-1.283,5.521-6.662,8.789-6.662,8.789s7.053-1.943,14.172-0.91c5.754,0.833,14.498,4.496,24.151,5.942
        c7.083,1.051,8.895-0.381,8.895-0.381s-3.692,3.56-7.447,8.868c-3.895,5.502-7.895,14.6-11.456,20.188
        c-3.285,5.147-9.45,8.845-9.45,8.845s6.623-1.26,11.608,0.813c6.604,2.743,14.062,7.966,21.011,11.795
        c5.84,3.219,12.349,4.447,12.349,4.447s-2.555,2.485-6.921,6.262c-5.774,4.99-11.593,12.981-17.507,18.096
        c-4.67,4.038-11.488,5.817-11.488,5.817s6.858,2.438,12.296,6.216c5.459,3.788,10.338,10.493,15.827,14.301
        c5.512,3.825,13.129,5.392,13.129,5.392s-6.116-0.246-11.492,2.685c-6.635,3.61-15.631,9.396-20.901,14.896
        c-2.914,3.047-10.517,3.146-10.517,3.146s6.874,4.298,8.21,5.305c3.918,2.948,7.329,11.644,13.765,19.251
        c5.131,6.061,11.591,9.26,11.591,9.26s-3.647-0.742-12.512,2.217c-6.401,2.132-11.744,5.36-19.125,9.567
        c-4.846,2.751-14.68,1.935-14.68,1.935s5.438,4.219,8.366,9.709c2.997,5.637,5.732,15.859,8.91,21.834
        c3.5,6.564,5.886,9.354,5.886,9.354s-2.745-0.037-14.225,0.239c-7.935,0.203-16.668,4.391-22.812,4.471
        c-9.328,0.13-16.297-3.696-16.297-3.696l-73.229-53.89l3.042,12.17l-5.435,5.435l6.521-0.871c0,0,1.516,9.996,1.516,28.468
        c-0.43,0.013-5.428,4.998-5.428,4.998l5.213-0.437c0,0,0.639,29.752-14.792,50.851c-4.968,6.778-9.327,20.639-9.327,20.639
        s-3.387-9.248-4.143-11.359c-0.752-2.112-13.021-19.712-14.548-27.099c-1.736,0-1.954,0-1.954,0l-0.651,17.385l-18.907-3.047
        l-0.865,18.906l-19.771-4.777l-11.299,18.907l-11.956-19.122l-19.339,4.992l-1.52-18.686l-18.471,3.039l-0.436-17.599H196
        c-4.265,12.115-12.385,19.772-18.468,38.028c-2.825-11.084-17.967-33.994-18.907-38.465c-4.998-16.947-5.867-32.594-5.867-32.594
        l5.431,0.649c0,0-3.042-2.608-5.431-4.562c-0.651-3.047,1.959-28.904,1.959-28.904l6.951,1.959l-6.521-5.87L158.189,314.77z"/>
    <path fill="#FFFFFF" d="M341.182,284.902l95.537,39.029l-33.801,2.866l59.453,36.599l-0.301,0.447l-61.418-32.514l13.735,31.027
        l-75.19-54.541l-4.341-10.868c0,0,1.922-2.554,3.543-5.569C340.045,288.311,341.182,284.902,341.182,284.902z"/>
    <path fill="#FFFFFF" d="M340.99,261.311l108.553,16.898l-32.594,11.316l66.698,20.221v0.607l-67.756-16.75l22.181,27.086
        l-96.269-38.625c0,0,0.603-3.396,0.543-8.694C342.295,268.188,340.99,261.311,340.99,261.311z"/>
    <path fill="#FFFFFF" d="M336.771,241.863l114.586-8.167l-29.127,17.198l69.411,5.436v0.902l-69.259-2.112l27.463,19.466
        L339.63,258.484l-2.287-4.342c0.082,0.1,0.46-0.705,0.476-6.515C337.828,244.559,336.771,241.863,336.771,241.863z"/>
    <path fill="#FFFFFF" d="M338.006,220.351l104.749-32.983l-24.142,25.806l68.958-10.941l0.152,0.604l-67.76,14.408
        c0,0,32.176,12.535,31.089,12.528c-2.137-0.019-112.939,9.267-112.939,9.267s3.987-4.753,3.965-9.235
        C342.053,224.955,338.006,220.351,338.006,220.351z"/>
    <path fill="#FFFFFF" d="M334.506,199.293l90.444-52.742l-18.108,28.292l64.146-26.089l0.655,0.326l-63.293,29.536l33.198,4.83
        L338.627,217.2c0,0,3.199-4.66,1.639-10.57C338.703,200.713,334.506,199.293,334.506,199.293z"/>
    <path fill="#FFFFFF" d="M325.544,179.603c0,0,4.793,2.005,7.2,6.248c2.26,3.979,1.998,10.219,1.998,10.219l88.243-52.914
        l-33.198,2.865l55.077-42.479l-0.378-0.451c-19.808,13.187-57.113,39.458-57.113,39.458l12.072-31.159L325.544,179.603z"/>
    <path fill="#FFFFFF" d="M309.778,162.917c0,0,5.445-0.358,9.849,3.852c3.902,3.733,4.363,10.538,4.363,10.538l73.042-68.711
        l-32.443,9.356l43.229-54.474l-0.302-0.301l-47.003,51.456l5.28-33.501L309.778,162.917z"/>
    <path fill="#FFFFFF" d="M290.848,148.97c0,0,6.957-0.978,11.306,1.956c4.341,2.932,6.299,9.126,6.299,9.126l54.326-80.881
        l-29.125,16.45L364.34,33.5l-0.205-0.353l-35.309,59.756l-2.164-33.099L290.848,148.97z"/>
    <path fill="#FFFFFF" d="M266.188,140.278c0,0,5.709-3.313,13.033-1.508c6.936,1.712,9.237,8.244,9.237,8.244l34.985-88.616
        L297.736,80.38l15.045-67.855l-20.326,66.194l-12.827-32.746L266.188,140.278z"/>
    <path fill="#FFFFFF" d="M235.33,139.952c0,0,6.954-6.247,13.801-6.3c6.844-0.056,14.014,6.951,14.014,6.951l13.015-94.779
        l-23.688,27.612l-3.114-69.513h-0.455l-2.619,69.212l-24.9-27.312L235.33,139.952z"/>
    <path fill="#FFFFFF" d="M183.507,12.475l0.755-0.151l20.675,66.245l12.374-32.441l14.654,93.793c0,0-7.458-2.826-13.027-1.042
        c-5.622,1.801-9.25,8.137-9.25,8.137l-36.07-89.092l26.039,22.306L183.507,12.475z"/>
    <path fill="#FFFFFF" d="M133.71,78.92l29.576,16.549l-31.387-62.321l0.605-0.302l35.916,60.058l2.523-33.969l36.27,90.252
        c0,0-6.208-0.889-10.473,1.761c-4.48,2.785-6.607,9.539-6.607,9.539L133.71,78.92z"/>
    <path fill="#FFFFFF" d="M99.194,108.553l32.705,9.2L88.442,63.251l0.602-0.226l47.307,50.635L131.7,80.331l56.846,83.408
        c0,0-6.315,0.183-9.874,3.905c-3.433,3.591-4.191,10.158-4.191,10.158L99.194,108.553z"/>
    <path fill="#FFFFFF" d="M173.381,180.457L97.294,110.51l12.072,31.365l-57.592-38.861l-0.304,0.455l55.381,42.098l-34.104-1.658
        l91.092,52.215c0,0-0.353-5.628,2.082-9.832C168.079,182.542,173.381,180.457,173.381,180.457z"/>
    <path fill="#FFFFFF" d="M71.39,146.173l92.013,53.536c0,0-4.191,3.688-5.14,8.164c-0.955,4.543,1.342,9.871,1.342,9.871
        L54.541,184.606l33.466-5.647l-62.944-28.865l0.218-0.324c0,0,63.914,25.829,64.571,24.297
        C90.312,172.992,71.39,146.173,71.39,146.173z"/>
    <path fill="#FFFFFF" d="M47.092,279.111l111.132-17.07c0,0-1.148,3.764-1.52,9.271c-0.46,6.847,0.835,11.293,0.835,11.293
        l-97.785,39.986l20.841-26.877l-67.196,16.303l-0.144-0.295l65.983-21.65L47.092,279.111z"/>
    <path fill="#FFFFFF" d="M53.631,187.367l106.732,33.313c0,0-3.042,3.041-3.693,8.472c-0.651,5.435,3.912,10.434,3.912,10.434
        L44.78,231.232l31.928-12.943L8.465,203.514l0.009-0.437l68.667,9.994L53.631,187.367z"/>
    <path fill="#FFFFFF" d="M46.588,276.502c0,0,110.806-17.286,112.838-17.507c0.869-2.168,2.457-4.2,2.457-4.2
        s-1.443-4.704,0.294-12.312c-2.392-0.215-117.195-8.438-117.195-8.438l28.9,17.268l-69.04,6.147l0.138,0.597l69.333-1.523
        L46.588,276.502z"/>
    <path fill="#FFFFFF" d="M164.493,297.171c0,1.081-4.019,9.825-4.13,11.077c-15.879,12.361-77.656,57.48-77.656,57.48l13.982-32.14
        l-61.667,31.839l59.253-36.664l-34.507-3.777c0,0,96.357-39.065,98.313-39.723C159.495,288.689,159.931,292.166,164.493,297.171z"
        />
    <path fill="#FFFFFF" d="M217.004,147.883l7.243,24.697l8.983-2.397l-6.447-25.417c0,0-2.92-1.038-5.364-0.255
        C218.972,145.29,217.004,147.883,217.004,147.883z"/>
    <path fill="#FFFFFF" d="M325.725,228.723l1.31,7.166l9.479-2.027c0,0,1.078-2.094,0.989-3.924
        c-0.086-1.862-1.345-3.465-1.345-3.465L325.725,228.723z"/>
    <path fill="#FFFFFF" d="M319.566,211.335l3.039,7.027l12.823-5.506c0,0,0.961-2.771,0.309-4.646c-0.69-1.962-3.059-3.11-3.059-3.11
        L319.566,211.335z"/>
    <path fill="#FFFFFF" d="M309.791,196.774l4.777,6.152l14.633-10.58c0,0,0.258-2.688-0.756-4.367
        c-1.087-1.798-3.524-2.653-3.524-2.653L309.791,196.774z"/>
    <path fill="#FFFFFF" d="M297.261,184.383l13.758-16.581c0,0,2.715,0.31,4.439,1.866c1.919,1.729,2.874,4.727,2.874,4.727
        l-14.338,15.861L297.261,184.383z"/>
    <path fill="#FFFFFF" d="M282.986,175.916l7.18,3.843l11.728-21.595c0,0-1.345-2.442-3.132-3.566
        c-1.971-1.227-4.402-1.141-4.402-1.141L282.986,175.916z"/>
    <path fill="#FFFFFF" d="M265.1,169.9l9.051,2.32l7.1-24.846c0,0-2.18-2.351-4.538-3.116c-2.426-0.797-5.022,0-5.022,0L265.1,169.9z
        "/>
    <path fill="#FFFFFF" d="M244.167,168.454h9.917l0.51-26.152c0,0-2.598-1.996-5.354-1.962c-2.782,0.039-5.723,2.11-5.723,2.11
        L244.167,168.454z"/>
    <path fill="#FFFFFF" d="M208.53,180.044l6.81-3.911l-11.084-22.097c0,0-2.407-0.407-4.412,0.815
        c-1.91,1.168-3.408,3.967-3.408,3.967L208.53,180.044z"/>
    <path fill="#FFFFFF" d="M194.763,190.541l6.454-5.65l-13.405-16.296c0,0-2.732-0.168-4.636,1.446
        c-1.854,1.577-2.895,4.928-2.895,4.928L194.763,190.541z"/>
    <path fill="#FFFFFF" d="M184.266,203.437l4.489-6.159l-14.916-11.223c0,0-2.109-0.286-3.552,2.604
        c-1.449,2.894-0.946,3.62-0.946,4.274C169.341,193.584,184.266,203.437,184.266,203.437z"/>
    <path fill="#FFFFFF" d="M172.015,236.158c0.329-1.438,0.979-6.979,0.979-6.979l-9.807-2.201c0,0-1.492,0.41-1.52,3.285
        c-0.381,3.396,0.896,4.102,0.896,4.102S169.491,236.214,172.015,236.158z"/>
    <path fill="#FFFFFF" d="M179.295,211.893l-3.04,6.858l-12.852-5.31c0,0-1.176-2.114-0.092-5.121
        c1.087-3.01,2.763-2.608,2.763-2.608L179.295,211.893z"/>
    <path fill="#D8C793" d="M325.617,297.602c0,0,12.248-1.266,13.255-24.445c-0.562-23.262-14.013-23.033-14.013-23.033
        s-13.039,0.436-13.908,24.12C311.82,298.577,325.617,297.602,325.617,297.602z"/>
    <path fill="#D8C793" d="M173.768,250.662c1.996-0.073,13.107,0.977,14.409,22.929c-0.325,25.312-12.594,24.515-13.469,24.558
        c-0.878,0.029-14.344-1.744-14.344-24.017C160.363,251.859,171.772,250.736,173.768,250.662z"/>
    <path d="M324.859,291.951c0,0,8.146,0.65,8.903-19.337c-1.518-19.884-8.582-17.058-8.582-17.058s-9.125-0.223-9.561,19.336
        C316.383,293.038,324.859,291.951,324.859,291.951z"/>
    <path d="M173.618,255.66c0,0,8.584-0.325,10.104,17.82c0,19.343-9.128,18.686-9.128,18.686s-9.34,0-9.34-18.25
        C165.254,255.66,173.618,255.66,173.618,255.66z"/>
    <path fill="#FFFFFF" d="M324.859,285.104c0,0,3.586-1.086,3.043-12.17c-0.544-11.078-3.043-10.752-3.043-10.752
        s-3.262,0.437-3.583,10.536C321.709,286.627,324.859,285.104,324.859,285.104z"/>
    <path fill="#FFFFFF" d="M174.379,285.215c0,0,3.583,0.872,3.368-11.083c-0.215-11.95-3.368-11.624-3.368-11.624
        s-3.909-0.111-3.258,11.949S174.379,285.215,174.379,285.215z"/>
    <path fill="#D8C793" d="M227.074,305.534c5.213,0,14.67,1.405,14.67,1.405s6.736,8.91,7.82,9.021
        c1.086,0.109,8.038-9.34,8.038-9.34s11.188-0.982,14.338-1.197c4.459,3.911,15.433,18.034,22.063,28.031
        c0.325-2.936,0.11-19.668,0.11-19.668l5.539,3.586l-0.872,20.209l-32.271,32.379l-17.163-7.604l-16.408,7.604l-32.266-31.182
        l-1.738-20.534l6.085-4.134c0,0,0.758,15.433,0.104,21.953C208.386,330.624,216.755,315.421,227.074,305.534z"/>
    <path d="M229.463,329.218l4.565-0.436l4.237,4.673c0,0,8.256-1.737,11.731-1.737c3.479,0,10.645,1.849,10.645,1.849l5.217-4.889
        c0,0,4.352,0,4.677,0.104c-1.413,1.627-4.784,6.956-6.632,13.473c0.221-0.11-5.428-3.364-14.879-3.149
        c-9.456,0.215-10.869,2.389-13.368,3.149C233.485,337.367,232.18,333.67,229.463,329.218z"/>
    <path d="M220.445,324.221c2.392-1.088,22.601-6.086,22.601-6.086l6.408,5.323l6.847-5.435c0,0,23.357,6.086,22.707,6.521
        c-0.65,0.438-21.945-2.062-21.945-2.062l-7.284,5.975l-7.82-5.975C241.959,322.482,218.057,325.307,220.445,324.221z"/>
    <path fill="#D8C793" d="M179.267,216.768c0,0,0.765,27.484,1.09,32.378c4.345,2.936,6.408,6.951,7.931,9.664
        c1.412-1.08,5.652-8.578,9.886-13.576c0.215,0.865,1.953,29.549,1.953,29.549l-9.34,11.734l18.253,16.947l0.433,16.192
        c0,0,4.669-6.736,12.17-14.56c7.495-7.822,17.817-12.933,17.817-12.933s-7.605,7.719-7.172,7.829
        c1.52,0.215,10.215,0.865,10.215,0.865l5.542,6.957l3.475-0.33l5.543-6.627c0,0,6.082-0.437,9.015-1.086
        c0.332-0.325-6.736-7.72-6.736-7.72s8.584,3.481,17.931,13.153c9.347,9.665,12.274,13.688,12.274,13.688l-0.755-14.014
        l19.337-18.796l-9.131-11.521l1.848-29.443c0,0,6.742,8.91,9.566,14.02c1.41-2.609,3.879-6.945,8.005-10.205
        c0.218-2.936,0.902-32.604,0.902-32.604l-22.93,1.085l-8.146-26.072l-22.493,11.082l-16.727-19.34l-16.085,19.229l-22.597-10.541
        l-7.82,25.642L179.267,216.768z"/>
    <path d="M205.235,262.618c0.543,0.755,2.174,0.976,2.174,0.976s3.675-4.421,6.994-5.439c3.08-0.934,6.042,1.313,6.042,1.313
        s-0.685,4.79,3.334,6.099c4.888,1.521,6.009-3.17,6.009-3.17l6.847,2.61c0,0-1.953,4.236-3.043,4.673
        c-2.606-0.215-19.45-4.133-20.101-3.476c2.5,2.389,19.122,10.212,20.755,9.45c2.389-1.738,15.317-14.346,15.317-14.346
        s13.037,13.043,15.428,14.234c2.606,0,17.928-6.951,21.401-10.212c-2.174,0-21.08,4.237-21.08,4.237l-2.82-4.563l6.628-2.389
        c0,0,1.476,4.292,6.271,2.946c3.924-1.455,3.185-6.098,3.185-6.098s3.386-2.174,6.558-1.332c2.96,0.785,5.715,4.594,5.715,4.594
        s2.396-0.763,2.936-1.42c-0.54-2.389,0-11.402,2.499-18.796c-3.365,1.087-37.05,14.233-37.05,14.233l-8.362-6.625l-0.111-7.608
        h18.578v-1.627h-18.578v-8.475h14.234v-1.634h-14.234v-8.037h-2.714v8.037h-14.67v1.959h14.67v8.26h-19.558v1.627h19.558v7.498
        l-8.259,6.847c0,0-36.941-14.123-37.7-14.78C203.172,245.345,205.779,253.812,205.235,262.618z"/>
    <path d="M190.787,250.012l-1.412-23.033l21.185,1.412l6.521-20.533l19.336,9.67l12.929-15.97l12.929,15.97l19.447-9.996
        l6.521,20.858l21.296-1.842l-1.197,23.463c0,0-18.906-33.462-58.888-33.026C209.908,216.985,190.787,250.012,190.787,250.012z"/>
    <path fill="#FFFFFF" d="M246.958,273.48c1.523-0.437,2.929-0.222,4.776,0c1.957,0.762,14.453,6.951,22.164,6.3
        c13.037,0.762,21.519-6.079,22.384-6.521c-0.11,3.156-6.519,13.367-19.987,16.628c-13.479,3.262-23.036-4.021-24.016-4.673
        c-0.978-0.649-3.565-0.812-4.777-0.437c-1.216,0.375-10.866,6.848-20.101,6.195c-20.534-3.261-24.664-17.384-24.664-17.384
        s6.628,6.841,22.926,6.411C236.635,279.564,245.435,273.916,246.958,273.48z"/>
    <path fill="#BF2F38" d="M208.604,279.352c0,0,9.886,3.912,18.686,3.254c6.303-0.43,17.276-5.108,17.276-5.108l-0.107,6.417
        c0,0-7.608,5.324-16.622,4.452C214.038,287.062,208.604,279.352,208.604,279.352z"/>
    <path fill="#BF2F38" d="M254.342,277.393c0,0,10.324,4.674,18.799,5.213c6.851,0.658,17.166-3.149,17.166-3.149
        s-3.801,6.086-17.272,8.8c-11.847,0.982-18.8-4.562-18.8-4.562L254.342,277.393z"/>
    <path fill="#BF2F38" d="M314.642,295.975c0,0,3.915,4.562,8.366,5.103c4.455,0.547,8.367-1.959,8.367-1.959s8.474,20,8.474,27.815
        c-3.043,2.61-11.624,10.107-11.624,10.107l0.325,0.872c3.586-0.11,11.081-3.046,12.063-3.371c2.17,8.038,2.17,20.646,1.627,23.899
        c-2.393,2.283-12.933,10.433-12.933,10.433s-0.557,0.97,0.438,0.786c3.553-0.651,11.704-2.162,12.383-2.413
        c0.437,2.823-1.299,19.011-3.258,22.161c-3.477-2.389-13.798-12.926-13.798-12.926l-4.565,0.324c0,0-12.058,12.933-14.992,14.561
        c-2.277-4.243-5.863-24.777-4.458-34.989c1.418,0.547,18.151,3.371,18.151,3.371s-17.387-11.188-17.931-12.274
        c-0.325-12.393,4.348-29.015,4.348-29.015l14.449,4.458c0,0-11.406-10.758-12.164-12.82
        C308.342,307.051,314.642,295.975,314.642,295.975z"/>
    <path fill="#BF2F38" d="M167.861,299.449c0,0,3.261,2.277,8.256,1.736c4.998-0.545,8.584-5.107,8.584-5.107s6.3,11.63,6.518,14.559
        c-0.758,1.85-11.409,12.062-11.409,12.062s11.083-3.255,13.58-4.022c3.264,5.655,4.891,26.619,4.999,28.688
        c-1.953,2.285-17.602,12.602-17.602,12.602s13.583-2.604,17.277-3.365c0.761,5.76,0.11,25.207-4.019,35.42
        c-5.432-5.109-14.885-15.211-14.885-15.211h-4.345c0,0-10.214,9.775-13.58,13.142c-1.305-4.12-4.24-14.56-3.697-22.599
        c0.869,0,12.822,1.959,12.822,1.959l-12.822-9.346c0,0-0.651-18.581,0.762-25.097c2.609,0.215,11.298,3.476,12.6,3.046
        c0.221-0.436,0.934-0.632,0.166-1.461c-2.987-3.212-11.897-9.297-11.354-10.385C161.779,314.984,167.861,299.449,167.861,299.449z"
        />
    <path d="M302.369,393.209c0,0-2.609-9.34-3.589-15.1c-11.409,9.449-34.765,34.117-48.67,35.634
        c-12.281-1.413-28.793-17.813-49.219-35.522c-1.63,8.584-3.586,14.773-3.586,14.773l4.781,0.324l1.087,16.082l17.816-2.498
        l1.523,17.709l17.709-4.459l9.776,15.758l9.453-15.32l17.925,4.236l1.309-17.812l17.92,2.174l0.657-16.297L302.369,393.209z"/>
    <path fill="#D8C793" d="M205.997,354.641c4.562,1.627,16.84,10.758,25.207,22.604c3.043-1.627,11.188-8.916,18.575-9.241
        c7.062,0.442,15.646,7.388,18.36,9.456c3.912-4.236,13.043-15.646,24.992-23.357c0.651,9.561,1.088,22.485,0.982,22.817
        c-6.414,5.429-33.314,32.349-44.116,32.92c-9.825-1.276-23.562-14.216-44.436-33.141
        C205.767,377.114,205.779,358.337,205.997,354.641z"/>
    <path fill="#BF2F38" d="M106.551,303.256l13.076-21.02l-21.228-10.715l59.825-9.48c0,0-0.884,5.176-1.575,10.188
        c-0.605,4.371,0.89,10.377,0.89,10.377L106.551,303.256z"/>
    <path fill="#007550" d="M123.75,335.297l8.302-25.796l-24.599-3.623l50.628-20.612c0,0,1.658,4.918,2.564,6.648
        c0.906,1.738,3.847,5.257,3.847,5.257l-4.13,11.077L123.75,335.297z"/>
    <path fill="#FFFFFF" d="M173.848,350.943c0.304,10.567,3.227,74.066,3.227,74.066l0.676-0.146c0,0,1.833-64.562,1.833-73.612
        c0-9.058-2.717-50.103-2.717-50.103l-1.431,0.147C175.436,301.297,173.55,340.382,173.848,350.943z"/>
    <path fill="#FFFFFF" d="M326.062,351.95c-0.304,10.563-2.94,72.987-2.94,72.987h-1.006c0,0-1.794-63.636-1.794-72.688
        c0-9.057,2.721-51.311,2.721-51.311l1.431,0.153C324.473,301.095,326.361,341.383,326.062,351.95z"/>
    <path fill="#007550" d="M96.186,237.768l20.221,13.883l-19.112,16.802l62.133-9.456l1.069-2.211l1.388-1.989
        c0,0-0.633-3.899-0.633-5.858c0-1.965,0.927-6.453,0.927-6.453L96.186,237.768z"/>
    <path fill="#BF2F38" d="M102.525,202.658l16.294,19.719l-22.456,12.596l64.132,4.605c0,0-4.83-5.76-3.847-10.764
        c0.979-5.004,3.62-8.174,3.62-8.174L102.525,202.658z"/>
    <path fill="#007550" d="M115.906,172.053l11.164,23.388l-23.69,4.604l56.226,17.7c0,0-2.579-6.157-1.299-10.457
        c1.284-4.3,5.097-7.578,5.097-7.578L115.906,172.053z"/>
    <path fill="#BF2F38" d="M135.144,145.343l7.47,22.859l-25.198,1.285l46.401,26.631c0,0,0.074-7.014,2.186-10.259
        c2.112-3.245,7.378-5.402,7.378-5.402L135.144,145.343z"/>
    <path fill="#007550" d="M160.646,122.783l1.031,24.946l-24.722-4.426l37.525,34.499c0,0,0.712-6.492,4.191-10.158
        c3.479-3.667,9.874-3.905,9.874-3.905L160.646,122.783z"/>
    <path fill="#BF2F38" d="M162.909,121.199l22.864,10.032l4.298-24.671l17.142,42.626c0,0-5.84-1.01-10.473,1.761
        c-4.63,2.77-6.607,9.539-6.607,9.539L162.909,121.199z"/>
    <path fill="#007550" d="M192.865,105.504l20.823,14.713l11.47-23.386l6.807,43.089c0,0-7.375-2.852-13.027-1.042
        c-5.649,1.812-9.25,8.137-9.25,8.137L192.865,105.504z"/>
    <path fill="#BF2F38" d="M228.929,96.523l20.371,19.018l19.896-19.013l-6.051,44.075c0,0-6.096-6.551-13.736-6.755
        c-7.648-0.199-14.077,6.104-14.077,6.104L228.929,96.523z"/>
    <path fill="#007550" d="M278.575,138.628c7.458,1.288,9.883,8.387,9.883,8.387l16.149-41.06l-21.129,14.564l-11.17-23.465
        l-6.123,43.224C266.188,140.278,271.461,137.396,278.575,138.628z"/>
    <path fill="#BF2F38" d="M302.152,150.926c3.994,2.442,6.299,9.126,6.299,9.126l25.785-38.351l-22.314,10.285l-4.299-24.746
        l-16.775,41.729C290.848,148.97,296.99,148.138,302.152,150.926z"/>
    <path fill="#007550" d="M336.748,123.462l-5.227,23.894l28.368-3.773l-35.899,33.725c0,0-0.428-6.466-4.363-10.538
        c-3.932-4.071-9.849-3.852-9.849-3.852L336.748,123.462z"/>
    <path fill="#BF2F38" d="M361.869,146.098l-8.146,22.759l25.277,0.63l-44.258,26.582c0,0,0.268-6.211-2.072-10.36
        c-2.336-4.151-7.126-6.106-7.126-6.106L361.869,146.098z"/>
    <path fill="#007550" d="M334.559,199.29c0,0,3.92,1.433,5.658,6.865c1.738,5.432-1.59,11.045-1.59,11.045l54.178-17.761
        l-24.292-5.885l12.072-21.126L334.559,199.29z"/>
    <path fill="#BF2F38" d="M393.861,202.761l-16.299,19.919l22.396,11.219l-61.845,5.141c0,0,4.137-4.587,3.842-9.721
        c-0.305-5.129-3.949-8.967-3.949-8.967L393.861,202.761z"/>
    <path fill="#007550" d="M336.771,241.863l63.278-4.551l-20.375,13.735l19.318,16.144l-59.363-8.707l-2.287-4.342
        c0,0,0.38-1.584,0.533-5.06C338.027,245.614,336.771,241.863,336.771,241.863z"/>
    <path fill="#BF2F38" d="M340.898,261.311c0,0,0.977,6.035,1.352,9.353c0.38,3.321-0.449,11.396-0.449,11.396l48.664,19.539
        l-14.559-21.43l22.787-9.881L340.898,261.311z"/>
    <path fill="#007550" d="M341.182,284.902c0,0-1.362,3.996-3.249,7.166c-1.73,3.168-3.075,4.881-3.075,4.881l4.341,10.869
        l34.65,25.22l-8.809-24.949l24.196-3.494L341.182,284.902z"/>
    <path fill="#BF2F38" d="M185.896,222.525l21.838,1.521l6.951-22.165l20.863,10.21l13.69-16.728l13.907,16.622l20.86-10.65
        l7.058,22.711l21.67-1.996l-1.562,35.739l3.924-5.532l3.623-3.322l0.896-32.604l-23.027,1.018l-8.345-26.005l-22.493,11.082
        l-16.727-19.34l-16.085,19.229l-22.597-10.541l-7.82,25.642l-23.479-0.649l1.087,32.378c0,0,3.433,2.479,4.639,3.99
        c1.206,1.512,3.168,5.258,3.168,5.258L185.896,222.525z"/>
</g>
</svg>