<svg version="1.1" id="lhc" xmlns="http://www.w3.org/2000/svg" xmlns:xlink="http://www.w3.org/1999/xlink" x="0px" y="0px"
     width="678.144px" height="551.997px" viewBox="0 0 678.144 551.997" enable-background="new 0 0 678.144 551.997"
     xml:space="preserve">
<path fill="#FFFFFF" stroke="#000000" stroke-width="2.5" stroke-linecap="round" stroke-linejoin="round" d="M183.833,73.728
    c22.875-8.149,30.375-10.041,43-11.282c-7.25-6.508-18.125-9.411-18.125-9.411c-2.25-1.223,0-2.495,0-2.495
    c23-8.978,44.25-15.103,63.75-15.228c-9.5-5.625-15.417-7.75-15.417-7.75c-1.958-1.125,0.167-2.25,0.167-2.25
    c26.75-8.375,56.5,2.5,66.5,6.5c6.75-15.75,11.375-24.25,14-30.085c1.125-1.165,1.669,0.168,1.669,0.168l12.956,33.042
    c17.25-11.75,52.125-13.75,58.875-14.125c1.625,0.875,0.25,1.875,0.25,1.875c-7.625,5.875-21.375,21.25-21.375,21.25
    c29.375-3.875,60.25,0.5,75.5,3.854c2,1.146-0.209,1.842-0.209,1.842s-23.541,8.804-23.791,11.179
    c26.625,1.25,46,11.75,52.375,12.75c2.625,0.25,149.084,0,149.084,0c2.166,0.25,0.666,2,0.666,2l-10.875,21.875l28.541-0.012
    c1.834,0.512,0.728,2.137,0.728,2.137c-4.519,9.875-41.644,77.875-49.394,90.125c14.25,20.75,23.25,44.125,22.666,61.875
    c-0.791,3.375-2.332,1-2.332,1c-3.209-4-36.875-30.917-38.668-30.333c-3.916,6.583-19.041,31.357-19.041,31.357
    s9.5,28.477,7.875,44.352c-1,2.125-1.875,0.5-2.177,0.375c-5.323-10.5-19.657-25.417-19.657-25.417
    c-1.166,1.042-5.416,8.542-5.416,8.542c7.5,13.625,11.5,61.25,8.49,76.125c-0.865,3-2.49,0.625-2.467,0.334
    c-4.773-8.209-24.023-28.5-33.25-37.129c-8.398,10.75-10.63,13.92-10.63,13.92c0.625,2.25-0.144,30.25-2.394,38.209
    c-0.375,3.666-2.666,0.666-2.666,0.666s-12.021-12.315-16.115-14.84c-7.219,10.227-36.594,45.34-36.594,45.34
    c32.625-9.625,53.875-22.375,81.125-41.059c2.625-1.691,1.929,1.225,1.929,1.225v154.001c-0.054,2.208-1.679,1.955-1.679,1.955
    H356.042l-23.1,29.712c-0.859,2.041-1.984-0.231-1.984-0.231l-22.904-29.48h-185.68c0,0-1.408,0.188-1.35-1.843V363.229
    c0,0,0.184-1.666,1.684-0.332c35.625,26.291,58,33.791,79.125,40.791c-7.625-7.875-16.108-17.057-15.81-17.015
    c-1.19-2.423-7.065,8.39-8.929,7.37c-2.011-2.23-2.511-9.355-4.11-22.395c-13.775-16.586-30.189-37.983-30.189-37.983
    l-34.753,22.231c0,0-1.708,0.166-1.458-1.459c1.5-8.125,9.5-40.125,16.228-49.687c0.272,0.062-3.353-6.938-3.769-6.803
    c-4.208,2.114-31.833,24.239-48.333,40.28c-1.75,1.834-1.333-1.445-1.333-1.445c7.958-32.221,21.833-63.721,26.958-70.346
    c-7.75-12.375-21-31-24-36.625c-10.75,3-32.25,9.5-31.958,9.417c-3.417,0.958-1.042-2.417-1.042-2.417
    c5.25-9.125,10.375-15.125,21.375-28.125c-1.375-2.125-43.875-76.5-59.079-108.125c-1.171-1.75,0.745-1.606,0.745-1.606h31.667
    L21.708,75.229c0,0-0.917-1.586,1.667-1.501C23.375,73.728,184.208,73.704,183.833,73.728z"/>
<g>
    <path fill="#BDC5DD" d="M184.711,83.383c0,0,0.081-1.284,0.664-1.867c12.25-6.917,28.583-12.135,42.833-13.885
        C199.742,74.335,184.711,83.383,184.711,83.383z"/>
    <g>
        <g>
            <path fill="#BDC5DD" d="M338.613,15.468c-0.433,0.002-0.815,0.283-0.946,0.696c0,0-7.62,23.869-7.741,24.25
                c-0.031,0.036-0.042,0.049-0.081,0.095c-0.034,0-0.08-0.001-0.08-0.001c-0.028,0-0.062,0.013-0.093,0.014
                c-3.288-2.212-14.188-7.853-22.185-10.056c-11.587-4.048-20.213-4.171-24.847-4.237l-1.477-0.029
                c-0.467-0.009-0.885,0.306-0.997,0.76c-0.021,0.082-0.03,0.164-0.03,0.245c0,0.37,0.203,0.717,0.545,0.889
                c3.009,1.509,6.614,3.607,7.708,4.97c0.041,0.051,0.086,0.098,0.136,0.14c2.715,2.283,4.779,6.354,5.199,7.22
                c0,0.058,0,0.069,0,0.138c-0.001,0-0.016,0.002-0.016,0.002c0.005-0.001,0.011-0.001,0.016-0.001c0,0.016,0,0.016,0,0.032
                c-2.013-0.404-4.023-0.551-5.969-0.678l-1.986-0.14c-2.649-0.513-16.195,0.037-25.185,1.251
                c-6.551,0.884-8.44,1.353-12.203,2.285l-5.398,1.298c-4.547,1.313-7.581,2.599-10.257,3.733l-2.258,0.941
                c-0.417,0.173-0.672,0.607-0.613,1.055c0.059,0.448,0.404,0.803,0.852,0.864c12.917,1.747,26.435,10.737,27.161,12.582
                l-0.014-0.238c0.029,0.513,0.438,1.021,0.95,1.043c0.513,0.023,0.955-0.246,1.029-0.754c0.01-0.067,0.014-0.133,0.014-0.198
                c0-0.514-0.286-0.958-0.513-1.26c-2.115-2.808-13.49-9.997-25.003-12.539c2.434-1.026,5.215-2.155,9.153-3.293
                c0.005,0,5.377-1.292,5.377-1.292c3.692-0.915,5.546-1.375,11.989-2.244c9.255-1.25,22.315-1.701,24.648-1.254
                c0.107,0.014,2.125,0.156,2.125,0.156c2.063,0.135,4.012,0.262,5.983,0.685c0.109,0.023,0.233-0.035,0.344-0.049l0.443-0.055
                c0.252-0.031,0.483-0.157,0.646-0.353l0.451-0.542c0.149-0.18,0.231-0.406,0.231-0.64v-0.764c0-0.144-0.031-0.287-0.091-0.417
                c-0.098-0.213-2.43-5.235-5.795-8.081c-0.938-1.098-2.792-2.342-4.603-3.405c4.827,0.157,12.205,0.784,21.655,4.083
                c8.128,2.241,19.263,8.06,22.007,10.026c0.228,0.163,0.514,0.223,0.788,0.166c0.044-0.009,0.063-0.06,0.105-0.075
                c0.136,0.01,0.288,0.021,0.288,0.021l0.189-0.002c0.288-0.003,0.606-0.129,0.793-0.348l0.514-0.599
                c0.087-0.102,0.153-0.22,0.194-0.347c0,0,5.42-16.979,6.868-21.515c1.538,4.637,7.956,23.988,7.956,23.988
                c0.079,0.023,0.129,0.152,0.129,0.152c0.083,0.215,0.237,0.394,0.437,0.508l0.626,0.357c0.216,0.124,0.471,0.162,0.713,0.108
                l0.765-0.17c0.154-0.034,0.297-0.103,0.419-0.204l0.162-0.135c6.552-5.435,14.514-9.795,22.418-12.278
                c6.185-2.081,11.768-2.976,17.806-3.752c-1.019,0.747-2.046,1.573-3.292,2.8c-6.694,6.52-11.323,13.782-12.835,16.711
                c-0.073,0.142-0.111,0.299-0.111,0.458v0.674c0,0.174,0.046,0.345,0.132,0.497l0.36,0.63c0.159,0.277,0.44,0.462,0.759,0.498
                l0.778,0.086c0.115,0.013,0.231,0.005,0.345-0.022c2.171-0.525,22.982-2.69,31.083-2.723c17.285-0.835,20.387-0.385,27.675,0.711
                c-1.573,0.687-3.182,1.47-4.798,2.719c-1.502,0.974-3.194,2.267-5.263,4.022c-0.039,0.036-0.798,0.75-0.798,0.75l-3.099,2.996
                c-0.193,0.187-0.293,0.433-0.295,0.701c0,0.002,0,0.005,0,0.008c0,0.032,0.033,0.053,0.036,0.084
                c-0.038,0.12-0.097,0.232-0.097,0.346c0,0.028,0.002,0.055,0.005,0.081l0.09,0.72c0.034,0.277,0.184,0.527,0.41,0.689
                l0.607,0.435c0.128,0.091,0.272,0.15,0.428,0.174l0.521,0.081c11.726,1.8,42.02,7.25,69.988,18.958
                c0.509,0.213,1.095-0.027,1.309-0.536c0.053-0.126,0.077-0.257,0.077-0.386c0-0.391-0.23-0.762-0.614-0.923
                c-28.172-11.793-58.657-17.279-70.457-19.09c0,0-0.142-0.022-0.281-0.043c-0.017-0.012-0.02-0.014-0.038-0.027
                c0.028-0.052,0.025-0.109,0.043-0.164c0.49-0.474,2.737-2.646,2.737-2.646l0.762-0.718c1.962-1.664,3.591-2.909,5.086-3.882
                c1.852-1.426,3.628-2.179,5.508-2.976c0,0,1.361-0.591,1.578-0.685c0.174-0.03,0.724-0.125,0.724-0.125
                c0.48-0.083,0.827-0.5,0.827-0.985c0-0.004,0-0.009,0-0.013c-0.006-0.491-0.371-0.906-0.857-0.977l-3.743-0.55
                c-7.28-1.094-10.604-1.594-28.123-0.747c-7.82,0.03-28.118,2.071-31.303,2.74c-0.031-0.003-0.058-0.006-0.102-0.011
                c0-0.055,0-0.059,0-0.112c1.55-2.936,5.963-9.781,12.346-15.997c1.762-1.735,3.02-2.605,4.612-3.708l1.713-1.206
                c0.271-0.19,0.42-0.494,0.42-0.81c0-0.121-0.022-0.244-0.068-0.363c-0.164-0.428-0.604-0.685-1.06-0.629l-0.29,0.036
                c-7.65,0.937-14.258,1.745-21.858,4.302c-8.116,2.548-16.305,7.032-23.046,12.618c-0.06,0.013-0.07,0.016-0.141,0.031
                c-0.79-2.202-8.889-26.62-8.889-26.62C339.432,15.742,339.047,15.465,338.613,15.468z M293.95,40.617
                c0.027,0.01,0.053,0.017,0.081,0.022c-0.032-0.007-0.063-0.008-0.095-0.015C293.94,40.623,293.944,40.619,293.95,40.617z"/>
        </g>
    </g>
    <path fill="#BDC5DD" d="M254.458,168.479c0,0,14-24.75,28.583-26.861c16.333-3.055,29.083,10.028,29.083,10.028
        c-6.417,0.75-8.583-1.833-25.25-1.417C269.208,151.146,254.458,168.479,254.458,168.479z"/>
    <path fill="#BDC5DD" d="M337.124,151.729c0,0,11.834-12.833,28.168-10.25c16.332,2.583,29.416,26.75,29.416,26.75
        s-15.25-16.5-29.666-17.75C355.042,149.562,337.124,151.729,337.124,151.729z"/>
    <path fill="#BDC5DD" d="M319.677,206.814v-32.377c1.031-5.688,6.781-3.375,6.906-0.25v32.91
        c4.375-10.785,17.375-26.285,28.25-30.756c3.812-0.904,6.688,2.721,2.875,6.346c-21.312,11.25-25.188,31.562-28.125,35.625
        c-1.625,1-3.625,0.375-3.625,0.375c-0.438,0.938-3.125,1.438-4,0.883c-1.125,1.242-4,0.492-4,0.492
        c-3.562-1.75-2.625-20.625-28.5-36c-3.938-2.562-1.25-8,3.125-6C312.333,188.562,319.677,206.814,319.677,206.814z"/>
    <path fill="#BDC5DD" d="M284.333,263.312c-10,22.875-23,30.125-1.375,57c-16.75-7.5-26.25-13.625-26-21.5
        S271.583,273.812,284.333,263.312z"/>
    <path fill="#BDC5DD" d="M364.458,263.312c13.5,11.5,26.125,27.75,27.5,34.5c1.625,13.5-25.875,22.875-25.875,22.875
        C385.958,297.062,377.708,288.938,364.458,263.312z"/>
</g>
<path fill="#1E398D" stroke="#000000" stroke-width="2" d="M20.208,109.161h621c-13.5,39.401-123,221.401-209.5,315.921
    c60-10.02,97.591-37.275,97.591-37.275v116.787H351.208l-19,23.244l-19.051-23.244H134.574v-117.07
    c47.634,33.539,100.063,37.134,100.063,37.134C187.559,370.562,69.708,216.562,20.208,109.161z"/>
<path fill="#ED1C24" stroke="#000000" stroke-width="2" d="M42.625,85.747l577.333-0.114
    c-52.75,121.429-180.25,293.449-225.75,339.449l-125.125-0.142C223.708,375.562,83.208,184.959,42.625,85.747z"/>
<g>
    <path fill="#FFFFFF" stroke="#000000" stroke-width="1.5" stroke-linecap="round" stroke-linejoin="round" d="M614.446,214.394
        c-1.08-2.865-2.232-5.73-3.467-8.595c0,0-7.396-24.382-53.777-57.243c-14.953-10.806-52.734-30.704-59.716-34.309l-0.51-0.595
        l0.092-0.732l0.099-0.082l-0.048-0.046l1.812-1.654l1.748-1.384c3.707-2.582,7.415-4.337,11.121-5.67
        c2.781-0.821,5.562-1.696,8.342-2.249c3.214-0.745,6.427-1.167,9.641-1.667c2.308-0.248,4.615-0.488,6.924-0.722
        c-3.726-1.802-25.123-13.196-62.242-25.046c-27.547-8.816-48.37-11.064-52.121-11.652l-0.607-0.435l-0.09-0.72
        c0.057-0.1,0.114-0.2,0.17-0.3l-0.097-0.097c1.199-1.228,2.529-2.455,3.829-3.684c1.742-1.479,3.484-2.859,5.227-3.993
        c2.448-1.892,4.896-2.675,7.344-3.788l2.545-0.996c-10.447-1.476-13.277-1.978-33.381-1.004c-8.068,0.032-28.99,2.755-31.314,3.318
        l-0.778-0.086l-0.36-0.63V49.66c1.268-2.456,5.754-9.743,12.648-16.458c2.429-2.393,4.857-4.38,7.287-6.141
        c-7.601,0.931-15.201,2.586-22.803,5.144c-12.879,4.044-21.582,11.779-22.916,12.878l-0.765,0.17l-0.626-0.357l-0.05-0.129
        l-0.062,0.022l-8.924-26.904l-7.802,24.442l-0.514,0.599c-0.253-0.009-0.507,0.03-0.76-0.027l-0.062,0.104
        c-2.629-1.884-13.898-8.42-22.26-10.724c-12.972-4.53-22.614-4.39-26.375-4.515c2.023,1.015,6.903,4.318,8.323,6.088
        c3.247,2.73,5.556,7.758,5.556,7.758v0.764l-0.451,0.542l-0.443,0.055l-0.012,0.063c-2.71-0.582-5.421-1.192-8.131-1.412
        c-2.648-0.507-16.02,0.037-24.97,1.246c-8.95,1.208-9.079,1.621-17.51,3.566c-5.774,1.669-10.317,3.349-13.501,4.628
        c13.708,1.854,29.402,12.241,29.138,14.047c-0.263,1.807-23.763-2.193-56.65,11.095c-25.613,10.045-45.109,24.099-52.516,28.927
        c1.771-0.412,16.403-3.023,25.905-1.344c14.332,1.462,21.079,5.769,23.161,6.895c0.979,0.58,1.959,1.193,2.939,1.838l0.417,0.669
        l-0.09,0.724l-0.63,0.449l-0.093-0.01c-8.471,3.71-46.874,21.231-86.822,55.685c-21.885,17.213-51.363,49.001-55.295,53.172
        c12.287-7.046,41.577-22.959,62.563-30.252c22.18-10.207,59.773-14.992,64.022-15.426l4.312-0.293l0.679,0.254l0.359,0.628
        l-0.183,0.732l-0.165,0.083l0.039,0.064l-5.209,3.424c-4.773,3.483-35.673,21.492-70.726,72.972
        c-11.281,15.688-27.625,51.089-30.32,57.466c2.317-2.851,22.373-25.445,31.268-33.672c32.271-31.774,55.476-42.438,63.047-45.935
        h0.759l0.541,0.45l0.091,0.732l-0.209,0.244l0.058,0.058c-3.793,3.755-23.349,25.51-33.676,46.337
        c-9.506,15.84-25.812,52.935-27.424,56.178c4.32-4.209,20.751-20.171,41.208-33.195c24.377-15.643,42.472-13.896,45.288-13.776
        l0.686,0.258l0.271,0.722l-0.092,0.244l0.074,0.037c-3.141,5.743-11.475,22.956-14.26,33.43
        c-6.589,18.901-11.839,48.526-12.504,57.142c3.54-6.74,12.166-18.4,15.008-21.854c9.032-11.137,18.157-18.762,24.488-21.636h0.761
        l0.541,0.451l0.056,0.442l0.054,0.011c-0.983,6.155-2.618,22.095-2.27,38.209c0.104,1.397,1.276,20.511,2.783,27.408
        c2.118-4.899,4.478-9.799,7.882-14.698c6.237-9.887,14.404-12.687,16.48-13.471l0.761,0.084l0.534,0.534v0.201l8.363,37.74
        l18.418-17.471l0.679-0.255l0.722,0.271l0.171,0.456l0.071-0.007c0.179,2.618,1.391,14.263,1.967,17.468
        c0.871,5.439,1.609,10.878,2.805,16.316l9.661-27.309l0.512-0.597h0.812l0.534,0.533l0.01,0.094l0.034-0.006l2.561,13.829
        l6.463-20.364l0.505-0.59l0.721-0.09l0.595,0.425c5.406,8.604,10.911,17.774,16.219,26.378h13.548
        c1.456-1.552,4.311-5.362,4.311-5.362l3.496-4.518l0.675-0.422l0.721,0.091c0.705,0.967,3.099,4.508,4.842,8.342
        c1.456,2.834,2.636,5.669,3.587,8.503c0,0,1.034,3.061,1.246,3.611l1.063-1.772c0.663-1.321,1.313-2.642,1.945-3.962
        c1.279-3.677,2.437-7.354,2.883-11.03c0.979-6.055,0.896-12.109,0.43-18.164l0.254-0.68c0.213-0.122,0.423-0.236,0.636-0.366
        c1.812,0.196,3.627,0.363,5.441,1.117c0.83,0.334,4.724,2.543,5.841,3.432c1.044,0.994,5.161,5.366,6.035,6.521
        c1.784-4.113,2.573-8.227,3.29-12.34c0.553-5.006,0.752-10.012,0.433-15.017l-0.146-2.427l0.254-0.678l0.629-0.359l0.688,0.173
        l1.92,1.55c1.139,1.084,5.494,4.387,8.942,11.271c3.552,7.116,5.03,14.747,5.387,17.47c0.94-3.297,1.485-6.594,2.229-9.891
        c0.24-2,0.7-4,0.939-6.001c0.774-5.492,1.221-10.984,1.445-16.477c0.717-10.485-0.846-22.074-1.739-28.809l0.171-0.769l0.722-0.36
        l0.515,0.147l0.052-0.065c1.837,1.48,3.676,2.787,5.515,4.614c1.698,1.718,7.843,7.203,11.83,15.604
        c3.986,8.401,6.734,16.097,8.265,21.681c0.461,1.739,0.807,3.479,1.169,5.22c0.891-4.629,1.555-9.258,2.307-13.887
        c1.639-11.524,2.84-23.049,3.254-34.574c0.316-5.135,0.193-10.27,0.217-15.404c-0.151-6.122-0.465-12.244-0.939-18.366
        c-0.539-4.037-0.783-8.074-1.45-12.11l0.171-0.77l0.722-0.361l0.333,0.096l0.037-0.073c5.436,2.729,10.872,5.687,16.31,8.626
        c5.962,3.411,18.759,10.409,30.053,19.554c8.374,5.855,19.509,16.539,22.381,19.34c2.07,2.141,4.138,4.283,6.208,6.425
        c-0.392-7.275-1.247-14.552-2.251-21.828c-2.041-14.171-5.251-28.343-10.917-42.514c-0.974-2.553-2.153-5.104-3.322-7.657
        c-0.859-1.662-1.702-3.325-2.53-4.987c-1.847-3.168-3.547-6.335-5.731-9.503l-0.086-0.765l0.449-0.629l0.725-0.091l0.138,0.087
        l0.046-0.076c3.77,2.225,7.541,4.41,11.311,6.974c0,0,14.287,8.079,32.669,27.6c12.452,12.979,20.504,25.735,23.249,29.55
        c1.713,2.574,3.243,5.149,4.897,7.725c-1.042-6.098-2.005-12.195-3.349-18.293c-1.479-6.075-9.346-41.336-22.126-61.539
        c-9.72-18.797-28.069-39.623-31.596-43.383c-2.46-2.469-4.954-4.938-7.479-7.407l-0.259-0.692l0.354-0.711l0.637-0.272l0.25,0.093
        l0.031-0.064c2.879,1.297,5.757,2.734,8.636,4.13c2.753,1.484,19.872,10.175,36.796,24.194c11.41,9.148,24.006,24.682,25.43,26.444
        l4.201,5.651l1.123,1.645c-2.013-7.875-9.178-33.925-19.528-53.56c-15.481-29.032-29.552-41.062-32.384-43.88
        c-2.947-2.789-5.896-5.306-8.842-7.828l-0.425-0.68l0.271-0.727l0.628-0.357l0.16,0.036l0.009-0.053
        c5.665,0.888,11.328,2.339,16.992,4.09c3.382,1.019,17.609,4.868,44.332,21.514c16.609,10.188,33.403,24.331,38.012,28.238
        c2.68,2.162,5.359,4.434,8.041,6.736C615.724,218.267,615.027,216.33,614.446,214.394z M367.697,340.574
        c-0.85,2.793-3.302,13.438-3.757,15.967c-0.547,2.53-2.066,12.022-2.457,14.238c-0.732,5.154-1.189,10.309-1.59,15.463
        c-0.201,1.753-0.263,3.506-0.316,5.259c-1.055-3.096-1.755-6.191-3-9.287c-0.513-1.464-0.996-2.927-1.801-4.39
        c-0.853-2.273-1.998-4.546-3.092-6.818l-0.083,0.041l-0.177-0.47l-0.293-0.109l-0.293,0.109l-0.135,0.359
        c0.006,3.035-0.205,6.07-0.655,9.105c-0.234,1.527-0.371,3.055-0.8,4.582c-0.535,3.19-1.56,6.381-2.828,9.571l-5.682-10.387
        c-0.137-0.162-0.263-0.313-0.362-0.434l-0.272-0.034l-0.324,0.278l-5.611,11.695l-7.239-11.797l-0.411-0.411h-0.33l-0.283,0.331
        l-4.455,11.37l-6.853-11.994l-0.028,0.018c-0.149-0.18-0.278-0.334-0.39-0.469l-0.273-0.034l-0.329,0.281l-6.051,11.704
        L303.2,380.87l-0.198,0.055c-0.021-0.221,0.082-0.441-0.184-0.661l-0.273-0.034l-0.332,0.284l-4.956,9.076l-3.653-17.136
        l-0.076,0.014c-0.02-0.175-0.039-0.351-0.059-0.525l-0.256-0.183l-0.295,0.037l-0.29,0.338c-0.984,3.342-2.188,6.685-3.539,10.026
        c-0.488,1.048-0.98,2.095-1.461,3.143c-0.645,1.007-1.274,2.013-1.87,3.02l0.455-5.462c0.241-4.882,0.203-15.944-1.155-26.13
        c-0.514-4.045-2.858-16.325-3.396-18.421c-0.617-3.416-1.615-7.682-2.43-11.098c2.625,0.416,5.25,0.842,7.874,1.064
        c0.421,1.73,0.635,4.311,1.064,6.04c0.846,4.129,1.819,8.258,2.536,12.387c0.264,1.217,0.487,2.435,0.792,3.651
        c0.069,0.106,0.139,0.347,0.208,0.52c0.202,0.067,0.403,0.067,0.604,0l0.13-0.347c0.093-1.848,0.282-3.696,0.433-5.544
        c0.459-2.054,0.644-4.108,1.542-6.162c0.338-0.932,0.638-1.863,1.105-2.794l0.615-0.967l3.821,6.642l0.028-0.017l0.335,0.469
        l0.289,0.036l0.394-0.246l5.064-8.372l6.363,7.019l0.058-0.058l0.279,0.391l0.289,0.036l0.391-0.243l4.811-8.304l3.952,8.367
        c0.094,0.113,0.183,0.22,0.255,0.306l0.298,0.075l0.315-0.226l4.706-6.858l6.646,7.311l0.058-0.059l0.279,0.392l0.289,0.036
        l0.392-0.245l4.025-6.816l3.138,6.154l0.025-0.013l0.283,0.497l0.285,0.106l0.372-0.233l6.485-8.04
        c0.719,1.265,1.043,2.527,1.565,3.791c0.783,2.653,1.363,5.307,1.68,7.961l0.437,3.92l0.059,1.11l0.063,0.016l-0.036,0.324
        l0.188,0.261l0.289,0.036l0.384-0.24c0.917-1.628,1.54-3.256,2.401-4.883c0.656-1.771,1.494-3.543,1.94-5.314
        c0.474-1.373,0.754-2.745,1.228-4.117c0.396-1.415,0.585-2.83,1.006-4.246c0.134-0.896,0.297-2.643,0.495-3.539
        c2.104-0.14,4.209-0.538,6.313-0.782c1.266-0.311,2.528-0.514,3.792-0.807C370.264,331.014,369.005,336.219,367.697,340.574z"/>
</g>
<circle stroke="#000000" stroke-linecap="round" cx="292.441" cy="285.06" r="1.503"/>
<circle stroke="#000000" stroke-linecap="round" cx="299.316" cy="295.685" r="1.503"/>
<circle stroke="#000000" stroke-linecap="round" cx="290.566" cy="298.56" r="1.503"/>
<circle stroke="#000000" stroke-linecap="round" cx="280.691" cy="300.562" r="1.502"/>
<circle stroke="#000000" stroke-linecap="round" cx="282.629" cy="307.812" r="1.502"/>
<circle stroke="#000000" stroke-linecap="round" cx="294.879" cy="305.437" r="1.502"/>
<circle stroke="#000000" stroke-linecap="round" cx="355.879" cy="284.875" r="1.502"/>
<circle stroke="#000000" stroke-linecap="round" cx="367.563" cy="300.562" r="1.502"/>
<circle stroke="#000000" stroke-linecap="round" cx="357.813" cy="298.687" r="1.502"/>
<circle stroke="#000000" stroke-linecap="round" cx="348.879" cy="295.562" r="1.502"/>
<circle stroke="#000000" stroke-linecap="round" cx="353.563" cy="305.562" r="1.502"/>
<circle stroke="#000000" stroke-linecap="round" cx="365.691" cy="307.875" r="1.502"/>
<path fill="#BBC9E7" d="M315.875,133.979c-0.104-2.792-4.542-20.104-21.25-34.833c0,0-9.042-8.271-20.917-12.417
    c-5.25-2.042-1.896-8.062,2.083-6.583c7.604,1.729,15.354,7.479,22.333,12.917c7.646,6.375,16.853,17.5,21.666,28.583
    c0-0.146,0.001-28.667,0.001-28.667c0.479-6.292,7.104-4.604,6.972,0v28.825c0,0,7.945-15.825,18.425-26.158
    c11.604-10.833,25.77-15.5,25.77-15.5c5.416-1.5,5.5,5.333,2.084,6.5c0,0-12.5,4.333-23.584,14.5
    c-8.75,7.917-18.167,24.75-19.167,34.583c0-0.167,12.417-12.167,24.333-11.083c9.168,0.417,21.084,6.167,21.084,6.167
    s8.25-16.583,30.416-27.5c15.584-7.583,23.5-6.833,30.834-7.333c4.666-0.583,6.334,6.333-0.666,6.833c0,0-13.25-0.583-27.918,7.167
    c-19.416,9.25-26.666,24.333-26.666,24.333c8.584,4.25,22.084,19.667,26,28c0.277-0.086,12.084-10.167,29-13.25
    c23.25-4.333,37.5,1.5,37.5,1.5c7.084,3.25,2.416,9.112-3.25,6.362c0,0-13.25-5.529-33.584-1.029
    c-18.082,4.417-26.332,12.667-26.332,12.667c4.332,7,9.832,20.833,12.082,30.75c0,0,15.25-5.083,37.668,4.583
    c22.416,9.667,29.082,21.167,29.082,21.167c3.668,6.667-4.332,7.333-5.832,3.5c0,0-6-8.667-25.668-18.333
    c-18.5-8-33.391-4.25-33.391-4.25c1.366,4.583,2.725,9.75,1.809,11.667c-4.25,4.583-10.584,5.25-22.084,18.167
    c0,0,14.166,0.583,32.334,12c14.5,8.417,23.332,24.25,23.082,23.833c4.084,7.417-5.594,8.25-6.511,2.75
    c0,0-4.071-9.333-20.405-20.833c-19.334-12.167-33-10.833-33-10.833c-8.666,15.333-8.916,30.083-8.916,30.083s4.416,5.417,9.166,16
    c3.416,7.916,6.916,21.25,6.25,23.25c-11.166,12.666-35.484,18.5-35.484,18.5l1-3l0.484-1.183
    c-14.334,3.417-20.554,2.284-26.593,1.93c-8.521-0.5-19.592-4.382-19.592-4.382l-2.982,0.202c-12.167,4.5-22.539,4.268-22.539,4.268
    c-8.917,1.083-22.378-1.518-22.378-1.518l0.268,1.183l0.667,2.75c-13.833-0.75-30.351-12.084-36.185-16.75
    c0,0-1.667-1.666-1.667-2.25c-0.167-4.25,3.917-16.916,3.917-16.916c3.417-10.834,11.917-22.25,11.917-22.25
    c-0.5-11.583-7.667-29.417-9.333-29.633c-11.167-0.784-17.333,0.883-32.75,8.8c-14.75,7.75-24.083,24.25-24.083,24.25
    c-5.833,5.167-7.333-2.167-5.667-4c0,0,8.5-16.333,26.167-26.083c15.333-9.083,31.583-10.333,31.583-10.333
    c-7.75-10.25-21.25-16.75-21.917-17.917c-0.167-2.167,2-12.167,2-12.167s-12-2.667-29.333,3.833
    c-20.667,8.667-29.25,20.833-29.25,20.833c-4.75,3.167-7.917-3-4.25-5.75c0,0,12.833-15.75,30.667-21.25
    c13.167-5.167,25.15-6.167,33.908-4.5c2.925-10.833,10.425-27.833,12.259-30.583c-14.333-12.083-34.667-13.917-41.583-13.917
    c-10.75,0.167-19.167,3.083-19.167,3.083c-6.75,2.083-6.917-6.083-1.583-7.106c0,0,6.333-2.311,20.25-2.894
    c29.583-0.25,45.917,14.917,45.667,14.583c10.25-18.167,28.083-29.25,28.083-29.25c-7.5-13.083-26.5-23.167-26.5-23.167
    c-13.667-6.917-27.75-6.667-27.75-6.667c-7.083-1.083-4.25-7.417,0.917-7c5.167,0.417,10.667-0.388,29,7.112
    c17.5,7.471,29.5,24.138,30.583,26.554c0,0,11.417-5.083,20.083-4.917C307.042,124.896,315.875,133.979,315.875,133.979z
     M297.208,243.062c2.5-1.5,6.875,3,3,6.13c-29.25,12.245-45.375,32.37-51.25,59.812c13.875,12.5,37.5,21.559,71.71,13.039v-17.292
    l-22.96-20.938c0,0-1.5-1.375-0.567-3.864c1.183-3.239,7.086-15.886,7.086-15.886v-32.25c0.25-2.375,4.252-2.746,4.252-2.746
    l-19.134-15.307c0,0-3.638,5.928-10.888,0.851s-3-9.547-3-9.547s-22-12-24.75-13.25s-1.875-8.125,3.25-6
    c20.75,9.25,54.5,32,65.25,43.5c4.875,3.125,0,9-3.75,6.132s-4-3.382-4-3.382v30.878l12.5,11.372l13.01-11.23v-31.181
    c0,0-2.135,2.036-4.01,3.411c-3.062,2.688-7.125-2.312-4.5-4.75c4.125-4.312,34.125-30.938,66.62-44.866
    c4.317-1.446,6.13,3.991,2.835,5.616l-24.945,13.25c0,0,3.803,5.188-2.834,10.047c-7.426,5.203-11.197-0.992-11.197-0.992
    l-18.851,15.449c0,0,4.122,0.246,4.252,3.401v31.323l6.378,14.598c1.492,2.923-0.258,5.386-0.258,5.386l-22.561,20.976v17.292
    c0,0,44.311,14.069,71.561-13.181c-5.25-22-17.25-45.8-51-59.55c-3.5-1.75-1.25-7.25,2-6.75c0,0,23.75,9.25,34.25,22.5
    c4.375-24.25,17.531-40.75,35.031-50.75c-4.963-18.979-10.311-36.154-19.031-49.75c-5.125-9-16.47-22.725-31.947-29.606
    c-18.303-7.394-25.678-2.269-36.753,8.606c-1.833,2-8.424,1.75-5.244-5.488c-0.625-0.125-2.305-0.708-2.305-0.708
    s-1.25,1.072-2,0.197c0,0-1.417-0.167-1.25,0.75c3.25,3.375,0.75,8.875-4.5,5.75c-16.375-20.375-39.125-13.375-58.543,6.893
    c-13.529,14.821-24.315,37.233-29.207,63.357c0,0,30.083,15.917,34.5,50.5C263.458,264.812,279.458,249.312,297.208,243.062z"/>
<circle fill="#FFFFFF" stroke="#FFFFFF" stroke-width="0.75" cx="284.441" cy="212.188" r="1.326"/>
<circle fill="#FFFFFF" stroke="#FFFFFF" stroke-width="0.75" cx="362.754" cy="212.312" r="1.326"/>
<g>
    <path fill="none" stroke="#000000" stroke-width="2" stroke-linecap="round" d="M328.958,141.192
        c3.125-0.755,12.125-13.63,25-13.04c34.125,2.66,51,36.785,52.316,38.785c13.559,25.625,17.309,49,17.309,49
        c-13.5,8.125-30.875,18.625-36.441,56.783"/>
    <path fill="none" stroke="#000000" stroke-width="2" stroke-linecap="round" d="M319.393,141.192
        c-7.435-6.005-12.81-12.824-24.435-13.04c-38.75,3.41-61,42.669-70,88.044c35.125,17.24,36.25,56.948,36.25,56.948"/>
    
        <line fill="none" stroke="#000000" stroke-width="2" stroke-linecap="round" x1="324.292" y1="302.979" x2="324.354" y2="323.318"/>
    <line fill="none" stroke="#000000" stroke-width="2" stroke-linecap="round" x1="323.066" y1="93.776" x2="323.066" y2="134.562"/>
    <path fill="none" stroke="#000000" stroke-width="2" stroke-linecap="round" d="M294.566,94.995
        c22.249,17.912,24.875,39.817,24.875,39.817"/>
    <path fill="none" stroke="#000000" stroke-width="2" stroke-linecap="round" d="M351.187,95.469c0,0-19.312,12.718-23.812,39.218"
        />
    
        <line fill="none" stroke="#000000" stroke-width="2" stroke-linecap="round" x1="323.191" y1="174.188" x2="323.191" y2="216.062"/>
    <path fill="none" stroke="#000000" stroke-width="2" stroke-linecap="round" d="M290.905,180.877c0,0,19.537,8.435,28.537,35.935"
        />
    <path fill="none" stroke="#000000" stroke-width="2" stroke-linecap="round" d="M327.191,215.46c0,0,6.625-24.522,28.627-36"/>
    <path fill="none" stroke="#000000" stroke-width="2" stroke-linecap="round" d="M252.316,188.814
        c39.25,17.998,65.375,43.653,65.375,43.653"/>
    <path fill="none" stroke="#000000" stroke-width="2" stroke-linecap="round" d="M262.275,193.917
        c4.042,5.771,4.167,21.396,14.667,26.646c7.5,4.875,33.017,1.536,29.696,2.268"/>
    <path fill="none" stroke="#000000" stroke-width="2" stroke-linecap="round" d="M277.299,201.688c0,0-6.607,7.375,0.268,12.5
        c8.875,7.375,13.5-3.25,13.5-3.25"/>
    <path fill="none" stroke="#000000" stroke-width="2" stroke-linecap="round" d="M330.316,232.939c0,0,26.75-26.627,65.625-44.125"
        />
    <path fill="none" stroke="#000000" stroke-width="2" stroke-linecap="round" d="M341.646,222.83
        c18.546,0.482,23.421,1.732,31.921-3.685c7.75-7.208,8.875-19.208,12.016-25.208"/>
    <polyline fill="none" stroke="#000000" stroke-width="2" stroke-linecap="round" points="307.816,232.468 307.856,264.783 
        300.259,281.488 324.07,303.173 347.816,281.488 340.369,264.641 340.316,232.468  "/>
    <polyline fill="none" stroke="#000000" stroke-width="2" stroke-linecap="round" points="307.771,264.925 323.566,278.814 
        340.369,264.5   "/>
    <path fill="none" stroke="#000000" stroke-width="2" stroke-linecap="round" d="M357.333,211.066
        c1.459,2.163,4.541,9.163,12.5,3.746c8-5,1.5-12.817,1.5-12.817"/>
    <path fill="none" stroke="#000000" stroke-width="2" stroke-linecap="round" d="M224.708,296.53
        c21.5-5.968,41.727-0.638,47.488,1.135"/>
    <path fill="none" stroke="#000000" stroke-width="2" stroke-linecap="round" d="M202.042,276.688c0,0,45,0.5,79.167,19"/>
    <path fill="none" stroke="#000000" stroke-width="2" stroke-linecap="round" d="M230.191,266.438
        c35.125,6.625,59.125,22.75,59.125,22.75"/>
    <path fill="none" stroke="#000000" stroke-width="2" stroke-linecap="round" d="M228.542,325.303c0,0,14.666-16.115,36.916-22.818"
        />
    <path fill="none" stroke="#000000" stroke-width="2" stroke-linecap="round" d="M359.083,289.161
        c28.75-17.849,59.125-22.677,59.125-22.677"/>
    <path fill="none" stroke="#000000" stroke-width="2" stroke-linecap="round" d="M367.708,295.396
        c36.625-18.709,78.11-18.566,78.11-18.566"/>
    <path fill="none" stroke="#000000" stroke-width="2" stroke-linecap="round" d="M376.369,297.523
        c25.714-7.461,47.339-0.993,47.339-0.993"/>
    <path fill="none" stroke="#000000" stroke-width="2" stroke-linecap="round" d="M382.833,302.568
        c23.875,7.369,36.906,22.744,36.906,22.744"/>
    <path fill="none" stroke="#000000" stroke-width="2" stroke-linecap="round" d="M350.208,246.341
        c21,9.596,45.125,24.096,53.25,64.125c-14.75,14.971-47.25,24.971-78.112,13.5c-25.638,8.596-58.013,6.721-80.263-13.5
        c2.625-11.279,9.125-46.279,53.125-64.25"/>
</g>
<g>
    <g>
        <path fill="#FFFFFF" stroke="#000000" stroke-width="2.5" d="M157.398,416.055c1.509,0.424,7.667,2.153,7.667,2.153
            s10.446,2.896,11.447,3.173c0,1.12,0,63.926,0,63.926s9.062-0.025,10.213,0.008c0,1.259,0,12.907,0,14.201
            c-1.392,0-27.935,0-29.328,0C157.398,498.06,157.398,417.972,157.398,416.055z"/>
    </g>
    <g>
        <path fill="#FFFFFF" stroke="#000000" stroke-width="2.5" stroke-miterlimit="10" d="M218.938,430.709
            c1.487,0.241,10.741,1.742,10.741,1.742s5.354,0.935,6.94,1.212c0.061,0.231,6.763,24.483,6.763,24.483s0.084-21.991,0.084-23.554
            c1.478,0.187,15.596,1.962,16.758,2.108c0,1.281,0,61.531,0,62.996c-1.258-0.013-16.111-0.171-17.612-0.184
            c-0.284-0.953-7.103-24.584-7.103-24.584s0.187,23.199,0.187,24.586c-1.32,0-15.438,0-16.758,0
            C218.938,498.066,218.938,432.409,218.938,430.709z"/>
    </g>
    <g>
        <path fill="#FFFFFF" stroke="#000000" stroke-width="2.5" d="M192.838,425.408c1.479,0.307,8.494,1.763,8.494,1.763l7.205,1.413
            c0,0,2.617,0.5,3.503,0.669c0,1.206,0,68.807,0,70.263c-1.341,0-17.861,0-19.202,0
            C192.838,498.063,192.838,427.188,192.838,425.408z"/>
    </g>
    <g>
        <path fill="#FFFFFF" stroke="#000000" stroke-width="2.5" stroke-miterlimit="9" d="M449.707,430.401l9.45-1.848
            c0,0,5.161-1.024,6.549-1.3c0,1.764,0,70.811,0,72.262c-1.341,0-16.689,0-17.736,0c-0.1-0.383-6.705-23.836-6.705-23.836
            s0,22.444,0,23.836c-1.322,0-15.611,0-16.933,0c0-1.452,0-63.639,0-64.877c1.129-0.182,10.879-1.756,10.879-1.756
            s4.956-0.867,6.794-1.188c0.319,1.164,6.855,24.735,6.855,24.735s0-24.696,0-25.862
            C449.272,430.487,449.707,430.401,449.707,430.401z"/>
    </g>
    <g>
        <path fill="#FFFFFF" stroke="#000000" stroke-width="2.5" d="M406.787,436.797l7.758-0.939c0,0,2.715-0.336,3.85-0.477
            c0,1.635,0,62.862,0,64.31c-1.341,0-17.861,0-19.202,0c0-1.449,0-60.752,0-62.052
            C400.325,437.514,406.787,436.797,406.787,436.797z"/>
    </g>
    <g>
        <path fill="#FFFFFF" stroke="#000000" stroke-width="2.5" stroke-miterlimit="10" d="M267.122,437.509
            c1.374,0.126,8.825,0.812,8.825,0.812s8.304,0.681,9.504,0.78c0,1.232,0.03,16.042,0.03,16.042s4.583-14.704,4.894-15.755
            c1.016,0.072,6.5,0.466,6.5,0.466s10.596,0.633,12.281,0.732c-0.479,1.414-5.905,17.298-5.905,17.298l-3.073,9.033
            c0,0,10.424,31.005,11.017,32.773c-1.829,0-18.35,0-19.353,0c-0.26-0.864-6.391-20.589-6.391-20.589s0,19.215,0,20.589
            c-1.334,0-16.995,0-18.329,0C267.122,498.244,267.122,439.092,267.122,437.509z"/>
    </g>
    <path fill="#FFFFFF" stroke="#000000" stroke-width="2.5" d="M396.646,449.223l-0.154-1.869c-0.11-0.915-0.26-1.627-0.498-2.37
        c-0.354-1.062-0.777-1.964-1.691-2.897c-1.012-0.992-2.023-1.425-2.959-1.743l-1.111-0.305l-1.42-0.254l-1.751-0.18
        c0,0-2.302-0.07-2.303-0.07c0,0-3.562,0.075-3.564,0.075l-3.177,0.165l-2.319,0.131l-11.08,0.566c0,0-7.86,0.276-9.107,0.32v58.898
        h19.202c0-1.386-0.001-19.332-0.001-19.332s1.196-0.037,1.535-0.048c0.026-0.033,0.064-0.079,0.064-0.079l5.778-0.235
        c0,0,3.302-0.25,3.303-0.25l2.063-0.298l1.722-0.379c0,0,1.406-0.426,1.4-0.424c1.288-0.468,2.374-0.999,3.47-2.062
        c1.438-1.456,1.877-2.899,2.2-4.241l0.23-1.343l0.164-1.898l0.067-2.453v-14.929L396.646,449.223z M376.076,451.822
        c0.117,0.008,0.438,0.028,0.438,0.028c0.609,0.025,0.888,0.07,1.119,0.309c0.115,0.231,0.137,0.393,0.149,0.717
        c0,0,0.016,0.32,0.016,0.325c0,0.068,0.01,0.688,0.01,0.688l0.001,4.913c0,0-0.017,9.484-0.018,9.616
        c-0.04,0.415-0.151,0.643-0.413,0.825c-0.38,0.247-0.746,0.318-1.364,0.416c-0.123-0.001-0.486-0.001-0.486-0.001
        s-1.237,0.019-1.238,0.019c0-1.839,0-16.154,0-17.854C375.109,451.822,376.052,451.822,376.076,451.822z"/>
    <path fill="#FFFFFF" stroke="#000000" stroke-width="2.5" d="M352.44,485.047c0,8.917-7.296,16.213-16.214,16.213h-9.173
        c-8.918,0-16.215-7.296-16.215-16.213v-28.238c0-8.917,7.297-16.215,16.215-16.215h9.173c8.918,0,16.214,7.298,16.214,16.215
        V485.047z"/>
    <path fill="#FFFFFF" stroke="#000000" stroke-width="2.5" d="M332.996,486.787c0,0.39-0.319,0.709-0.709,0.709h-1.294
        c-0.392,0-0.71-0.319-0.71-0.709v-32.003c0-0.39,0.318-0.708,0.71-0.708h1.294c0.39,0,0.709,0.318,0.709,0.708V486.787z"/>
    <polyline fill="#FFFFFF" stroke="#000000" stroke-width="2.5" stroke-linecap="square" points="328.782,431.935 316.057,431.935 
        316.057,440.559 328.782,440.559 328.782,431.935     "/>
    <polyline fill="#FFFFFF" stroke="#000000" stroke-width="2.5" stroke-linecap="square" points="348.032,431.935 335.307,431.935 
        335.307,440.559 348.032,440.559 348.032,431.935     "/>
    <g>
        <path fill="#FFFFFF" stroke="#000000" stroke-width="2.5" d="M501.701,417.92c-0.003,0-1.633,0.098-1.633,0.098l-2.191,0.319
            l-3.498,0.707l-4.766,1.14l-5.002,1.373c-0.001,0-4.043,1.251-4.043,1.251l-2.601,0.934c-0.002,0.001-1.742,0.769-1.742,0.769
            c-0.002,0.001-1.438,0.786-1.438,0.786c-0.001,0.001-1.193,0.789-1.193,0.789c-0.928,0.667-1.839,1.593-2.432,2.472
            c-0.766,1.129-1.147,2.118-1.484,3.256c-0.002,0.005-0.334,1.413-0.334,1.413l-0.248,1.778c0,0.001-0.18,2.541-0.18,2.541
            l-0.072,3.309v43.509l0.085,3.285l0.206,2.513l0.289,1.762c0,0.002,0.394,1.416,0.394,1.416c0.509,1.47,1.122,2.696,2.468,3.923
            c1.602,1.386,3.145,1.88,4.589,2.267c0.01,0.003,1.761,0.359,1.761,0.359l2.167,0.252c1.616,0.133,3.579,0.164,5.25,0.083
            l2.266-0.18c1.758-0.21,3.056-0.56,4.481-1.208c1.76-0.811,3.307-2.009,4.873-3.773c0,0,0.267-0.326,0.554-0.676
            c0.401,0.658,0.84,1.376,0.84,1.376l2.084,3.79l0.453,0.006h8.26v-43.86l-8.25,1.213l-13.453,1.876v13.216l0.766-0.005
            c0.743-0.004,1.608-0.063,2.424-0.129c0,1.092,0.001,3.6,0.001,3.6l-0.019,8.847c-0.044,0.499-0.263,1.24-1.047,1.62
            c-1.127,0.453-1.844,0.349-2.422-0.37c-0.509-0.774-0.567-1.515-0.593-2.55V437.93l0.017-1.048c0,0.002,0.087-1.097,0.087-1.097
            c0.06-0.452,0.359-1.051,0.742-1.255c0.668-0.366,1.388-0.521,2.089-0.454c0.198,0.016,0.626,0.251,0.773,0.595
            c0.323,0.696,0.356,1.326,0.371,2.208v11.049l8.697-1.644l4.953-0.944l4.861-0.906l0.002-0.633v-11.276l-0.071-3.549l-0.177-2.643
            l-0.249-1.828l-0.323-1.427l-0.38-1.148c-0.354-0.866-0.718-1.549-1.45-2.296c-1.089-1.045-2.129-1.337-3.019-1.529
            C503.507,417.965,502.718,417.906,501.701,417.92z M485.865,435.57L485.865,435.57L485.865,435.57z"/>
    </g>
</g>
<g>
    <path d="M648.983,77.265c0-8.028,6.516-14.58,14.58-14.58c8.063,0,14.58,6.552,14.58,14.58c0,8.028-6.517,14.58-14.58,14.58
        C655.499,91.845,648.983,85.292,648.983,77.265z M675.911,77.265c0-6.948-5.399-12.349-12.348-12.349s-12.349,5.4-12.349,12.349
        c0,6.948,5.4,12.348,12.349,12.348S675.911,84.212,675.911,77.265z M663.852,68.48c5.004,0,6.084,2.808,6.084,5.112
        c0,2.16-1.513,4.104-4.104,4.607l3.744,8.496h-2.448l-3.563-8.172h-3.564v8.172h-2.231V68.48H663.852z M659.999,76.544h2.953
        c3.707,0,4.319-1.296,4.319-2.988c0-2.34-1.513-3.096-3.924-3.096h-3.349V76.544z"/>
</g>
</svg>