<?xml version="1.0" encoding="utf-8"?>
<!-- Generator: Adobe Illustrator 17.0.0, SVG Export Plug-In . SVG Version: 6.00 Build 0)  -->
<!DOCTYPE svg PUBLIC "-//W3C//DTD SVG 1.1//EN" "http://www.w3.org/Graphics/SVG/1.1/DTD/svg11.dtd">
<svg version="1.1" id="Lager_7" xmlns="http://www.w3.org/2000/svg" xmlns:xlink="http://www.w3.org/1999/xlink" x="0px" y="0px"
	 width="352px" height="451px" viewBox="0 0 352 451" enable-background="new 0 0 352 451" xml:space="preserve">
<g>
	<g>
		<polygon fill="#212120" points="171,1.5 2,1.5 2,98.5 55,98.5 2,152.5 1.667,307.25 62.5,369.5 171,369.5 		"/>
		<polygon fill="#212120" points="182,1.5 351,1.5 351,98.5 298,98.5 351,152.5 351.333,307.25 290.5,369.5 182,369.5 		"/>
	</g>
	<g>
		<polygon fill="#FFFFFF" points="164,8.5 8,8.5 8,92.5 71.906,92.5 8,156 8,304.5 73.919,369.5 164,369.5 		"/>
		<polygon fill="#FFFFFF" points="189,8.5 345,8.5 345,92.5 281.094,92.5 345,156 345,304.5 279.081,369.5 189,369.5 		"/>
	</g>
	<radialGradient id="SVGID_1_" cx="176.5" cy="194.5" r="293.8381" gradientUnits="userSpaceOnUse">
		<stop  offset="0.4929" style="stop-color:#C12823"/>
		<stop  offset="0.6414" style="stop-color:#A92121"/>
		<stop  offset="0.7898" style="stop-color:#991C20"/>
		<stop  offset="0.9026" style="stop-color:#931A20"/>
		<stop  offset="0.9497" style="stop-color:#88161F"/>
		<stop  offset="1" style="stop-color:#84151F"/>
	</radialGradient>
	<path fill="url(#SVGID_1_)" d="M152,369.5H90.531L20,300.5v-140l79.095-80H20v-61h132V369.5z M201,369.5h61.469l70.531-69v-140
		l-79.095-80H333v-61H201V369.5z"/>
	<rect x="2" y="367.5" fill="#212120" width="349" height="83"/>
	<path fill="#FFFFFF" d="M97,436.5h3V418c0,0,6.833-0.833,8.25,4.792s2.5,9.518,3.167,11.143c0.667,1.625,1.208,2.566,1.208,2.566
		l12.974-0.01c0,0-1.266-2.99-2.183-6.532c-0.917-3.542-2.25-9.625-4.542-12.875s-4.417-3.333-4.417-3.333s3.833-1.125,6.25-4.25
		c2.417-3.125,2.917-5.167,2.917-7.75s-0.5-6.708-4.125-9.792c-3.625-3.083-9.167-4.042-14.125-4.083s-6.083-0.167-11.167,0.25
		c-5.083,0.417-6.208,0.708-6.208,0.708V436.5H97z"/>
	<path fill="#FFFFFF" d="M242,436.5h3V418c0,0,6.833-0.833,8.25,4.792s2.5,9.518,3.167,11.143c0.667,1.625,1.208,2.566,1.208,2.566
		l12.974-0.01c0,0-1.266-2.99-2.183-6.532c-0.917-3.542-2.25-9.625-4.542-12.875s-4.417-3.333-4.417-3.333s3.833-1.125,6.25-4.25
		c2.417-3.125,2.917-5.167,2.917-7.75s-0.5-6.708-4.125-9.792c-3.625-3.083-9.167-4.042-14.125-4.083s-6.083-0.167-11.167,0.25
		c-5.083,0.417-6.208,0.708-6.208,0.708V436.5H242z"/>
	<path fill="#212120" d="M99.979,397.5"/>
	<path fill="#212120" d="M244.979,397.5"/>
	<polygon fill="#FFFFFF" points="137,436.5 137,388.5 168,388.5 168,398.938 150.063,399 150.001,406.567 166.75,406.625 
		166.812,416.813 150,416.875 150.125,425.313 169,425.375 169,436.5 	"/>
	<circle fill="#FFFFFF" cx="43.792" cy="380.708" r="5.292"/>
	<circle fill="#FFFFFF" cx="58.792" cy="380.708" r="5.292"/>
	<ellipse fill="#FFFFFF" cx="51.417" cy="412.371" rx="23.333" ry="24.546"/>
	<ellipse fill="#FFFFFF" cx="303.417" cy="412.371" rx="23.333" ry="24.546"/>
	<path fill="#FFFFFF" d="M182,389.417c0,0,3.371-0.917,16.041-0.917s20.065,2.75,20.065,11.833c0,9.083-7.764,10-7.764,10
		s9.622,1.667,9.622,11.583c0,9.917-10.938,14.583-21.691,14.583c-10.753,0-16.273-0.667-16.273-0.667V389.417z"/>
	<path fill="#212120" d="M100,397.5h4.771l1.229,0.125c0,0,4.75,0.998,4.75,5.748s-4.75,6.002-4.75,6.002l-1.437,0.125H100V397.5z"
		/>
	<path fill="#212120" d="M245,397.5h4.771l1.229,0.125c0,0,4.75,0.998,4.75,5.748s-4.75,6.002-4.75,6.002l-1.437,0.125H245V397.5z"
		/>
	<path fill="#212120" d="M195,397.5h4.771l1.229,0.096c0,0,4.75,0.765,4.75,4.403S201,406.5,201,406.5h-1.437H195V397.5z"/>
	<path fill="#212120" d="M195,415.5h5.16l1.329,0.109c0,0,5.137,1.246,5.137,5.389c0,4.144-5.137,5.501-5.137,5.501h-1.554H195
		V415.5z"/>
	<ellipse fill="#212120" cx="51.375" cy="412.333" rx="9.625" ry="14.417"/>
	<ellipse fill="#212120" cx="303.375" cy="412.333" rx="9.625" ry="14.417"/>
</g>
</svg>
