<svg id="vlh" version="1.1" xmlns="http://www.w3.org/2000/svg" xmlns:xlink="http://www.w3.org/1999/xlink" x="0px" y="0px"
     width="172.012px" height="202.549px" viewBox="0 0 172.012 202.549" enable-background="new 0 0 172.012 202.549"
     xml:space="preserve">
<path fill="#FFFFFF" d="M158.418,22.182C121.941,7.433,92.43,6.668,86.763,6.668c-0.366,0-0.574,0.003-0.611,0.003l-0.155,0.004
    l-0.165-0.004c-0.03,0-0.236-0.003-0.601-0.003c-5.661,0-35.154,0.763-71.631,15.51c-2.488,8.689-9.347,36.383-6.039,67.898
    c2.303,21.957,9.035,41.485,20.011,58.052c13.277,20.03,32.925,35.891,58.432,47.166c25.604-11.315,45.299-27.246,58.576-47.381
    c10.966-16.629,17.667-36.23,19.918-58.268C167.71,58.204,160.901,30.813,158.418,22.182z M161.609,89.355
    c-4.889,47.834-30.24,82.369-75.559,102.771c-45.1-20.317-70.546-54.695-75.59-102.204C7.31,60.278,13.33,34.014,16.005,24.264
    C52.228,9.909,85.76,9.517,85.793,9.519l0.512,0.004l0.02,0.006c0.094-0.001,0.223-0.003,0.393-0.003
    c3.381,0,33.066,0.431,69.291,14.787C158.678,33.97,164.625,59.822,161.609,89.355z"/>
<path fill="#F47735" d="M86.788,9.526c-0.17,0-0.299,0.001-0.393,0.003l-0.02-0.006l-0.512-0.004
    c-0.033-0.001-33.565,0.39-69.788,14.746c-2.676,9.75-8.696,36.014-5.545,65.659c5.044,47.509,30.491,81.887,75.59,102.204
    c45.318-20.402,70.67-54.938,75.559-102.771c3.016-29.533-2.932-55.386-5.602-65.043C119.854,9.957,90.169,9.526,86.788,9.526z"/>
<g>
    <path fill="#B4975A" d="M86.763,6.668c5.667,0,35.179,0.765,71.655,15.514c2.483,8.631,9.292,36.022,6.079,67.463
        c-2.251,22.037-8.952,41.639-19.918,58.268c-13.277,20.135-32.973,36.065-58.576,47.381
        c-25.507-11.275-45.154-27.136-58.432-47.166C16.596,131.562,9.864,112.033,7.561,90.076C4.252,58.562,11.112,30.868,13.6,22.178
        C50.076,7.431,79.569,6.668,85.23,6.668c0.364,0,0.57,0.003,0.601,0.003l0.165,0.004l0.155-0.004
        C86.188,6.672,86.396,6.668,86.763,6.668 M86.761,0c-0.503,0-0.765,0.005-0.765,0.005S85.732,0,85.23,0
        C79.897,0,47.387,0.711,8.141,17.216c0,0-45.304,133.171,77.833,185.333h0.061c123.139-52.162,77.838-185.333,77.838-185.333
        C124.622,0.711,92.094,0,86.761,0L86.761,0z"/>
</g>
<g>
    <path fill="#FFFFFF" d="M25.46,47.511c-2.035,0.281-4.069,0.576-6.101,0.885c-0.961,8.799-1.932,17.6-2.913,26.404
        c5.582-0.871,11.176-1.637,16.78-2.297c0.26-1.972,0.52-3.944,0.778-5.916c-3.704,0.432-7.402,0.91-11.097,1.434
        C23.766,61.182,24.617,54.345,25.46,47.511z"/>
    <path fill="#B4975A" d="M34.037,65.648c-3.359,0.392-6.715,0.821-10.067,1.289c0.811-6.493,1.615-12.984,2.412-19.474
        c0.042-0.343,0.084-0.686,0.126-1.029c-0.336,0.045-0.672,0.092-1.008,0.138c-2.034,0.28-4.066,0.575-6.097,0.884
        c-0.289,0.044-0.578,0.088-0.867,0.133c-0.033,0.296-0.065,0.592-0.098,0.887c-0.966,8.801-1.943,17.604-2.929,26.41
        c-0.038,0.337-0.076,0.674-0.114,1.011c0.335-0.053,0.671-0.106,1.007-0.158c5.585-0.872,11.183-1.638,16.79-2.299
        c0.287-0.034,0.574-0.067,0.86-0.101c0.038-0.286,0.075-0.572,0.113-0.858c0.259-1.972,0.517-3.943,0.774-5.914
        c0.045-0.347,0.09-0.693,0.136-1.04C34.729,65.568,34.383,65.608,34.037,65.648z M16.446,74.8
        c0.981-8.804,1.952-17.605,2.913-26.404c2.032-0.309,4.066-0.604,6.101-0.885c-0.843,6.834-1.694,13.67-2.553,20.509
        c3.694-0.524,7.393-1.002,11.097-1.434c-0.259,1.972-0.519,3.944-0.778,5.916C27.622,73.163,22.028,73.929,16.446,74.8z"/>
</g>
<path fill="none" d="M47.145,60.452c0.964-0.084,1.928-0.165,2.892-0.243c-0.436-1.612-0.869-3.223-1.301-4.834
    C48.207,57.067,47.676,58.759,47.145,60.452z"/>
<g>
    <path fill="#FFFFFF" d="M45.918,45.171c-3.176,8.961-6.403,17.956-9.681,26.986c2.133-0.237,4.267-0.458,6.402-0.665
        c0.549-1.607,1.097-3.214,1.644-4.819c2.776-0.259,5.554-0.492,8.333-0.699c0.456,1.521,0.913,3.043,1.373,4.566
        c2.173-0.155,4.347-0.294,6.521-0.417c-2.841-8.518-5.627-17.009-8.359-25.475C50.072,44.808,47.995,44.982,45.918,45.171z
         M45.86,61.501c0.984-3.125,1.962-6.247,2.936-9.365c0.022-0.002,0.045-0.004,0.068-0.006c0.795,2.97,1.596,5.943,2.402,8.917
        C49.463,61.188,47.661,61.339,45.86,61.501z"/>
    <path fill="#B4975A" d="M61.415,69.772c-2.846-8.523-5.638-17.02-8.375-25.491c-0.067-0.207-0.133-0.413-0.2-0.62
        c-0.223,0.017-0.445,0.033-0.668,0.05c-2.077,0.16-4.153,0.333-6.228,0.522c-0.223,0.021-0.445,0.041-0.667,0.062
        c-0.078,0.219-0.155,0.437-0.232,0.656c-3.181,8.967-6.412,17.969-9.694,27.006c-0.156,0.429-0.312,0.859-0.468,1.288
        c0.441-0.05,0.881-0.1,1.322-0.148c2.134-0.237,4.27-0.459,6.407-0.666c0.231-0.022,0.462-0.044,0.693-0.066
        c0.077-0.224,0.153-0.448,0.23-0.672c0.472-1.382,0.943-2.764,1.413-4.145c2.316-0.212,4.633-0.407,6.951-0.583
        c0.392,1.307,0.784,2.614,1.178,3.921c0.064,0.214,0.129,0.429,0.193,0.643c0.233-0.017,0.466-0.034,0.699-0.05
        c2.174-0.155,4.349-0.294,6.525-0.417c0.443-0.025,0.885-0.049,1.328-0.073C61.686,70.582,61.55,70.177,61.415,69.772z
         M53.988,70.541c-0.459-1.522-0.917-3.044-1.373-4.566c-2.779,0.207-5.557,0.44-8.333,0.699c-0.546,1.605-1.094,3.212-1.644,4.819
        c-2.135,0.206-4.27,0.428-6.402,0.665c3.278-9.031,6.505-18.025,9.681-26.986c2.077-0.189,4.154-0.363,6.232-0.522
        c2.731,8.466,5.518,16.957,8.359,25.475C58.335,70.247,56.161,70.386,53.988,70.541z"/>
</g>
<path fill="#B4975A" d="M48.863,52.13c-0.022,0.002-0.045,0.004-0.068,0.006c-0.973,3.119-1.952,6.24-2.936,9.365
    c1.801-0.162,3.603-0.313,5.405-0.454C50.459,58.073,49.659,55.1,48.863,52.13z M48.735,55.375c0.432,1.611,0.866,3.222,1.301,4.834
    c-0.964,0.078-1.928,0.159-2.892,0.243C47.676,58.759,48.207,57.067,48.735,55.375z"/>
<g>
    <path fill="#FFFFFF" d="M76.39,53.707c2.953-3.481,5.886-6.933,8.797-10.356c-2.546,0.005-5.092,0.032-7.638,0.081
        c-2.608,3.382-5.235,6.787-7.879,10.216c0.038-3.333,0.075-6.666,0.113-9.999c-2.049,0.075-4.099,0.165-6.146,0.269
        c-0.136,8.687-0.271,17.374-0.406,26.06c2.085-0.106,4.171-0.197,6.258-0.273c0.03-2.675,0.061-5.351,0.091-8.026
        c0.857-1.004,1.714-2.006,2.568-3.005c2.104,3.582,4.223,7.178,6.358,10.79c2.591-0.043,5.184-0.064,7.775-0.063
        C82.947,64.132,79.65,58.901,76.39,53.707z"/>
    <path fill="#B4975A" d="M87.088,68.905c-3.212-5.079-6.391-10.124-9.535-15.136c2.8-3.296,5.582-6.567,8.345-9.812
        c0.438-0.515,0.877-1.029,1.314-1.543c-0.675-0.002-1.35-0.002-2.024,0c-2.545,0.005-5.089,0.032-7.633,0.081
        c-0.152,0.003-0.304,0.006-0.456,0.009c-0.095,0.122-0.189,0.244-0.283,0.367c-2.048,2.657-4.106,5.329-6.176,8.015
        c0.026-2.423,0.052-4.847,0.078-7.271c0.003-0.312,0.007-0.625,0.01-0.937c-0.312,0.011-0.622,0.022-0.934,0.033
        c-2.048,0.075-4.096,0.165-6.143,0.269c-0.312,0.016-0.622,0.032-0.934,0.048c-0.005,0.312-0.01,0.625-0.015,0.937
        c-0.142,8.687-0.282,17.374-0.424,26.061c-0.005,0.312-0.01,0.625-0.015,0.937c0.316-0.017,0.634-0.033,0.951-0.049
        c2.087-0.105,4.174-0.197,6.262-0.273c0.317-0.012,0.635-0.023,0.952-0.034c0.003-0.312,0.007-0.625,0.01-0.937
        c0.027-2.559,0.055-5.119,0.082-7.678c0.487-0.57,0.975-1.139,1.461-1.707c1.886,3.209,3.785,6.43,5.698,9.663
        c0.091,0.153,0.182,0.307,0.272,0.46c0.183-0.003,0.365-0.006,0.548-0.01c2.593-0.043,5.187-0.064,7.78-0.063
        c0.571,0,1.143,0.001,1.715,0.004C87.693,69.861,87.391,69.383,87.088,68.905z M69.488,69.704
        c-2.087,0.077-4.173,0.167-6.258,0.273c0.136-8.687,0.271-17.374,0.406-26.06l6.146-0.269c-0.038,3.333-0.075,6.666-0.113,9.999
        c2.644-3.429,5.271-6.834,7.879-10.216c2.546-0.049,5.092-0.076,7.638-0.081c-2.911,3.423-5.844,6.875-8.797,10.356
        c3.261,5.194,6.558,10.425,9.892,15.692c-2.592-0.001-5.185,0.02-7.775,0.063c-2.136-3.612-4.255-7.208-6.358-10.79
        c-0.854,0.999-1.711,2.001-2.568,3.005C69.549,64.354,69.519,67.029,69.488,69.704z"/>
</g>
<g>
    <path fill="#FFFFFF" d="M95.3,63.657c-0.011-1.654-0.021-3.308-0.031-4.962c3.897,0.08,7.794,0.211,11.689,0.393
        c-0.025-1.752-0.051-3.504-0.075-5.256c-3.882-0.181-7.764-0.312-11.647-0.392c-0.01-1.52-0.02-3.04-0.029-4.56
        c4.237,0.087,8.473,0.234,12.706,0.442c-0.027-1.812-0.055-3.625-0.082-5.438c-6.267-0.308-12.537-0.483-18.809-0.524
        c0.018,8.683,0.036,17.366,0.054,26.049c6.497,0.043,12.993,0.227,19.483,0.551c-0.029-1.947-0.06-3.893-0.09-5.839
        C104.081,63.901,99.691,63.747,95.3,63.657z"/>
    <path fill="#B4975A" d="M109.51,70.008c-0.031-1.947-0.062-3.893-0.094-5.84c-0.005-0.312-0.01-0.625-0.015-0.937
        c-0.315-0.017-0.631-0.033-0.946-0.048c-4.069-0.203-8.142-0.351-12.214-0.443c-0.007-1.029-0.015-2.059-0.021-3.089
        c3.585,0.081,7.169,0.205,10.752,0.373c0.314,0.015,0.63,0.03,0.944,0.045c-0.005-0.312-0.01-0.625-0.014-0.937
        c-0.026-1.752-0.053-3.504-0.079-5.256c-0.005-0.312-0.01-0.625-0.015-0.937c-0.313-0.015-0.626-0.03-0.939-0.045
        c-3.565-0.166-7.132-0.29-10.699-0.371c-0.006-0.896-0.013-1.792-0.019-2.687c3.926,0.089,7.852,0.229,11.775,0.422
        c0.312,0.015,0.625,0.031,0.938,0.047c-0.005-0.312-0.01-0.625-0.015-0.937c-0.028-1.813-0.058-3.626-0.086-5.438
        c-0.005-0.312-0.01-0.625-0.015-0.937c-0.312-0.016-0.622-0.032-0.934-0.047c-6.262-0.308-12.528-0.482-18.796-0.524
        c-0.312-0.002-0.623-0.004-0.935-0.005c0.001,0.312,0.001,0.625,0.002,0.937c0.012,8.683,0.024,17.366,0.036,26.049
        c0.001,0.312,0.001,0.625,0.001,0.937c0.318,0.001,0.636,0.003,0.953,0.005c6.501,0.043,13.001,0.227,19.496,0.551
        c0.317,0.016,0.635,0.032,0.951,0.048C109.52,70.633,109.515,70.32,109.51,70.008z M107.83,43.884
        c0.027,1.812,0.055,3.625,0.082,5.438c-4.233-0.208-8.469-0.355-12.706-0.442c0.01,1.52,0.02,3.04,0.029,4.56
        c3.884,0.08,7.766,0.21,11.647,0.392c0.024,1.752,0.05,3.504,0.075,5.256c-3.896-0.182-7.792-0.312-11.689-0.393
        c0.011,1.654,0.021,3.308,0.031,4.962c4.392,0.09,8.781,0.245,13.169,0.464c0.03,1.946,0.061,3.893,0.09,5.839
        c-6.49-0.324-12.986-0.507-19.483-0.551c-0.018-8.683-0.036-17.366-0.054-26.049C95.293,43.401,101.563,43.576,107.83,43.884z"/>
</g>
<path fill="none" d="M122.849,51.244c-1.323-0.109-2.646-0.213-3.97-0.311c0.03,1.334,0.061,2.669,0.091,4.004
    c1.415,0.104,2.83,0.216,4.244,0.333c0.894,0.074,1.913-0.078,1.861-1.966C125.033,51.754,123.842,51.325,122.849,51.244z"/>
<g>
    <path fill="#FFFFFF" d="M128.632,59.316c-0.001-0.024-0.002-0.048-0.003-0.073c2.466-0.82,3.605-3.358,3.516-6.172
        c-0.172-5.264-4.317-7.775-8.471-8.124c-4.001-0.341-8.006-0.627-12.013-0.858c0.155,8.688,0.31,17.375,0.464,26.063
        c2.084,0.121,4.168,0.255,6.25,0.405c-0.069-3.164-0.139-6.329-0.209-9.493c1.569,0.113,3.139,0.234,4.707,0.363
        c2.9,0.242,3.375,2.989,3.617,5.633c0.086,0.736,0.258,3.301,0.82,4.228c2.058,0.188,4.115,0.392,6.171,0.608
        c-0.87-1.037-1.092-4.885-1.193-5.987C132.009,63.405,131.18,60.216,128.632,59.316z M123.238,56.208
        c-1.729-0.144-3.458-0.278-5.188-0.402c-0.043-1.959-0.086-3.918-0.129-5.878c1.635,0.117,3.27,0.244,4.904,0.379
        c1.72,0.143,3.134,1.146,3.188,3.081C126.067,55.361,125.101,56.364,123.238,56.208z"/>
    <path fill="#B4975A" d="M134.174,71.354c-0.206-0.247-0.598-1.218-0.907-4.956c-0.013-0.149-0.025-0.298-0.038-0.447
        c-0.396-3.534-1.529-5.486-2.746-6.552c1.723-1.239,2.688-3.485,2.598-6.229c-0.204-6.118-5.204-8.808-9.431-9.16
        c-3.998-0.34-8-0.626-12.005-0.858c-0.311-0.018-0.622-0.036-0.933-0.053c0.005,0.312,0.011,0.625,0.016,0.937
        c0.149,8.687,0.298,17.375,0.446,26.062c0.006,0.312,0.011,0.625,0.017,0.937c0.317,0.018,0.634,0.036,0.951,0.054
        c2.086,0.121,4.171,0.255,6.255,0.405c0.316,0.023,0.634,0.046,0.95,0.069c-0.007-0.312-0.015-0.625-0.021-0.937
        c-0.064-2.852-0.129-5.704-0.194-8.557c1.256,0.093,2.511,0.191,3.766,0.294c1.699,0.141,2.344,1.28,2.65,4.671
        c0.015,0.127,0.029,0.268,0.046,0.435c0.151,1.565,0.362,3.312,0.92,4.23c0.097,0.159,0.193,0.317,0.29,0.476
        c0.178,0.016,0.356,0.032,0.534,0.049c2.06,0.189,4.117,0.392,6.175,0.609c0.697,0.074,1.394,0.149,2.091,0.226
        C135.126,72.49,134.649,71.921,134.174,71.354z M118.166,61.063c0.07,3.165,0.14,6.329,0.209,9.493
        c-2.082-0.149-4.166-0.284-6.25-0.405c-0.154-8.688-0.309-17.375-0.464-26.063c4.007,0.231,8.012,0.518,12.013,0.858
        c4.153,0.349,8.299,2.86,8.471,8.124c0.09,2.814-1.05,5.352-3.516,6.172c0.001,0.024,0.002,0.048,0.003,0.073
        c2.548,0.899,3.377,4.088,3.656,6.592c0.102,1.102,0.323,4.95,1.193,5.987c-2.056-0.217-4.113-0.42-6.171-0.608
        c-0.562-0.926-0.734-3.491-0.82-4.228c-0.242-2.644-0.717-5.391-3.617-5.633C121.305,61.297,119.735,61.176,118.166,61.063z"/>
</g>
<path fill="#B4975A" d="M122.825,50.306c-1.635-0.135-3.27-0.262-4.904-0.379c0.043,1.959,0.086,3.918,0.129,5.878
    c1.73,0.124,3.459,0.258,5.188,0.402c1.862,0.156,2.829-0.846,2.774-2.82C125.959,51.452,124.545,50.449,122.825,50.306z
     M118.97,54.937c-0.03-1.335-0.061-2.669-0.091-4.004c1.323,0.098,2.646,0.202,3.97,0.311c0.993,0.082,2.185,0.511,2.227,2.06
    c0.052,1.888-0.968,2.041-1.861,1.966C121.8,55.152,120.385,55.041,118.97,54.937z"/>
<g>
    <path fill="#FFFFFF" d="M148.172,58.052c-3.483-1.548-6.904-2.337-6.98-4.347c-0.064-1.719,1.566-2.024,2.885-1.85
        c1.877,0.246,3.918,1.296,3.923,3.659c2.045,0.287,4.089,0.588,6.132,0.904c-0.315-5.901-5.117-9.155-9.776-9.767
        c-4.395-0.591-9.481,1.067-9.295,6.77c0.159,4.787,3.771,6.862,7.199,8.353c3.462,1.49,6.868,2.414,6.969,4.722
        c0.084,1.94-1.816,2.395-3.685,2.147c-2.636-0.351-4.406-1.546-4.656-4.637c-2.062-0.254-4.126-0.493-6.191-0.718
        c0.251,6.692,5.204,9.844,10.694,10.575c5.257,0.69,10.298-0.625,9.977-7.253C155.14,61.882,151.621,59.586,148.172,58.052z"/>
    <path fill="#B4975A" d="M156.305,66.756c-0.264-5.415-4.359-7.99-7.896-9.562c-0.757-0.337-1.497-0.633-2.212-0.918
        c-2.077-0.829-4.039-1.591-4.072-2.454c-0.045-1.166,1.376-1.11,1.989-1.028c1.068,0.141,1.96,0.542,2.448,1.096
        c0.338,0.384,0.502,0.86,0.502,1.455c0.001,0.324,0.001,0.648,0.002,0.973c0.324,0.044,0.648,0.09,0.973,0.135
        c2.047,0.287,4.092,0.588,6.136,0.904c0.312,0.048,0.624,0.097,0.937,0.146c-0.017-0.315-0.033-0.631-0.05-0.946
        c-0.351-6.471-5.642-10.175-10.745-10.845c-5.04-0.677-10.388,1.509-10.192,7.605c0.196,6.042,5.586,8.307,7.89,9.316
        c0.63,0.271,1.256,0.523,1.863,0.767c2.712,1.095,4.363,1.861,4.41,2.961c0.069,1.604-2.112,1.428-2.782,1.34
        c-2.461-0.327-3.493-1.333-3.68-3.622c-0.024-0.301-0.05-0.602-0.074-0.902c-0.3-0.038-0.6-0.075-0.899-0.112
        c-2.061-0.254-4.124-0.493-6.188-0.718c-0.315-0.035-0.631-0.068-0.946-0.102c0.012,0.314,0.023,0.629,0.036,0.943
        c0.235,6.431,4.608,10.68,11.674,11.61C152.545,75.75,156.602,72.835,156.305,66.756z M134.695,63.287
        c2.065,0.225,4.129,0.464,6.191,0.718c0.25,3.091,2.021,4.286,4.656,4.637c1.868,0.248,3.769-0.207,3.685-2.147
        c-0.101-2.308-3.507-3.232-6.969-4.722c-3.428-1.491-7.04-3.566-7.199-8.353c-0.187-5.703,4.9-7.361,9.295-6.77
        c4.659,0.612,9.461,3.866,9.776,9.767c-2.043-0.315-4.087-0.617-6.132-0.904c-0.005-2.362-2.046-3.413-3.923-3.659
        c-1.318-0.174-2.949,0.131-2.885,1.85c0.076,2.01,3.497,2.799,6.98,4.347c3.449,1.534,6.968,3.83,7.194,8.556
        c0.321,6.628-4.72,7.943-9.977,7.253C139.899,73.13,134.946,69.979,134.695,63.287z"/>
</g>
<path fill="none" d="M110.005,28.152c-0.491-0.062-1.637,0.047-1.637,2.313c0,2.265,1.145,2.644,1.637,2.706
    c0.492,0.06,1.635-0.035,1.635-2.299C111.64,28.606,110.497,28.212,110.005,28.152z"/>
<path fill="none" d="M72.649,30.598c0.142-0.009,0.282-0.019,0.424-0.028c-0.068-0.229-0.137-0.458-0.205-0.686
    C72.796,30.122,72.723,30.36,72.649,30.598z"/>
<path fill="#FFFFFF" d="M61.427,31.906c-0.627-2.25-1.254-4.496-1.881-6.739c-1.189,0.161-2.377,0.332-3.564,0.515
    c1.14,3.664,2.28,7.338,3.421,11.023c1.317-0.179,2.636-0.344,3.956-0.497c1.196-3.977,2.395-7.943,3.593-11.898
    c-1.214,0.117-2.428,0.246-3.64,0.386c-0.618,2.399-1.235,4.801-1.853,7.206C61.448,31.903,61.438,31.905,61.427,31.906z"/>
<path fill="#B4975A" d="M66.951,23.659c-1.214,0.117-2.428,0.246-3.64,0.386c-0.167,0.019-0.333,0.039-0.5,0.058
    c-0.043,0.167-0.085,0.333-0.128,0.499c-0.415,1.615-0.83,3.231-1.246,4.848c-0.422-1.514-0.844-3.025-1.266-4.536
    c-0.043-0.155-0.086-0.31-0.129-0.464c-0.166,0.022-0.332,0.044-0.497,0.066c-1.189,0.161-2.377,0.332-3.564,0.515
    c-0.29,0.044-0.579,0.09-0.869,0.136c0.083,0.266,0.166,0.532,0.249,0.798c1.139,3.66,2.279,7.331,3.42,11.012
    c0.046,0.148,0.092,0.297,0.138,0.446c0.161-0.022,0.322-0.044,0.483-0.066c1.317-0.179,2.636-0.344,3.956-0.497
    c0.159-0.018,0.318-0.036,0.478-0.054c0.048-0.158,0.095-0.315,0.143-0.473c1.197-3.973,2.396-7.936,3.595-11.887
    c0.088-0.29,0.176-0.58,0.264-0.87C67.541,23.603,67.246,23.631,66.951,23.659z M59.402,36.705
    c-1.142-3.685-2.282-7.359-3.421-11.023c1.187-0.183,2.375-0.354,3.564-0.515c0.627,2.243,1.254,4.489,1.881,6.739
    c0.011-0.001,0.021-0.003,0.032-0.004c0.617-2.405,1.234-4.807,1.853-7.206c1.212-0.14,2.426-0.269,3.64-0.386
    c-1.198,3.955-2.396,7.921-3.593,11.898C62.038,36.361,60.72,36.526,59.402,36.705z"/>
<path fill="#FFFFFF" d="M69.215,22.514c0.914-0.078,1.829-0.149,2.744-0.214c0-0.698,0-1.396,0-2.093
    c-0.915,0.065-1.83,0.136-2.744,0.214C69.215,21.119,69.215,21.816,69.215,22.514z"/>
<path fill="#FFFFFF" d="M71.149,23.951c-1.416,3.945-2.831,7.906-4.245,11.882c1.188-0.115,2.377-0.219,3.566-0.312
    c0.172-0.562,0.344-1.125,0.516-1.687c1.222-0.092,2.443-0.173,3.666-0.243c0.163,0.54,0.325,1.079,0.487,1.619
    c1.229-0.067,2.456-0.122,3.685-0.166c-1.401-3.79-2.803-7.564-4.204-11.324C73.463,23.788,72.306,23.864,71.149,23.951z
     M71.762,31.311c0.371-1.21,0.743-2.419,1.114-3.627c0.011,0,0.021-0.001,0.031-0.002c0.345,1.161,0.689,2.323,1.034,3.485
    C73.215,31.21,72.488,31.259,71.762,31.311z"/>
<path fill="#FFFFFF" d="M73.531,22.196c0.916-0.058,1.832-0.108,2.748-0.153c0-0.698,0-1.396,0-2.093
    c-0.916,0.044-1.832,0.095-2.748,0.153C73.531,20.8,73.531,21.498,73.531,22.196z"/>
<path fill="#B4975A" d="M72.205,30.954c0.435-0.03,0.868-0.059,1.302-0.086c-0.208-0.704-0.417-1.407-0.626-2.111
    C72.656,29.489,72.431,30.221,72.205,30.954z M72.649,30.598c0.073-0.238,0.146-0.476,0.219-0.714
    c0.068,0.229,0.137,0.457,0.205,0.686C72.932,30.579,72.791,30.588,72.649,30.598z"/>
<path fill="#B4975A" d="M76.279,19.298c-0.916,0.044-1.832,0.095-2.748,0.153c-0.217,0.014-0.435,0.027-0.652,0.042
    c0,0.217,0,0.434,0,0.651c0,0.698,0,1.396,0,2.093c0,0.217,0,0.434,0,0.651c0.218-0.015,0.436-0.028,0.652-0.042
    c0.916-0.058,1.832-0.108,2.748-0.153c0.218-0.011,0.435-0.021,0.652-0.031c0-0.217,0-0.434,0-0.651c0-0.698,0-1.396,0-2.093
    c0-0.217,0-0.434,0-0.651C76.714,19.277,76.497,19.288,76.279,19.298z M76.279,22.043c-0.916,0.044-1.832,0.095-2.748,0.153
    c0-0.698,0-1.396,0-2.093c0.916-0.058,1.832-0.108,2.748-0.153C76.279,20.647,76.279,21.345,76.279,22.043z"/>
<path fill="#B4975A" d="M79.285,35.355c0.001-0.001,0.002-0.003,0.003-0.004c0.076-0.113,0.151-0.227,0.228-0.34
    c-0.025-0.069-0.052-0.139-0.077-0.208c-1.402-3.794-2.804-7.573-4.204-11.336c-0.053-0.14-0.104-0.28-0.157-0.42
    c-0.152,0.008-0.305,0.017-0.457,0.025c-1.157,0.066-2.314,0.143-3.471,0.229c-0.151,0.011-0.303,0.023-0.454,0.035
    c-0.053,0.146-0.105,0.292-0.157,0.438c-1.416,3.95-2.831,7.915-4.245,11.896c-0.107,0.303-0.215,0.606-0.322,0.909
    c0.312-0.032,0.622-0.062,0.934-0.093c1.188-0.115,2.377-0.219,3.566-0.312c0.159-0.013,0.319-0.025,0.479-0.037
    c0.048-0.156,0.095-0.312,0.143-0.467c0.125-0.406,0.249-0.812,0.374-1.218c0.899-0.066,1.8-0.125,2.699-0.179
    c0.117,0.386,0.233,0.772,0.35,1.159c0.046,0.153,0.092,0.306,0.138,0.459c0.163-0.009,0.325-0.019,0.487-0.027
    c1.229-0.067,2.456-0.122,3.685-0.166c0.16-0.006,0.321-0.011,0.482-0.016c-0.081,0.003-0.162,0.005-0.243,0.008
    C79.138,35.577,79.212,35.466,79.285,35.355z M66.904,35.833c1.414-3.976,2.829-7.937,4.245-11.882
    c1.156-0.086,2.313-0.163,3.471-0.229c1.401,3.76,2.803,7.534,4.204,11.324c-1.229,0.043-2.456,0.099-3.685,0.166
    c-0.162-0.54-0.324-1.08-0.487-1.619c-1.223,0.069-2.444,0.15-3.666,0.243c-0.172,0.562-0.344,1.124-0.516,1.687
    C69.281,35.614,68.092,35.718,66.904,35.833z"/>
<path fill="#B4975A" d="M71.959,19.556c-0.915,0.065-1.83,0.136-2.744,0.214c-0.218,0.018-0.435,0.037-0.651,0.056
    c0,0.217,0,0.434,0,0.651c0,0.698,0,1.396,0,2.093c0,0.217,0,0.434,0,0.651c0.217-0.019,0.434-0.038,0.651-0.056
    c0.914-0.078,1.829-0.149,2.744-0.214c0.218-0.015,0.435-0.03,0.652-0.045c0-0.217,0-0.434,0-0.651c0-0.698,0-1.396,0-2.093
    c0-0.217,0-0.434,0-0.651C72.394,19.525,72.177,19.541,71.959,19.556z M71.959,22.3c-0.915,0.065-1.83,0.136-2.744,0.214
    c0-0.698,0-1.396,0-2.093c0.914-0.078,1.829-0.149,2.744-0.214C71.959,20.905,71.959,21.603,71.959,22.3z"/>
<path fill="#B4975A" d="M72.876,27.683c-0.371,1.208-0.743,2.417-1.114,3.627c0.727-0.052,1.453-0.1,2.18-0.144
    c-0.345-1.163-0.689-2.325-1.034-3.485C72.897,27.682,72.887,27.683,72.876,27.683z M72.205,30.954
    c0.226-0.732,0.451-1.465,0.676-2.197c0.209,0.704,0.418,1.407,0.626,2.111C73.073,30.895,72.64,30.923,72.205,30.954z"/>
<path fill="#FFFFFF" d="M92.253,23.51c-1.315-0.043-2.632-0.074-3.947-0.091c-0.572,1.036-1.145,2.073-1.717,3.114
    c-0.583-1.045-1.165-2.087-1.747-3.127c-1.392,0.007-2.783,0.028-4.175,0.064c1.268,1.763,2.536,3.538,3.804,5.326
    c-1.392,2.053-2.783,4.12-4.175,6.203c1.358-0.038,2.717-0.062,4.076-0.072c0.679-1.15,1.358-2.298,2.038-3.441
    c0.658,1.148,1.315,2.299,1.974,3.454c1.43,0.019,2.858,0.053,4.287,0.104c-1.374-2.081-2.749-4.147-4.123-6.2
    C89.782,27.054,91.018,25.276,92.253,23.51z"/>
<path fill="#B4975A" d="M79.516,35.01c-0.076,0.113-0.151,0.227-0.228,0.34c0.001,0.001,0.001,0.003,0.002,0.004
    c-0.002,0-0.003,0-0.005,0c-0.073,0.111-0.147,0.222-0.222,0.333c0.081-0.003,0.162-0.005,0.243-0.008
    c0.149-0.005,0.3-0.01,0.45-0.015C79.676,35.447,79.596,35.229,79.516,35.01z"/>
<polygon fill="#B4975A" points="79.29,35.355 79.288,35.351 79.285,35.355 "/>
<path fill="#B4975A" d="M93.212,34.698c-1.291-1.959-2.583-3.906-3.875-5.84c1.152-1.664,2.304-3.318,3.455-4.962
    c0.231-0.332,0.464-0.662,0.695-0.992c-0.412-0.016-0.823-0.031-1.234-0.044c-1.315-0.043-2.632-0.074-3.947-0.091
    c-0.129-0.001-0.258-0.003-0.387-0.004c-0.062,0.112-0.124,0.225-0.187,0.337c-0.383,0.694-0.766,1.389-1.148,2.085
    c-0.391-0.701-0.781-1.4-1.171-2.099c-0.062-0.111-0.125-0.223-0.188-0.334c-0.128,0-0.256,0.001-0.384,0.001
    c-1.392,0.007-2.783,0.028-4.175,0.064c-0.419,0.011-0.839,0.023-1.258,0.037c0.241,0.334,0.482,0.669,0.725,1.004
    c1.181,1.639,2.361,3.289,3.542,4.949c-1.307,1.933-2.613,3.88-3.92,5.839c-0.08,0.12-0.16,0.241-0.24,0.361
    c0.08,0.219,0.16,0.437,0.241,0.656c-0.15,0.004-0.301,0.01-0.45,0.015c0.329-0.011,0.659-0.021,0.989-0.031
    c1.358-0.038,2.717-0.062,4.076-0.072c0.124-0.001,0.248-0.002,0.372-0.002c0.063-0.107,0.126-0.214,0.189-0.321
    c0.489-0.827,0.979-1.651,1.468-2.475c0.472,0.824,0.943,1.649,1.415,2.476c0.063,0.11,0.126,0.22,0.188,0.33
    c0.126,0.001,0.253,0.003,0.379,0.005c1.43,0.019,2.858,0.053,4.287,0.104c0.409,0.014,0.818,0.03,1.228,0.047
    C93.67,35.393,93.44,35.045,93.212,34.698z M80.296,34.999c1.392-2.083,2.783-4.15,4.175-6.203
    c-1.268-1.788-2.536-3.562-3.804-5.326c1.392-0.036,2.783-0.058,4.175-0.064c0.582,1.04,1.164,2.083,1.747,3.127
    c0.572-1.041,1.145-2.078,1.717-3.114c1.315,0.017,2.632,0.047,3.947,0.091c-1.235,1.766-2.471,3.543-3.705,5.333
    c1.374,2.052,2.749,4.119,4.123,6.2c-1.429-0.05-2.857-0.085-4.287-0.104c-0.658-1.155-1.315-2.306-1.974-3.454
    c-0.68,1.144-1.359,2.291-2.038,3.441C83.013,34.937,81.654,34.96,80.296,34.999z"/>
<path fill="#FFFFFF" d="M97.932,32.83c-0.952-0.058-0.952-0.88-0.952-1.768c0-0.22,0-0.44,0-0.661
    c-1.067-0.061-2.135-0.113-3.202-0.157c0,0.322,0,0.644,0,0.965c-0.001,2.521,1.311,4.187,4.237,4.365
    c2.892,0.184,4.326-0.921,4.326-4.103c0-2.457,0-4.913,0-7.37c-1.184-0.1-2.368-0.189-3.553-0.268c0,2.474,0,4.947,0,7.421
    C98.788,31.771,98.854,32.888,97.932,32.83z"/>
<path fill="#B4975A" d="M102.341,23.452c-1.184-0.1-2.368-0.189-3.553-0.268c-0.218-0.015-0.436-0.029-0.652-0.042
    c0,0.217,0,0.434,0,0.651c0,2.474,0,4.947,0,7.421c0,0.034,0,0.068,0.001,0.102c0.005,0.674-0.075,0.827-0.122,0.858
    c-0.004,0.002-0.029,0.009-0.083,0.006c-0.219-0.014-0.3-0.019-0.3-1.078c0-0.22,0-0.44,0-0.661c0-0.217,0-0.434,0-0.651
    c-0.218-0.013-0.436-0.026-0.652-0.038c-1.067-0.061-2.135-0.113-3.202-0.157c-0.218-0.009-0.436-0.018-0.653-0.026
    c0,0.217,0,0.435,0,0.651c0,0.322,0,0.644,0,0.965c0,3.053,1.783,4.851,4.891,5.042c3.352,0.214,4.978-1.28,4.978-4.698
    c0-2.457,0-4.913,0-7.37c0-0.217,0-0.435,0-0.651C102.775,23.489,102.559,23.47,102.341,23.452z M102.341,31.473
    c0,3.182-1.435,4.287-4.326,4.103c-2.927-0.179-4.238-1.844-4.237-4.365c0-0.322,0-0.644,0-0.965
    c1.067,0.043,2.135,0.096,3.202,0.157c0,0.22,0,0.44,0,0.661c0,0.888,0,1.709,0.952,1.768c0.922,0.058,0.856-1.059,0.856-1.574
    c0-2.474,0-4.947,0-7.421c1.185,0.079,2.369,0.168,3.553,0.268C102.341,26.56,102.341,29.016,102.341,31.473z"/>
<path fill="#FFFFFF" d="M110.005,24.629c-3.492-0.433-5.832,1.885-5.832,5.396c0,3.521,2.34,6.237,5.832,6.67
    c3.492,0.436,5.814-1.699,5.814-5.221C115.819,27.963,113.495,25.065,110.005,24.629z M110.005,33.823
    c-0.9-0.114-2.287-0.867-2.287-3.432c0-2.565,1.387-3.004,2.287-2.891c0.902,0.11,2.283,0.895,2.283,3.459
    C112.289,33.524,110.907,33.933,110.005,33.823z"/>
<path fill="#FFFFFF" d="M106.816,22.993c0.913,0.098,1.826,0.203,2.737,0.314c0-0.698,0-1.396,0-2.093
    c-0.911-0.111-1.824-0.216-2.737-0.314C106.816,21.598,106.816,22.295,106.816,22.993z"/>
<path fill="#FFFFFF" d="M111.122,23.505c0.911,0.119,1.821,0.244,2.731,0.375c0-0.698,0-1.396,0-2.093
    c-0.91-0.131-1.82-0.257-2.731-0.375C111.122,22.11,111.122,22.808,111.122,23.505z"/>
<path fill="#B4975A" d="M110.005,27.5c-0.9-0.114-2.287,0.326-2.287,2.891c0,2.564,1.387,3.318,2.287,3.432
    c0.902,0.11,2.284-0.298,2.283-2.863C112.288,28.395,110.907,27.611,110.005,27.5z M110.005,33.171
    c-0.492-0.062-1.637-0.441-1.637-2.706c0-2.266,1.146-2.376,1.637-2.313c0.492,0.06,1.635,0.454,1.635,2.721
    C111.64,33.137,110.497,33.231,110.005,33.171z"/>
<path fill="#B4975A" d="M110.757,24.11c0.121,0.016,0.243,0.031,0.365,0.047c0.911,0.119,1.821,0.244,2.731,0.375
    c0.216,0.031,0.432,0.063,0.647,0.095c0-0.217,0-0.434,0-0.651c0-0.698,0-1.396,0-2.093c0-0.217,0-0.434,0-0.651
    c-0.216-0.032-0.432-0.063-0.647-0.095c-0.91-0.131-1.82-0.257-2.731-0.375c-0.217-0.028-0.434-0.056-0.649-0.083
    c0,0.217,0,0.435,0,0.651c0,0.698,0,1.396,0,2.093c0,0.209,0,0.419,0,0.628c-0.089-0.017-0.179-0.032-0.27-0.045
    c0-0.206,0-0.411,0-0.617c0-0.698,0-1.396,0-2.093c0-0.217,0-0.434,0-0.651c-0.216-0.027-0.433-0.054-0.649-0.081
    c-0.911-0.111-1.824-0.216-2.737-0.314c-0.217-0.023-0.434-0.046-0.65-0.069c0,0.217,0,0.435,0,0.651c0,0.698,0,1.396,0,2.093
    c0,0.217,0,0.435,0,0.651c0.217,0.023,0.434,0.046,0.65,0.069c0.812,0.087,1.625,0.18,2.437,0.278
    c-3.406-0.071-5.731,2.374-5.731,6.042c0,3.939,2.671,6.908,6.483,7.381c3.812,0.476,6.462-1.831,6.462-5.771
    C116.467,27.908,114.16,24.886,110.757,24.11z M111.122,21.412c0.911,0.119,1.821,0.244,2.731,0.375c0,0.698,0,1.396,0,2.093
    c-0.91-0.131-1.82-0.257-2.731-0.375C111.122,22.808,111.122,22.11,111.122,21.412z M110.005,36.695
    c-3.492-0.433-5.832-3.148-5.832-6.67c0-3.511,2.34-5.829,5.832-5.396c3.49,0.436,5.814,3.334,5.814,6.845
    C115.819,34.996,113.497,37.131,110.005,36.695z M106.816,22.993c0-0.698,0-1.396,0-2.093c0.913,0.098,1.826,0.203,2.737,0.314
    c0,0.698,0,1.396,0,2.093C108.643,23.196,107.729,23.091,106.816,22.993z"/>
<polygon fill="#FFFFFF" points="147.106,94.883 142.311,95.132 141.005,90.514 139.761,95.151 134.963,94.967 138.988,97.584 
    137.333,102.089 141.063,99.068 144.837,102.035 143.115,97.552 "/>
<path fill="#B4975A" d="M149.495,94.09l-6.687,0.347l-1.821-6.439l-1.734,6.465l-6.687-0.256l5.611,3.647l-2.31,6.28l5.201-4.21
    l5.262,4.137l-2.399-6.25L149.495,94.09z M137.333,102.089l1.655-4.505l-4.025-2.617l4.798,0.184l1.244-4.637l1.306,4.618
    l4.796-0.249l-3.991,2.669l1.722,4.483l-3.773-2.967L137.333,102.089z"/>
<polygon fill="#FFFFFF" points="33.382,95.132 32.073,90.514 30.831,95.151 26.034,94.967 30.06,97.584 28.402,102.089 
    32.135,99.068 35.907,102.036 34.188,97.552 38.176,94.883 "/>
<path fill="#B4975A" d="M40.564,94.09l-6.684,0.347l-1.825-6.438l-1.731,6.464l-6.687-0.256l5.612,3.647l-2.311,6.28l5.203-4.21
    l5.258,4.136l-2.396-6.249L40.564,94.09z M28.402,102.089l1.657-4.505l-4.026-2.617l4.797,0.184l1.242-4.637l1.309,4.618
    l4.794-0.249l-3.988,2.669l1.719,4.484l-3.772-2.968L28.402,102.089z"/>
<path fill="none" d="M56.486,108.481c-0.591-0.053-1.155-0.173-1.638-0.432l1.553,1.236L56.486,108.481z"/>
<path fill="none" d="M53.841,103.807c0.042-0.085,0.019-0.077,0.065-0.123c0.021-0.087-0.008-0.275-0.225-0.547
    c-0.018-0.022-0.034-0.045-0.049-0.068c-0.333-0.511-0.536-1.685,0.794-2.867c0.052-0.058,0.344-0.396,0.222-0.542
    c-0.028-0.033-0.054-0.069-0.077-0.106c-0.06-0.098-0.353-0.615-0.192-1.217c0.072-0.27,0.26-0.646,0.74-0.905
    c0.51-0.278,1.318-0.609,2.267-0.609c0.051,0,0.101,0.001,0.151,0.003l0.271-3.075c-0.066-0.002-0.133-0.003-0.199-0.003
    c-4.275,0-8.919,4.533-11.074,6.928c0.023,0.071,0.043,0.15,0.054,0.235c0.03,0.22,0.028,0.404,0.003,0.564l7.47,5.95
    C53.627,106.952,52.885,105.771,53.841,103.807z"/>
<path fill="none" d="M66.462,114.617c-2.887-1.78-3.682-2.695-4.078-3.332l-3.319,1.776l-0.409,4.498
    c0.57,0.239,1.12,0.556,1.736,1.077c0.163,0.14,0.331,0.295,0.507,0.457c0.817,0.753,1.662,1.532,2.797,1.532
    c0.109,0,0.222-0.008,0.335-0.022c1.164-0.154,4.114-1.756,6.181-3.005C69.606,116.931,68.448,115.842,66.462,114.617z"/>
<path fill="none" d="M62.874,98.111c0.312,0.341,0.453,0.776,0.41,1.262c-0.069,0.751,0.326,1.582,0.488,1.846
    c0.035,0.057,0.066,0.114,0.099,0.174c0.118,0.215,0.252,0.459,1.112,1.049c0.316,0.216,0.688,0.478,1.081,0.754
    c0.856,0.604,1.885,1.328,2.59,1.75l2.33-1.34c0.003-0.047,0.007-0.096,0.012-0.149c0.013-0.146,0.05-0.271,0.098-0.381
    c-1.767-2.926-5.698-8.542-10.1-9.03l-0.333,3.348h0.006C61.71,97.393,62.432,97.628,62.874,98.111z"/>
<path fill="none" d="M59.958,108.651c-0.084-0.04-0.222-0.07-0.41-0.092l-0.102,0.96l1.047-0.54
    C60.311,108.847,60.125,108.732,59.958,108.651z"/>
<path fill="none" d="M72.46,105.987l-0.942,0.548c0.029,0.009,0.059,0.019,0.089,0.026c0.157,0.045,0.277,0.068,0.357,0.068
    c0.114,0,0.248-0.068,0.63-0.277c0.147-0.08,0.314-0.172,0.511-0.272c-0.018-0.001-0.036-0.003-0.054-0.004l-0.109-0.01
    C72.776,106.053,72.623,106.035,72.46,105.987z"/>
<path fill="#FFFFFF" d="M122.312,111.112c3.755,0,6.048-1.781,6.048-1.781c-8.237-2.332-10.335-7.49-10.335-7.49
    c-1.268-2.923-2.78-3.851-4.19-3.851c-2.459,0-4.606,2.821-4.606,2.821c-6.577,7.823,1.813,17.728,1.646,17.922
    c-0.705,0.829-0.923,2.201,0.164,3.501c0.896,1.074,2.258,1.196,2.83,1.196c0.169,0,0.269-0.011,0.269-0.011
    c5.73,6.768-0.933,6.875-1.36,6.875c-0.015,0-0.021,0-0.021,0c-0.125,0.007-0.25,0.01-0.374,0.01
    c-6.938,0-12.937-9.841-12.937-9.841c-4.455-6.718-0.204-8.818,1.333-9.324c1.744-0.575,2.346-2.201,2.346-2.201
    c1.284-3.035-1.389-5.817-1.389-5.817c-0.825-0.898-0.486-1.152,0.159-1.152c0.839,0,2.198,0.429,2.198,0.429
    c2.252-3.407-1.251-7.349-1.251-7.349c5.896-5.882,3.278-9.554,3.278-9.554c-2.003-1.081-3.509-1.411-4.6-1.411
    c-1.711,0-2.404,0.811-2.404,0.811c-0.141-0.87-0.285-1.683-1.546-2.537c-0.257-0.174-0.493-0.25-0.711-0.25
    c-0.852,0-1.441,1.14-2.035,1.99c-0.459,0.658-0.721,0.902-1.066,0.902c-0.261,0-0.569-0.139-1.046-0.345
    c-1.324-0.573-2.31-0.757-3.027-0.757c-1.286,0-1.719,0.589-1.719,0.589c-0.568,0.576-1.399,0.764-2.244,0.764
    c-1.606,0-3.264-0.682-3.264-0.682c-0.242-0.108-0.446-0.152-0.619-0.152c-0.783,0-0.9,0.915-0.9,0.915
    c-0.371,3.375,0.678,6.894,0.678,6.894c1.166-0.21,2.15-0.298,2.981-0.298c3.779,0,4.39,1.818,4.48,2.247
    c-0.23-0.108-0.879-0.338-2.278-0.338c-1.184,0-2.904,0.164-5.364,0.704c-1.092,0.24-1.968,0.339-2.667,0.339
    c-3.321,0-2.699-2.232-2.699-2.232l0.044-0.327c-1.699,0.11-1.291,1.801-1.082,2.173c0.488,0.876,1.53,1.518,3.398,1.518
    c0.723,0,1.57-0.096,2.557-0.312c1.608-0.352,3.012-0.471,4.171-0.471c2.004,0,3.283,0.354,3.647,0.471l-0.027,0.131
    c-0.63,0.861-6.149,1.733-6.149,1.733c-0.803,3.223,2.189,3.79,4.396,3.79c1.198,0,2.164-0.167,2.164-0.167
    c-0.017,1.83-1.366,3.239-2.775,3.239c-0.384,0-0.771-0.104-1.138-0.333c0,0-1.723-0.993-3.264-0.994
    c-0.646,0-1.262,0.176-1.703,0.674c0,0,2.409,1.685,1.886,2.749c-0.09,0.188-0.122,0.558-0.948,1.061
    c-0.576,0.35-1.027,0.49-1.478,0.49c-0.623,0-1.243-0.271-2.187-0.634c-1.16-0.447-2.021-0.901-2.867-0.901
    c-0.338,0-0.674,0.072-1.026,0.247c-0.917,0.456-1.229,0.737-1.725,0.737c-0.169,0-0.359-0.032-0.603-0.102
    c-0.586-0.169-1.113-0.471-1.705-0.835l2.762-1.603c0.284,0.195,0.402,0.177,0.718,0.207c0.035,0.003,0.07,0.005,0.104,0.005
    c0.661,0,1.235-0.583,1.31-1.344c0.073-0.804-0.436-1.508-1.141-1.578c-0.025-0.001-0.051-0.002-0.076-0.002
    c-0.062,0-0.125,0.004-0.188,0.011c-3.283-9.655-10.715-12.307-12.592-12.833l0.094-0.946l0.345,0.02
    c0.044,0.004,0.086,0.006,0.127,0.006c1.181,0,1.118-1.67,1.118-1.67c-0.145-2.141-1.739-4.269-1.747-4.281
    c-0.013,0.012-1.974,1.808-2.514,3.883c0,0-0.397,1.741,0.914,1.866l0.29,0.038l-0.087,0.996
    c-2.281,0.245-9.681,1.704-14.509,10.243c-0.067-0.021-0.136-0.038-0.206-0.046c-0.036-0.003-0.071-0.005-0.106-0.005
    c-0.659,0-1.236,0.579-1.305,1.341c-0.075,0.805,0.434,1.511,1.139,1.577c0.041,0.004,0.082,0.005,0.122,0.005
    c0.112,0,0.222-0.011,0.328-0.011c0.131,0,0.257,0.017,0.373,0.091l12.154,9.833l-0.51,5.431c-0.024-0.005-0.045-0.011-0.068-0.019
    c-0.129-0.037-0.257-0.054-0.383-0.054c-1.319,0-2.444,1.876-2.844,2.608c-0.436,0.798-1.547,1.723-0.613,3.063
    c0.932,1.332,0.623,2.924,0.623,2.924c0.037,1.772,1.4,2.137,2.337,2.182l-0.567,6.386l0.98,0.091l0.651-6.567
    c3.193-0.76,6.284-0.877,6.284-0.877c1.194-0.071,3.001-0.198,5.119-0.236c0.81,2.011-0.247,3.694-0.247,3.694
    c2.138-0.428,3.575-3.367,4.035-4.438c0.429-0.42,0.848-1.008,1.713-1.779c1.265-1.123,2.063-1.4,2.828-1.4
    c0.377,0,0.745,0.067,1.157,0.134c1.246,0.201,4.683,2.501,6.504,3.257c1.822,0.755,3.233,0.553,7.602,1.593
    c4.372,1.044,2.82,3.944,2.82,3.944c-0.265-0.003-0.529-0.004-0.789-0.004c-16.125-0.001-20.876,5.426-20.876,5.426
    c-7.496,0.776-8.31,5.601-8.31,5.601c0.563-0.159,1.136-0.224,1.69-0.224c2.166,0,4.057,0.979,4.081,1.095
    c0.18,0.778,0.246,1.841,2.151,3.668c1.901,1.821,3.04,2.565,3.04,2.565l-1.876,2.106c-1.614,1.51-2.71,2.047-3.452,2.047
    c-1.832,0-1.51-3.271-1.51-3.271c0.661-3.628-1.121-3.704-1.121-3.704l-1.172,2.055c-0.833-2.997-2.569-3.687-3.989-3.687
    c-1.21,0-2.191,0.5-2.191,0.5c2.509,0.943,1.213,3.401,1.213,3.401c-1.004-0.396-1.956-0.554-2.834-0.554
    c-3.406,0-5.713,2.367-5.713,2.367c3.788,0.148,6.846,4.656,6.846,4.656c-3.838,1.595-4.269,5.347-4.269,5.347
    c1.962-0.283,3.118-0.607,4.665-0.607c0.629,0,1.323,0.054,2.162,0.186c3.654,0.575,6.15,2.346,6.15,2.346
    c1.131,0.748,2.028,1.021,2.735,1.021c1.904,0,2.432-1.977,2.432-1.977c0.424-1.777,2.229-2.58,2.229-2.58
    c1.24-0.723,5.097-1.396,5.097-1.396c6.918-1.496,5.344-9.43,5.344-9.43c0.433-0.25,0.861-0.343,1.262-0.343
    c1.198,0,2.137,0.839,2.137,0.839c0.909-2.502-2.618-4.422-2.618-4.422c-1.497-1.114-1.099-3.688,0.205-4.537
    c1.418-0.926,6.186-1.34,6.186-1.34c1.672,2.578,4.194,2.115,3.654,4.671c0,0-2.276,4.618-0.046,6.099c0,0,1.471-2.086,3.731-2.086
    c0.279,0,0.57,0.032,0.872,0.104c6.064,1.511,5.824,4.523,5.824,4.523c-0.112,1.84-0.897,2.369-1.7,2.369
    c-0.721,0-1.454-0.427-1.728-0.713c-0.028-0.025-0.054-0.056-0.082-0.082c0,0-2.24-2.235-5.739-2.235
    c-0.142,0-0.284,0.003-0.43,0.011c0,0,2.967,2.567,0.974,3.031c-4.176,0.568-5.025,5.197-5.025,5.197
    c1.223-0.839,2.715-1.066,3.974-1.066c1.49,0,2.653,0.319,2.653,0.319c-2.147,2.067-0.021,6.512-0.021,6.512
    c0.475-0.193,3.136-4.545,5.129-5.507c0.472-0.229,0.895-0.301,1.239-0.301c0.574,0,0.93,0.199,0.93,0.199
    c1.611,0.763,0.651,2.711,0.651,2.711c0.113,0.005,0.224,0.008,0.33,0.008c3.189,0,3.546-2.278,3.546-2.278
    c0.262-1.77,0.692-2.33,0.692-2.33c0.479,0.321,0.89,0.451,1.239,0.451c1.414,0,1.838-2.11,1.838-2.11
    c0.653-1.76,1.683-1.855,1.683-1.855c-1.074-0.9-0.088-2.923-0.088-2.923c0.987-1.89,0.118-3.048,0.118-3.048
    c-1.811-2.047-1.242-3.351-1.242-3.351c1.493-7.136-2.297-7.299-2.297-7.299c-0.866,2.253-1.888,2.951-2.821,2.951
    c-1.522,0-2.811-1.86-2.811-1.86c-1.236-1.592-0.804-6.059-0.804-6.059c1.409,0.229,2.655,0.319,3.742,0.319
    c3.898,0,5.742-1.156,5.742-1.156c4.051-2.132,2.037-5.864,2.037-5.864c-1.125-2.207-2.976-4.215-2.976-4.215
    c1.221,0.243,2.311,0.349,3.281,0.349c6.229,0,7.567-4.339,7.567-4.339c-0.671,0.494-1.728,0.783-3.048,0.783
    c-1.733,0-3.923-0.499-6.292-1.693c-1.222-0.617-2.236-0.81-3.025-0.81c-1.293,0-1.979,0.516-1.979,0.516
    c-0.738-0.84-2.225-4.378-3.291-7.585c-1.064-3.211,1.589-3.889,1.589-3.889C115.416,109.985,119.326,111.112,122.312,111.112z
     M60.189,93.123c0.064-0.002,0.129-0.003,0.194-0.003c5.281,0,9.818,6.651,11.755,9.97c-0.072,0.158-0.238,0.255-0.255,0.444
    c-0.028,0.293-0.004,0.277,0.108,0.52l-3.331,1.916c-0.97-0.487-2.979-1.971-4.181-2.793c-1.203-0.823-1.268-1.161-1.471-1.497
    c-0.205-0.333-0.707-1.367-0.613-2.388c0.082-0.925-1.146-1.008-1.729-1.008c-0.06,0-0.111,0.001-0.155,0.002
    c-0.008,0-0.017,0-0.025,0c-0.19,0-0.472-0.052-0.797-0.124L60.189,93.123z M60.34,107.847c0.58,0.276,1.271,0.834,1.67,1.353
    l-3.625,1.871l0.365-3.437C59.393,107.634,59.968,107.67,60.34,107.847z M57.117,110.996l-11.627-9.261
    c0.172-0.221,0.27-0.323,0.217-0.703c-0.027-0.205-0.192-0.311-0.242-0.493c2.338-2.688,7.335-7.684,12.145-7.685
    c0.39,0,0.778,0.033,1.164,0.103l-0.432,4.89c-0.133-0.026-0.258-0.056-0.383-0.078c-0.194-0.039-0.386-0.056-0.573-0.056
    c-0.727,0-1.389,0.255-1.841,0.501c-0.565,0.305-0.216,0.87-0.216,0.87c0.693,0.821-0.287,1.763-0.287,1.763
    c-1.143,0.999-0.663,1.734-0.663,1.734c0.763,0.957,0.264,1.616,0.264,1.616c-0.938,1.926,0.197,2.738,0.197,2.738
    c0.552,0.598,1.582,0.691,2.633,0.693L57.117,110.996z M64.148,121.487c-0.155,0.021-0.306,0.029-0.452,0.029
    c-1.771,0-2.932-1.387-3.884-2.203c-0.717-0.605-1.319-0.895-2.105-1.155l0.514-5.656l4.283-2.292
    c0.028-0.02,0.059-0.028,0.089-0.028c0.143,0,0.288,0.18,0.288,0.18c0.348,0.578,0.502,1.31,4.049,3.497
    c3.545,2.186,4.601,3.975,4.601,3.975S66.176,121.218,64.148,121.487z"/>
<path fill="#B4975A" d="M60.148,108.249c-0.232-0.11-0.618-0.15-0.998-0.163l-0.235,2.209l2.375-1.227
    C60.948,108.737,60.519,108.426,60.148,108.249z M59.548,108.56c0.188,0.021,0.325,0.052,0.41,0.092
    c0.168,0.081,0.353,0.195,0.535,0.328l-1.047,0.54L59.548,108.56z"/>
<path fill="#B4975A" d="M57.609,92.854c-4.809,0-9.807,4.997-12.145,7.685c0.05,0.183,0.215,0.288,0.242,0.493
    c0.053,0.38-0.045,0.482-0.217,0.703l11.627,9.261l0.355-3.367c-1.051-0.002-2.081-0.096-2.633-0.693c0,0-1.135-0.812-0.197-2.738
    c0,0,0.499-0.659-0.264-1.616c0,0-0.479-0.735,0.663-1.734c0,0,0.98-0.941,0.287-1.763c0,0-0.35-0.565,0.216-0.87
    c0.452-0.246,1.114-0.501,1.841-0.501c0.188,0,0.379,0.017,0.573,0.056c0.125,0.022,0.25,0.052,0.383,0.078l0.432-4.89
    C58.388,92.887,57.999,92.854,57.609,92.854z M57.537,96.825c-0.05-0.002-0.101-0.003-0.151-0.003c-0.949,0-1.757,0.332-2.267,0.609
    c-0.48,0.259-0.667,0.635-0.74,0.905c-0.161,0.602,0.132,1.119,0.192,1.217c0.023,0.037,0.049,0.073,0.077,0.106
    c0.123,0.146-0.17,0.484-0.222,0.542c-1.33,1.183-1.126,2.356-0.794,2.867c0.015,0.023,0.032,0.046,0.049,0.068
    c0.217,0.271,0.245,0.46,0.225,0.547c-0.046,0.046-0.023,0.038-0.065,0.123c-0.957,1.965-0.214,3.146,0.222,3.617l-7.47-5.95
    c0.025-0.16,0.027-0.345-0.003-0.564c-0.011-0.085-0.031-0.164-0.054-0.235c2.154-2.395,6.798-6.928,11.074-6.928
    c0.066,0,0.133,0.001,0.199,0.003L57.537,96.825z M56.486,108.481l-0.085,0.805l-1.553-1.236
    C55.331,108.309,55.896,108.429,56.486,108.481z"/>
<path fill="#B4975A" d="M71.884,103.534c0.017-0.189,0.183-0.286,0.255-0.444c-1.938-3.318-6.475-9.97-11.755-9.97
    c-0.064,0-0.129,0.001-0.194,0.003l-0.5,5.04c0.325,0.072,0.607,0.124,0.797,0.124c0.008,0,0.017,0,0.025,0
    c0.044-0.001,0.096-0.002,0.155-0.002c0.583,0,1.812,0.083,1.729,1.008c-0.094,1.021,0.408,2.055,0.613,2.388
    c0.203,0.336,0.268,0.674,1.471,1.497c1.202,0.822,3.211,2.306,4.181,2.793l3.331-1.916
    C71.88,103.812,71.855,103.827,71.884,103.534z M63.871,101.393c-0.032-0.06-0.063-0.117-0.099-0.174
    c-0.162-0.264-0.558-1.095-0.488-1.846c0.043-0.485-0.099-0.921-0.41-1.262c-0.442-0.483-1.164-0.718-2.207-0.718h-0.006
    l0.333-3.348c4.401,0.487,8.333,6.104,10.1,9.03c-0.048,0.109-0.085,0.235-0.098,0.381c-0.005,0.054-0.009,0.103-0.012,0.149
    l-2.33,1.34c-0.705-0.422-1.733-1.146-2.59-1.75c-0.394-0.276-0.765-0.538-1.081-0.754
    C64.123,101.852,63.989,101.607,63.871,101.393z"/>
<path fill="#B4975A" d="M66.93,113.858c-3.547-2.188-3.701-2.919-4.049-3.497c0,0-0.146-0.18-0.288-0.18
    c-0.03,0-0.061,0.009-0.089,0.028l-4.283,2.292l-0.514,5.656c0.786,0.261,1.389,0.55,2.105,1.155
    c0.952,0.816,2.113,2.203,3.884,2.203c0.146,0,0.297-0.009,0.452-0.029c2.027-0.27,7.382-3.654,7.382-3.654
    S70.475,116.044,66.93,113.858z M63.696,120.626c-1.135,0-1.979-0.779-2.797-1.532c-0.176-0.162-0.344-0.317-0.507-0.457
    c-0.617-0.521-1.167-0.838-1.736-1.077l0.409-4.498l3.319-1.776c0.396,0.637,1.191,1.552,4.078,3.332
    c1.986,1.225,3.145,2.313,3.75,2.981c-2.066,1.249-5.017,2.851-6.181,3.005C63.918,120.618,63.806,120.626,63.696,120.626z"/>
<path fill="#B4975A" d="M110.831,106.988c3.778,3.328,7.638,5.015,11.481,5.015c4.014,0,6.491-1.888,6.595-1.968
    c0.266-0.206,0.393-0.544,0.328-0.874s-0.309-0.596-0.632-0.688c-7.729-2.188-9.733-6.921-9.753-6.969
    c-1.271-2.93-2.956-4.406-5.016-4.407c-2.867,0-5.217,3.042-5.315,3.172c-5.019,5.968-2.088,13.28,1.259,18.357
    c0.016,0.022,0.03,0.045,0.045,0.067c-0.618,1.114-0.666,2.677,0.532,4.109c1.066,1.28,2.62,1.492,3.37,1.514
    c1.464,1.806,2.096,3.268,1.736,4.042c-0.396,0.855-2.072,1.042-2.685,1.042c-0.016,0-0.052,0.001-0.067,0.002
    c-0.109,0.005-0.219,0.008-0.328,0.008c-6.353,0-12.118-9.319-12.176-9.413c-1.591-2.401-2.164-4.402-1.674-5.816
    c0.466-1.342,1.781-1.953,2.524-2.197c2.128-0.702,2.873-2.655,2.903-2.738c1.162-2.745-0.396-5.254-1.182-6.271
    c0.437,0.091,0.862,0.212,1.046,0.27c0.089,0.028,0.18,0.042,0.269,0.042c0.293,0,0.575-0.146,0.743-0.4
    c2.036-3.08,0.169-6.395-0.815-7.775c5.64-6.024,2.946-9.966,2.825-10.136c-0.079-0.111-0.183-0.202-0.303-0.267
    c-1.866-1.007-3.556-1.518-5.022-1.518c-0.759,0-1.364,0.136-1.829,0.315c-0.244-0.612-0.694-1.26-1.621-1.888
    c-0.395-0.268-0.802-0.403-1.211-0.403c-1.193,0-1.912,1.087-2.49,1.961c-0.093,0.14-0.184,0.278-0.275,0.41
    c-0.215,0.307-0.335,0.445-0.397,0.506c-0.122-0.038-0.353-0.137-0.56-0.227l-0.071-0.031c-1.272-0.55-2.41-0.83-3.381-0.83
    c-1.468,0-2.157,0.625-2.376,0.876c-0.329,0.316-0.863,0.476-1.587,0.476c-1.403,0-2.91-0.609-2.926-0.615
    c-0.317-0.142-0.647-0.219-0.957-0.219c-1.077,0-1.68,0.877-1.784,1.693c-0.389,3.53,0.662,7.111,0.707,7.261
    c0.114,0.383,0.467,0.637,0.854,0.637c0.053,0,0.105-0.005,0.159-0.015c1.046-0.188,1.995-0.284,2.823-0.284
    c0.626,0,1.144,0.053,1.572,0.14c-1.379,0.057-3.032,0.296-4.926,0.711c-0.961,0.211-1.794,0.318-2.476,0.318
    c-0.869,0-1.48-0.174-1.72-0.49c-0.194-0.255-0.122-0.608-0.121-0.611c0.012-0.04,0.02-0.08,0.025-0.121l0.044-0.327
    c0.035-0.265-0.05-0.532-0.232-0.727c-0.169-0.181-0.405-0.283-0.651-0.283c-0.02,0-0.038,0-0.058,0.001
    c-1.091,0.071-1.609,0.621-1.853,1.069c-0.471,0.867-0.219,1.95,0.051,2.43c0.5,0.898,1.632,1.973,4.176,1.973
    c0.814,0,1.738-0.112,2.747-0.333c1.365-0.298,2.704-0.45,3.98-0.45c0.082,0,0.163,0,0.243,0.002
    c-0.921,0.21-1.956,0.41-2.911,0.561c-0.354,0.056-0.64,0.318-0.727,0.665c-0.325,1.308-0.156,2.399,0.504,3.244
    c0.857,1.098,2.458,1.653,4.758,1.653c0.386,0,0.749-0.017,1.068-0.039c-0.338,0.815-1.038,1.328-1.68,1.328
    c-0.231,0-0.456-0.066-0.666-0.197c-0.105-0.062-1.977-1.129-3.735-1.129c-0.986,0-1.806,0.336-2.37,0.974
    c-0.168,0.189-0.247,0.442-0.218,0.694c0.029,0.253,0.165,0.48,0.373,0.626c0.763,0.536,1.526,1.347,1.578,1.669
    c-0.019,0.041-0.035,0.082-0.052,0.127c-0.041,0.106-0.096,0.252-0.541,0.522c-0.523,0.318-0.806,0.361-1.014,0.361
    c-0.387,0-0.854-0.183-1.562-0.457l-0.304-0.118c-0.254-0.098-0.494-0.196-0.723-0.29c-0.876-0.36-1.633-0.671-2.465-0.671
    c-0.069,0-0.138,0.002-0.206,0.007c0.507-0.386,0.858-0.999,0.928-1.715c0.108-1.183-0.611-2.239-1.645-2.5
    c-2.913-7.972-8.541-11.177-11.575-12.366c0.084-0.062,0.162-0.13,0.236-0.208c0.688-0.713,0.682-1.824,0.674-2.04
    c-0.151-2.246-1.619-4.364-1.912-4.766c-0.142-0.199-0.359-0.332-0.604-0.365c-0.041-0.005-0.082-0.008-0.122-0.008
    c-0.222,0-0.438,0.083-0.604,0.235c-0.222,0.204-2.186,2.06-2.773,4.314c-0.057,0.247-0.277,1.391,0.325,2.226
    c0.059,0.082,0.124,0.158,0.194,0.227c-3.126,0.629-9.241,2.765-13.536,9.981c-1.043,0.093-1.914,1.001-2.017,2.145
    c-0.121,1.29,0.751,2.433,1.943,2.545c0.07,0.006,0.138,0.009,0.205,0.009c0.072,0,0.143-0.003,0.212-0.007
    c0.021-0.001,0.042-0.002,0.062-0.003l11.648,9.424l-0.385,4.102c-1.441,0.222-2.563,1.749-3.271,3.046
    c-0.073,0.135-0.171,0.272-0.272,0.418c-0.485,0.699-1.39,2.002-0.29,3.582c0.697,0.996,0.482,2.232,0.479,2.244
    c-0.012,0.062-0.018,0.125-0.016,0.188c0.032,1.513,0.861,2.557,2.266,2.919l-0.493,5.551c-0.043,0.489,0.316,0.921,0.806,0.967
    l0.98,0.091c0.028,0.002,0.056,0.004,0.083,0.004c0.453,0,0.84-0.344,0.886-0.804l0.588-5.928c2.846-0.607,5.466-0.713,5.495-0.714
    l0.563-0.034c1.011-0.062,2.347-0.146,3.868-0.187c0.265,1.278-0.323,2.272-0.353,2.32c-0.183,0.302-0.172,0.688,0.031,0.977
    c0.169,0.241,0.442,0.383,0.729,0.383c0.058,0,0.115-0.006,0.173-0.018c2.423-0.484,3.99-3.405,4.611-4.805
    c0.126-0.131,0.254-0.275,0.395-0.434c0.302-0.342,0.645-0.729,1.16-1.188c1.162-1.031,1.761-1.174,2.235-1.174
    c0.266,0,0.555,0.047,0.888,0.102l0.128,0.021c0.562,0.091,2.09,0.95,3.318,1.642c1.064,0.599,2.166,1.219,2.985,1.559
    c1.068,0.442,1.991,0.584,3.269,0.78c1.095,0.168,2.457,0.377,4.469,0.856c1.217,0.29,2.007,0.76,2.283,1.355
    c0.134,0.289,0.135,0.587,0.098,0.826c-0.048,0-0.096,0-0.144,0c-14.501,0-20.072,4.328-21.286,5.467
    c-7.786,0.939-8.741,6.082-8.778,6.303c-0.051,0.302,0.057,0.607,0.283,0.812c0.166,0.149,0.379,0.229,0.596,0.229
    c0.081,0,0.162-0.012,0.242-0.034c0.446-0.125,0.934-0.189,1.448-0.189c1.414,0,2.744,0.488,3.287,0.752
    c0.177,0.817,0.509,2.018,2.328,3.763c1,0.957,1.798,1.628,2.343,2.058l-1.2,1.348c-1.723,1.605-2.541,1.779-2.813,1.779
    c-0.134,0-0.195-0.039-0.256-0.105c-0.364-0.402-0.42-1.58-0.37-2.154c0.316-1.77,0.143-3.086-0.518-3.913
    c-0.583-0.729-1.31-0.797-1.449-0.803c-0.013,0-0.025-0.001-0.038-0.001c-0.319,0-0.615,0.171-0.774,0.45l-0.26,0.455
    c-1.205-2.165-3.022-2.537-4.127-2.537c-1.408,0-2.548,0.573-2.596,0.598c-0.314,0.16-0.505,0.491-0.485,0.844
    c0.02,0.353,0.246,0.66,0.577,0.784c0.481,0.182,0.774,0.426,0.896,0.747c0.082,0.217,0.085,0.462,0.055,0.688
    c-0.747-0.207-1.503-0.312-2.259-0.312c-3.739,0-6.247,2.529-6.352,2.637c-0.246,0.252-0.32,0.625-0.189,0.952
    c0.13,0.327,0.441,0.547,0.793,0.561c2.374,0.093,4.498,2.239,5.512,3.451c-3.333,1.949-3.768,5.4-3.786,5.56
    c-0.031,0.274,0.066,0.548,0.265,0.741c0.167,0.162,0.391,0.252,0.621,0.252c0.042,0,0.085-0.003,0.127-0.01
    c0.627-0.09,1.174-0.185,1.677-0.272c1.049-0.182,1.878-0.325,2.861-0.325c0.614,0,1.275,0.058,2.024,0.175
    c3.385,0.532,5.75,2.176,5.773,2.192c1.195,0.792,2.28,1.185,3.25,1.185c2.048,0,3.049-1.725,3.293-2.638
    c0.318-1.335,1.721-1.99,1.734-1.997c0.026-0.012,0.058-0.027,0.082-0.042c0.804-0.468,3.371-1.038,4.802-1.288
    c5.714-1.235,6.562-6.538,6.182-9.736c0.088-0.016,0.179-0.023,0.271-0.023c0.83,0,1.54,0.61,1.547,0.616
    c0.165,0.144,0.375,0.221,0.59,0.221c0.073,0,0.147-0.009,0.221-0.027c0.284-0.074,0.517-0.281,0.617-0.557
    c1.091-3.002-2.41-5.154-2.963-5.472c-0.513-0.41-0.571-1.061-0.561-1.416c0.021-0.683,0.333-1.353,0.759-1.629
    c0.816-0.533,3.476-0.963,5.271-1.15c0.736,0.95,1.571,1.488,2.203,1.896c0.964,0.621,1.172,0.783,1.027,1.553
    c-0.425,0.897-2.354,5.357,0.312,7.127c0.151,0.101,0.323,0.149,0.492,0.149c0.28,0,0.556-0.132,0.729-0.378
    c0.01-0.015,1.246-1.708,3.003-1.708c0.22,0,0.444,0.026,0.667,0.079c5.121,1.276,5.14,3.588,5.14,3.611
    c-0.062,1.007-0.335,1.522-0.811,1.522c-0.461,0-0.968-0.316-1.082-0.437c-0.017-0.017-0.033-0.033-0.051-0.049
    c-0.019-0.021-0.044-0.046-0.069-0.07c-0.08-0.08-2.523-2.475-6.347-2.475c-0.156,0-0.315,0.004-0.477,0.013
    c-0.362,0.019-0.678,0.256-0.796,0.6s-0.016,0.726,0.259,0.964c0.554,0.48,1.1,1.125,1.287,1.496
    c-4.632,0.732-5.593,5.685-5.632,5.897c-0.064,0.354,0.09,0.713,0.392,0.909c0.147,0.096,0.316,0.144,0.485,0.144
    c0.177,0,0.353-0.053,0.504-0.156c0.88-0.604,2.048-0.91,3.47-0.91c0.424,0,0.821,0.028,1.166,0.067
    c-1.066,2.579,0.58,6.083,0.663,6.257c0.152,0.318,0.471,0.507,0.804,0.507c0.112,0,0.227-0.021,0.336-0.066
    c0.37-0.15,0.634-0.482,1.492-1.613c0.958-1.261,2.561-3.372,3.688-3.916c0.291-0.142,0.576-0.213,0.852-0.213
    c0.313,0,0.505,0.093,0.513,0.097c0.298,0.142,0.376,0.282,0.414,0.392c0.139,0.389-0.065,0.97-0.147,1.143
    c-0.129,0.27-0.115,0.588,0.038,0.844s0.424,0.421,0.722,0.436c0.128,0.006,0.252,0.009,0.372,0.009
    c3.126,0,4.263-1.983,4.427-3.032c0.08-0.543,0.176-0.954,0.265-1.255c0.267,0.086,0.529,0.129,0.786,0.129
    c1.652,0,2.462-1.692,2.695-2.749c0.37-0.958,0.828-1.179,0.938-1.22c0,0,0.001,0,0.002,0c0.364,0,0.643-0.225,0.774-0.57
    c0.137-0.355-0.024-0.756-0.316-1c-0.377-0.316-0.089-1.378,0.141-1.85c0.974-1.862,0.479-3.376,0.03-3.974
    c-0.015-0.019-0.029-0.037-0.045-0.056c-1.35-1.525-1.081-2.434-1.078-2.442c0.024-0.056,0.028-0.075,0.04-0.135
    c0.666-3.18,0.426-5.534-0.712-6.998c-0.992-1.277-2.275-1.368-2.419-1.374c-0.013,0-0.025-0.001-0.038-0.001
    c-0.367,0-0.699,0.227-0.832,0.571c-0.342,0.889-1.055,2.38-1.989,2.38c-0.797,0-1.744-0.994-2.078-1.477
    c-0.636-0.821-0.77-2.926-0.71-4.531c1.006,0.127,1.983,0.191,2.916,0.191c3.856,0,5.877-1.093,6.179-1.271
    c1.454-0.771,2.393-1.82,2.788-3.119c0.616-2.021-0.361-3.868-0.403-3.945c-0.482-0.948-1.09-1.855-1.639-2.597
    c0.396,0.029,0.783,0.045,1.16,0.045c6.401,0,8.152-4.212,8.392-4.885c0.045-0.106,0.069-0.223,0.069-0.346
    c0-0.492-0.396-0.892-0.889-0.892h-0.005c-0.2,0-0.386,0.066-0.534,0.179c-0.528,0.385-1.443,0.605-2.514,0.605
    c-1.753,0-3.846-0.568-5.891-1.599c-1.188-0.601-2.341-0.904-3.427-0.904c-0.696,0-1.256,0.126-1.67,0.271
    c-0.663-1.172-1.771-3.774-2.755-6.731c-0.271-0.82-0.275-1.481-0.012-1.965C110.402,107.301,110.633,107.109,110.831,106.988z
     M109.412,109.831c1.066,3.207,2.553,6.745,3.291,7.585c0,0,0.687-0.516,1.979-0.516c0.789,0,1.804,0.192,3.025,0.81
    c2.369,1.194,4.559,1.693,6.292,1.693c1.32,0,2.377-0.289,3.048-0.783c0,0-1.338,4.339-7.567,4.339
    c-0.971,0-2.061-0.105-3.281-0.349c0,0,1.851,2.008,2.976,4.215c0,0,2.014,3.732-2.037,5.864c0,0-1.844,1.156-5.742,1.156
    c-1.087,0-2.333-0.09-3.742-0.319c0,0-0.433,4.467,0.804,6.059c0,0,1.288,1.86,2.811,1.86c0.934,0,1.955-0.698,2.821-2.951
    c0,0,3.79,0.163,2.297,7.299c0,0-0.568,1.304,1.242,3.351c0,0,0.869,1.158-0.118,3.048c0,0-0.986,2.022,0.088,2.923
    c0,0-1.029,0.096-1.683,1.855c0,0-0.424,2.11-1.838,2.11c-0.35,0-0.761-0.13-1.239-0.451c0,0-0.431,0.561-0.692,2.33
    c0,0-0.356,2.278-3.546,2.278c-0.106,0-0.217-0.003-0.33-0.008c0,0,0.96-1.948-0.651-2.711c0,0-0.355-0.199-0.93-0.199
    c-0.345,0-0.768,0.071-1.239,0.301c-1.993,0.962-4.654,5.313-5.129,5.507c0,0-2.127-4.444,0.021-6.512c0,0-1.163-0.319-2.653-0.319
    c-1.259,0-2.751,0.228-3.974,1.066c0,0,0.85-4.629,5.025-5.197c1.993-0.464-0.974-3.031-0.974-3.031
    c0.146-0.008,0.288-0.011,0.43-0.011c3.499,0,5.739,2.235,5.739,2.235c0.028,0.026,0.054,0.057,0.082,0.082
    c0.273,0.286,1.007,0.713,1.728,0.713c0.803,0,1.588-0.529,1.7-2.369c0,0,0.24-3.013-5.824-4.523
    c-0.302-0.071-0.593-0.104-0.872-0.104c-2.261,0-3.731,2.086-3.731,2.086c-2.23-1.48,0.046-6.099,0.046-6.099
    c0.54-2.556-1.982-2.093-3.654-4.671c0,0-4.768,0.414-6.186,1.34c-1.304,0.849-1.702,3.423-0.205,4.537c0,0,3.527,1.92,2.618,4.422
    c0,0-0.938-0.839-2.137-0.839c-0.4,0-0.829,0.093-1.262,0.343c0,0,1.574,7.934-5.344,9.43c0,0-3.856,0.673-5.097,1.396
    c0,0-1.806,0.803-2.229,2.58c0,0-0.527,1.977-2.432,1.977c-0.707,0-1.604-0.273-2.735-1.021c0,0-2.496-1.771-6.15-2.346
    c-0.839-0.132-1.533-0.186-2.162-0.186c-1.547,0-2.703,0.324-4.665,0.607c0,0,0.431-3.752,4.269-5.347c0,0-3.058-4.508-6.846-4.656
    c0,0,2.307-2.367,5.713-2.367c0.878,0,1.831,0.157,2.834,0.554c0,0,1.296-2.458-1.213-3.401c0,0,0.981-0.5,2.191-0.5
    c1.42,0,3.156,0.689,3.989,3.687l1.172-2.055c0,0,1.782,0.076,1.121,3.704c0,0-0.322,3.271,1.51,3.271
    c0.742,0,1.838-0.537,3.452-2.047l1.876-2.106c0,0-1.139-0.744-3.04-2.565c-1.905-1.827-1.972-2.89-2.151-3.668
    c-0.024-0.116-1.915-1.095-4.081-1.095c-0.555,0-1.127,0.064-1.69,0.224c0,0,0.813-4.824,8.31-5.601c0,0,4.751-5.427,20.876-5.426
    c0.26,0,0.524,0.001,0.789,0.004c0,0,1.552-2.9-2.82-3.944c-4.368-1.04-5.779-0.838-7.602-1.593
    c-1.821-0.756-5.258-3.056-6.504-3.257c-0.412-0.066-0.78-0.134-1.157-0.134c-0.765,0-1.563,0.277-2.828,1.4
    c-0.865,0.771-1.284,1.359-1.713,1.779c-0.46,1.071-1.897,4.011-4.035,4.438c0,0,1.057-1.684,0.247-3.694
    c-2.118,0.038-3.925,0.165-5.119,0.236c0,0-3.091,0.117-6.284,0.877l-0.651,6.567l-0.98-0.091l0.567-6.386
    c-0.937-0.045-2.3-0.409-2.337-2.182c0,0,0.309-1.592-0.623-2.924c-0.934-1.341,0.178-2.266,0.613-3.063
    c0.399-0.732,1.524-2.608,2.844-2.608c0.126,0,0.254,0.017,0.383,0.054c0.023,0.008,0.044,0.014,0.068,0.019l0.51-5.431
    l-12.154-9.833c-0.116-0.074-0.241-0.091-0.373-0.091c-0.106,0-0.216,0.011-0.328,0.011c-0.04,0-0.081-0.001-0.122-0.005
    c-0.705-0.066-1.214-0.772-1.139-1.577c0.069-0.762,0.646-1.341,1.305-1.341c0.035,0,0.071,0.002,0.106,0.005
    c0.07,0.008,0.139,0.024,0.206,0.046c4.828-8.539,12.228-9.998,14.509-10.243l0.087-0.996l-0.29-0.038
    c-1.312-0.125-0.914-1.866-0.914-1.866c0.54-2.075,2.501-3.871,2.514-3.883c0.008,0.013,1.603,2.141,1.747,4.281
    c0,0,0.062,1.67-1.118,1.67c-0.041,0-0.083-0.002-0.127-0.006l-0.345-0.02l-0.094,0.946c1.877,0.526,9.309,3.178,12.592,12.833
    c0.063-0.007,0.126-0.011,0.188-0.011c0.025,0,0.051,0.001,0.076,0.002c0.705,0.07,1.214,0.774,1.141,1.578
    c-0.074,0.761-0.648,1.344-1.31,1.344c-0.034,0-0.069-0.002-0.104-0.005c-0.315-0.03-0.434-0.012-0.718-0.207l-2.762,1.603
    c0.592,0.364,1.119,0.666,1.705,0.835c0.243,0.069,0.434,0.102,0.603,0.102c0.496,0,0.808-0.281,1.725-0.737
    c0.353-0.175,0.688-0.247,1.026-0.247c0.847,0,1.707,0.454,2.867,0.901c0.943,0.363,1.563,0.634,2.187,0.634
    c0.45,0,0.901-0.141,1.478-0.49c0.826-0.503,0.858-0.873,0.948-1.061c0.523-1.064-1.886-2.749-1.886-2.749
    c0.441-0.498,1.057-0.674,1.703-0.674c1.541,0.001,3.264,0.994,3.264,0.994c0.366,0.229,0.754,0.333,1.138,0.333
    c1.409,0,2.759-1.409,2.775-3.239c0,0-0.966,0.167-2.164,0.167c-2.207,0-5.199-0.567-4.396-3.79c0,0,5.52-0.872,6.149-1.733
    l0.027-0.131c-0.364-0.116-1.644-0.471-3.647-0.471c-1.159,0-2.562,0.119-4.171,0.471C80,95.914,79.152,96.01,78.43,96.01
    c-1.868,0-2.91-0.642-3.398-1.518c-0.209-0.372-0.617-2.062,1.082-2.173l-0.044,0.327c0,0-0.622,2.232,2.699,2.232
    c0.699,0,1.575-0.1,2.667-0.339c2.46-0.54,4.181-0.704,5.364-0.704c1.399,0,2.048,0.229,2.278,0.338
    c-0.091-0.429-0.701-2.247-4.48-2.247c-0.831,0-1.815,0.088-2.981,0.298c0,0-1.049-3.519-0.678-6.894c0,0,0.117-0.915,0.9-0.915
    c0.173,0,0.377,0.044,0.619,0.152c0,0,1.657,0.682,3.264,0.682c0.845,0,1.676-0.188,2.244-0.764c0,0,0.433-0.589,1.719-0.589
    c0.718,0,1.703,0.184,3.027,0.757c0.477,0.206,0.785,0.345,1.046,0.345c0.346,0,0.607-0.244,1.066-0.902
    c0.594-0.85,1.184-1.99,2.035-1.99c0.218,0,0.454,0.075,0.711,0.25c1.261,0.854,1.405,1.667,1.546,2.537
    c0,0,0.693-0.811,2.404-0.811c1.091,0,2.597,0.33,4.6,1.411c0,0,2.618,3.672-3.278,9.554c0,0,3.503,3.941,1.251,7.349
    c0,0-1.359-0.429-2.198-0.429c-0.646,0-0.984,0.254-0.159,1.152c0,0,2.673,2.782,1.389,5.817c0,0-0.602,1.626-2.346,2.201
    c-1.537,0.506-5.788,2.606-1.333,9.324c0,0,5.999,9.841,12.937,9.841c0.124,0,0.249-0.003,0.374-0.01c0,0,0.007,0,0.021,0
    c0.428,0,7.091-0.107,1.36-6.875c0,0-0.1,0.011-0.269,0.011c-0.572,0-1.935-0.122-2.83-1.196c-1.087-1.3-0.869-2.672-0.164-3.501
    c0.167-0.194-8.224-10.099-1.646-17.922c0,0,2.147-2.821,4.606-2.821c1.41,0,2.923,0.928,4.19,3.851c0,0,2.098,5.158,10.335,7.49
    c0,0-2.293,1.781-6.048,1.781c-2.986,0-6.896-1.127-11.312-5.17C111.001,105.942,108.348,106.62,109.412,109.831z M73.104,106.08
    c-0.196,0.101-0.363,0.192-0.511,0.272c-0.382,0.209-0.516,0.277-0.63,0.277c-0.08,0-0.2-0.023-0.357-0.068
    c-0.03-0.008-0.06-0.018-0.089-0.026l0.942-0.548c0.163,0.048,0.316,0.065,0.481,0.079l0.109,0.01
    C73.068,106.077,73.087,106.079,73.104,106.08z"/>
<path fill="#B4975A" d="M58.385,111.07l3.625-1.871c-0.398-0.519-1.09-1.076-1.67-1.353c-0.372-0.177-0.947-0.213-1.59-0.213
    L58.385,111.07z M59.15,108.086c0.38,0.013,0.765,0.053,0.998,0.163c0.371,0.177,0.8,0.488,1.143,0.819l-2.375,1.227L59.15,108.086z
    "/>
</svg>